<svg width="48" height="49" viewBox="0 0 48 49" fill="none" xmlns="http://www.w3.org/2000/svg">
<rect y="0.00585938" width="48" height="48" rx="24" fill="#006191"/>
<path d="M18.1875 33.0059V18.9902H13.8281V33.0059H18.1875ZM15.9844 17.1152C17.3906 17.1152 18.5156 15.9434 18.5156 14.5371C18.5156 13.1777 17.3906 12.0527 15.9844 12.0527C14.625 12.0527 13.5 13.1777 13.5 14.5371C13.5 15.9434 14.625 17.1152 15.9844 17.1152ZM34.4531 33.0059H34.5V25.3184C34.5 21.5684 33.6562 18.6621 29.25 18.6621C27.1406 18.6621 25.7344 19.834 25.125 20.9121H25.0781V18.9902H20.9062V33.0059H25.2656V26.0684C25.2656 24.2402 25.5938 22.5059 27.8438 22.5059C30.0938 22.5059 30.1406 24.5684 30.1406 26.209V33.0059H34.4531Z" fill="white"/>
</svg>
