<svg width="20" height="24" viewBox="0 0 20 24" fill="none" xmlns="http://www.w3.org/2000/svg">
<path d="M19 10.0059C19 17.0059 10 23.0059 10 23.0059C10 23.0059 1 17.0059 1 10.0059C1 7.61891 1.94821 5.32973 3.63604 3.6419C5.32387 1.95407 7.61305 1.00586 10 1.00586C12.3869 1.00586 14.6761 1.95407 16.364 3.6419C18.0518 5.32973 19 7.61891 19 10.0059Z" stroke="#006191" stroke-width="1.5" stroke-linecap="round" stroke-linejoin="round"/>
<path d="M10 13.0059C11.6569 13.0059 13 11.6627 13 10.0059C13 8.34901 11.6569 7.00586 10 7.00586C8.34315 7.00586 7 8.34901 7 10.0059C7 11.6627 8.34315 13.0059 10 13.0059Z" stroke="#006191" stroke-width="1.5" stroke-linecap="round" stroke-linejoin="round"/>
</svg>
