<svg width="58" height="112" viewBox="0 0 58 112" fill="none" xmlns="http://www.w3.org/2000/svg">
<g filter="url(#filter0_b_331_5807)">
<path d="M8.88038 0L58 28.445L49.1196 33.5789L0 5.13397L8.88038 0Z" fill="url(#paint0_linear_331_5807)" fill-opacity="0.3"/>
<path d="M0 5.1333V105.87L8.88038 111.004V20.5352L40.2392 38.7123V72.43L49.1196 77.5639V33.5783L0 5.1333Z" fill="url(#paint1_linear_331_5807)" fill-opacity="0.3"/>
<path d="M49.1191 33.5797L57.9995 28.4457V82.6993L8.87988 111.006V20.5366L17.7603 25.6706V95.6036L49.1191 77.5653V33.5797Z" fill="url(#paint2_linear_331_5807)" fill-opacity="0.3"/>
<path d="M40.2392 72.4307L49.1196 77.5646L17.7607 95.6029V85.335L40.2392 72.4307Z" fill="url(#paint3_linear_331_5807)" fill-opacity="0.3"/>
</g>
<defs>
<filter id="filter0_b_331_5807" x="-11.9266" y="-11.9266" width="81.8533" height="134.859" filterUnits="userSpaceOnUse" color-interpolation-filters="sRGB">
<feFlood flood-opacity="0" result="BackgroundImageFix"/>
<feGaussianBlur in="BackgroundImage" stdDeviation="5.96332"/>
<feComposite in2="SourceAlpha" operator="in" result="effect1_backgroundBlur_331_5807"/>
<feBlend mode="normal" in="SourceGraphic" in2="effect1_backgroundBlur_331_5807" result="shape"/>
</filter>
<linearGradient id="paint0_linear_331_5807" x1="29" y1="0" x2="29" y2="33.5789" gradientUnits="userSpaceOnUse">
<stop stop-color="white"/>
<stop offset="1" stop-color="white" stop-opacity="0"/>
</linearGradient>
<linearGradient id="paint1_linear_331_5807" x1="24.5598" y1="5.1333" x2="24.5598" y2="111.004" gradientUnits="userSpaceOnUse">
<stop stop-color="white"/>
<stop offset="1" stop-color="white" stop-opacity="0"/>
</linearGradient>
<linearGradient id="paint2_linear_331_5807" x1="33.4397" y1="20.5366" x2="33.4397" y2="111.006" gradientUnits="userSpaceOnUse">
<stop stop-color="white"/>
<stop offset="1" stop-color="white" stop-opacity="0"/>
</linearGradient>
<linearGradient id="paint3_linear_331_5807" x1="33.4402" y1="72.4307" x2="33.4402" y2="95.6029" gradientUnits="userSpaceOnUse">
<stop stop-color="white"/>
<stop offset="1" stop-color="white" stop-opacity="0"/>
</linearGradient>
</defs>
</svg>
