<svg width="22" height="22" viewBox="0 0 22 22" fill="none" xmlns="http://www.w3.org/2000/svg">
<path d="M11 15.0059C13.2091 15.0059 15 13.215 15 11.0059C15 8.79672 13.2091 7.00586 11 7.00586C8.79086 7.00586 7 8.79672 7 11.0059C7 13.215 8.79086 15.0059 11 15.0059Z" stroke="currentColor" stroke-width="1.5" stroke-linecap="round" stroke-linejoin="round"/>
<path d="M15 7.00524V12.0052C15 12.8009 15.3161 13.564 15.8787 14.1266C16.4413 14.6892 17.2044 15.0052 18 15.0052C18.7957 15.0052 19.5587 14.6892 20.1213 14.1266C20.6839 13.564 21 12.8009 21 12.0052V11.0052C20.9999 8.74827 20.2362 6.55772 18.8333 4.78977C17.4303 3.02182 15.4706 1.78046 13.2726 1.26754C11.0747 0.754608 8.76794 1.00028 6.72736 1.96461C4.68677 2.92893 3.03241 4.55519 2.03327 6.57896C1.03413 8.60273 0.748975 10.905 1.22418 13.1114C1.69938 15.3177 2.90699 17.2985 4.65064 18.7315C6.39429 20.1645 8.57144 20.9656 10.8281 21.0044C13.0847 21.0432 15.2881 20.3175 17.08 18.9452" stroke="currentColor" stroke-width="1.5" stroke-linecap="round" stroke-linejoin="round"/>
</svg>
