<svg width="18" height="22" viewBox="0 0 18 22" fill="none" xmlns="http://www.w3.org/2000/svg">
<path d="M8.92611 10.1608C11.4558 10.1608 13.5065 8.1101 13.5065 5.58041C13.5065 3.05072 11.4558 1 8.92611 1C6.39642 1 4.3457 3.05072 4.3457 5.58041C4.3457 8.1101 6.39642 10.1608 8.92611 10.1608Z" stroke="#003C5A" stroke-width="1.5" stroke-miterlimit="10" stroke-linecap="round" stroke-linejoin="round"/>
<path d="M10.6877 10.1675H7.31087C3.7201 10.1675 0.804688 13.0829 0.804688 16.6737V21H17.1939V16.6737C17.1939 13.0762 14.2784 10.1675 10.6877 10.1675Z" stroke="#003C5A" stroke-width="1.5" stroke-miterlimit="10" stroke-linecap="round" stroke-linejoin="round"/>
<path d="M10.1493 10.1675H7.64844V12.6683H10.1493V10.1675Z" stroke="#003C5A" stroke-width="1.5" stroke-miterlimit="10" stroke-linecap="round" stroke-linejoin="round"/>
<path d="M10.1639 12.6683H8.90684H7.65642L7.00781 16.7606L8.90684 18.6596L10.8126 16.7606L10.1639 12.6683Z" stroke="#003C5A" stroke-width="1.5" stroke-miterlimit="10" stroke-linecap="round" stroke-linejoin="round"/>
</svg>
