<svg width="22" height="22" viewBox="0 0 22 22" fill="none" xmlns="http://www.w3.org/2000/svg">
<path d="M16.4843 2.90879L14.7397 1.15011C14.5856 0.994772 14.3764 0.906006 14.1563 0.906006H5.27344V5.77149H16.7265V3.49686C16.721 3.27495 16.6384 3.06413 16.4843 2.90879Z" stroke="#003C5A" stroke-width="1.5" stroke-miterlimit="10" stroke-linecap="round" stroke-linejoin="round"/>
<path d="M19.8144 5.77148H17.2937H5.84071H2.18631C1.5754 5.77148 1.08008 6.27079 1.08008 6.88661V14.7202C1.08008 15.336 1.5754 15.8353 2.18631 15.8353H5.27384V12.7452H16.7269V15.8353H19.8144C20.4253 15.8353 20.9206 15.336 20.9206 14.7202V6.88661C20.9206 6.27079 20.4253 5.77148 19.8144 5.77148Z" stroke="#003C5A" stroke-width="1.5" stroke-miterlimit="10" stroke-linecap="round" stroke-linejoin="round"/>
<path d="M5.27344 12.7451V15.8353V20.906H16.721V15.8353V12.7451H5.27344Z" stroke="#003C5A" stroke-width="1.5" stroke-miterlimit="10" stroke-linecap="round" stroke-linejoin="round"/>
</svg>
