<svg width="51" height="51" viewBox="0 0 51 51" fill="none" xmlns="http://www.w3.org/2000/svg">
<rect x="0.0273438" y="0.885071" width="50" height="50" rx="10.5699" fill="#006191"/>
<path d="M32.5262 20.6788C32.3424 20.5061 32.0997 20.4099 31.8475 20.4099C31.5953 20.4099 31.3526 20.5061 31.1688 20.6788C31.0778 20.7687 31.0058 20.8758 30.9568 20.9939C30.9079 21.112 30.883 21.2387 30.8837 21.3666V23.095L29.5037 21.7376C28.7028 20.9366 27.7163 20.3462 26.6319 20.0188C25.5476 19.6914 24.3991 19.6373 23.2888 19.8612C22.1784 20.0852 21.1407 20.5802 20.2681 21.3023C19.3954 22.0244 18.7148 22.9511 18.287 23.9999C17.6056 25.6849 17.6207 27.5714 18.329 29.2452C19.0374 30.919 20.3812 32.2433 22.0651 32.9271C23.724 33.5967 25.578 33.5967 27.2368 32.9271C28.0838 32.5826 28.853 32.0718 29.4992 31.4249C29.8627 31.0668 30.1831 30.6674 30.4539 30.2349C30.726 29.809 30.9491 29.3536 31.119 28.8775C31.1625 28.7567 31.1816 28.6284 31.1751 28.5001C31.1686 28.3718 31.1366 28.2461 31.081 28.1303C31.0254 28.0145 30.9473 27.9109 30.8513 27.8256C30.7553 27.7403 30.6433 27.6749 30.5217 27.6333C30.2813 27.5515 30.0186 27.5661 29.7887 27.674C29.6725 27.7272 29.5684 27.8036 29.4828 27.8985C29.3972 27.9934 29.3319 28.1049 29.291 28.226C29.058 28.8821 28.6882 29.4811 28.2061 29.9835C27.724 30.4858 27.1407 30.88 26.4948 31.1399C25.3077 31.6194 23.9807 31.6194 22.7936 31.1399C22.1824 30.8968 21.6278 30.5302 21.1647 30.063C20.7076 29.608 20.3447 29.0672 20.0971 28.4717C19.8494 27.8762 19.7217 27.2376 19.7213 26.5926C19.7194 25.9594 19.8424 25.3321 20.0833 24.7465C20.3298 24.1346 20.6973 23.5787 21.1638 23.1122C21.6303 22.6457 22.1862 22.2782 22.7981 22.0317C23.6943 21.669 24.6773 21.5777 25.625 21.7692C26.5726 21.9606 27.4431 22.4264 28.1282 23.1086C28.3137 23.2986 28.7255 23.6968 29.3499 24.3076H27.9201C27.6741 24.3244 27.4437 24.434 27.2754 24.6141C27.1072 24.7943 27.0136 25.0316 27.0136 25.2782C27.0136 25.5247 27.1072 25.762 27.2754 25.9422C27.4437 26.1223 27.6741 26.2319 27.9201 26.2487H31.852C32.11 26.2487 32.3575 26.1462 32.5399 25.9638C32.7223 25.7813 32.8248 25.5339 32.8248 25.2759V21.3575C32.8226 21.2302 32.795 21.1047 32.7437 20.9881C32.6925 20.8716 32.6185 20.7665 32.5262 20.6788Z" fill="white"/>
<path d="M36.9377 14.0094H36.1187C29.1054 14.0094 26.0151 10.7924 25.9879 10.7652L25.2866 9.99603L24.5853 10.7652C24.5581 10.7969 21.2958 14.2538 13.6401 13.9958L12.6582 13.9597V28.5336C12.6582 32.3479 13.9296 37.9133 24.9427 42.171L25.2866 42.3022L25.6305 42.171C36.6435 37.9133 37.9195 32.3479 37.9195 28.5336V13.9597L36.9377 14.0094ZM36.0327 28.5472C36.0327 30.5969 36.0327 36.0129 25.3002 40.2752C14.5721 36.0129 14.5721 30.5969 14.5721 28.5472V15.9098C20.513 15.8826 23.9292 13.7696 25.3002 12.6792C26.6576 13.7696 30.0918 15.8872 36.0327 15.9098V28.5472Z" fill="white"/>
</svg>
