<svg width="70" height="70" viewBox="0 0 70 70" fill="none" xmlns="http://www.w3.org/2000/svg">
<rect width="70" height="70" rx="15" fill="#006191"/>
<rect opacity="0.6" width="70" height="70" rx="15" fill="url(#paint0_linear_331_6619)"/>
<path d="M45.4982 27.7111C45.241 27.4693 44.9012 27.3347 44.5481 27.3347C44.195 27.3347 43.8551 27.4693 43.5979 27.7111C43.4705 27.8369 43.3696 27.9869 43.3011 28.1523C43.2326 28.3176 43.1978 28.495 43.1988 28.674V31.0938L41.2667 29.1934C40.1455 28.0721 38.7643 27.2454 37.2462 26.7871C35.7281 26.3288 34.1203 26.253 32.5658 26.5665C31.0114 26.8801 29.5586 27.5731 28.3368 28.5841C27.1151 29.595 26.1623 30.8924 25.5634 32.3607C24.6093 34.7196 24.6305 37.3608 25.6222 39.7041C26.6139 42.0475 28.4952 43.9014 30.8528 44.8588C33.1752 45.7961 35.7707 45.7961 38.0931 44.8588C39.2788 44.3765 40.3558 43.6613 41.2604 42.7557C41.7693 42.2543 42.2179 41.6952 42.597 41.0897C42.9779 40.4933 43.2903 39.8558 43.5282 39.1894C43.5891 39.0202 43.6158 38.8406 43.6067 38.661C43.5975 38.4813 43.5527 38.3054 43.4749 38.1432C43.3971 37.9811 43.2878 37.8361 43.1534 37.7166C43.019 37.5972 42.8621 37.5056 42.692 37.4474C42.3554 37.333 41.9876 37.3534 41.6658 37.5044C41.5031 37.5788 41.3573 37.6858 41.2375 37.8187C41.1177 37.9516 41.0263 38.1077 40.969 38.2772C40.6427 39.1957 40.125 40.0344 39.4501 40.7377C38.7752 41.441 37.9586 41.9928 37.0543 42.3566C35.3923 43.028 33.5346 43.028 31.8726 42.3566C31.0169 42.0163 30.2405 41.5031 29.5921 40.849C28.9521 40.212 28.4442 39.4549 28.0974 38.6212C27.7507 37.7874 27.5719 36.8934 27.5714 35.9904C27.5687 35.104 27.741 34.2257 28.0782 33.4059C28.4233 32.5492 28.9377 31.7709 29.5908 31.1178C30.2439 30.4647 31.0222 29.9502 31.8789 29.6052C33.1336 29.0974 34.5098 28.9696 35.8365 29.2377C37.1632 29.5057 38.3819 30.1578 39.341 31.1128C39.6007 31.3789 40.1772 31.9363 41.0514 32.7915H39.0496C38.7053 32.815 38.3827 32.9684 38.1472 33.2206C37.9116 33.4728 37.7806 33.8051 37.7806 34.1502C37.7806 34.4954 37.9116 34.8276 38.1472 35.0799C38.3827 35.3321 38.7053 35.4855 39.0496 35.509H44.5544C44.9156 35.509 45.262 35.3655 45.5174 35.1101C45.7728 34.8547 45.9163 34.5083 45.9163 34.1471V28.6613C45.9132 28.4831 45.8746 28.3073 45.8028 28.1442C45.731 27.9811 45.6275 27.8339 45.4982 27.7111Z" fill="white"/>
<path d="M51.6743 18.374H50.5278C40.7092 18.374 36.3827 13.8701 36.3447 13.8321L35.3629 12.7552L34.381 13.8321C34.343 13.8765 29.7758 18.7161 19.0577 18.355L17.6831 18.3043V38.7079C17.6831 44.0479 19.4631 51.8394 34.8814 57.8002L35.3629 57.9839L35.8443 57.8002C51.2626 51.8394 53.0489 44.0479 53.0489 38.7079V18.3043L51.6743 18.374ZM50.4074 38.7269C50.4074 41.5965 50.4074 49.1789 35.3819 55.1461C20.3626 49.1789 20.3626 41.5965 20.3626 38.7269V21.0345C28.6799 20.9965 33.4625 18.0383 35.3819 16.5116C37.2822 18.0383 42.0902 21.0028 50.4074 21.0345V38.7269Z" fill="white"/>
<defs>
<linearGradient id="paint0_linear_331_6619" x1="35" y1="0" x2="35" y2="70" gradientUnits="userSpaceOnUse">
<stop stop-color="#013651"/>
<stop offset="1" stop-color="#014F77"/>
</linearGradient>
</defs>
</svg>
