<svg width="51" height="51" viewBox="0 0 51 51" fill="none" xmlns="http://www.w3.org/2000/svg">
<rect x="0.0273438" y="0.885071" width="50" height="50" rx="10.5699" fill="#006191"/>
<path d="M38.229 23.3889L37.1659 19.1146C36.92 18.1273 36.0413 17.3282 35.2059 17.3282H15.4218C14.5865 17.3282 13.7078 18.1273 13.4619 19.1146L12.377 23.3889C12.3315 23.5794 12.3132 23.7754 12.3228 23.9711C12.3211 23.9782 12.3211 23.9857 12.3228 23.9928C12.321 24.0121 12.321 24.0314 12.3228 24.0506C12.3237 24.8847 12.6555 25.6844 13.2453 26.2742C13.8351 26.864 14.6348 27.1958 15.4689 27.1967H15.5339H15.581H15.6497C16.2098 27.1972 16.7584 27.0379 17.2311 26.7375C17.7038 26.4371 18.081 26.008 18.3184 25.5007C18.367 25.3993 18.4428 25.3133 18.5374 25.2524C18.632 25.1915 18.7417 25.158 18.8541 25.1558C18.9666 25.1535 19.0775 25.1826 19.1745 25.2397C19.2714 25.2967 19.3506 25.3796 19.4032 25.4791C19.5145 25.7151 19.6568 25.9352 19.8263 26.1336L19.8553 26.1661L19.9059 26.2312C19.9685 26.3 20.0349 26.3652 20.1048 26.4265C20.1663 26.4807 20.2314 26.535 20.3145 26.5964L20.3579 26.6326L20.4773 26.7194C20.6131 26.8078 20.7558 26.8852 20.904 26.9508L20.9763 26.9762H21.0124C21.1418 27.0269 21.2748 27.0679 21.4102 27.0991L21.5549 27.1316C21.9058 27.2016 22.2671 27.2016 22.618 27.1316L22.7554 27.1027C22.8884 27.071 23.0189 27.0299 23.146 26.9797H23.1894L23.2617 26.9508C23.409 26.8871 23.5505 26.8109 23.6848 26.723C23.7318 26.6941 23.768 26.6615 23.8077 26.6326L23.8548 26.5964C23.9379 26.535 23.9994 26.4807 24.0573 26.4301C24.1151 26.3795 24.1947 26.2999 24.2598 26.2312C24.2777 26.2116 24.2946 26.1911 24.3104 26.1697L24.3321 26.1408C24.5028 25.9426 24.6464 25.7225 24.7588 25.4863C24.8094 25.3859 24.887 25.3015 24.9827 25.2425C25.0785 25.1836 25.1888 25.1524 25.3012 25.1524C25.4137 25.1524 25.5239 25.1836 25.6197 25.2425C25.7155 25.3015 25.793 25.3859 25.8437 25.4863C25.9556 25.7239 26.0992 25.9452 26.2704 26.1444L26.2921 26.1733L26.3463 26.2348C26.4186 26.3108 26.4909 26.3831 26.5488 26.4337C26.6067 26.4844 26.6681 26.5386 26.7513 26.6001L26.7983 26.6362C26.8359 26.668 26.8758 26.697 26.9176 26.723C27.0518 26.812 27.1934 26.8895 27.3407 26.9544L27.4167 26.9833H27.4565C27.584 27.0324 27.7144 27.0735 27.847 27.1063L27.988 27.1352C28.3387 27.2075 28.7005 27.2075 29.0512 27.1352L29.1958 27.1063C29.3288 27.0746 29.4593 27.0335 29.5864 26.9833H29.6298L29.7057 26.9544C29.8514 26.8899 29.9917 26.8137 30.1252 26.7266C30.168 26.6991 30.2091 26.6689 30.2481 26.6362L30.2952 26.6001C30.3783 26.5386 30.4398 26.4844 30.4977 26.4337C30.5687 26.3711 30.6363 26.3047 30.7002 26.2348C30.7181 26.2152 30.735 26.1947 30.7508 26.1733L30.7725 26.1444C30.9445 25.9471 31.0881 25.7268 31.1992 25.4899C31.2508 25.3905 31.3286 25.3073 31.4243 25.2492C31.5199 25.191 31.6297 25.1603 31.7416 25.1603C31.8536 25.1603 31.9633 25.191 32.059 25.2492C32.1546 25.3073 32.2325 25.3905 32.284 25.4899C32.5214 25.9972 32.8986 26.4262 33.3714 26.7267C33.8441 27.0271 34.3927 27.1864 34.9528 27.1859H35.0106H35.054H35.1083C35.8771 27.1855 36.6186 26.9004 37.1896 26.3855C37.7605 25.8706 38.1205 25.1625 38.2001 24.3978C38.3021 24.0705 38.3121 23.7215 38.229 23.3889ZM13.9754 23.9096C13.971 23.8687 13.971 23.8275 13.9754 23.7867L15.0421 19.5124C15.0977 19.2872 15.2325 19.0895 15.4218 18.9555H35.1589C35.3606 19.077 35.5062 19.2732 35.5639 19.5015L36.6271 23.7758C36.6385 23.8158 36.6446 23.8572 36.6452 23.8988L36.5981 24.0398L36.5764 24.217C36.5435 24.5696 36.384 24.8983 36.1274 25.1423C35.8707 25.3863 35.5344 25.529 35.1806 25.5441H35.0793H34.8985C34.6586 25.5327 34.4264 25.4555 34.2274 25.3209C34.0284 25.1863 33.8702 24.9996 33.7703 24.7811C33.5907 24.403 33.309 24.0826 32.957 23.8561C32.605 23.6295 32.1967 23.5059 31.7781 23.4991C31.3596 23.4923 30.9474 23.6027 30.5883 23.8177C30.2291 24.0328 29.9372 24.3439 29.7455 24.716L29.7166 24.7739C29.664 24.8832 29.5958 24.9843 29.5141 25.074L29.4743 25.1247L29.3911 25.2042L29.3152 25.2657L29.2248 25.3344C29.1774 25.3687 29.1265 25.3978 29.0729 25.4212L28.9933 25.4501C28.9378 25.4714 28.881 25.4896 28.8234 25.5043H28.7583C28.601 25.5381 28.4383 25.5381 28.2809 25.5043H28.2159L28.0387 25.4501L27.9663 25.4212C27.9159 25.399 27.8674 25.3724 27.8217 25.3416L27.7349 25.2765L27.6373 25.197L27.5686 25.1319L27.5143 25.0668C27.4388 24.9773 27.3745 24.8789 27.3227 24.7739L27.2937 24.716C27.1035 24.3532 26.8176 24.0492 26.467 23.8372C26.1165 23.6252 25.7146 23.5131 25.3048 23.5131C24.8951 23.5131 24.4932 23.6252 24.1426 23.8372C23.7921 24.0492 23.5062 24.3532 23.3159 24.716L23.287 24.7739C23.2349 24.8826 23.168 24.9837 23.0881 25.074L23.0483 25.1247L22.9652 25.2042L22.882 25.2693L22.7988 25.3344L22.6433 25.4212L22.5674 25.4501C22.5097 25.4725 22.4505 25.4906 22.3902 25.5043H22.3287C22.2499 25.5183 22.1701 25.5268 22.0901 25.5297C22.0123 25.5285 21.9348 25.52 21.8586 25.5043H21.7899C21.7291 25.4924 21.6698 25.4742 21.6127 25.4501L21.5368 25.4248C21.4825 25.3995 21.4355 25.3706 21.3921 25.3453L21.309 25.2801C21.273 25.2552 21.2391 25.2274 21.2077 25.197L21.139 25.1319L21.0848 25.0668C21.0086 24.9791 20.9441 24.8819 20.8931 24.7775L20.8678 24.7196C20.6755 24.3477 20.3832 24.0368 20.0238 23.8219C19.6643 23.6071 19.2521 23.4969 18.8334 23.5036C18.4147 23.5104 18.0063 23.6339 17.654 23.8602C17.3017 24.0866 17.0196 24.4067 16.8394 24.7847C16.7407 25.0034 16.5834 25.1905 16.3849 25.3252C16.1864 25.4599 15.9544 25.5369 15.7148 25.5477H15.675H15.5954H15.5122H15.4038C15.0253 25.5318 14.6666 25.3742 14.3987 25.1064C14.1308 24.8385 13.9733 24.4798 13.9573 24.1013C13.9591 24.0663 13.9591 24.0313 13.9573 23.9964V23.8952L13.9754 23.9096Z" fill="white"/>
<path d="M36.1356 37.8861H14.312V28.6251H15.9827V36.2154H34.4649V28.7299H36.1356V37.8861Z" fill="white"/>
<path d="M35.1901 14.4496H15.4277V16.1203H35.1901V14.4496Z" fill="white"/>
</svg>
