<svg width="51" height="51" viewBox="0 0 51 51" fill="none" xmlns="http://www.w3.org/2000/svg">
<rect x="0.428711" y="0.885071" width="50" height="50" rx="10.5699" fill="#006191"/>
<path d="M29.3916 18.7897H33.9611C34.1487 18.7767 34.3242 18.693 34.4525 18.5555C34.5807 18.4181 34.652 18.2371 34.652 18.0491C34.652 17.8611 34.5807 17.6801 34.4525 17.5426C34.3242 17.4052 34.1487 17.3215 33.9611 17.3084H29.3916C29.204 17.3215 29.0284 17.4052 28.9002 17.5426C28.772 17.6801 28.7007 17.8611 28.7007 18.0491C28.7007 18.2371 28.772 18.4181 28.9002 18.5555C29.0284 18.693 29.204 18.7767 29.3916 18.7897Z" fill="white"/>
<path d="M25.4747 22.7066H33.961C34.1485 22.6935 34.3241 22.6098 34.4523 22.4723C34.5806 22.3349 34.6519 22.1539 34.6519 21.9659C34.6519 21.7779 34.5806 21.5969 34.4523 21.4595C34.3241 21.322 34.1485 21.2383 33.961 21.2252H25.4747C25.3731 21.2182 25.2711 21.2321 25.1751 21.2661C25.0791 21.3001 24.9912 21.3535 24.9167 21.423C24.8422 21.4925 24.7828 21.5765 24.7422 21.6699C24.7016 21.7633 24.6807 21.8641 24.6807 21.9659C24.6807 22.0678 24.7016 22.1685 24.7422 22.2619C24.7828 22.3553 24.8422 22.4394 24.9167 22.5088C24.9912 22.5783 25.0791 22.6317 25.1751 22.6657C25.2711 22.6998 25.3731 22.7137 25.4747 22.7066Z" fill="white"/>
<path d="M17.9676 22.7066H21.8844C22.1698 22.7066 22.4435 22.5932 22.6453 22.3914C22.847 22.1896 22.9604 21.9159 22.9604 21.6306V18.3666C22.9592 18.0843 22.8472 17.8138 22.6484 17.6134C22.4479 17.4146 22.1774 17.3025 21.8951 17.3013H17.9676C17.6823 17.3013 17.4086 17.4147 17.2068 17.6165C17.005 17.8183 16.8916 18.092 16.8916 18.3774V21.6413C16.8944 21.9248 17.0091 22.1958 17.2105 22.3952C17.412 22.5947 17.6841 22.7066 17.9676 22.7066ZM18.3909 18.7898H21.4791V21.2252H18.3909V18.7898Z" fill="white"/>
<path d="M33.979 31.0315H30.4389L29.3628 29.4102C29.2963 29.31 29.2063 29.2276 29.1007 29.1701C28.995 29.1126 28.8769 29.0818 28.7567 29.0803C28.6377 29.0765 28.5197 29.1024 28.4133 29.1556C28.3068 29.2089 28.2153 29.2877 28.1469 29.3851L25.5645 32.9719L22.2144 26.8457C22.146 26.7185 22.0418 26.6142 21.9147 26.5456C21.7876 26.477 21.6432 26.4472 21.4993 26.4598C21.3555 26.4724 21.2185 26.5269 21.1052 26.6165C20.992 26.7061 20.9075 26.8269 20.8622 26.9641L19.7252 30.3679H17.6484C17.5073 30.3545 17.3652 30.381 17.2384 30.4444C17.1115 30.5078 17.0051 30.6056 16.9311 30.7266C16.8609 30.8429 16.8237 30.9762 16.8237 31.1122C16.8237 31.2481 16.8609 31.3814 16.9311 31.4977C17.0013 31.6155 17.1029 31.7115 17.2245 31.7748C17.3461 31.8382 17.483 31.8664 17.6198 31.8564H20.2489C20.4068 31.8599 20.5617 31.8126 20.6908 31.7216C20.8199 31.6306 20.9164 31.5006 20.9662 31.3507L21.7338 29.0551L24.8363 34.7258C24.8945 34.8369 24.9807 34.9307 25.0865 34.9981C25.1922 35.0654 25.3137 35.1039 25.4389 35.1096H25.4855C25.6042 35.1124 25.7217 35.0856 25.8275 35.0318C25.9333 34.978 26.0241 34.8987 26.0917 34.8011L28.728 31.1175L29.4453 32.1936C29.5126 32.2948 29.6037 32.3778 29.7107 32.4354C29.8177 32.4929 29.9372 32.5232 30.0587 32.5235H33.979C34.1202 32.5374 34.2625 32.5111 34.3894 32.4476C34.5163 32.3842 34.6227 32.2862 34.6964 32.1649C34.7676 32.0486 34.8053 31.915 34.8053 31.7786C34.8053 31.6423 34.7675 31.5086 34.6962 31.3924C34.6249 31.2762 34.5229 31.182 34.4014 31.1202C34.2799 31.0584 34.1436 31.0314 34.0077 31.0422L33.979 31.0315Z" fill="white"/>
<path d="M37.1383 27.1721V36.0027C37.1374 36.4121 36.9741 36.8043 36.6843 37.0935C36.3945 37.3826 36.0018 37.545 35.5924 37.545H16.0087C15.5993 37.545 15.2066 37.3826 14.9168 37.0935C14.627 36.8043 14.4637 36.4121 14.4628 36.0027V16.4153C14.4637 16.0056 14.6269 15.613 14.9166 15.3233C15.2063 15.0335 15.599 14.8704 16.0087 14.8694H35.6068C36.0165 14.8704 36.4091 15.0335 36.6988 15.3233C36.9885 15.613 37.1517 16.0056 37.1527 16.4153V18.7898H38.6304V15.7625C38.6314 15.4509 38.5707 15.1422 38.4519 14.8541C38.3331 14.5661 38.1585 14.3043 37.9381 14.084C37.7178 13.8636 37.456 13.689 37.168 13.5702C36.8799 13.4514 36.5712 13.3907 36.2596 13.3917H15.3559C15.0442 13.3912 14.7356 13.4522 14.4475 13.5711C14.1594 13.6901 13.8977 13.8646 13.6771 14.0848C13.4566 14.305 13.2816 14.5665 13.1623 14.8544C13.0429 15.1423 12.9814 15.4509 12.9814 15.7625V36.6555C12.9824 37.2846 13.233 37.8876 13.6782 38.3321C14.1234 38.7767 14.7268 39.0263 15.3559 39.0263H36.2452C36.5566 39.0263 36.8649 38.965 37.1525 38.8459C37.4401 38.7267 37.7015 38.5521 37.9217 38.3319C38.1418 38.1118 38.3165 37.8504 38.4356 37.5628C38.5547 37.2751 38.6161 36.9668 38.6161 36.6555V27.1721H37.1383Z" fill="white"/>
<path d="M38.5872 20.5007H37.1382V23.9906H38.5872V20.5007Z" fill="white"/>
</svg>
