<svg width="71" height="71" viewBox="0 0 71 71" fill="none" xmlns="http://www.w3.org/2000/svg">
<rect x="0.100586" y="0.833984" width="70" height="70" rx="15" fill="#006191"/>
<rect opacity="0.6" x="0.100586" y="0.833984" width="70" height="70" rx="15" fill="url(#paint0_linear_1010_411)"/>
<path d="M56.4043 39.251V31.7654H52.4511C51.9935 29.6424 51.1516 27.6474 50.0169 25.8721L52.8171 23.0719L47.5278 17.7825L44.7276 20.5828C42.9522 19.4297 40.9573 18.6061 38.8343 18.1486V14.1953H31.3487V18.1486C29.2256 18.6061 27.2307 19.448 25.4554 20.5828L22.6734 17.8008L17.3841 23.0902L20.1843 25.8904C19.0313 27.6657 18.2077 29.6607 17.7501 31.7837H13.7969V39.2693H17.7318C18.1894 41.3923 19.0313 43.3873 20.166 45.1626L17.3658 47.9628L22.6734 53.2156L25.4737 50.4153C27.249 51.5684 29.2439 52.392 31.367 52.8495V56.8028H38.8526V52.8495C40.9756 52.392 42.9705 51.5501 44.7459 50.4153L47.5461 53.2156L52.8354 47.9262L50.0352 45.126C51.1882 43.3507 52.0118 41.3557 52.4694 39.2327H56.4043V39.251ZM45.423 40.5504C44.3066 42.8382 42.4398 44.705 40.1337 45.8398C39.7128 46.0411 39.2735 46.2241 38.8343 46.3705C37.6629 46.7732 36.4001 46.9928 35.1006 46.9928C33.8012 46.9928 32.5383 46.7732 31.367 46.3705C30.9277 46.2241 30.4885 46.0411 30.0675 45.8398C27.7797 44.7234 25.9129 42.8565 24.7782 40.5504C24.5769 40.1295 24.3938 39.6903 24.2474 39.251C23.8448 38.0797 23.6251 36.8168 23.6251 35.5174C23.6251 34.2179 23.8448 32.955 24.2474 31.7837C24.3938 31.3445 24.5769 30.9052 24.7782 30.4843C25.8946 28.1965 27.7614 26.3297 30.0675 25.1949C30.4885 24.9936 30.9277 24.8106 31.367 24.6642C32.5383 24.2615 33.8012 24.0419 35.1006 24.0419C36.4001 24.0419 37.6629 24.2615 38.8343 24.6642C39.2735 24.8106 39.7128 24.9936 40.1337 25.1949C42.4215 26.3114 44.2883 28.1782 45.423 30.4843C45.6244 30.9052 45.8074 31.3445 45.9538 31.7837C46.3565 32.955 46.5761 34.2179 46.5761 35.5174C46.5761 36.8168 46.3565 38.0797 45.9538 39.251C45.8074 39.6903 45.6427 40.1295 45.423 40.5504Z" stroke="white" stroke-width="2" stroke-miterlimit="10" stroke-linecap="round" stroke-linejoin="round"/>
<path d="M38.1393 32.296C38.1393 30.6122 36.785 29.2578 35.1012 29.2578C33.4174 29.2578 32.063 30.6122 32.063 32.296C32.063 33.9798 33.4174 35.3341 35.1012 35.3341" stroke="white" stroke-width="2" stroke-miterlimit="10" stroke-linecap="round" stroke-linejoin="round"/>
<path d="M32.063 38.3721C32.063 40.0559 33.4174 41.4103 35.1012 41.4103C36.785 41.4103 38.1393 40.0559 38.1393 38.3721C38.1393 36.6883 36.785 35.334 35.1012 35.334" stroke="white" stroke-width="2" stroke-miterlimit="10" stroke-linecap="round" stroke-linejoin="round"/>
<path d="M35.1006 27.4824V43.1857" stroke="white" stroke-width="2" stroke-miterlimit="10" stroke-linecap="round" stroke-linejoin="round"/>
<defs>
<linearGradient id="paint0_linear_1010_411" x1="35.1006" y1="0.833984" x2="35.1006" y2="70.834" gradientUnits="userSpaceOnUse">
<stop stop-color="#013651"/>
<stop offset="1" stop-color="#014F77"/>
</linearGradient>
</defs>
</svg>
