<svg width="48" height="49" viewBox="0 0 48 49" fill="none" xmlns="http://www.w3.org/2000/svg">
<rect y="0.00585938" width="48" height="48" rx="24" fill="#006191"/>
<path d="M33.5156 19.1309C34.4531 18.4277 35.2969 17.584 35.9531 16.5996C35.1094 16.9746 34.125 17.2559 33.1406 17.3496C34.1719 16.7402 34.9219 15.8027 35.2969 14.6309C34.3594 15.1934 33.2812 15.6152 32.2031 15.8496C31.2656 14.8652 30 14.3027 28.5938 14.3027C25.875 14.3027 23.6719 16.5059 23.6719 19.2246C23.6719 19.5996 23.7188 19.9746 23.8125 20.3496C19.7344 20.1152 16.0781 18.1465 13.6406 15.1934C13.2188 15.8965 12.9844 16.7402 12.9844 17.6777C12.9844 19.3652 13.8281 20.8652 15.1875 21.7559C14.3906 21.709 13.5938 21.5215 12.9375 21.1465V21.1934C12.9375 23.584 14.625 25.5527 16.875 26.0215C16.5 26.1152 16.0312 26.209 15.6094 26.209C15.2812 26.209 15 26.1621 14.6719 26.1152C15.2812 28.084 17.1094 29.4902 19.2656 29.5371C17.5781 30.8496 15.4688 31.6465 13.1719 31.6465C12.75 31.6465 12.375 31.5996 12 31.5527C14.1562 32.959 16.7344 33.7559 19.5469 33.7559C28.5938 33.7559 33.5156 26.3027 33.5156 19.7871C33.5156 19.5527 33.5156 19.3652 33.5156 19.1309Z" fill="white"/>
</svg>
