<svg width="24" height="25" viewBox="0 0 24 25" fill="none" xmlns="http://www.w3.org/2000/svg">
<path d="M20 12.167C20 16.5853 16.4183 20.167 12 20.167V22.167C17.5228 22.167 22 17.6898 22 12.167H20ZM12 20.167C7.58172 20.167 4 16.5853 4 12.167H2C2 17.6898 6.47715 22.167 12 22.167V20.167ZM4 12.167C4 7.74871 7.58172 4.16699 12 4.16699V2.16699C6.47715 2.16699 2 6.64414 2 12.167H4ZM12 4.16699C16.4183 4.16699 20 7.74871 20 12.167H22C22 6.64414 17.5228 2.16699 12 2.16699V4.16699Z" fill="currentColor"/>
<path d="M15.7071 11.8741C16.0976 11.4836 16.0976 10.8504 15.7071 10.4599C15.3166 10.0694 14.6834 10.0694 14.2929 10.4599L15.7071 11.8741ZM12 14.167L11.2929 14.8741C11.6834 15.2646 12.3166 15.2646 12.7071 14.8741L12 14.167ZM9.70711 10.4599C9.31658 10.0694 8.68342 10.0694 8.29289 10.4599C7.90237 10.8504 7.90237 11.4836 8.29289 11.8741L9.70711 10.4599ZM14.2929 10.4599L11.2929 13.4599L12.7071 14.8741L15.7071 11.8741L14.2929 10.4599ZM12.7071 13.4599L9.70711 10.4599L8.29289 11.8741L11.2929 14.8741L12.7071 13.4599Z" fill="currentColor"/>
</svg>
