<svg width="48" height="48" viewBox="0 0 48 48" fill="none" xmlns="http://www.w3.org/2000/svg">
<!-- <rect width="48" height="48" rx="24" fill="#006191"/> -->
<path d="M23.9934 35.9472C20.7347 35.9472 20.3505 35.93 19.0788 35.8743C18.0871 35.8417 17.1082 35.6401 16.1843 35.2782C14.5858 34.6561 13.3218 33.3916 12.7003 31.7929C12.3523 30.8656 12.1646 29.8859 12.1452 28.8957C12.071 27.6267 12.071 27.2107 12.071 23.9771C12.071 20.709 12.0883 20.3275 12.1452 19.0624C12.165 18.0735 12.3527 17.0952 12.7003 16.1692C13.3211 14.5684 14.5871 13.3028 16.1882 12.6826C17.1137 12.3331 18.0923 12.145 19.0814 12.1262C20.3465 12.0547 20.7625 12.0547 23.9934 12.0547C27.2787 12.0547 27.6563 12.0719 28.9081 12.1262C29.8998 12.1451 30.8809 12.3333 31.8092 12.6826C33.4099 13.3035 34.6757 14.5688 35.2972 16.1692C35.6511 17.1087 35.8398 18.1023 35.8549 19.1061C35.9291 20.3752 35.9291 20.7898 35.9291 24.0221C35.9291 27.2544 35.9105 27.6783 35.8549 28.9328C35.8352 29.924 35.647 30.9046 35.2985 31.8326C34.6755 33.4325 33.4096 34.6974 31.8092 35.3193C30.8823 35.6666 29.9031 35.8543 28.9134 35.8743C27.6483 35.9472 27.2337 35.9472 23.9934 35.9472ZM23.9484 14.1517C20.7082 14.1517 20.3717 14.1676 19.1066 14.2246C18.3515 14.2346 17.6037 14.3739 16.8956 14.6365C15.8501 15.0366 15.0228 15.8606 14.6185 16.9045C14.3538 17.6202 14.2144 18.3762 14.2065 19.1392C14.1363 20.4229 14.1363 20.7594 14.1363 23.9771C14.1363 27.1564 14.1482 27.5419 14.2065 28.8176C14.2183 29.5729 14.3576 30.3209 14.6185 31.0299C15.0234 32.073 15.8506 32.8964 16.8956 33.2964C17.6032 33.5608 18.3513 33.7002 19.1066 33.7084C20.3889 33.7826 20.7267 33.7826 23.9484 33.7826C27.1979 33.7826 27.5344 33.7667 28.7889 33.7084C29.5445 33.6992 30.2929 33.5599 31.0012 33.2964C32.0404 32.8929 32.8623 32.0715 33.2664 31.0325C33.5306 30.3162 33.6699 29.5598 33.6784 28.7964H33.693C33.7499 27.53 33.7499 27.1922 33.7499 23.9559C33.7499 20.7196 33.7354 20.3792 33.6784 19.1141C33.6665 18.3596 33.5272 17.6125 33.2664 16.9045C32.8632 15.864 32.0412 15.041 31.0012 14.6365C30.293 14.3726 29.5446 14.2332 28.7889 14.2246C27.5079 14.1517 27.1728 14.1517 23.9484 14.1517ZM23.9934 30.0959C21.5162 30.0975 19.282 28.6066 18.3328 26.3185C17.3835 24.0303 17.9063 21.3957 19.6572 19.6432C21.4081 17.8908 24.0423 17.3658 26.3312 18.3131C28.6202 19.2603 30.1131 21.4932 30.1136 23.9705C30.11 27.3499 27.3729 30.0894 23.9934 30.0959ZM23.9934 19.9937C21.7986 19.9937 20.0193 21.773 20.0193 23.9678C20.0193 26.1627 21.7986 27.9419 23.9934 27.9419C26.1883 27.9419 27.9676 26.1627 27.9676 23.9678C27.9625 21.7751 26.1862 19.9988 23.9934 19.9937ZM30.3521 19.0492C29.5644 19.0462 28.9279 18.4061 28.9293 17.6185C28.9308 16.8308 29.5697 16.1931 30.3574 16.1931C31.145 16.1931 31.7839 16.8308 31.7854 17.6185C31.7857 17.9985 31.6348 18.363 31.3658 18.6315C31.0969 18.8999 30.7321 19.0502 30.3521 19.0492Z" fill="currentColor"/>
</svg>
