<svg width="25" height="25" viewBox="0 0 25 25" fill="none" xmlns="http://www.w3.org/2000/svg">
<rect x="0.761719" y="0.70874" width="24" height="24" rx="5" fill="#E5EFF4"/>
<path d="M9.27344 17.9088V9.49941H6.65781V17.9088H9.27344ZM7.95156 8.37441C8.79531 8.37441 9.47031 7.67129 9.47031 6.82754C9.47031 6.01191 8.79531 5.33691 7.95156 5.33691C7.13594 5.33691 6.46094 6.01191 6.46094 6.82754C6.46094 7.67129 7.13594 8.37441 7.95156 8.37441ZM19.0328 17.9088H19.0609V13.2963C19.0609 11.0463 18.5547 9.30254 15.9109 9.30254C14.6453 9.30254 13.8016 10.0057 13.4359 10.6525H13.4078V9.49941H10.9047V17.9088H13.5203V13.7463C13.5203 12.6494 13.7172 11.6088 15.0672 11.6088C16.4172 11.6088 16.4453 12.8463 16.4453 13.8307V17.9088H19.0328Z" fill="#006191"/>
</svg>
