<svg width="177" height="71" viewBox="0 0 177 71" fill="none" xmlns="http://www.w3.org/2000/svg">
<path d="M5.6 0.640625L36.575 18.4906L30.975 21.7281L0 3.87812L5.6 0.640625Z" fill="#006191"/>
<path d="M0 3.87805V67.403L5.6 70.6405V13.5906L25.375 24.9655V46.2281L30.975 49.4655V21.7281L0 3.87805Z" fill="white"/>
<path d="M30.9746 21.7283L36.5746 18.4908V52.7033L5.59961 70.6408V13.5908L11.1996 16.8283V60.9283L30.9746 49.4658V21.7283Z" fill="#40BFFF"/>
<path d="M25.3752 46.228L30.9752 49.4655L11.2002 60.928V54.453L25.3752 46.228Z" fill="#006191"/>
<path d="M50.4873 18.928C51.8873 18.928 52.9373 20.0655 53.0248 21.378V36.1655C53.0248 37.5655 51.8873 38.6155 50.4873 38.6155H46.5498V18.928H50.4873ZM51.0123 21.9905C51.0123 21.2905 50.4873 20.9405 49.9623 20.9405H48.6498V36.6905H49.9623C50.4873 36.6905 51.0123 36.428 51.0123 35.6405V21.9905Z" fill="white"/>
<path d="M64.6625 18.928C65.275 18.928 65.45 19.3655 65.45 19.7155V38.703H64.05C63.6125 38.703 63.525 38.4405 63.4375 38.2655V18.928H64.6625Z" fill="white"/>
<path d="M83.9127 38.703H81.9002V28.553L80.4127 35.378H79.8002C78.5752 35.378 78.4002 34.153 78.3127 33.803L77.0877 28.6405V38.878H75.0752V18.928H76.3002C77.0877 18.928 77.1752 19.628 77.1752 19.628L79.5377 31.003L81.8127 19.628C81.8127 19.5405 81.9877 18.928 82.6877 18.928H83.9127V38.703Z" fill="white"/>
<path d="M99.8371 36.6905C99.5746 37.2155 99.3121 38.003 99.2246 38.178C99.0496 38.4405 98.7871 38.703 98.0871 38.703H93.5371V19.453C93.5371 19.103 93.7996 18.928 94.1496 18.928H99.3996L98.6996 20.4155C98.6121 20.678 98.2621 20.9405 97.6496 20.9405H96.0746C95.8121 20.9405 95.6371 21.1155 95.6371 21.378V27.2405H98.6996C98.4371 27.7655 98.1746 28.553 98.0871 28.728C97.9121 28.9905 97.6496 29.253 97.0371 29.253H96.1621C95.8996 29.253 95.7246 29.5155 95.7246 29.6905V36.6905H99.8371Z" fill="white"/>
<path d="M115.149 38.703H114.187C113.049 38.703 112.874 37.828 112.787 37.3905L110.599 27.5905V38.6155H108.587V18.928H109.549C110.687 18.928 110.862 19.453 110.949 20.0655L113.049 30.3905V19.0155H115.062V38.703H115.149Z" fill="white"/>
<path d="M129.063 23.9155V21.6405C129.063 21.028 128.626 20.503 128.013 20.503C127.401 20.503 126.963 20.9405 126.963 21.6405V23.5655C126.963 24.703 127.838 26.1905 127.838 26.1905L130.288 30.7405C131.251 32.578 131.163 33.8905 131.163 33.8905V36.428C131.163 37.828 130.026 38.9655 128.626 38.9655H127.313C125.913 38.878 124.863 37.828 124.863 36.428V34.4155C124.863 33.803 125.213 33.453 125.388 33.278C125.563 33.1905 126.351 32.8405 126.876 32.6655V36.078C126.876 36.6905 127.313 37.128 127.926 37.128C128.538 37.128 128.976 36.6905 128.976 35.9905V33.7155C128.976 32.578 128.101 31.003 128.101 31.003L125.651 26.453C124.688 24.6155 124.776 23.303 124.776 23.303V21.2905C124.776 19.8905 125.913 18.6655 127.313 18.6655H128.626C130.026 18.6655 131.076 19.978 131.076 21.2905V22.078C131.076 22.6905 130.726 23.0405 130.551 23.2155C130.376 23.303 129.588 23.7405 129.063 23.9155Z" fill="white"/>
<path d="M142.887 18.928C143.5 18.928 143.675 19.3655 143.675 19.7155V38.703H142.275C141.837 38.703 141.75 38.4405 141.662 38.2655V18.928H142.887Z" fill="white"/>
<path d="M158.199 18.7529C159.599 18.8404 160.649 19.8904 160.649 21.2904V36.4279C160.649 37.8279 159.512 38.8779 158.199 38.8779H156.624C155.224 38.8779 154.087 37.7404 154.087 36.4279V21.2904C154.087 19.8904 155.224 18.7529 156.624 18.7529H158.199ZM157.499 37.1279C158.112 37.1279 158.549 36.6904 158.549 35.9904V21.6404C158.549 21.0279 158.112 20.5029 157.499 20.5029H157.149C156.537 20.5029 156.099 21.0279 156.099 21.6404V36.0779C156.099 36.6904 156.537 37.1279 157.149 37.2154H157.499V37.1279Z" fill="white"/>
<path d="M176.75 38.703H175.787C174.65 38.703 174.475 37.828 174.387 37.3905L172.2 27.5905V38.6155H170.188V18.928H171.15C172.287 18.928 172.462 19.453 172.55 20.0655L174.65 30.3905V19.0155H176.662V38.703H176.75Z" fill="white"/>
<path d="M46.8125 43.7778H47.6875V52.2653H46.8125V43.7778Z" fill="white"/>
<path d="M55.2998 52.2653V43.7778H55.4748L61.1623 50.2528V43.7778H62.0373V52.2653H61.8623L56.2623 45.7903V52.2653H55.2998Z" fill="white"/>
<path d="M69.2119 43.7778H70.1744L72.9744 50.3403L75.8619 43.7778H76.8244L73.1494 52.2653H72.9744L69.2119 43.7778Z" fill="white"/>
<path d="M83.9121 43.7778H88.8121V44.6528H84.7871V47.2778H88.8121V48.1528H84.7871V51.4778H88.8121V52.3528H83.9996V43.7778H83.9121Z" fill="white"/>
<path d="M95.1123 50.6904L95.8123 50.2529C96.3373 51.2154 96.9498 51.6529 97.5623 51.6529C97.8248 51.6529 98.0873 51.5654 98.3498 51.4779C98.6123 51.3029 98.7873 51.1279 98.9623 50.9529C99.0498 50.6904 99.1373 50.5154 99.1373 50.2529C99.1373 49.9904 99.0498 49.7279 98.8748 49.3779C98.6123 49.0279 98.0873 48.5029 97.3873 47.9779C96.6873 47.4529 96.2498 47.0154 96.0748 46.8404C95.8123 46.4029 95.6373 45.9654 95.6373 45.5279C95.6373 45.1779 95.7248 44.8279 95.8998 44.4779C96.0748 44.2154 96.3373 43.9529 96.6873 43.7779C97.0373 43.6029 97.3873 43.5154 97.7373 43.5154C98.1748 43.5154 98.5248 43.6029 98.8748 43.7779C99.2248 43.9529 99.5748 44.3029 100.012 44.9154L99.3123 45.4404C98.9623 45.0029 98.6998 44.7404 98.5248 44.5654C98.2623 44.3904 98.0873 44.3904 97.8248 44.3904C97.4748 44.3904 97.2123 44.4779 96.9498 44.7404C96.7748 44.9154 96.5998 45.1779 96.5998 45.5279C96.5998 45.7029 96.5998 45.8779 96.6873 46.0529C96.7748 46.2279 96.8623 46.4029 97.1248 46.5779C97.2123 46.6654 97.5623 46.9279 98.2623 47.4529C98.9623 47.9779 99.4873 48.5029 99.7498 48.9404C100.012 49.3779 100.187 49.8154 100.187 50.2529C100.187 50.8654 99.9248 51.3904 99.4873 51.8279C99.0498 52.2654 98.4373 52.5279 97.7373 52.5279C97.2123 52.5279 96.7748 52.3529 96.3373 52.0904C95.8123 51.8279 95.4623 51.3029 95.1123 50.6904Z" fill="white"/>
<path d="M106.75 44.5654V43.6904H111.388V44.5654H109.463V52.2654H108.588V44.5654H106.75Z" fill="white"/>
<path d="M118.037 52.2653L119.262 43.7778H119.437L122.85 50.7778L126.262 43.7778H126.437L127.662 52.2653H126.787L125.912 46.2278L122.937 52.2653H122.762L119.7 46.1403L118.825 52.2653H118.037Z" fill="white"/>
<path d="M135.013 43.7778H139.913V44.6528H135.888V47.2778H139.913V48.1528H135.888V51.4778H139.913V52.3528H135.1V43.7778H135.013Z" fill="white"/>
<path d="M147.175 52.2653V43.7778H147.35L153.037 50.2528V43.7778H153.912V52.2653H153.737L148.137 45.7903V52.2653H147.175Z" fill="white"/>
<path d="M160.825 44.5654V43.6904H165.463V44.5654H163.538V52.2654H162.663V44.5654H160.825Z" fill="white"/>
<path d="M171.5 50.6906L172.2 50.2531C172.725 51.2156 173.337 51.6531 173.95 51.6531C174.212 51.6531 174.475 51.5656 174.737 51.4781C175 51.3031 175.175 51.1281 175.35 50.9531C175.437 50.6906 175.525 50.5156 175.525 50.2531C175.525 49.9906 175.437 49.7281 175.262 49.3781C175 49.0281 174.475 48.5031 173.775 47.9781C173.075 47.4531 172.637 47.0156 172.462 46.8406C172.2 46.4031 172.025 45.9656 172.025 45.5281C172.025 45.1781 172.112 44.8281 172.287 44.4781C172.462 44.1281 172.725 43.9531 173.075 43.7781C173.425 43.6031 173.775 43.5156 174.125 43.5156C174.562 43.5156 174.912 43.6031 175.262 43.7781C175.612 43.9531 175.962 44.3031 176.4 44.9156L175.7 45.4406C175.35 45.0031 175.087 44.7406 174.912 44.5656C174.65 44.3906 174.475 44.3906 174.212 44.3906C173.862 44.3906 173.6 44.4781 173.337 44.7406C173.162 44.9156 172.987 45.1781 172.987 45.5281C172.987 45.7031 172.987 45.8781 173.075 46.0531C173.162 46.2281 173.25 46.4031 173.512 46.5781C173.6 46.6656 173.95 46.9281 174.65 47.4531C175.35 47.9781 175.875 48.5031 176.137 48.9406C176.4 49.3781 176.575 49.8156 176.575 50.2531C176.575 50.8656 176.312 51.3906 175.875 51.8281C175.437 52.2656 174.825 52.5281 174.125 52.5281C173.6 52.5281 173.162 52.3531 172.725 52.0906C172.287 51.8281 171.85 51.3031 171.5 50.6906Z" fill="white"/>
</svg>
