<svg width="29" height="30" viewBox="0 0 29 30" fill="none" xmlns="http://www.w3.org/2000/svg">
<path d="M5.25122 29.2345C4.78999 29.1058 4.31545 29.0083 3.87196 28.8353C1.88512 28.0592 0.5369 26.0857 0.532465 23.9525C0.52803 17.7613 0.523595 11.5702 0.532465 5.37901C0.5369 2.75797 2.53705 0.496158 5.12704 0.154669C5.37983 0.11919 5.63706 0.10145 5.88985 0.10145C9.73936 0.0970153 13.5889 0.10145 17.4384 0.0970154C17.9129 0.0970154 18.2988 0.252238 18.6314 0.589292C20.5251 2.48744 22.4232 4.38559 24.3214 6.2793C24.6629 6.62079 24.8314 7.0155 24.8225 7.4989C24.8092 8.09762 24.8225 8.6919 24.8181 9.29061C24.8137 10.1466 24.1839 10.7852 23.328 10.7896C20.7601 10.794 18.1879 10.794 15.6201 10.7896C14.7508 10.7896 14.1255 10.1466 14.1255 9.26844C14.1211 7.30376 14.1255 5.34353 14.1255 3.37886C14.1255 3.26799 14.1255 3.15711 14.1255 3.02406C14.0058 3.01963 13.9126 3.01076 13.8239 3.01076C11.2251 3.01076 8.6262 3.00632 6.03177 3.01076C4.74121 3.01076 3.79213 3.73365 3.5216 4.92665C3.47282 5.14396 3.46838 5.37901 3.46838 5.60519C3.46395 11.6456 3.46395 17.6859 3.46838 23.7263C3.46838 25.0257 4.15579 25.9571 5.33105 26.2409C5.58384 26.303 5.85437 26.3163 6.12047 26.3163C10.511 26.3207 14.9016 26.3207 19.2922 26.3163C19.7135 26.3163 20.0993 26.3828 20.4275 26.6666C21.2436 27.3718 21.0484 28.6801 20.0639 29.1147C19.9796 29.1502 19.8998 29.1945 19.8155 29.23C14.9593 29.2345 10.1075 29.2345 5.25122 29.2345Z" fill="currentColor"/>
<path d="M13.6387 18.5109C13.6387 17.1094 13.6387 15.7036 13.6387 14.3021C13.6387 13.3442 14.1177 12.8608 15.0667 12.8652C15.8517 12.8696 16.6411 12.8519 17.4261 12.9096C19.1469 13.0337 20.7035 14.4618 21.0051 16.1781C21.0716 16.5595 21.0938 16.9498 21.0938 17.3356C21.0982 18.3379 21.116 19.3446 21.0672 20.3469C20.9785 22.1386 19.5682 23.7751 17.7942 24.0323C16.7919 24.1787 15.7541 24.1432 14.7341 24.1166C14.0467 24.0944 13.6431 23.5534 13.6387 22.8039C13.6343 21.3758 13.6387 19.9433 13.6387 18.5109ZM16.0823 15.2822C16.0823 15.4463 16.0823 15.5572 16.0823 15.6681C16.0823 17.411 16.0823 19.1539 16.0823 20.8968C16.0823 21.735 16.0823 21.735 16.9205 21.704C17.9494 21.6641 18.6235 21.0033 18.6457 19.9788C18.6679 18.9943 18.6635 18.0097 18.6457 17.0207C18.628 16.187 18.1357 15.5262 17.3862 15.3754C16.9782 15.2911 16.548 15.3133 16.0823 15.2822Z" fill="currentColor"/>
<path d="M8.06346 19.7305C8.06346 19.8858 8.06346 20.0099 8.06346 20.1297C8.05903 21.0965 8.07677 22.0633 8.04573 23.0301C8.02355 23.6377 7.56232 24.0679 6.9503 24.1388C6.40037 24.2009 5.85931 23.8373 5.69522 23.2829C5.65087 23.1321 5.642 22.968 5.642 22.8084C5.63756 19.9478 5.63756 17.0829 5.642 14.2224C5.642 13.3575 6.13428 12.8697 7.00352 12.8741C7.81068 12.8786 8.61783 12.852 9.41612 12.9185C11.0703 13.0515 12.321 14.4131 12.4585 16.1693C12.5782 17.686 11.434 19.2471 9.91726 19.6152C9.59795 19.6951 9.26533 19.7128 8.93715 19.735C8.65775 19.7438 8.38278 19.7305 8.06346 19.7305ZM8.09895 17.2825C8.46705 17.2825 8.82627 17.3091 9.18107 17.2736C9.65561 17.2248 10.0193 16.7902 10.0326 16.3156C10.0414 15.8411 9.69995 15.402 9.21654 15.34C8.85732 15.2956 8.48478 15.3311 8.10338 15.3311C8.09895 15.9786 8.09895 16.6172 8.09895 17.2825Z" fill="currentColor"/>
<path d="M25.0006 19.2426C25.0006 20.2449 25.0006 21.2029 25.0006 22.1564C25.0006 22.4047 25.0051 22.6486 25.0006 22.897C24.9873 23.6155 24.4862 24.1388 23.8032 24.1476C23.1335 24.1565 22.5836 23.6243 22.5659 22.9236C22.5481 22.3471 22.5614 21.7661 22.5614 21.1896C22.5614 19.4067 22.557 17.6239 22.5614 15.841C22.5659 14.4751 23.3198 13.3974 24.5527 13.0071C24.739 12.9495 24.9385 12.8962 25.1337 12.8918C25.9941 12.8741 26.8589 12.843 27.7192 12.8785C28.4022 12.9051 28.8812 13.4772 28.8635 14.1292C28.8457 14.79 28.3224 15.2911 27.6172 15.3044C26.9343 15.3177 26.2513 15.3088 25.5683 15.3088C25.1337 15.3088 25.0095 15.433 25.0051 15.8632C25.0051 16.1559 25.0051 16.4486 25.0051 16.7724C25.1204 16.7812 25.218 16.7901 25.32 16.7901C26.0606 16.7901 26.7968 16.7857 27.5374 16.7945C28.1627 16.8034 28.6018 17.0961 28.7881 17.6017C29.0763 18.3911 28.522 19.2116 27.6572 19.2337C26.8899 19.2559 26.1227 19.2382 25.3554 19.2382C25.249 19.2426 25.147 19.2426 25.0006 19.2426Z" fill="currentColor"/>
</svg>
