<svg width="17" height="17" viewBox="0 0 17 17" fill="none" xmlns="http://www.w3.org/2000/svg">
<path d="M3.77311 8.37305C3.49697 8.37305 3.27311 8.5969 3.27311 8.87305C3.27311 9.14919 3.49697 9.37305 3.77311 9.37305L3.77311 8.37305ZM13.1064 9.37305C13.3826 9.37305 13.6064 9.14919 13.6064 8.87305C13.6064 8.5969 13.3826 8.37305 13.1064 8.37305L13.1064 9.37305ZM3.77311 9.37305L13.1064 9.37305L13.1064 8.37305L3.77311 8.37305L3.77311 9.37305Z" fill="white"/>
<path d="M9.46 4.51949C9.26474 4.32423 8.94815 4.32423 8.75289 4.51949C8.55763 4.71476 8.55763 5.03134 8.75289 5.2266L9.46 4.51949ZM13.1064 8.87305L13.46 9.2266C13.5538 9.13283 13.6064 9.00566 13.6064 8.87305C13.6064 8.74044 13.5538 8.61326 13.46 8.51949L13.1064 8.87305ZM8.75289 12.5195C8.55763 12.7148 8.55763 13.0313 8.75289 13.2266C8.94815 13.4219 9.26474 13.4219 9.46 13.2266L8.75289 12.5195ZM8.75289 5.2266L12.7529 9.2266L13.46 8.51949L9.46 4.51949L8.75289 5.2266ZM12.7529 8.51949L8.75289 12.5195L9.46 13.2266L13.46 9.2266L12.7529 8.51949Z" fill="white"/>
</svg>
