<svg width="70" height="70" viewBox="0 0 70 70" fill="none" xmlns="http://www.w3.org/2000/svg">
<rect width="70" height="70" rx="15" fill="#006191"/>
<rect opacity="0.6" width="70" height="70" rx="15" fill="url(#paint0_linear_331_6614)"/>
<path d="M40.5478 25.0666H46.9452C47.2077 25.0483 47.4536 24.9311 47.6331 24.7387C47.8126 24.5462 47.9124 24.2929 47.9124 24.0297C47.9124 23.7665 47.8126 23.5131 47.6331 23.3207C47.4536 23.1282 47.2077 23.011 46.9452 22.9927H40.5478C40.2853 23.011 40.0394 23.1282 39.8599 23.3207C39.6804 23.5131 39.5806 23.7665 39.5806 24.0297C39.5806 24.2929 39.6804 24.5462 39.8599 24.7387C40.0394 24.9311 40.2853 25.0483 40.5478 25.0666Z" fill="white"/>
<path d="M35.0647 30.5501H46.9455C47.2081 30.5318 47.4539 30.4146 47.6334 30.2222C47.8129 30.0297 47.9128 29.7763 47.9128 29.5131C47.9128 29.25 47.8129 28.9966 47.6334 28.8041C47.4539 28.6117 47.2081 28.4945 46.9455 28.4762H35.0647C34.9225 28.4663 34.7797 28.4858 34.6453 28.5334C34.5109 28.581 34.3878 28.6558 34.2835 28.7531C34.1792 28.8503 34.0961 28.968 34.0392 29.0987C33.9824 29.2295 33.9531 29.3706 33.9531 29.5131C33.9531 29.6557 33.9824 29.7968 34.0392 29.9276C34.0961 30.0583 34.1792 30.176 34.2835 30.2732C34.3878 30.3705 34.5109 30.4453 34.6453 30.4929C34.7797 30.5405 34.9225 30.56 35.0647 30.5501Z" fill="white"/>
<path d="M24.5548 30.5501H30.0383C30.4378 30.5501 30.821 30.3914 31.1035 30.1089C31.386 29.8264 31.5447 29.4432 31.5447 29.0436V24.4741C31.5431 24.0789 31.3862 23.7002 31.1079 23.4196C30.8273 23.1413 30.4486 22.9844 30.0534 22.9827H24.5548C24.1553 22.9827 23.7721 23.1414 23.4896 23.4239C23.2071 23.7065 23.0484 24.0896 23.0484 24.4892V29.0587C23.0524 29.4556 23.2128 29.8349 23.4949 30.1142C23.777 30.3935 24.1579 30.5501 24.5548 30.5501ZM25.1474 25.0666H29.4709V28.4762H25.1474V25.0666Z" fill="white"/>
<path d="M46.9706 42.2049H42.0144L40.508 39.9352C40.4148 39.7949 40.2888 39.6795 40.1409 39.599C39.9931 39.5185 39.8277 39.4753 39.6594 39.4732C39.4928 39.468 39.3276 39.5042 39.1786 39.5787C39.0296 39.6532 38.9014 39.7636 38.8057 39.9L35.1903 44.9215L30.5002 36.3448C30.4044 36.1668 30.2585 36.0207 30.0806 35.9247C29.9027 35.8287 29.7005 35.7869 29.4991 35.8045C29.2977 35.8222 29.1059 35.8984 28.9473 36.0239C28.7888 36.1494 28.6705 36.3185 28.6071 36.5105L27.0153 41.2759H24.1079C23.9102 41.2571 23.7113 41.2942 23.5337 41.383C23.3562 41.4718 23.2071 41.6087 23.1036 41.7781C23.0052 41.9409 22.9532 42.1276 22.9532 42.3179C22.9532 42.5081 23.0052 42.6948 23.1036 42.8577C23.2018 43.0226 23.3441 43.1569 23.5143 43.2456C23.6846 43.3343 23.8762 43.3738 24.0677 43.3598H27.7484C27.9695 43.3647 28.1863 43.2985 28.3671 43.1711C28.5478 43.0437 28.683 42.8617 28.7527 42.6518L29.8273 39.438L34.1709 47.377C34.2523 47.5325 34.373 47.6639 34.5211 47.7581C34.6691 47.8524 34.8392 47.9063 35.0145 47.9143H35.0798C35.2459 47.9182 35.4104 47.8807 35.5585 47.8053C35.7066 47.73 35.8337 47.619 35.9284 47.4824L39.6192 42.3254L40.6235 43.8318C40.7176 43.9735 40.8452 44.0898 40.995 44.1703C41.1448 44.2509 41.3121 44.2933 41.4822 44.2938H46.9706C47.1683 44.3132 47.3675 44.2764 47.5452 44.1875C47.7229 44.0987 47.8718 43.9615 47.9749 43.7917C48.0747 43.6289 48.1275 43.4418 48.1274 43.2509C48.1274 43.06 48.0745 42.8729 47.9747 42.7102C47.8749 42.5475 47.7321 42.4156 47.562 42.3291C47.3918 42.2425 47.2011 42.2048 47.0108 42.2199L46.9706 42.2049Z" fill="white"/>
<path d="M51.3934 36.8018V49.1647C51.3921 49.7378 51.1635 50.287 50.7578 50.6918C50.352 51.0966 49.8023 51.3239 49.2292 51.3239H21.8119C21.2388 51.3239 20.6891 51.0966 20.2833 50.6918C19.8776 50.287 19.649 49.7378 19.6477 49.1647V21.7424C19.649 21.1688 19.8774 20.619 20.283 20.2134C20.6886 19.8079 21.2383 19.5794 21.8119 19.5781H49.2492C49.8228 19.5794 50.3726 19.8079 50.7781 20.2134C51.1837 20.619 51.4122 21.1688 51.4135 21.7424V25.0666H53.4823V20.8284C53.4837 20.3922 53.3987 19.96 53.2324 19.5567C53.0661 19.1534 52.8216 18.7869 52.5131 18.4785C52.2047 18.17 51.8382 17.9255 51.4349 17.7592C51.0316 17.5929 50.5994 17.5079 50.1632 17.5092H20.898C20.4617 17.5086 20.0295 17.5939 19.6263 17.7605C19.223 17.927 18.8565 18.1713 18.5477 18.4796C18.239 18.7879 17.994 19.154 17.8269 19.5571C17.6598 19.9601 17.5738 20.3921 17.5738 20.8284V50.0786C17.5751 50.9593 17.9259 51.8036 18.5492 52.4259C19.1725 53.0482 20.0172 53.3978 20.898 53.3978H50.1431C50.579 53.3978 51.0106 53.3119 51.4133 53.1451C51.816 52.9783 52.1819 52.7338 52.4901 52.4256C52.7983 52.1174 53.0428 51.7515 53.2096 51.3488C53.3764 50.9461 53.4623 50.5145 53.4623 50.0786V36.8018H51.3934Z" fill="white"/>
<path d="M53.4222 27.4618H51.3936V32.3477H53.4222V27.4618Z" fill="white"/>
<defs>
<linearGradient id="paint0_linear_331_6614" x1="35" y1="0" x2="35" y2="70" gradientUnits="userSpaceOnUse">
<stop stop-color="#013651"/>
<stop offset="1" stop-color="#014F77"/>
</linearGradient>
</defs>
</svg>
