<svg  width="70" height="70" viewBox="0 0 70 70" fill="none" >
<rect width="70" height="70" rx="15" fill="#006191"/>
<rect opacity="0.6" width="70" height="70" rx="15" fill="url(#paint0_linear_331_6632)"/>
<path d="M53.4822 31.5053L51.9938 25.5212C51.6495 24.1391 50.4193 23.0203 49.2498 23.0203H21.5521C20.3826 23.0203 19.1524 24.1391 18.8082 25.5212L17.2894 31.5053C17.2256 31.772 17.2 32.0464 17.2134 32.3203C17.2111 32.3303 17.2111 32.3407 17.2134 32.3507C17.211 32.3777 17.211 32.4047 17.2134 32.4317C17.2148 33.5994 17.6792 34.719 18.505 35.5447C19.3307 36.3704 20.4502 36.8349 21.6179 36.8362H21.709H21.7749H21.8711C22.6552 36.8369 23.4233 36.6139 24.0851 36.1933C24.7469 35.7727 25.2749 35.172 25.6073 34.4618C25.6753 34.3198 25.7815 34.1994 25.9139 34.1141C26.0463 34.0289 26.1999 33.9821 26.3573 33.9789C26.5148 33.9758 26.6701 34.0164 26.8058 34.0963C26.9415 34.1762 27.0524 34.2923 27.1261 34.4315C27.2818 34.762 27.481 35.0701 27.7184 35.3478L27.7589 35.3933L27.8298 35.4845C27.9174 35.5808 28.0103 35.6721 28.1082 35.7579C28.1943 35.8338 28.2854 35.9097 28.4019 35.9958L28.4626 36.0464L28.6297 36.1679C28.8198 36.2917 29.0196 36.4001 29.2271 36.4919L29.3283 36.5274H29.379C29.5601 36.5984 29.7462 36.6559 29.9358 36.6995L30.1383 36.7451C30.6297 36.843 31.1354 36.843 31.6268 36.7451L31.8191 36.7046C32.0052 36.6602 32.1879 36.6026 32.3659 36.5324H32.4267L32.5279 36.4919C32.7341 36.4027 32.9323 36.296 33.1202 36.173C33.1861 36.1325 33.2367 36.0869 33.2924 36.0464L33.3582 35.9958C33.4746 35.9097 33.5607 35.8338 33.6417 35.7629C33.7227 35.6921 33.8341 35.5807 33.9252 35.4845C33.9503 35.4571 33.974 35.4283 33.9961 35.3984L34.0264 35.3579C34.2655 35.0804 34.4664 34.7723 34.6238 34.4416C34.6947 34.301 34.8033 34.1829 34.9374 34.1004C35.0714 34.0178 35.2258 33.9741 35.3832 33.9741C35.5407 33.9741 35.695 34.0178 35.8291 34.1004C35.9632 34.1829 36.0717 34.301 36.1426 34.4416C36.2994 34.7742 36.5003 35.0841 36.74 35.363L36.7704 35.4035L36.8463 35.4895C36.9476 35.5959 37.0488 35.6971 37.1299 35.768C37.2109 35.8389 37.2969 35.9148 37.4134 36.0009L37.4792 36.0515C37.5318 36.096 37.5877 36.1366 37.6462 36.173C37.8341 36.2976 38.0323 36.406 38.2386 36.497L38.3449 36.5375H38.4006C38.5791 36.6062 38.7617 36.6637 38.9473 36.7097L39.1448 36.7501C39.6358 36.8514 40.1422 36.8514 40.6332 36.7501L40.8357 36.7097C41.0218 36.6653 41.2045 36.6077 41.3825 36.5375H41.4432L41.5495 36.497C41.7535 36.4067 41.9499 36.3 42.1368 36.1781C42.1968 36.1395 42.2543 36.0973 42.3089 36.0515L42.3747 36.0009C42.4912 35.9148 42.5772 35.8389 42.6583 35.768C42.7577 35.6804 42.8523 35.5874 42.9418 35.4895C42.9669 35.4621 42.9905 35.4334 43.0126 35.4035L43.043 35.363C43.2838 35.0868 43.4849 34.7784 43.6404 34.4466C43.7126 34.3075 43.8216 34.191 43.9555 34.1096C44.0894 34.0282 44.2431 33.9852 44.3998 33.9852C44.5565 33.9852 44.7102 34.0282 44.8441 34.1096C44.978 34.191 45.087 34.3075 45.1592 34.4466C45.4915 35.1568 46.0196 35.7575 46.6814 36.1781C47.3432 36.5987 48.1113 36.8217 48.8954 36.821H48.9764H49.0372H49.1131C50.1895 36.8205 51.2275 36.4214 52.0269 35.7005C52.8263 34.9797 53.3303 33.9883 53.4417 32.9177C53.5844 32.4595 53.5984 31.9709 53.4822 31.5053ZM19.5271 32.2342C19.5209 32.177 19.5209 32.1193 19.5271 32.0621L21.0205 26.0781C21.0983 25.7628 21.287 25.486 21.5521 25.2985H49.184C49.4664 25.4686 49.6702 25.7433 49.751 26.0629L51.2394 32.0469C51.2554 32.1029 51.2639 32.1609 51.2647 32.2191L51.1989 32.4166L51.1685 32.6646C51.1225 33.1582 50.8991 33.6184 50.5398 33.96C50.1806 34.3016 49.7097 34.5015 49.2144 34.5226H49.0726H48.8195C48.4835 34.5066 48.1584 34.3985 47.8798 34.2101C47.6012 34.0217 47.3799 33.7602 47.2399 33.4544C46.9885 32.925 46.5942 32.4764 46.1013 32.1593C45.6085 31.8421 45.0368 31.669 44.4509 31.6596C43.8649 31.6501 43.2879 31.8046 42.7851 32.1056C42.2823 32.4067 41.8736 32.8423 41.6052 33.3633L41.5647 33.4442C41.4911 33.5973 41.3956 33.7389 41.2812 33.8645L41.2255 33.9353L41.1091 34.0467L41.0028 34.1327L40.8762 34.229C40.8099 34.277 40.7386 34.3177 40.6636 34.3505L40.5522 34.3909C40.4744 34.4208 40.395 34.4462 40.3142 34.4669H40.2231C40.0029 34.5141 39.7751 34.5141 39.5549 34.4669H39.4637L39.2157 34.3909L39.1144 34.3505C39.0437 34.3194 38.9759 34.2822 38.9119 34.2391L38.7904 34.1479L38.6537 34.0366L38.5575 33.9454L38.4816 33.8543C38.3759 33.729 38.2858 33.5913 38.2133 33.4442L38.1728 33.3633C37.9064 32.8552 37.5062 32.4297 37.0154 32.1329C36.5246 31.836 35.9619 31.6791 35.3883 31.6791C34.8147 31.6791 34.252 31.836 33.7612 32.1329C33.2704 32.4297 32.8702 32.8552 32.6038 33.3633L32.5633 33.4442C32.4904 33.5965 32.3967 33.738 32.2849 33.8645L32.2292 33.9353L32.1128 34.0467L31.9963 34.1378L31.8799 34.229L31.6622 34.3505L31.5559 34.3909C31.4752 34.4223 31.3922 34.4476 31.3078 34.4669H31.2218C31.1113 34.4864 30.9997 34.4983 30.8876 34.5024C30.7787 34.5007 30.6703 34.4888 30.5636 34.4669H30.4674C30.3823 34.4502 30.2992 34.4247 30.2193 34.3909L30.113 34.3555C30.0371 34.3201 29.9713 34.2796 29.9105 34.2442L29.7941 34.153C29.7437 34.1181 29.6963 34.0792 29.6523 34.0366L29.5561 33.9454L29.4802 33.8543C29.3735 33.7316 29.2833 33.5954 29.2119 33.4493L29.1764 33.3683C28.9072 32.8475 28.498 32.4123 27.9948 32.1115C27.4916 31.8107 26.9145 31.6564 26.3283 31.6659C25.7422 31.6753 25.1703 31.8483 24.6771 32.1652C24.1839 32.482 23.7889 32.9302 23.5367 33.4594C23.3985 33.7656 23.1783 34.0275 22.9004 34.216C22.6224 34.4046 22.2977 34.5124 21.9622 34.5276H21.9065H21.7951H21.6787H21.5268C20.9969 34.5053 20.4947 34.2847 20.1197 33.9097C19.7446 33.5347 19.5241 33.0325 19.5017 32.5026C19.5043 32.4537 19.5043 32.4046 19.5017 32.3557V32.214L19.5271 32.2342Z" fill="white"/>
<path d="M50.5521 51.8013H19.999V38.8359H22.338V49.4624H48.2131V38.9828H50.5521V51.8013Z" fill="white"/>
<path d="M49.2279 18.9904H21.5605V21.3293H49.2279V18.9904Z" fill="white"/>
<defs>
<linearGradient id="paint0_linear_331_6632" x1="35" y1="0" x2="35" y2="70" gradientUnits="userSpaceOnUse">
<stop stop-color="#013651"/>
<stop offset="1" stop-color="#014F77"/>
</linearGradient>
</defs>
</svg>
