<?xml version="1.0" encoding="utf-8"?>
<!-- Generator: Adobe Illustrator 25.2.1, SVG Export Plug-In . SVG Version: 6.00 Build 0)  -->
<svg version="1.1" id="Layer_1" xmlns="http://www.w3.org/2000/svg" xmlns:xlink="http://www.w3.org/1999/xlink" x="0px" y="0px"
	 viewBox="0 0 287 640" style="enable-background:new 0 0 287 640;" xml:space="preserve">
<style type="text/css">
	.st0{fill:url(#SVGID_1_);stroke:#51859F;stroke-width:0.858;}
	.st1{fill:#E5EFF4;}
	.st2{fill:url(#SVGID_2_);stroke:#51859F;stroke-width:0.858;}
	.st3{fill:url(#SVGID_3_);stroke:#51859F;stroke-width:0.858;}
	.st4{fill:url(#SVGID_4_);stroke:#51859F;stroke-width:0.858;}
	.st5{fill:url(#SVGID_5_);stroke:#51859F;stroke-width:0.858;}
	.st6{fill:none;stroke:#51859F;stroke-width:0.858;}
	.st7{fill:url(#SVGID_6_);stroke:#51859F;stroke-width:0.858;}
	.st8{fill:url(#SVGID_7_);stroke:#51859F;stroke-width:0.858;}
	.st9{fill:url(#SVGID_8_);stroke:#51859F;stroke-width:0.858;}
	.st10{fill:url(#SVGID_9_);stroke:#51859F;stroke-width:0.858;}
	.st11{fill:url(#SVGID_10_);stroke:#51859F;stroke-width:0.858;}
	.st12{fill:url(#SVGID_11_);stroke:#51859F;stroke-width:0.858;}
</style>
<linearGradient id="SVGID_1_" gradientUnits="userSpaceOnUse" x1="205.91" y1="472.125" x2="205.91" y2="403.489" gradientTransform="matrix(1 0 0 -1 0 642)">
	<stop  offset="0" style="stop-color:#013651"/>
	<stop  offset="1" style="stop-color:#014F77"/>
</linearGradient>
<path class="st0" d="M158.7,170.3h94.4c4.5,0,8.2,3.6,8.2,8.2v51.5c0,4.5-3.6,8.2-8.2,8.2h-94.4c-4.5,0-8.2-3.6-8.2-8.2v-51.5
	C150.6,174,154.2,170.3,158.7,170.3z"/>
<path class="st1" d="M177.2,190.9h-1.8V188c0-1.7-1.4-2.9-3.5-2.9c-2.1,0-3.7,1.2-3.7,3.4c0,1.9,1.3,3.4,3.7,3.4h2.4v2.4h1.2v-2.4
	h1.8V190.9z M174.2,190.9h-2.3c-1.7,0-2.6-0.9-2.6-2.4c0-1.5,1-2.4,2.6-2.4c1.7,0,2.3,1,2.3,1.9V190.9z M179.2,196v-8h-1.1v8.9h2.9
	V196H179.2z M190.1,188v3.5c-0.1,1-0.8,1.8-1.7,1.8c-0.9,0-1.4-0.6-1.4-1.7V188h-3.8v-2.7h-1.1v11.6h1.1v-8h2.6v3.1
	c0,1.5,0.8,2.5,2.1,2.5c1,0,1.7-0.4,2.1-1.3v1.3h1.1V188H190.1z M201.8,188v3.5c-0.1,1-0.8,1.8-1.7,1.8c-0.9,0-1.4-0.6-1.4-1.7V188
	h-1.1v3.1c0,1.3-0.6,2.2-1.7,2.2c-0.9,0-1.4-0.6-1.4-1.7V188h-1.1v3.9c0,1.5,0.8,2.5,2.1,2.5c1.1,0,1.9-0.5,2.2-1.6
	c0.2,1,0.9,1.6,2,1.6c1,0,1.7-0.4,2.1-1.3v1.3h1.1V188H201.8z M210.8,196v-10.8h-1.1v5.9c0,1.3-0.7,2.2-1.9,2.2
	c-1,0-1.6-0.6-1.6-1.7V188H205v3.9c0,1.5,0.9,2.5,2.4,2.5c1.1,0,1.9-0.4,2.3-1.4v3.9h2.9V196H210.8z M216.9,187.9
	c-1.1,0-2,0.4-2.4,1.4V188h-1.1v6.4h1.1v-3.4c0.1-1.1,0.8-1.9,2-1.9c1.1,0,1.7,0.6,1.7,1.7v3.6h1.1v-3.9
	C219.3,188.9,218.4,187.9,216.9,187.9z M224.9,187.9c-1.1,0-2,0.4-2.4,1.4V188h-1.1v8.9h1.1v-5.9c0.1-1.1,0.8-1.9,2-1.9
	c1.1,0,1.7,0.6,1.7,1.7v3.6h1.1v-3.9C227.3,188.9,226.4,187.9,224.9,187.9z M176,202.9c-0.9,0-1.7,0.4-2.1,1.2V203h-1.1v3.6
	c-0.1,1-0.8,1.7-1.7,1.7c-0.9,0-1.4-0.6-1.4-1.7V203h-1.1v3.9c0,1.5,0.8,2.5,2.1,2.5c1,0,1.7-0.4,2.1-1.3v1.2h1.1v-3.9
	c0.2-0.9,0.8-1.5,1.7-1.5c0.9,0,1.4,0.6,1.4,1.7v3.6h1.1v-3.9C178.1,203.9,177.3,202.9,176,202.9z M184.8,203v3.1
	c0,1.3-0.7,2.2-1.9,2.2c-1,0-1.6-0.6-1.6-1.7v-6.4h-2.9v0.9h1.8v5.8c0,1.5,0.9,2.5,2.4,2.5c1.1,0,1.9-0.4,2.3-1.4v1.3h1.1V203H184.8
	z M190.8,202.9c-1.9,0-3.3,1.3-3.3,3.2c0,1.9,1.3,3.2,3.3,3.2c1.9,0,3.3-1.3,3.3-3.2C194.1,204.2,192.7,202.9,190.8,202.9z
	 M190.8,203.9c1.2,0,2.1,0.9,2.1,2.2c0,1.3-0.9,2.3-2.1,2.3c-1.2,0-2.1-0.9-2.1-2.3C188.6,204.8,189.5,203.9,190.8,203.9z
	 M199.2,202.9c-1.1,0-2,0.4-2.4,1.4V203h-1.1v8.9h1.1v-5.9c0.1-1.1,0.8-1.9,2-1.9c1.1,0,1.7,0.6,1.7,1.7v3.6h1.1v-3.9
	C201.6,203.9,200.7,202.9,199.2,202.9z M209.8,203.8V203h-5.1v-2.8h-1.1v6.7c0,1.5,0.9,2.5,2.4,2.5c1.1,0,1.9-0.4,2.3-1.4v1.3h1.1
	v-4.2h-1.1v0.9c0,1.3-0.7,2.2-1.9,2.2c-1,0-1.6-0.6-1.6-1.7v-2.8H209.8z M216,203v3.1c0,1.3-0.7,2.2-1.9,2.2c-1,0-1.6-0.6-1.6-1.7
	v-6.4h-2.9v0.9h1.8v5.8c0,1.5,0.9,2.5,2.4,2.5c1.1,0,1.9-0.4,2.3-1.4v1.3h1.1V203H216z M222.9,202.9c-1.1,0-2,0.4-2.4,1.4v-4.1h-1.1
	v11.6h1.1v-5.9c0.1-1.1,0.8-1.9,2-1.9c1.1,0,1.7,0.6,1.7,1.7v3.6h1.1v-3.9C225.3,203.9,224.4,202.9,222.9,202.9z M176,217.9
	c-0.9,0-1.7,0.4-2.1,1.2V218h-1.1v3.6c-0.1,1-0.8,1.7-1.7,1.7c-0.9,0-1.4-0.6-1.4-1.7V218h-1.1v3.9c0,1.5,0.8,2.5,2.1,2.5
	c1,0,1.7-0.4,2.1-1.3v1.2h1.1v-3.9c0.2-0.9,0.8-1.5,1.7-1.5c0.9,0,1.4,0.6,1.4,1.7v3.6h1.1v-3.9C178.1,218.9,177.3,217.9,176,217.9z
	 M186.2,218.8V218h-5.1v-2.8H180v6.7c0,1.5,0.9,2.5,2.4,2.5c1.1,0,1.9-0.4,2.3-1.4v1.3h1.1v-4.2h-1.1v0.9c0,1.3-0.7,2.2-1.9,2.2
	c-1,0-1.6-0.6-1.6-1.7v-2.8H186.2z M193.8,226v-5.6c0-1.5-0.9-2.5-2.4-2.5c-1.1,0-2,0.4-2.4,1.4V218h-1.1v6.4h1.1v-3.4
	c0.1-1.1,0.8-1.9,2-1.9c1.1,0,1.7,0.6,1.7,1.7v6.2h2.9V226H193.8z M204.7,218v3.5c-0.1,1-0.8,1.8-1.7,1.8c-0.9,0-1.4-0.6-1.4-1.7
	V218h-1.1v3.1c0,1.3-0.6,2.2-1.7,2.2c-0.9,0-1.4-0.6-1.4-1.7V218h-1.1v3.9c0,1.5,0.8,2.5,2.1,2.5c1.1,0,1.9-0.5,2.2-1.6
	c0.2,1,0.9,1.6,2,1.6c1,0,1.7-0.4,2.1-1.3v1.3h1.1V218H204.7z M212.6,218v3.1c0,1.3-0.7,2.2-1.9,2.2c-1,0-1.6-0.6-1.6-1.7v-6.4h-1.1
	v6.7c0,1.5,0.9,2.5,2.4,2.5c1.1,0,1.9-0.4,2.3-1.4v3.9h1.1V218H212.6z M224.2,218v3.5c-0.1,1-0.8,1.8-1.7,1.8
	c-0.9,0-1.4-0.6-1.4-1.7V218H220v3.1c0,1.3-0.6,2.2-1.7,2.2c-0.9,0-1.4-0.6-1.4-1.7V218h-1.1v3.9c0,1.5,0.8,2.5,2.1,2.5
	c1.1,0,1.9-0.5,2.2-1.6c0.2,1,0.9,1.6,2,1.6c1,0,1.7-0.4,2.1-1.3v1.3h1.1V218H224.2z M228.7,226v-8h-1.1v8.9h2.9V226H228.7z"/>
<linearGradient id="SVGID_2_" gradientUnits="userSpaceOnUse" x1="55.767" y1="462.543" x2="55.767" y2="411.066" gradientTransform="matrix(1 0 0 -1 0 642)">
	<stop  offset="0" style="stop-color:#013651"/>
	<stop  offset="1" style="stop-color:#014F77"/>
</linearGradient>
<path class="st2" d="M8.6,179.9H103c4.5,0,8.2,3.6,8.2,8.2v34.3c0,4.5-3.6,8.2-8.2,8.2H8.6c-4.5,0-8.2-3.6-8.2-8.2V188
	C0.4,183.5,4.1,179.9,8.6,179.9z"/>
<path class="st1" d="M27.3,199.2h-1.8v-2.9c0-1.7-1.4-2.9-3.5-2.9c-2.1,0-3.7,1.2-3.7,3.4c0,1.9,1.3,3.4,3.7,3.4h2.4v2.4h1.2v-2.4
	h1.8V199.2z M24.3,199.2h-2.3c-1.7,0-2.6-0.9-2.6-2.4c0-1.5,1-2.4,2.6-2.4c1.7,0,2.3,1,2.3,1.9V199.2z M29.4,204.3v-8h-1.1v8.9h2.9
	v-0.9H29.4z M40.2,196.3v3.5c-0.1,1-0.8,1.8-1.7,1.8c-0.9,0-1.4-0.6-1.4-1.7v-3.6h-3.8v-2.7h-1.1v11.6h1.1v-8H36v3.1
	c0,1.5,0.8,2.5,2.1,2.5c1,0,1.7-0.4,2.1-1.3v1.3h1.1v-6.4H40.2z M51.9,196.3v3.5c-0.1,1-0.8,1.8-1.7,1.8c-0.9,0-1.4-0.6-1.4-1.7
	v-3.6h-1.1v3.1c0,1.3-0.6,2.2-1.7,2.2c-0.9,0-1.4-0.6-1.4-1.7v-3.6h-1.1v3.9c0,1.5,0.8,2.5,2.1,2.5c1.1,0,1.9-0.5,2.2-1.6
	c0.2,1,0.9,1.6,2,1.6c1,0,1.7-0.4,2.1-1.3v1.3H53v-6.4H51.9z M60.9,204.3v-10.8h-1.1v5.9c0,1.3-0.7,2.2-1.9,2.2
	c-1,0-1.6-0.6-1.6-1.7v-3.6h-1.1v3.9c0,1.5,0.9,2.5,2.4,2.5c1.1,0,1.9-0.4,2.3-1.4v3.9h2.9v-0.9H60.9z M67,196.2
	c-1.1,0-2,0.4-2.4,1.4v-1.3h-1.1v6.4h1.1v-3.4c0.1-1.1,0.8-1.9,2-1.9c1.1,0,1.7,0.6,1.7,1.7v3.6h1.1v-3.9
	C69.4,197.2,68.5,196.2,67,196.2z M75,196.2c-1.1,0-2,0.4-2.4,1.4v-1.3h-1.1v8.9h1.1v-5.9c0.1-1.1,0.8-1.9,2-1.9
	c1.1,0,1.7,0.6,1.7,1.7v3.6h1.1v-3.9C77.4,197.2,76.5,196.2,75,196.2z M26.1,211.2c-0.9,0-1.7,0.4-2.1,1.2v-1.2h-1.1v3.6
	c-0.1,1-0.8,1.7-1.7,1.7c-0.9,0-1.4-0.6-1.4-1.7v-3.6h-1.1v3.9c0,1.5,0.8,2.5,2.1,2.5c1,0,1.7-0.4,2.1-1.3v1.2H24v-3.9
	c0.2-0.9,0.8-1.5,1.7-1.5c0.9,0,1.4,0.6,1.4,1.7v3.6h1.1v-3.9C28.2,212.2,27.4,211.2,26.1,211.2z M34.9,211.3v3.1
	c0,1.3-0.7,2.2-1.9,2.2c-1,0-1.6-0.6-1.6-1.7v-6.4h-2.9v0.9h1.8v5.8c0,1.5,0.9,2.5,2.4,2.5c1.1,0,1.9-0.4,2.3-1.4v1.3H36v-6.4H34.9z
	 M40.9,211.2c-1.9,0-3.3,1.3-3.3,3.2c0,1.9,1.3,3.2,3.3,3.2c1.9,0,3.3-1.3,3.3-3.2C44.2,212.5,42.8,211.2,40.9,211.2z M40.9,212.2
	c1.2,0,2.1,0.9,2.1,2.2c0,1.3-0.9,2.3-2.1,2.3c-1.2,0-2.1-0.9-2.1-2.3C38.8,213.1,39.6,212.2,40.9,212.2z M49.3,211.2
	c-1.1,0-2,0.4-2.4,1.4v-1.3h-1.1v8.9h1.1v-5.9c0.1-1.1,0.8-1.9,2-1.9c1.1,0,1.7,0.6,1.7,1.7v3.6h1.1v-3.9
	C51.7,212.2,50.8,211.2,49.3,211.2z M59.9,212.1v-0.9h-5.1v-2.8h-1.1v6.7c0,1.5,0.9,2.5,2.4,2.5c1.1,0,1.9-0.4,2.3-1.4v1.3h1.1v-4.2
	h-1.1v0.9c0,1.3-0.7,2.2-1.9,2.2c-1,0-1.6-0.6-1.6-1.7v-2.8H59.9z M66.1,211.3v3.1c0,1.3-0.7,2.2-1.9,2.2c-1,0-1.6-0.6-1.6-1.7v-6.4
	h-2.9v0.9h1.8v5.8c0,1.5,0.9,2.5,2.4,2.5c1.1,0,1.9-0.4,2.3-1.4v1.3h1.1v-6.4H66.1z"/>
<linearGradient id="SVGID_3_" gradientUnits="userSpaceOnUse" x1="224.3535" y1="552.7734" x2="224.3535" y2="501.296" gradientTransform="matrix(1 0 0 -1 0 642)">
	<stop  offset="0" style="stop-color:#013651"/>
	<stop  offset="1" style="stop-color:#014F77"/>
</linearGradient>
<path class="st3" d="M170.7,89.7H278c4.5,0,8.2,3.6,8.2,8.2v34.3c0,4.5-3.6,8.2-8.2,8.2H170.7c-4.5,0-8.2-3.6-8.2-8.2V97.8
	C162.6,93.3,166.2,89.7,170.7,89.7z"/>
<path class="st1" d="M185.4,107v2c0,1.6-0.9,2.5-2.4,2.5c-1.5,0-2.4-0.9-2.4-2.5v-5.7h-3.3v1h2.1v4.6c0,2.2,1.3,3.5,3.6,3.5
	c2.2,0,3.5-1.3,3.5-3.5v-2H185.4z M194.6,106.9V106h-5.1v-2.8h-1.1v6.7c0,1.5,0.9,2.5,2.4,2.5c1.1,0,1.9-0.4,2.3-1.4v1.3h1.1v-4.2
	h-1.1v0.9c0,1.3-0.7,2.2-1.9,2.2c-1,0-1.6-0.6-1.6-1.7v-2.8H194.6z M199.8,106c-1.1,0-2,0.4-2.4,1.4V106h-1.1v8.9h1.1V109
	c0.1-1.1,0.8-1.9,2-1.9c1.1,0,1.7,0.6,1.7,1.7v3.6h1.1v-3.9C202.2,106.9,201.3,106,199.8,106z M211.3,113.1h-5.7v-2
	c0.5,0.8,1.3,1.3,2.4,1.3c1.8,0,3-1.3,3-3.2c0-1.9-1.2-3.2-3-3.2c-1.1,0-1.9,0.5-2.4,1.3V106h-1.1v7.1h-0.9v0.9h0.9v0.9h1.1V114h5.7
	V113.1z M207.8,106.9c1.2,0,2.1,0.9,2.1,2.2c0,1.3-0.9,2.3-2.1,2.3c-1.2,0-2.1-0.9-2.1-2.3C205.6,107.9,206.5,106.9,207.8,106.9z
	 M216.5,106c-1.1,0-2,0.4-2.4,1.4v-4.1h-1.1v11.6h1.1V109c0.1-1.1,0.8-1.9,2-1.9c1.1,0,1.7,0.6,1.7,1.7v3.6h1.1v-3.9
	C218.9,106.9,218,106,216.5,106z M225.7,106v3.1c0,1.3-0.7,2.2-1.9,2.2c-1,0-1.6-0.6-1.6-1.7v-6.4h-2.9v0.9h1.8v5.8
	c0,1.5,0.9,2.5,2.4,2.5c1.1,0,1.9-0.4,2.3-1.4v1.3h1.1V106H225.7z M187,121v3.5c-0.1,1-0.8,1.8-1.7,1.8c-0.9,0-1.4-0.6-1.4-1.7V121
	h-1.1v3.1c0,1.3-0.6,2.2-1.7,2.2c-0.9,0-1.4-0.6-1.4-1.7V121h-1.1v3.9c0,1.5,0.8,2.5,2.1,2.5c1.1,0,1.9-0.5,2.2-1.6
	c0.2,1,0.9,1.6,2,1.6c1,0,1.7-0.4,2.1-1.3v1.3h1.1V121H187z M193.9,121c-1.1,0-2,0.4-2.4,1.4V121h-1.1v6.4h1.1V124
	c0.1-1.1,0.8-1.9,2-1.9c1.1,0,1.7,0.6,1.7,1.7v3.6h1.1v-3.9C196.3,121.9,195.4,121,193.9,121z M198.7,126.5V121h-1.1v6.4h2.9v-0.9
	H198.7z M209.9,126.5h-1.8v-3.1c0-1.5-0.9-2.5-2.4-2.5c-1.1,0-2,0.4-2.4,1.4V121h-1.1v6.4h1.1V124c0.1-1.1,0.8-1.9,2-1.9
	c1.1,0,1.7,0.6,1.7,1.7v6.2h1.1v-2.5h1.8V126.5z M214.4,121c-1.1,0-2,0.4-2.4,1.4v-4.1h-1.1v11.6h1.1V124c0.1-1.1,0.8-1.9,2-1.9
	c1.1,0,1.7,0.6,1.7,1.7v3.6h1.1v-3.9C216.8,121.9,215.9,121,214.4,121z M226.1,121c-0.9,0-1.7,0.4-2.1,1.2V121h-1.1v3.6
	c-0.1,1-0.8,1.7-1.7,1.7c-0.9,0-1.4-0.6-1.4-1.7V121h-1.1v3.9c0,1.5,0.8,2.5,2.1,2.5c1,0,1.7-0.4,2.1-1.3v1.2h1.1v-3.9
	c0.2-0.9,0.8-1.5,1.7-1.5c0.9,0,1.4,0.6,1.4,1.7v3.6h1.1v-3.9C228.2,121.9,227.5,121,226.1,121z"/>
<linearGradient id="SVGID_4_" gradientUnits="userSpaceOnUse" x1="62.2015" y1="552.2695" x2="62.2015" y2="500.792" gradientTransform="matrix(1 0 0 -1 0 642)">
	<stop  offset="0" style="stop-color:#013651"/>
	<stop  offset="1" style="stop-color:#014F77"/>
</linearGradient>
<path class="st4" d="M8.6,90.2h107.2c4.5,0,8.2,3.6,8.2,8.2v34.3c0,4.5-3.6,8.2-8.2,8.2H8.6c-4.5,0-8.2-3.6-8.2-8.2V98.3
	C0.4,93.8,4.1,90.2,8.6,90.2z"/>
<path class="st1" d="M16,109.7h1.2c0,1.5,1.1,2.2,2.8,2.2c1.7,0,2.7-0.5,2.7-1.6c0-2.5-6.3-0.8-6.2-4.4c0-1.3,1.3-2.3,3.6-2.3
	c1.5,0,3.4,0.7,3.4,2.4h-1.2c0-0.7-0.7-1.4-2.2-1.4c-1.5,0-2.4,0.4-2.4,1.2c0,2.4,6.3,0.7,6.2,4.5c0,1.7-1.6,2.5-3.9,2.5
	C18,113,15.9,112.2,16,109.7z M30.2,106.5v3.1c0,1.3-0.7,2.2-1.9,2.2c-1,0-1.6-0.6-1.6-1.7v-6.4h-2.9v0.9h1.8v5.8
	c0,1.5,0.9,2.5,2.4,2.5c1.1,0,1.9-0.4,2.3-1.4v1.3h1.1v-6.4H30.2z M36.3,106.5c-1.9,0-3.3,1.3-3.3,3.2c0,1.9,1.3,3.2,3.3,3.2
	s3.3-1.3,3.3-3.2C39.5,107.8,38.2,106.5,36.3,106.5z M36.3,107.5c1.2,0,2.1,0.9,2.1,2.2c0,1.3-0.9,2.3-2.1,2.3s-2.1-0.9-2.1-2.3
	C34.1,108.4,35,107.5,36.3,107.5z M44.7,106.5c-1.1,0-2,0.4-2.4,1.4v-1.3h-1.1v8.9h1.1v-5.9c0.1-1.1,0.8-1.9,2-1.9
	c1.1,0,1.7,0.6,1.7,1.7v3.6h1.1V109C47.1,107.4,46.2,106.5,44.7,106.5z M55.3,107.4v-0.9h-5.1v-2.8H49v6.7c0,1.5,0.9,2.5,2.4,2.5
	c1.1,0,1.9-0.4,2.3-1.4v1.3h1.1v-4.2h-1.1v0.9c0,1.3-0.7,2.2-1.9,2.2c-1,0-1.6-0.6-1.6-1.7v-2.8H55.3z M61.5,106.5v3.1
	c0,1.3-0.7,2.2-1.9,2.2c-1,0-1.6-0.6-1.6-1.7v-6.4H55v0.9h1.8v5.8c0,1.5,0.9,2.5,2.4,2.5c1.1,0,1.9-0.4,2.3-1.4v1.3h1.1v-6.4H61.5z
	 M69.7,106.5v3.1c0,1.3-0.7,2.2-1.9,2.2c-1,0-1.6-0.6-1.6-1.7v-6.4h-2.9v0.9h1.8v5.8c0,1.5,0.9,2.5,2.4,2.5c1.1,0,1.9-0.4,2.3-1.4
	v1.3h1.1v-6.4H69.7z M79.1,107.4v-0.9H74v-2.8h-1.1v6.7c0,1.5,0.9,2.5,2.4,2.5c1.1,0,1.9-0.4,2.3-1.4v1.3h1.1v-4.2h-1.1v0.9
	c0,1.3-0.7,2.2-1.9,2.2c-1,0-1.6-0.6-1.6-1.7v-2.8H79.1z M84.3,106.5c-1.1,0-2,0.4-2.4,1.4v-1.3h-1.1v8.9h1.1v-5.9
	c0.1-1.1,0.8-1.9,2-1.9c1.1,0,1.7,0.6,1.7,1.7v3.6h1.1V109C86.7,107.4,85.8,106.5,84.3,106.5z M92.3,106.5c-1.1,0-2,0.4-2.4,1.4
	v-4.1h-1.1v11.6h1.1v-5.9c0.1-1.1,0.8-1.9,2-1.9c1.1,0,1.7,0.6,1.7,1.7v3.6h1.1V109C94.7,107.4,93.8,106.5,92.3,106.5z M24.5,121.5
	v3.5c-0.1,1-0.8,1.8-1.7,1.8c-0.9,0-1.4-0.6-1.4-1.7v-3.6h-3.8v-2.7h-1.1v11.6h1.1v-8h2.6v3.1c0,1.5,0.8,2.5,2.1,2.5
	c1,0,1.7-0.4,2.1-1.3v1.3h1.1v-6.4H24.5z M31.4,121.5c-1.1,0-2,0.4-2.4,1.4v-1.3h-1.1v6.4H29v-3.4c0.1-1.1,0.8-1.9,2-1.9
	c1.1,0,1.7,0.6,1.7,1.7v3.6h1.1V124C33.8,122.4,32.9,121.5,31.4,121.5z M39.4,121.5c-1.1,0-2,0.4-2.4,1.4v-1.3h-1.1v8.9H37v-5.9
	c0.1-1.1,0.8-1.9,2-1.9c1.1,0,1.7,0.6,1.7,1.7v3.6h1.1V124C41.8,122.4,40.9,121.5,39.4,121.5z M47.4,121.5c-1.1,0-2,0.4-2.4,1.4
	v-4.1h-1.1v9.1H45v-3.1c0-1.3,0.7-2.2,2-2.2c1.1,0,1.7,0.6,1.7,1.7v3.6h1.1V124C49.8,122.4,48.9,121.5,47.4,121.5z M55.4,121.5
	c-1.1,0-2,0.4-2.4,1.4v-1.3h-1.1v6.4H53v-3.4c0.1-1.1,0.8-1.9,2-1.9c1.1,0,1.7,0.6,1.7,1.7v3.6h1.1V124
	C57.8,122.4,56.9,121.5,55.4,121.5z M60.2,127v-5.5h-1.1v6.4H62V127H60.2z M67.3,121.5c-1.1,0-2,0.4-2.4,1.4v-1.3h-1.1v8.9h1.1v-5.9
	c0.1-1.1,0.8-1.9,2-1.9c1.1,0,1.7,0.6,1.7,1.7v3.6h1.1V124C69.7,122.4,68.8,121.5,67.3,121.5z M79.5,127h-1.8V124
	c0-1.5-0.9-2.5-2.4-2.5c-1.1,0-2,0.4-2.4,1.4v-1.3h-1.1v6.4h1.1v-3.4c0.1-1.1,0.8-1.9,2-1.9c1.1,0,1.7,0.6,1.7,1.7v6.2h1.1v-2.5h1.8
	V127z"/>
<linearGradient id="SVGID_5_" gradientUnits="userSpaceOnUse" x1="69.923" y1="642" x2="69.923" y2="590.5228" gradientTransform="matrix(1 0 0 -1 0 642)">
	<stop  offset="0" style="stop-color:#013651"/>
	<stop  offset="1" style="stop-color:#014F77"/>
</linearGradient>
<path class="st5" d="M8.6,0.4h122.7c4.5,0,8.2,3.6,8.2,8.2v34.3c0,4.5-3.6,8.2-8.2,8.2H8.6c-4.5,0-8.2-3.6-8.2-8.2V8.6
	C0.4,4.1,4.1,0.4,8.6,0.4z"/>
<path class="st1" d="M24,20h-6.3v-2.7c0-1.6,0.9-2.5,2.4-2.5c1.5,0,2.4,0.9,2.4,2.5v0.8h1.2v-0.8c0-2.2-1.3-3.5-3.5-3.5
	c-2.2,0-3.6,1.3-3.6,3.5v5.8h1.2v-2.1H24V20z M34.3,16.8v3.5c-0.1,1-0.8,1.8-1.7,1.8c-0.9,0-1.4-0.6-1.4-1.7v-3.6h-1.1v3.1
	c0,1.3-0.6,2.2-1.7,2.2c-0.9,0-1.4-0.6-1.4-1.7v-3.6h-1.1v3.9c0,1.5,0.8,2.5,2.1,2.5c1.1,0,1.9-0.5,2.2-1.6c0.2,1,0.9,1.6,2,1.6
	c1,0,1.7-0.4,2.1-1.3v1.3h1.1v-6.4H34.3z M45.2,16.8h-1.8v-2.7h-1.1v2.7h-1.9c-2.1,0-3.2,1.5-3.2,3.3c0,2.1,1.5,3.1,3.2,3.1
	c1.8,0,3-1,3-2.9v-2.5h1.8V16.8z M42.2,20.2c0,1.1-0.5,2.1-1.9,2.1c-1.5,0-2.1-1.2-2.1-2.1c0-1.3,0.7-2.3,2.2-2.3h1.7V20.2z
	 M50.5,16.8v3.1c0,1.3-0.7,2.2-1.9,2.2c-1,0-1.6-0.6-1.6-1.7v-6.4H44v0.9h1.8v5.8c0,1.5,0.9,2.5,2.4,2.5c1.1,0,1.9-0.4,2.3-1.4v1.3
	h1.1v-6.4H50.5z M60,17.7v-0.9h-5.1v-2.8h-1.1v6.7c0,1.5,0.9,2.5,2.4,2.5c1.1,0,1.9-0.4,2.3-1.4v1.3h1.1V19h-1.1v0.9
	c0,1.3-0.7,2.2-1.9,2.2c-1,0-1.6-0.6-1.6-1.7v-2.8H60z M68.9,16.8c-0.9,0-1.7,0.4-2.1,1.2v-1.2h-1.1v3.6c-0.1,1-0.8,1.7-1.7,1.7
	c-0.9,0-1.4-0.6-1.4-1.7v-3.6h-1.1v3.9c0,1.5,0.8,2.5,2.1,2.5c1,0,1.7-0.4,2.1-1.3v1.2h1.1v-3.9c0.2-0.9,0.8-1.5,1.7-1.5
	c0.9,0,1.4,0.6,1.4,1.7v3.6H71v-3.9C71,17.7,70.2,16.8,68.9,16.8z M79.1,17.7v-0.9H74v-2.8h-1.1v6.7c0,1.5,0.9,2.5,2.4,2.5
	c1.1,0,1.9-0.4,2.3-1.4v1.3h1.1V19h-1.1v0.9c0,1.3-0.7,2.2-1.9,2.2c-1,0-1.6-0.6-1.6-1.7v-2.8H79.1z M84.3,16.8
	c-1.1,0-2,0.4-2.4,1.4v-1.3h-1.1v8.9h1.1v-5.9c0.1-1.1,0.8-1.9,2-1.9c1.1,0,1.7,0.6,1.7,1.7v3.6h1.1v-3.9
	C86.7,17.7,85.8,16.8,84.3,16.8z M94.9,17.7v-0.9h-5.1v-2.8h-1.1v6.7c0,1.5,0.9,2.5,2.4,2.5c1.1,0,1.9-0.4,2.3-1.4v1.3h1.1V19h-1.1
	v0.9c0,1.3-0.7,2.2-1.9,2.2c-1,0-1.6-0.6-1.6-1.7v-2.8H94.9z M100.1,16.8c-1.1,0-2,0.4-2.4,1.4v-1.3h-1.1v8.9h1.1v-5.9
	c0.1-1.1,0.8-1.9,2-1.9c1.1,0,1.7,0.6,1.7,1.7v3.6h1.1v-3.9C102.5,17.7,101.6,16.8,100.1,16.8z M108.1,16.8c-1.1,0-2,0.4-2.4,1.4
	v-4.1h-1.1v11.6h1.1v-5.9c0.1-1.1,0.8-1.9,2-1.9c1.1,0,1.7,0.6,1.7,1.7v3.6h1.1v-3.9C110.5,17.7,109.6,16.8,108.1,16.8z M24.1,31.8
	h-1.8v-2.7h-1.1v2.7h-1.9c-2.1,0-3.2,1.5-3.2,3.3c0,2.1,1.5,3.1,3.2,3.1c1.8,0,3-1,3-2.9v-2.5h1.8V31.8z M21.1,35.2
	c0,1.1-0.5,2.1-1.9,2.1c-1.5,0-2.1-1.2-2.1-2.2c0-1.3,0.7-2.3,2.2-2.3h1.7V35.2z M28.3,31.8c-1.1,0-2,0.4-2.4,1.4v-1.3h-1.1v6.4h1.1
	v-3.4c0.1-1.1,0.8-1.9,2-1.9c1.1,0,1.7,0.6,1.7,1.7v3.6h1.1v-3.9C30.8,32.7,29.9,31.8,28.3,31.8z M38.8,39.8v-5.6
	c0-1.5-0.9-2.5-2.4-2.5c-1.1,0-2,0.4-2.4,1.4v-1.3h-1.1v6.4h1.1v-3.4c0.1-1.1,0.8-1.9,2-1.9c1.1,0,1.7,0.6,1.7,1.7v6.2h2.9v-0.9
	H38.8z M44.8,31.8c-1.1,0-2,0.4-2.4,1.4v-1.3h-1.1v6.4h1.1v-3.4c0.1-1.1,0.8-1.9,2-1.9c1.1,0,1.7,0.6,1.7,1.7v3.6h1.1v-3.9
	C47.2,32.7,46.3,31.8,44.8,31.8z M55,39.8V29.1h-1.1v5.9c0,1.3-0.7,2.2-1.9,2.2c-1,0-1.6-0.6-1.6-1.7v-3.6h-1.1v3.9
	c0,1.5,0.9,2.5,2.4,2.5c1.1,0,1.9-0.4,2.3-1.4v3.9h2.9v-0.9H55z"/>
<path class="st6" d="M15.4,261.5h152.2"/>
<path class="st6" d="M124.4,115h37.7"/>
<linearGradient id="SVGID_6_" gradientUnits="userSpaceOnUse" x1="169.0149" y1="39.996" x2="169.0149" y2="2.246" gradientTransform="matrix(1 0 0 -1 0 642)">
	<stop  offset="0" style="stop-color:#013651"/>
	<stop  offset="1" style="stop-color:#014F77"/>
</linearGradient>
<path class="st7" d="M61.8,602.4h214.5c4.5,0,8.2,3.6,8.2,8.2v20.6c0,4.5-3.6,8.2-8.2,8.2H61.8c-4.5,0-8.2-3.6-8.2-8.2v-20.6
	C53.6,606.1,57.3,602.4,61.8,602.4z"/>
<path class="st1" d="M79.4,616.5h-3.3v5.7c0,1.6-0.9,2.5-2.4,2.5c-1.5,0-2.4-0.9-2.4-2.5v-5.7h-1.2v5.7c0,2.2,1.3,3.5,3.6,3.5
	c2.2,0,3.5-1.3,3.5-3.5v-4.6h2.1V616.5z M88.5,619.2v3.5c-0.1,1-0.8,1.8-1.7,1.8c-0.9,0-1.4-0.6-1.4-1.7v-3.6h-1.1v3.1
	c0,1.3-0.6,2.2-1.7,2.2c-0.9,0-1.4-0.6-1.4-1.7v-3.6H80v3.9c0,1.5,0.8,2.5,2.1,2.5c1.1,0,1.9-0.5,2.2-1.6c0.2,1,0.9,1.6,2,1.6
	c1,0,1.7-0.4,2.1-1.3v1.3h1.1v-6.4H88.5z M95.4,619.2c-1.1,0-2,0.4-2.4,1.4v-1.3h-1.1v8.9H93v-5.9c0.1-1.1,0.8-1.9,2-1.9
	c1.1,0,1.7,0.6,1.7,1.7v3.6h1.1v-3.9C97.8,620.1,96.9,619.2,95.4,619.2z M106.9,626.3h-5.7v-2c0.5,0.8,1.3,1.3,2.4,1.3
	c1.8,0,3-1.3,3-3.2c0-1.9-1.2-3.2-3-3.2c-1.1,0-1.9,0.5-2.4,1.3v-1.3h-1.1v7.1h-0.9v0.9h0.9v0.9h1.1v-0.9h5.7V626.3z M103.3,620.1
	c1.2,0,2.1,0.9,2.1,2.2c0,1.3-0.9,2.3-2.1,2.3c-1.2,0-2.1-0.9-2.1-2.3C101.2,621.1,102.1,620.1,103.3,620.1z M114.6,620.1v-0.9h-5.1
	v-2.8h-1.1v6.7c0,1.5,0.9,2.5,2.4,2.5c1.1,0,1.9-0.4,2.3-1.4v1.3h1.1v-4.2H113v0.9c0,1.3-0.7,2.2-1.9,2.2c-1,0-1.6-0.6-1.6-1.7v-2.8
	H114.6z M124.6,621.6h-1.2c0-1.6-1.4-2.4-3-2.4c-1.2,0-2.4,0.5-3,1.4v-1.3h-1.1v8.9h1.1v-5.7c0-1.1,1.3-2.2,2.7-2.2
	c1.1,0,2,0.4,2.2,1.4h-1.1c-1.4,0-2.3,0.7-2.3,2c0,1.3,0.9,2.1,2.4,2.1c1.2,0,2.2-0.7,2.2-2.1v-1.1h1.2V621.6z M122.3,623.6
	c0,0.7-0.3,1.2-1.2,1.2c-0.7,0-1.3-0.4-1.3-1.2c0-0.8,0.7-1.1,1.2-1.1h1.3V623.6z M129,619.2c-1.1,0-2,0.4-2.4,1.4v-4.1h-1.1v11.6
	h1.1v-5.9c0.1-1.1,0.8-1.9,2-1.9c1.1,0,1.7,0.6,1.7,1.7v3.6h1.1v-3.9C131.4,620.1,130.5,619.2,129,619.2z M138.3,619.2v3.1
	c0,1.3-0.7,2.2-1.9,2.2c-1,0-1.6-0.6-1.6-1.7v-6.4h-2.9v0.9h1.8v5.8c0,1.5,0.9,2.5,2.4,2.5c1.1,0,1.9-0.4,2.3-1.4v1.3h1.1v-6.4
	H138.3z M149.5,624.7h-1.8v-5.5h-1.1v1.2c-0.5-0.8-1.3-1.3-2.4-1.3c-1.8,0-3,1.3-3,3.2c0,1.9,1.2,3.3,3.1,3.3c1.1,0,1.9-0.5,2.4-1.3
	v3.8h1.1v-2.5h1.8V624.7z M144.4,624.7c-1.3,0-2.1-0.9-2.2-2.3c0-1.3,0.9-2.3,2.2-2.3c1.3,0,2.1,0.9,2.1,2.3
	C146.5,623.7,145.6,624.7,144.4,624.7z M153.9,619.2c-1.1,0-2,0.4-2.4,1.4v-4.1h-1.1v11.6h1.1v-5.9c0.1-1.1,0.8-1.9,2-1.9
	c1.1,0,1.7,0.6,1.7,1.7v3.6h1.1v-3.9C156.4,620.1,155.4,619.2,153.9,619.2z M168.3,624.7h-5.1v-2.5c0.1-1.1,0.8-1.9,2-1.9
	c1.1,0,1.7,0.6,1.7,1.7v1.4h1.1v-1.7c0-1.5-0.9-2.5-2.4-2.5c-1.1,0-2,0.4-2.4,1.4v-1.3H162v8.9h1.1v-2.5h5.1V624.7z M178.2,619.2
	v3.5c-0.1,1-0.8,1.8-1.7,1.8c-0.9,0-1.4-0.6-1.4-1.7v-3.6H174v3.1c0,1.3-0.6,2.2-1.7,2.2c-0.9,0-1.4-0.6-1.4-1.7v-3.6h-1.1v3.9
	c0,1.5,0.8,2.5,2.1,2.5c1.1,0,1.9-0.5,2.2-1.6c0.2,1,0.9,1.6,2,1.6c1,0,1.7-0.4,2.1-1.3v1.3h1.1v-6.4H178.2z M189.1,619.2h-1.8v-2.7
	h-1.1v2.7h-1.9c-2.1,0-3.2,1.5-3.2,3.3c0,2.1,1.5,3.1,3.2,3.1c1.8,0,3-1,3-2.9v-2.5h1.8V619.2z M186.2,622.6c0,1.1-0.5,2.1-1.9,2.1
	c-1.5,0-2.1-1.2-2.1-2.2c0-1.3,0.7-2.3,2.2-2.3h1.7V622.6z M193.4,619.2c-1.1,0-2,0.4-2.4,1.4v-4.1h-1.1v11.6h1.1v-5.9
	c0.1-1.1,0.8-1.9,2-1.9c1.1,0,1.7,0.6,1.7,1.7v3.6h1.1v-3.9C195.8,620.1,194.9,619.2,193.4,619.2z M202.6,619.2v3.1
	c0,1.3-0.7,2.2-1.9,2.2c-1,0-1.6-0.6-1.6-1.7v-6.4h-2.9v0.9h1.8v5.8c0,1.5,0.9,2.5,2.4,2.5c1.1,0,1.9-0.4,2.3-1.4v1.3h1.1v-6.4
	H202.6z"/>
<linearGradient id="SVGID_7_" gradientUnits="userSpaceOnUse" x1="169.0149" y1="93.047" x2="169.0149" y2="55.297" gradientTransform="matrix(1 0 0 -1 0 642)">
	<stop  offset="0" style="stop-color:#013651"/>
	<stop  offset="1" style="stop-color:#014F77"/>
</linearGradient>
<path class="st8" d="M61.8,549.4h214.5c4.5,0,8.2,3.6,8.2,8.2v20.6c0,4.5-3.6,8.2-8.2,8.2H61.8c-4.5,0-8.2-3.6-8.2-8.2v-20.6
	C53.6,553,57.3,549.4,61.8,549.4z"/>
<path class="st1" d="M73.8,565.1c-1,0-1.8,0.5-2.4,1.2v-2.8h-1.1v9.1h1.1V570h0v-1.4c0-1.5,0.9-2.5,2.4-2.5c1.5,0,2.4,1.1,2.4,2.6
	v1.1h1.2v-1.1C77.3,566.6,76.1,565.1,73.8,565.1z M82.9,566.1c-1.1,0-2,0.4-2.4,1.4v-1.3h-1.1v8.9h1.1v-5.9c0.1-1.1,0.8-1.9,2-1.9
	c1.1,0,1.7,0.6,1.7,1.7v3.6h1.1v-3.9C85.3,567.1,84.4,566.1,82.9,566.1z M95.7,566.2v3.5c-0.1,1-0.8,1.8-1.7,1.8
	c-0.9,0-1.4-0.6-1.4-1.7v-3.6h-1.1v3.1c0,1.3-0.6,2.2-1.7,2.2c-0.9,0-1.4-0.6-1.4-1.7v-3.6h-1.1v3.9c0,1.5,0.8,2.5,2.1,2.5
	c1.1,0,1.9-0.5,2.2-1.6c0.2,1,0.9,1.6,2,1.6c1,0,1.7-0.4,2.1-1.3v1.3h1.1v-6.4H95.7z M104.7,574.2v-10.8h-1.1v5.9
	c0,1.3-0.7,2.2-1.9,2.2c-1,0-1.6-0.6-1.6-1.7v-3.6h-1.1v3.9c0,1.5,0.9,2.5,2.4,2.5c1.1,0,1.9-0.4,2.3-1.4v3.9h2.9v-0.9H104.7z
	 M115.5,566.2v3.5c-0.1,1-0.8,1.8-1.7,1.8c-0.9,0-1.4-0.6-1.4-1.7v-3.6h-1.1v3.1c0,1.3-0.6,2.2-1.7,2.2c-0.9,0-1.4-0.6-1.4-1.7v-3.6
	h-1.1v3.9c0,1.5,0.8,2.5,2.1,2.5c1.1,0,1.9-0.5,2.2-1.6c0.2,1,0.9,1.6,2,1.6c1,0,1.7-0.4,2.1-1.3v1.3h1.1v-6.4H115.5z M125.1,571.7
	H120v-2.5c0.1-1.1,0.8-1.9,2-1.9c1.1,0,1.7,0.6,1.7,1.7v1.4h1.1v-1.7c0-1.5-0.9-2.5-2.4-2.5c-1.1,0-2,0.4-2.4,1.4v-1.3h-1.1v8.9h1.1
	v-2.5h5.1V571.7z M135.1,566.2v3.5c-0.1,1-0.8,1.8-1.7,1.8c-0.9,0-1.4-0.6-1.4-1.7v-3.6h-1.1v3.1c0,1.3-0.6,2.2-1.7,2.2
	c-0.9,0-1.4-0.6-1.4-1.7v-3.6h-1.1v3.9c0,1.5,0.8,2.5,2.1,2.5c1.1,0,1.9-0.5,2.2-1.6c0.2,1,0.9,1.6,2,1.6c1,0,1.7-0.4,2.1-1.3v1.3
	h1.1v-6.4H135.1z M143.2,566.2v3.1c0,1.3-0.7,2.2-1.9,2.2c-1,0-1.6-0.6-1.6-1.7v-6.4h-2.9v0.9h1.8v5.8c0,1.5,0.9,2.5,2.4,2.5
	c1.1,0,1.9-0.4,2.3-1.4v1.3h1.1v-6.4H143.2z M154.9,566.2v3.5c-0.1,1-0.8,1.8-1.7,1.8c-0.9,0-1.4-0.6-1.4-1.7v-3.6h-1.1v3.1
	c0,1.3-0.6,2.2-1.7,2.2c-0.9,0-1.4-0.6-1.4-1.7v-3.6h-1.1v3.9c0,1.5,0.8,2.5,2.1,2.5c1.1,0,1.9-0.5,2.2-1.6c0.2,1,0.9,1.6,2,1.6
	c1,0,1.7-0.4,2.1-1.3v1.3h1.1v-6.4H154.9z M162.8,566.2v3.1c0,1.3-0.7,2.2-1.9,2.2c-1,0-1.6-0.6-1.6-1.7v-6.4h-1.1v6.7
	c0,1.5,0.9,2.5,2.4,2.5c1.1,0,1.9-0.4,2.3-1.4v3.9h1.1v-8.9H162.8z M174.4,566.2v3.5c-0.1,1-0.8,1.8-1.7,1.8c-0.9,0-1.4-0.6-1.4-1.7
	v-3.6h-1.1v3.1c0,1.3-0.6,2.2-1.7,2.2c-0.9,0-1.4-0.6-1.4-1.7v-3.6H166v3.9c0,1.5,0.8,2.5,2.1,2.5c1.1,0,1.9-0.5,2.2-1.6
	c0.2,1,0.9,1.6,2,1.6c1,0,1.7-0.4,2.1-1.3v1.3h1.1v-6.4H174.4z M182.6,566.2v3.1c0,1.3-0.7,2.2-1.9,2.2c-1,0-1.6-0.6-1.6-1.7v-6.4
	H176v0.9h1.8v5.8c0,1.5,0.9,2.5,2.4,2.5c1.1,0,1.9-0.4,2.3-1.4v1.3h1.1v-6.4H182.6z M195.7,571.7h-5.1v-2.5c0.1-1.1,0.8-1.9,2-1.9
	c1.1,0,1.7,0.6,1.7,1.7v1.4h1.1v-1.7c0-1.5-0.9-2.5-2.4-2.5c-1.1,0-2,0.4-2.4,1.4v-1.3h-1.1v8.9h1.1v-2.5h5.1V571.7z M205.7,566.2
	v3.5c-0.1,1-0.8,1.8-1.7,1.8c-0.9,0-1.4-0.6-1.4-1.7v-3.6h-1.1v3.1c0,1.3-0.6,2.2-1.7,2.2c-0.9,0-1.4-0.6-1.4-1.7v-3.6h-1.1v3.9
	c0,1.5,0.8,2.5,2.1,2.5c1.1,0,1.9-0.5,2.2-1.6c0.2,1,0.9,1.6,2,1.6c1,0,1.7-0.4,2.1-1.3v1.3h1.1v-6.4H205.7z M216.6,566.2h-1.8v-2.7
	h-1.1v2.7h-1.9c-2.1,0-3.2,1.5-3.2,3.3c0,2.1,1.5,3.1,3.2,3.1c1.8,0,3-1,3-2.9v-2.5h1.8V566.2z M213.6,569.6c0,1.1-0.5,2.1-1.9,2.1
	c-1.5,0-2.1-1.2-2.1-2.2c0-1.3,0.7-2.3,2.2-2.3h1.7V569.6z M220.8,566.1c-1.1,0-2,0.4-2.4,1.4v-4.1h-1.1v11.6h1.1v-5.9
	c0.1-1.1,0.8-1.9,2-1.9c1.1,0,1.7,0.6,1.7,1.7v3.6h1.1v-3.9C223.2,567.1,222.3,566.1,220.8,566.1z M230.1,566.2v3.1
	c0,1.3-0.7,2.2-1.9,2.2c-1,0-1.6-0.6-1.6-1.7v-6.4h-2.9v0.9h1.8v5.8c0,1.5,0.9,2.5,2.4,2.5c1.1,0,1.9-0.4,2.3-1.4v1.3h1.1v-6.4
	H230.1z"/>
<linearGradient id="SVGID_8_" gradientUnits="userSpaceOnUse" x1="169.0149" y1="176.984" x2="169.0149" y2="108.348" gradientTransform="matrix(1 0 0 -1 0 642)">
	<stop  offset="0" style="stop-color:#013651"/>
	<stop  offset="1" style="stop-color:#014F77"/>
</linearGradient>
<path class="st9" d="M61.8,465.4h214.5c4.5,0,8.2,3.6,8.2,8.2v51.5c0,4.5-3.6,8.2-8.2,8.2H61.8c-4.5,0-8.2-3.6-8.2-8.2v-51.5
	C53.6,469.1,57.3,465.4,61.8,465.4z"/>
<path class="st1" d="M78.9,488.6l-1.7-1.5c0.1-0.3,0.1-0.7,0.1-1.1v-5.7h-1.2v5.7c0,1.6-0.9,2.5-2.4,2.5c-1.5,0-2.4-0.9-2.4-2.5
	v-5.7h-1.2v5.7c0,2.2,1.3,3.5,3.6,3.5c1.4,0,2.4-0.5,3-1.4l1.5,1.3L78.9,488.6z M84.6,483.1v3.1c0,1.3-0.7,2.2-1.9,2.2
	c-1,0-1.6-0.6-1.6-1.7v-6.4h-1.1v6.7c0,1.5,0.9,2.5,2.4,2.5c1.1,0,1.9-0.4,2.3-1.4v3.9h1.1v-8.9H84.6z M95.2,483.1
	c-0.9,0-1.7,0.4-2.1,1.2v-1.2H92v3.6c-0.1,1-0.8,1.7-1.7,1.7c-0.9,0-1.4-0.6-1.4-1.7v-3.6h-1.1v3.9c0,1.5,0.8,2.5,2.1,2.5
	c1,0,1.7-0.4,2.1-1.3v1.2h1.1v-3.9c0.2-0.9,0.8-1.5,1.7-1.5c0.9,0,1.4,0.6,1.4,1.7v3.6h1.1v-3.9C97.3,484,96.5,483.1,95.2,483.1z
	 M102.9,483.1c-1.1,0-2,0.4-2.4,1.4v-4.1h-1.1V492h1.1v-5.9c0.1-1.1,0.8-1.9,2-1.9c1.1,0,1.7,0.6,1.7,1.7v3.6h1.1v-3.9
	C105.3,484,104.4,483.1,102.9,483.1z M113.1,491.1v-10.8h-1.1v5.9c0,1.3-0.7,2.2-1.9,2.2c-1,0-1.6-0.6-1.6-1.7v-3.6h-1.1v3.9
	c0,1.5,0.9,2.5,2.4,2.5c1.1,0,1.9-0.4,2.3-1.4v3.9h2.9v-0.9H113.1z M120.2,483.1v3.1c0,1.3-0.7,2.2-1.9,2.2c-1,0-1.6-0.6-1.6-1.7
	v-6.4h-2.9v0.9h1.8v5.8c0,1.5,0.9,2.5,2.4,2.5c1.1,0,1.9-0.4,2.3-1.4v1.3h1.1v-6.4H120.2z M129.6,484v-0.9h-5.1v-2.8h-1.1v6.7
	c0,1.5,0.9,2.5,2.4,2.5c1.1,0,1.9-0.4,2.3-1.4v1.3h1.1v-4.2h-1.1v0.9c0,1.3-0.7,2.2-1.9,2.2c-1,0-1.6-0.6-1.6-1.7V484H129.6z
	 M134.8,483.1c-1.1,0-2,0.4-2.4,1.4v-1.3h-1.1v8.9h1.1v-5.9c0.1-1.1,0.8-1.9,2-1.9c1.1,0,1.7,0.6,1.7,1.7v3.6h1.1v-3.9
	C137.2,484,136.3,483.1,134.8,483.1z M142.8,483.1c-1.1,0-2,0.4-2.4,1.4v-4.1h-1.1V492h1.1v-5.9c0.1-1.1,0.8-1.9,2-1.9
	c1.1,0,1.7,0.6,1.7,1.7v3.6h1.1v-3.9C145.2,484,144.3,483.1,142.8,483.1z M155.5,483.1v3.1c0,1.3-0.7,2.2-1.9,2.2
	c-1,0-1.6-0.6-1.6-1.7v-6.4h-1.1v6.7c0,1.5,0.9,2.5,2.4,2.5c1.1,0,1.9-0.4,2.3-1.4v3.9h1.1v-8.9H155.5z M167.1,483.1v3.5
	c-0.1,1-0.8,1.8-1.7,1.8c-0.9,0-1.4-0.6-1.4-1.7v-3.6h-1.1v3.1c0,1.3-0.6,2.2-1.7,2.2c-0.9,0-1.4-0.6-1.4-1.7v-3.6h-1.1v3.9
	c0,1.5,0.8,2.5,2.1,2.5c1.1,0,1.9-0.5,2.2-1.6c0.2,1,0.9,1.6,2,1.6c1,0,1.7-0.4,2.1-1.3v1.3h1.1v-6.4H167.1z M174.7,488.6
	c0.9-0.8,1.7-1.7,1.7-3.1c0-1.5-0.9-2.5-2.4-2.5c-1.1,0-2,0.4-2.4,1.4v-1.3h-1.1v6.4h1.1v-3.4c0.1-1.1,0.8-1.9,2-1.9
	c1.1,0,1.7,0.6,1.7,1.7c0,1.3-0.9,1.9-1.7,2.8h0v0.9h3v-0.9H174.7z M186.6,483.1v3.5c-0.1,1-0.8,1.8-1.7,1.8c-0.9,0-1.4-0.6-1.4-1.7
	v-3.6h-1.1v3.1c0,1.3-0.6,2.2-1.7,2.2c-0.9,0-1.4-0.6-1.4-1.7v-3.6h-1.1v3.9c0,1.5,0.8,2.5,2.1,2.5c1.1,0,1.9-0.5,2.2-1.6
	c0.2,1,0.9,1.6,2,1.6c1,0,1.7-0.4,2.1-1.3v1.3h1.1v-6.4H186.6z M195.7,491.1v-10.8h-1.1v5.9c0,1.3-0.7,2.2-1.9,2.2
	c-1,0-1.6-0.6-1.6-1.7v-3.6h-1.1v3.9c0,1.5,0.9,2.5,2.4,2.5c1.1,0,1.9-0.4,2.3-1.4v3.9h2.9v-0.9H195.7z M206.5,483.1v3.5
	c-0.1,1-0.8,1.8-1.7,1.8c-0.9,0-1.4-0.6-1.4-1.7v-3.6h-1.1v3.1c0,1.3-0.6,2.2-1.7,2.2c-0.9,0-1.4-0.6-1.4-1.7v-3.6H198v3.9
	c0,1.5,0.8,2.5,2.1,2.5c1.1,0,1.9-0.5,2.2-1.6c0.2,1,0.9,1.6,2,1.6c1,0,1.7-0.4,2.1-1.3v1.3h1.1v-6.4H206.5z M213.4,483.1
	c-1.1,0-2,0.4-2.4,1.4v-1.3h-1.1v8.9h1.1v-5.9c0.1-1.1,0.8-1.9,2-1.9c1.1,0,1.7,0.6,1.7,1.7v3.6h1.1v-3.9
	C215.8,484,214.9,483.1,213.4,483.1z M225.3,480.4h-2.9v5.9c0,1.3-0.7,2.2-1.9,2.2c-1,0-1.6-0.6-1.6-1.7v-3.6h-1.1v3.9
	c0,1.5,0.9,2.5,2.4,2.5c1.1,0,1.9-0.4,2.3-1.4v1.3h1.1v-8.2h1.8V480.4z M234.1,483.1v3.5c-0.1,1-0.8,1.8-1.7,1.8
	c-0.9,0-1.4-0.6-1.4-1.7v-3.6h-1.1v3.1c0,1.3-0.6,2.2-1.7,2.2c-0.9,0-1.4-0.6-1.4-1.7v-3.6h-1.1v3.9c0,1.5,0.8,2.5,2.1,2.5
	c1.1,0,1.9-0.5,2.2-1.6c0.2,1,0.9,1.6,2,1.6c1,0,1.7-0.4,2.1-1.3v1.3h1.1v-6.4H234.1z M242.2,483.1v3.1c0,1.3-0.7,2.2-1.9,2.2
	c-1,0-1.6-0.6-1.6-1.7v-6.4h-2.9v0.9h1.8v5.8c0,1.5,0.9,2.5,2.4,2.5c1.1,0,1.9-0.4,2.3-1.4v1.3h1.1v-6.4H242.2z M75.9,503.6v-5.5
	h-1.1v3.1c0,1.3-0.7,2.2-1.9,2.2c-1,0-1.6-0.6-1.6-1.7v-6.4h-1.1v6.7c0,1.5,0.9,2.5,2.4,2.5c1.1,0,1.9-0.4,2.3-1.4v1.3h2.9v-0.9
	H75.9z M91.3,498.1v3.5c-0.1,1-0.8,1.8-1.7,1.8c-0.9,0-1.4-0.6-1.4-1.7v-3.6h-1.1v3.1c0,1.3-0.6,2.2-1.7,2.2c-0.9,0-1.4-0.6-1.4-1.7
	v-3.6h-1.1v3.9c0,1.5,0.8,2.5,2.1,2.5c1.1,0,1.9-0.5,2.2-1.6c0.2,1,0.9,1.6,2,1.6c1,0,1.7-0.4,2.1-1.3v1.3h1.1v-6.4H91.3z
	 M98.2,498.1c-1.1,0-2,0.4-2.4,1.4v-1.3h-1.1v8.9h1.1v-5.9c0.1-1.1,0.8-1.9,2-1.9c1.1,0,1.7,0.6,1.7,1.7v3.6h1.1v-3.9
	C100.6,499,99.7,498.1,98.2,498.1z M110.2,498.1h-1.8v-2.7h-1.1v2.7h-1.9c-2.1,0-3.2,1.5-3.2,3.3c0,2.1,1.5,3.1,3.2,3.1
	c1.8,0,3-1,3-2.9v-2.5h1.8V498.1z M107.3,501.5c0,1.1-0.5,2.1-1.9,2.1c-1.5,0-2.1-1.2-2.1-2.1c0-1.3,0.7-2.3,2.2-2.3h1.7V501.5z
	 M117,499v-0.9h-5.1v-2.8h-1.1v6.7c0,1.5,0.9,2.5,2.4,2.5c1.1,0,1.9-0.4,2.3-1.4v1.3h1.1v-4.2h-1.1v0.9c0,1.3-0.7,2.2-1.9,2.2
	c-1,0-1.6-0.6-1.6-1.7V499H117z M127.1,500.5h-1.2c0-1.6-1.4-2.4-3.1-2.4c-1.2,0-2.4,0.5-3,1.4v-1.3h-1.1v8.9h1.1v-5.7
	c0-1.1,1.3-2.2,2.7-2.2c1.1,0,2,0.4,2.2,1.4h-1.1c-1.4,0-2.3,0.7-2.3,2c0,1.3,0.9,2.1,2.4,2.1c1.2,0,2.2-0.7,2.2-2.1v-1.1h1.2V500.5
	z M124.7,502.4c0,0.7-0.3,1.2-1.2,1.2c-0.7,0-1.3-0.4-1.3-1.2c0-0.8,0.7-1.1,1.2-1.1h1.3V502.4z M133.9,506.1v-5.6
	c0-1.5-0.9-2.5-2.4-2.5c-1.1,0-2,0.4-2.4,1.4v-1.3h-1.1v6.4h1.1v-3.4c0.1-1.1,0.8-1.9,2-1.9c1.1,0,1.7,0.6,1.7,1.7v6.2h2.9v-0.9
	H133.9z M145.2,500.5H144c0-1.6-1.4-2.4-3-2.4c-1.2,0-2.4,0.5-3,1.4v-1.3h-1.1v8.9h1.1v-5.7c0-1.1,1.3-2.2,2.7-2.2
	c1.1,0,2,0.4,2.2,1.4h-1.1c-1.4,0-2.3,0.7-2.3,2c0,1.3,0.9,2.1,2.4,2.1c1.2,0,2.2-0.7,2.2-2.1v-1.1h1.2V500.5z M142.8,502.4
	c0,0.7-0.3,1.2-1.2,1.2c-0.7,0-1.3-0.4-1.3-1.2c0-0.8,0.7-1.1,1.2-1.1h1.3V502.4z M152.1,499v-0.9H147v-2.8h-1.1v6.7
	c0,1.5,0.9,2.5,2.4,2.5c1.1,0,1.9-0.4,2.3-1.4v1.3h1.1v-4.2h-1.1v0.9c0,1.3-0.7,2.2-1.9,2.2c-1,0-1.6-0.6-1.6-1.7V499H152.1z
	 M157.3,498.1c-1.1,0-2,0.4-2.4,1.4v-1.3h-1.1v8.9h1.1v-5.9c0.1-1.1,0.8-1.9,2-1.9c1.1,0,1.7,0.6,1.7,1.7v3.6h1.1v-3.9
	C159.7,499,158.8,498.1,157.3,498.1z M165.3,498.1c-1.1,0-2,0.4-2.4,1.4v-1.3h-1.1v6.4h1.1v-3.4c0.1-1.1,0.8-1.9,2-1.9
	c1.1,0,1.7,0.6,1.7,1.7v3.6h1.1v-3.9C167.7,499,166.8,498.1,165.3,498.1z M175.5,506.1v-10.8h-1.1v5.9c0,1.3-0.7,2.2-1.9,2.2
	c-1,0-1.6-0.6-1.6-1.7v-3.6h-1.1v3.9c0,1.5,0.9,2.5,2.4,2.5c1.1,0,1.9-0.4,2.3-1.4v3.9h2.9v-0.9H175.5z M78,518.6h-1.8v-5.5h-1.1
	v1.2c-0.5-0.8-1.3-1.3-2.4-1.3c-1.8,0-3,1.3-3,3.2c0,1.9,1.2,3.3,3.1,3.3c1.1,0,1.9-0.5,2.4-1.3v3.8h1.1v-2.5H78V518.6z M73,518.6
	c-1.3,0-2.1-0.9-2.2-2.3c0-1.3,0.9-2.3,2.2-2.3c1.3,0,2.2,0.9,2.2,2.3C75.1,517.6,74.2,518.6,73,518.6z M82.5,513.1
	c-1.1,0-2,0.4-2.4,1.4v-1.3H79v6.4h1.1v-3.4c0.1-1.1,0.8-1.9,2-1.9c1.1,0,1.7,0.6,1.7,1.7v3.6h1.1v-3.9
	C84.9,514,84,513.1,82.5,513.1z M90.5,513.1c-1.1,0-2,0.4-2.4,1.4v-1.3H87v8.9h1.1v-5.9c0.1-1.1,0.8-1.9,2-1.9
	c1.1,0,1.7,0.6,1.7,1.7v3.6h1.1v-3.9C92.9,514,92,513.1,90.5,513.1z M101.5,513.1H99c-0.8-0.6-1.5-1.2-1.7-2
	c-0.1-0.5,0.3-0.9,0.3-0.9h-1.1c0,0-0.4,0.4-0.3,1.1c0.1,0.8,0.6,1.3,1.3,1.9c-1.7,0.2-2.9,1.6-2.9,3.2c0,2,1.4,3.2,3.3,3.2
	c2.1,0,3.3-1.3,3.3-2.9c0-1.1-0.5-1.9-1.2-2.6h1.5V513.1z M100.1,516.5c0,0.8-0.6,2-2.2,2c-1.4,0-2.2-1.1-2.2-2.2
	c0-1.1,0.9-2.3,2.2-2.3h0.6C99.3,514.7,100.1,515.4,100.1,516.5z M111,513.1v3.5c-0.1,1-0.8,1.8-1.7,1.8c-0.9,0-1.4-0.6-1.4-1.7
	v-3.6h-1.1v3.1c0,1.3-0.6,2.2-1.7,2.2c-0.9,0-1.4-0.6-1.4-1.7v-3.6h-1.1v3.9c0,1.5,0.8,2.5,2.1,2.5c1.1,0,1.9-0.5,2.2-1.6
	c0.2,1,0.9,1.6,2,1.6c1,0,1.7-0.4,2.1-1.3v1.3h1.1v-6.4H111z M118.6,518.6c0.9-0.8,1.7-1.7,1.7-3.1c0-1.5-0.9-2.5-2.4-2.5
	c-1.1,0-2,0.4-2.4,1.4v-1.3h-1.1v6.4h1.1v-3.4c0.1-1.1,0.8-1.9,2-1.9c1.1,0,1.7,0.6,1.7,1.7c0,1.3-0.9,1.9-1.7,2.8h0v0.9h3v-0.9
	H118.6z M126.8,513.1v3.1c0,1.3-0.7,2.2-1.9,2.2c-1,0-1.6-0.6-1.6-1.7v-6.4h-2.9v0.9h1.8v5.8c0,1.5,0.9,2.5,2.4,2.5
	c1.1,0,1.9-0.4,2.3-1.4v1.3h1.1v-6.4H126.8z M133.7,513.1c-1.1,0-2,0.4-2.4,1.4v-1.3h-1.1v6.4h1.1v-3.4c0.1-1.1,0.8-1.9,2-1.9
	c1.1,0,1.7,0.6,1.7,1.7v3.6h1.1v-3.9C136.1,514,135.2,513.1,133.7,513.1z M138.5,518.6v-5.5h-1.1v6.4h2.9v-0.9H138.5z M150.4,515.5
	h-1.2c0-1.6-1.4-2.4-3.1-2.4c-1.2,0-2.4,0.5-3,1.4v-1.3H142v8.9h1.1v-5.7c0-1.1,1.3-2.2,2.7-2.2c1.1,0,2,0.4,2.2,1.4h-1.1
	c-1.4,0-2.3,0.7-2.3,2c0,1.3,0.9,2.1,2.4,2.1c1.2,0,2.2-0.7,2.2-2.1v-1.1h1.2V515.5z M148.1,517.4c0,0.7-0.3,1.2-1.2,1.2
	c-0.7,0-1.3-0.4-1.3-1.2c0-0.8,0.7-1.1,1.2-1.1h1.3V517.4z M150.9,521.3c1.9-0.8,0.3-2.7,0.3-4.8v-3.4h1.1v3.5
	c0,1.9,2.1,4.9-1.4,5.5V521.3z M158.3,513.1c-1.1,0-2,0.4-2.4,1.4v-1.3h-1.1v6.4h1.1v-3.4c0.1-1.1,0.8-1.9,2-1.9
	c1.1,0,1.7,0.6,1.7,1.7v3.6h1.1v-3.9C160.7,514,159.8,513.1,158.3,513.1z M163.2,518.6v-5.5H162v6.4h2.9v-0.9H163.2z M171.3,513.1
	v3.1c0,1.3-0.7,2.2-1.9,2.2c-1,0-1.6-0.6-1.6-1.7v-6.4h-2.9v0.9h1.8v5.8c0,1.5,0.9,2.5,2.4,2.5c1.1,0,1.9-0.4,2.3-1.4v1.3h1.1v-6.4
	H171.3z M179.4,513.1v3.1c0,1.3-0.7,2.2-1.9,2.2c-1,0-1.6-0.6-1.6-1.7v-6.4h-2.9v0.9h1.8v5.8c0,1.5,0.9,2.5,2.4,2.5
	c1.1,0,1.9-0.4,2.3-1.4v1.3h1.1v-6.4H179.4z M188.8,514v-0.9h-5.1v-2.8h-1.1v6.7c0,1.5,0.9,2.5,2.4,2.5c1.1,0,1.9-0.4,2.3-1.4v1.3
	h1.1v-4.2h-1.1v0.9c0,1.3-0.7,2.2-1.9,2.2c-1,0-1.6-0.6-1.6-1.7V514H188.8z M194,513.1c-1.1,0-2,0.4-2.4,1.4v-1.3h-1.1v8.9h1.1v-5.9
	c0.1-1.1,0.8-1.9,2-1.9c1.1,0,1.7,0.6,1.7,1.7v3.6h1.1v-3.9C196.4,514,195.5,513.1,194,513.1z M202,513.1c-1.1,0-2,0.4-2.4,1.4v-4.1
	h-1.1V522h1.1v-5.9c0.1-1.1,0.8-1.9,2-1.9c1.1,0,1.7,0.6,1.7,1.7v3.6h1.1v-3.9C204.4,514,203.5,513.1,202,513.1z M216.3,518.6h-5.1
	v-2.5c0.1-1.1,0.8-1.9,2-1.9c1.1,0,1.7,0.6,1.7,1.7v1.4h1.1v-1.7c0-1.5-0.9-2.5-2.4-2.5c-1.1,0-2,0.4-2.4,1.4v-1.3h-1.1v8.9h1.1
	v-2.5h5.1V518.6z M226.3,513.1v3.5c-0.1,1-0.8,1.8-1.7,1.8c-0.9,0-1.4-0.6-1.4-1.7v-3.6h-1.1v3.1c0,1.3-0.6,2.2-1.7,2.2
	c-0.9,0-1.4-0.6-1.4-1.7v-3.6h-1.1v3.9c0,1.5,0.8,2.5,2.1,2.5c1.1,0,1.9-0.5,2.2-1.6c0.2,1,0.9,1.6,2,1.6c1,0,1.7-0.4,2.1-1.3v1.3
	h1.1v-6.4H226.3z M237.1,513.1h-1.8v-2.7h-1.1v2.7h-1.9c-2.1,0-3.2,1.5-3.2,3.3c0,2.1,1.5,3.1,3.2,3.1c1.8,0,3-1,3-2.9v-2.5h1.8
	V513.1z M234.2,516.5c0,1.1-0.5,2.1-1.9,2.1c-1.5,0-2.1-1.2-2.1-2.1c0-1.3,0.7-2.3,2.2-2.3h1.7V516.5z M241.4,513.1
	c-1.1,0-2,0.4-2.4,1.4v-4.1h-1.1V522h1.1v-5.9c0.1-1.1,0.8-1.9,2-1.9c1.1,0,1.7,0.6,1.7,1.7v3.6h1.1v-3.9
	C243.8,514,242.9,513.1,241.4,513.1z M250.7,513.1v3.1c0,1.3-0.7,2.2-1.9,2.2c-1,0-1.6-0.6-1.6-1.7v-6.4h-2.9v0.9h1.8v5.8
	c0,1.5,0.9,2.5,2.4,2.5c1.1,0,1.9-0.4,2.3-1.4v1.3h1.1v-6.4H250.7z"/>
<linearGradient id="SVGID_9_" gradientUnits="userSpaceOnUse" x1="169.0149" y1="230.035" x2="169.0149" y2="192.285" gradientTransform="matrix(1 0 0 -1 0 642)">
	<stop  offset="0" style="stop-color:#013651"/>
	<stop  offset="1" style="stop-color:#014F77"/>
</linearGradient>
<path class="st10" d="M61.8,412.4h214.5c4.5,0,8.2,3.6,8.2,8.2v20.6c0,4.5-3.6,8.2-8.2,8.2H61.8c-4.5,0-8.2-3.6-8.2-8.2v-20.6
	C53.6,416,57.3,412.4,61.8,412.4z"/>
<path class="st1" d="M79.4,431.8h-2.1v-1.9c0-2.2-1.3-3.5-3.5-3.5c-2.2,0-3.6,1.3-3.6,3.5v5.7h1.2v-5.7c0-1.6,0.9-2.5,2.4-2.5
	c1.5,0,2.4,0.9,2.4,2.5v5.7h1.2v-2.7h2.1V431.8z M86.5,430.1v-0.9h-5.1v-2.8h-1.1v6.7c0,1.5,0.9,2.5,2.4,2.5c1.1,0,1.9-0.4,2.3-1.4
	v1.3h1.1v-4.2H85v0.9c0,1.3-0.7,2.2-1.9,2.2c-1,0-1.6-0.6-1.6-1.7v-2.8H86.5z M94.2,430.1v-0.9h-5.1v-2.8H88v6.7
	c0,1.5,0.9,2.5,2.4,2.5c1.1,0,1.9-0.4,2.3-1.4v1.3h1.1v-4.2h-1.1v0.9c0,1.3-0.7,2.2-1.9,2.2c-1,0-1.6-0.6-1.6-1.7v-2.8H94.2z
	 M100.4,429.2v3.1c0,1.3-0.7,2.2-1.9,2.2c-1,0-1.6-0.6-1.6-1.7v-3.6h-1.1v3.9c0,1.5,0.9,2.5,2.4,2.5c1.1,0,1.9-0.4,2.3-1.4v1.3h1.1
	v-6.4H100.4z M111,429.2c-0.9,0-1.7,0.4-2.1,1.2v-1.2h-1.1v3.6c-0.1,1-0.8,1.7-1.7,1.7c-0.9,0-1.4-0.6-1.4-1.7v-3.6h-1.1v3.9
	c0,1.5,0.8,2.5,2.1,2.5c1,0,1.7-0.4,2.1-1.3v1.2h1.1v-3.9c0.2-0.9,0.8-1.5,1.7-1.5c0.9,0,1.4,0.6,1.4,1.7v3.6h1.1v-3.9
	C113.1,430.1,112.4,429.2,111,429.2z M118.8,429.2c-1.1,0-2,0.4-2.4,1.4v-1.3h-1.1v8.9h1.1v-5.9c0.1-1.1,0.8-1.9,2-1.9
	c1.1,0,1.7,0.6,1.7,1.7v3.6h1.1v-3.9C121.2,430.1,120.3,429.2,118.8,429.2z M131.6,429.2v3.5c-0.1,1-0.8,1.8-1.7,1.8
	c-0.9,0-1.4-0.6-1.4-1.7v-3.6h-1.1v3.1c0,1.3-0.6,2.2-1.7,2.2c-0.9,0-1.4-0.6-1.4-1.7v-3.6h-1.1v3.9c0,1.5,0.8,2.5,2.1,2.5
	c1.1,0,1.9-0.5,2.2-1.6c0.2,1,0.9,1.6,2,1.6c1,0,1.7-0.4,2.1-1.3v1.3h1.1v-6.4H131.6z M140.6,437.2v-10.8h-1.1v5.9
	c0,1.3-0.7,2.2-1.9,2.2c-1,0-1.6-0.6-1.6-1.7v-3.6h-1.1v3.9c0,1.5,0.9,2.5,2.4,2.5c1.1,0,1.9-0.4,2.3-1.4v3.9h2.9v-0.9H140.6z
	 M151.4,429.2v3.5c-0.1,1-0.8,1.8-1.7,1.8c-0.9,0-1.4-0.6-1.4-1.7v-3.6h-1.1v3.1c0,1.3-0.6,2.2-1.7,2.2c-0.9,0-1.4-0.6-1.4-1.7v-3.6
	H143v3.9c0,1.5,0.8,2.5,2.1,2.5c1.1,0,1.9-0.5,2.2-1.6c0.2,1,0.9,1.6,2,1.6c1,0,1.7-0.4,2.1-1.3v1.3h1.1v-6.4H151.4z M158.3,429.2
	c-1.1,0-2,0.4-2.4,1.4v-1.3h-1.1v8.9h1.1v-5.9c0.1-1.1,0.8-1.9,2-1.9c1.1,0,1.7,0.6,1.7,1.7v3.6h1.1v-3.9
	C160.7,430.1,159.8,429.2,158.3,429.2z M170.3,426.5h-2.9v5.9c0,1.3-0.7,2.2-1.9,2.2c-1,0-1.6-0.6-1.6-1.7v-3.6h-1.1v3.9
	c0,1.5,0.9,2.5,2.4,2.5c1.1,0,1.9-0.4,2.3-1.4v1.3h1.1v-8.2h1.8V426.5z M179,429.2v3.5c-0.1,1-0.8,1.8-1.7,1.8
	c-0.9,0-1.4-0.6-1.4-1.7v-3.6h-1.1v3.1c0,1.3-0.6,2.2-1.7,2.2c-0.9,0-1.4-0.6-1.4-1.7v-3.6h-1.1v3.9c0,1.5,0.8,2.5,2.1,2.5
	c1.1,0,1.9-0.5,2.2-1.6c0.2,1,0.9,1.6,2,1.6c1,0,1.7-0.4,2.1-1.3v1.3h1.1v-6.4H179z M187.1,429.2v3.1c0,1.3-0.7,2.2-1.9,2.2
	c-1,0-1.6-0.6-1.6-1.7v-6.4h-2.9v0.9h1.8v5.8c0,1.5,0.9,2.5,2.4,2.5c1.1,0,1.9-0.4,2.3-1.4v1.3h1.1v-6.4H187.1z M200.3,434.7h-5.1
	v-2.5c0.1-1.1,0.8-1.9,2-1.9c1.1,0,1.7,0.6,1.7,1.7v1.4h1.1v-1.7c0-1.5-0.9-2.5-2.4-2.5c-1.1,0-2,0.4-2.4,1.4v-1.3h-1.1v8.9h1.1
	v-2.5h5.1V434.7z M210.3,429.2v3.5c-0.1,1-0.8,1.8-1.7,1.8c-0.9,0-1.4-0.6-1.4-1.7v-3.6H206v3.1c0,1.3-0.6,2.2-1.7,2.2
	c-0.9,0-1.4-0.6-1.4-1.7v-3.6h-1.1v3.9c0,1.5,0.8,2.5,2.1,2.5c1.1,0,1.9-0.5,2.2-1.6c0.2,1,0.9,1.6,2,1.6c1,0,1.7-0.4,2.1-1.3v1.3
	h1.1v-6.4H210.3z M221.1,429.2h-1.8v-2.7h-1.1v2.7h-1.9c-2.1,0-3.2,1.5-3.2,3.3c0,2.1,1.5,3.1,3.2,3.1c1.8,0,3-1,3-2.9v-2.5h1.8
	V429.2z M218.2,432.6c0,1.1-0.5,2.1-1.9,2.1c-1.5,0-2.1-1.2-2.1-2.1c0-1.3,0.7-2.3,2.2-2.3h1.7V432.6z M225.4,429.2
	c-1.1,0-2,0.4-2.4,1.4v-4.1h-1.1v11.6h1.1v-5.9c0.1-1.1,0.8-1.9,2-1.9c1.1,0,1.7,0.6,1.7,1.7v3.6h1.1v-3.9
	C227.8,430.1,226.9,429.2,225.4,429.2z M234.7,429.2v3.1c0,1.3-0.7,2.2-1.9,2.2c-1,0-1.6-0.6-1.6-1.7v-6.4h-2.9v0.9h1.8v5.8
	c0,1.5,0.9,2.5,2.4,2.5c1.1,0,1.9-0.4,2.3-1.4v1.3h1.1v-6.4H234.7z"/>
<linearGradient id="SVGID_10_" gradientUnits="userSpaceOnUse" x1="169.0149" y1="283.086" x2="169.0149" y2="245.336" gradientTransform="matrix(1 0 0 -1 0 642)">
	<stop  offset="0" style="stop-color:#013651"/>
	<stop  offset="1" style="stop-color:#014F77"/>
</linearGradient>
<path class="st11" d="M61.8,359.3h214.5c4.5,0,8.2,3.6,8.2,8.2v20.6c0,4.5-3.6,8.2-8.2,8.2H61.8c-4.5,0-8.2-3.6-8.2-8.2v-20.6
	C53.6,363,57.3,359.3,61.8,359.3z"/>
<path class="st1" d="M75.7,375.4v1.9c-0.1,1.5-0.9,2.3-2.3,2.3c-1.5,0-2.2-1-2.2-2.6v-3.6H70v3.6c0,2.2,1.1,3.7,3.4,3.7
	c1,0,1.8-0.4,2.3-1.1v3h1.2v-7.1H75.7z M87.4,376.1v3.5c-0.1,1-0.8,1.8-1.7,1.8c-0.9,0-1.4-0.6-1.4-1.7v-3.6h-1.1v3.1
	c0,1.3-0.6,2.2-1.7,2.2c-0.9,0-1.4-0.6-1.4-1.7v-3.6h-1.1v3.9c0,1.5,0.8,2.5,2.1,2.5c1.1,0,1.9-0.5,2.2-1.6c0.2,1,0.9,1.6,2,1.6
	c1,0,1.7-0.4,2.1-1.3v1.3h1.1v-6.4H87.4z M99,376.1v3.5c-0.1,1-0.8,1.8-1.7,1.8c-0.9,0-1.4-0.6-1.4-1.7v-3.6h-1.1v3.1
	c0,1.3-0.6,2.2-1.7,2.2c-0.9,0-1.4-0.6-1.4-1.7v-3.6h-1.1v3.9c0,1.5,0.8,2.5,2.1,2.5c1.1,0,1.9-0.5,2.2-1.6c0.2,1,0.9,1.6,2,1.6
	c1,0,1.7-0.4,2.1-1.3v3.8h1.1v-8.9H99z M105.9,376.1c-1.1,0-2,0.4-2.4,1.4v-4.1h-1.1V385h1.1v-5.9c0.1-1.1,0.8-1.9,2-1.9
	c1.1,0,1.7,0.6,1.7,1.7v3.6h1.1v-3.9C108.3,377,107.4,376.1,105.9,376.1z M117.6,376.1c-0.9,0-1.7,0.4-2.1,1.2v-1.2h-1.1v3.6
	c-0.1,1-0.8,1.7-1.7,1.7c-0.9,0-1.4-0.6-1.4-1.7v-3.6h-1.1v3.9c0,1.5,0.8,2.5,2.1,2.5c1,0,1.7-0.4,2.1-1.3v1.2h1.1v-3.9
	c0.2-0.9,0.8-1.5,1.7-1.5c0.9,0,1.4,0.6,1.4,1.7v3.6h1.1v-3.9C119.7,377,118.9,376.1,117.6,376.1z M130.1,376.1v3.5
	c-0.1,1-0.8,1.8-1.7,1.8c-0.9,0-1.4-0.6-1.4-1.7v-3.6h-1.1v3.1c0,1.3-0.6,2.2-1.7,2.2c-0.9,0-1.4-0.6-1.4-1.7v-3.6h-1.1v3.9
	c0,1.5,0.8,2.5,2.1,2.5c1.1,0,1.9-0.5,2.2-1.6c0.2,1,0.9,1.6,2,1.6c1,0,1.7-0.4,2.1-1.3v1.3h1.1v-6.4H130.1z M134.6,384.2v-8h-1.1
	v8.9h2.9v-0.9H134.6z M145.8,384.2v0.9h-3.3c-1.3,0-2.3-0.4-2.3-1.9c0-1.5,1.6-2,2.8-2.6c0.7-0.3,1.7-0.7,1.7-1.9
	c0-0.9-0.6-1.6-1.7-1.6c-1.1,0-1.6,0.6-1.7,1.4h-1.1c0.1-1.4,1-2.4,2.8-2.4c1.8,0,2.8,1.2,2.8,2.5c0,1.9-1.6,2.5-2.2,2.8
	c-1.1,0.6-2.3,1-2.3,1.8c0,0.5,0.3,0.9,1.2,0.9H145.8z M151,376.1c-1.1,0-2,0.4-2.4,1.4v-1.3h-1.1v6.4h1.1v-3.4
	c0.1-1.1,0.8-1.9,2-1.9c1.1,0,1.7,0.6,1.7,1.7v3.6h1.1v-3.9C153.4,377,152.5,376.1,151,376.1z M155.9,381.6v-5.5h-1.1v6.4h2.9v-0.9
	H155.9z M164.1,376.1v3.1c0,1.3-0.7,2.2-1.9,2.2c-1,0-1.6-0.6-1.6-1.7v-6.4h-1.1v6.7c0,1.5,0.9,2.5,2.4,2.5c1.1,0,1.9-0.4,2.3-1.4
	v3.9h1.1v-8.9H164.1z M175.8,376.1v3.5c-0.1,1-0.8,1.8-1.7,1.8c-0.9,0-1.4-0.6-1.4-1.7v-3.6h-1.1v3.1c0,1.3-0.6,2.2-1.7,2.2
	c-0.9,0-1.4-0.6-1.4-1.7v-3.6h-1.1v3.9c0,1.5,0.8,2.5,2.1,2.5c1.1,0,1.9-0.5,2.2-1.6c0.2,1,0.9,1.6,2,1.6c1,0,1.7-0.4,2.1-1.3v1.3
	h1.1v-6.4H175.8z M183.9,376.1v3.1c0,1.3-0.7,2.2-1.9,2.2c-1,0-1.6-0.6-1.6-1.7v-6.4h-2.9v0.9h1.8v5.8c0,1.5,0.9,2.5,2.4,2.5
	c1.1,0,1.9-0.4,2.3-1.4v1.3h1.1v-6.4H183.9z M193.3,377v-0.9h-5.1v-2.8h-1.1v6.7c0,1.5,0.9,2.5,2.4,2.5c1.1,0,1.9-0.4,2.3-1.4v1.3
	h1.1v-4.2h-1.1v0.9c0,1.3-0.7,2.2-1.9,2.2c-1,0-1.6-0.6-1.6-1.7V377H193.3z M198.5,376.1c-1.1,0-2,0.4-2.4,1.4v-1.3H195v8.9h1.1
	v-5.9c0.1-1.1,0.8-1.9,2-1.9c1.1,0,1.7,0.6,1.7,1.7v3.6h1.1v-3.9C200.9,377,200,376.1,198.5,376.1z M206.5,376.1
	c-1.1,0-2,0.4-2.4,1.4v-4.1H203V385h1.1v-5.9c0.1-1.1,0.8-1.9,2-1.9c1.1,0,1.7,0.6,1.7,1.7v3.6h1.1v-3.9
	C208.9,377,208,376.1,206.5,376.1z M220.8,381.6h-5.1v-2.5c0.1-1.1,0.8-1.9,2-1.9c1.1,0,1.7,0.6,1.7,1.7v1.4h1.1v-1.7
	c0-1.5-0.9-2.5-2.4-2.5c-1.1,0-2,0.4-2.4,1.4v-1.3h-1.1v8.9h1.1v-2.5h5.1V381.6z M230.8,376.1v3.5c-0.1,1-0.8,1.8-1.7,1.8
	c-0.9,0-1.4-0.6-1.4-1.7v-3.6h-1.1v3.1c0,1.3-0.6,2.2-1.7,2.2c-0.9,0-1.4-0.6-1.4-1.7v-3.6h-1.1v3.9c0,1.5,0.8,2.5,2.1,2.5
	c1.1,0,1.9-0.5,2.2-1.6c0.2,1,0.9,1.6,2,1.6c1,0,1.7-0.4,2.1-1.3v1.3h1.1v-6.4H230.8z M241.6,376.1h-1.8v-2.7h-1.1v2.7h-1.9
	c-2.1,0-3.2,1.5-3.2,3.3c0,2.1,1.5,3.1,3.2,3.1c1.8,0,3-1,3-2.9v-2.5h1.8V376.1z M238.7,379.5c0,1.1-0.5,2.1-1.9,2.1
	c-1.5,0-2.1-1.2-2.1-2.1c0-1.3,0.7-2.3,2.2-2.3h1.7V379.5z M245.9,376.1c-1.1,0-2,0.4-2.4,1.4v-4.1h-1.1V385h1.1v-5.9
	c0.1-1.1,0.8-1.9,2-1.9c1.1,0,1.7,0.6,1.7,1.7v3.6h1.1v-3.9C248.3,377,247.4,376.1,245.9,376.1z M255.2,376.1v3.1
	c0,1.3-0.7,2.2-1.9,2.2c-1,0-1.6-0.6-1.6-1.7v-6.4h-2.9v0.9h1.8v5.8c0,1.5,0.9,2.5,2.4,2.5c1.1,0,1.9-0.4,2.3-1.4v1.3h1.1v-6.4
	H255.2z"/>
<linearGradient id="SVGID_11_" gradientUnits="userSpaceOnUse" x1="169.0149" y1="349.861" x2="169.0149" y2="298.384" gradientTransform="matrix(1 0 0 -1 0 642)">
	<stop  offset="0" style="stop-color:#013651"/>
	<stop  offset="1" style="stop-color:#014F77"/>
</linearGradient>
<path class="st12" d="M61.8,292.6h214.5c4.5,0,8.2,3.6,8.2,8.2V335c0,4.5-3.6,8.2-8.2,8.2H61.8c-4.5,0-8.2-3.6-8.2-8.2v-34.3
	C53.6,296.2,57.3,292.6,61.8,292.6z"/>
<path class="st1" d="M75,310.4c0.9-0.2,1.5-0.9,1.5-1.8c0-1.5-0.9-2.4-3.4-2.4H73h-2.8v1H73h0c1.6,0,2.3,0.5,2.3,1.3
	c0,1.2-1.4,1.4-2.4,1.4h-2.4v1.1h2.4c1.8,0,2.6,0.7,2.6,1.8v0v2.6h1.2v-2.5C76.8,312,76.5,310.8,75,310.4z M84.7,309.8v-0.9h-5.1
	v-2.8h-1.1v6.7c0,1.5,0.9,2.5,2.4,2.5c1.1,0,1.9-0.4,2.3-1.4v1.3h1.1v-4.2h-1.1v0.9c0,1.3-0.7,2.2-1.9,2.2c-1,0-1.6-0.6-1.6-1.7
	v-2.8H84.7z M93.6,308.9c-0.9,0-1.7,0.4-2.1,1.2v-1.2h-1.1v3.6c-0.1,1-0.8,1.7-1.7,1.7c-0.9,0-1.4-0.6-1.4-1.7v-3.6h-1.1v3.9
	c0,1.5,0.8,2.5,2.1,2.5c1,0,1.7-0.4,2.1-1.3v1.2h1.1v-3.9c0.2-0.9,0.8-1.5,1.7-1.5c0.9,0,1.4,0.6,1.4,1.7v3.6h1.1v-3.9
	C95.7,309.8,94.9,308.9,93.6,308.9z M106.1,308.9v3.5c-0.1,1-0.8,1.8-1.7,1.8c-0.9,0-1.4-0.6-1.4-1.7v-3.6h-1.1v3.1
	c0,1.3-0.6,2.2-1.7,2.2c-0.9,0-1.4-0.6-1.4-1.7v-3.6h-1.1v3.9c0,1.5,0.8,2.5,2.1,2.5c1.1,0,1.9-0.5,2.2-1.6c0.2,1,0.9,1.6,2,1.6
	c1,0,1.7-0.4,2.1-1.3v1.3h1.1v-6.4H106.1z M115.4,317v-8h-1.1v1.2c-0.5-0.8-1.3-1.3-2.4-1.3c-1.8,0-3,1.3-3,3.2
	c0,1.9,1.2,3.3,3.1,3.3c1.1,0,1.9-0.5,2.4-1.3v3.8h2.9V317H115.4z M112.1,314.4c-1.3,0-2.1-0.9-2.2-2.3c0-1.3,0.9-2.3,2.2-2.3
	c1.3,0,2.2,0.9,2.2,2.3C114.3,313.5,113.4,314.4,112.1,314.4z M121.5,308.9c-1.1,0-2,0.4-2.4,1.4v-1.3h-1.1v6.4h1.1v-3.4
	c0.1-1.1,0.8-1.9,2-1.9c1.1,0,1.7,0.6,1.7,1.7v3.6h1.1v-3.9C123.9,309.8,123,308.9,121.5,308.9z M133.2,308.9
	c-0.9,0-1.7,0.4-2.1,1.2v-1.2H130v3.6c-0.1,1-0.8,1.7-1.7,1.7c-0.9,0-1.4-0.6-1.4-1.7v-3.6h-1.1v3.9c0,1.5,0.8,2.5,2.1,2.5
	c1,0,1.7-0.4,2.1-1.3v1.2h1.1v-3.9c0.2-0.9,0.8-1.5,1.7-1.5c0.9,0,1.4,0.6,1.4,1.7v3.6h1.1v-3.9
	C135.3,309.8,134.5,308.9,133.2,308.9z M140.9,308.9c-1.1,0-2,0.4-2.4,1.4v-1.3h-1.1v6.4h1.1v-3.4c0.1-1.1,0.8-1.9,2-1.9
	c1.1,0,1.7,0.6,1.7,1.7v3.6h1.1v-3.9C143.3,309.8,142.4,308.9,140.9,308.9z M145.7,314.4v-5.5h-1.1v6.4h2.9v-0.9H145.7z
	 M157.6,311.3h-1.2c0-1.6-1.4-2.4-3.1-2.4c-1.2,0-2.4,0.5-3,1.4v-1.3h-1.1v8.9h1.1v-5.7c0-1.1,1.3-2.2,2.7-2.2c1.1,0,2,0.4,2.2,1.4
	h-1.1c-1.4,0-2.3,0.7-2.3,2c0,1.3,0.9,2.1,2.4,2.1c1.2,0,2.2-0.7,2.2-2.1v-1.1h1.2V311.3z M155.3,313.3c0,0.7-0.3,1.2-1.2,1.2
	c-0.7,0-1.3-0.4-1.3-1.2c0-0.8,0.7-1.1,1.2-1.1h1.3V313.3z M158.1,317.1c1.9-0.8,0.3-2.7,0.3-4.8v-3.4h1.1v3.5
	c0,1.9,2.1,4.9-1.4,5.5V317.1z M165.5,308.9c-1.1,0-2,0.4-2.4,1.4v-1.3H162v6.4h1.1v-3.4c0.1-1.1,0.8-1.9,2-1.9
	c1.1,0,1.7,0.6,1.7,1.7v3.6h1.1v-3.9C167.9,309.8,167,308.9,165.5,308.9z M170.4,314.4v-5.5h-1.1v6.4h2.9v-0.9H170.4z M178.5,308.9
	v3.1c0,1.3-0.7,2.2-1.9,2.2c-1,0-1.6-0.6-1.6-1.7v-6.4h-2.9v0.9h1.8v5.8c0,1.5,0.9,2.5,2.4,2.5c1.1,0,1.9-0.4,2.3-1.4v1.3h1.1v-6.4
	H178.5z M186.6,308.9v3.1c0,1.3-0.7,2.2-1.9,2.2c-1,0-1.6-0.6-1.6-1.7v-6.4h-2.9v0.9h1.8v5.8c0,1.5,0.9,2.5,2.4,2.5
	c1.1,0,1.9-0.4,2.3-1.4v1.3h1.1v-6.4H186.6z M196,309.8v-0.9h-5.1v-2.8h-1.1v6.7c0,1.5,0.9,2.5,2.4,2.5c1.1,0,1.9-0.4,2.3-1.4v1.3
	h1.1v-4.2h-1.1v0.9c0,1.3-0.7,2.2-1.9,2.2c-1,0-1.6-0.6-1.6-1.7v-2.8H196z M201.2,308.9c-1.1,0-2,0.4-2.4,1.4v-1.3h-1.1v8.9h1.1
	v-5.9c0.1-1.1,0.8-1.9,2-1.9c1.1,0,1.7,0.6,1.7,1.7v3.6h1.1v-3.9C203.6,309.8,202.7,308.9,201.2,308.9z M209.2,308.9
	c-1.1,0-2,0.4-2.4,1.4v-4.1h-1.1v11.6h1.1v-5.9c0.1-1.1,0.8-1.9,2-1.9c1.1,0,1.7,0.6,1.7,1.7v3.6h1.1v-3.9
	C211.6,309.8,210.7,308.9,209.2,308.9z M75.9,329.4v-5.5h-1.1v3.1c0,1.3-0.7,2.2-1.9,2.2c-1,0-1.6-0.6-1.6-1.7v-6.4h-1.1v6.7
	c0,1.5,0.9,2.5,2.4,2.5c1.1,0,1.9-0.4,2.3-1.4v1.3h2.9v-0.9H75.9z M88.7,332v-10.8h-1.1v5.9c0,1.3-0.7,2.2-1.9,2.2
	c-1,0-1.6-0.6-1.6-1.7v-3.6h-1.1v3.9c0,1.5,0.9,2.5,2.4,2.5c1.1,0,1.9-0.4,2.3-1.4v3.9h2.9V332H88.7z M97.3,324.8v-0.9h-5.1v-2.8
	h-1.1v6.7c0,1.5,0.9,2.5,2.4,2.5c1.1,0,1.9-0.4,2.3-1.4v1.3h1.1v-4.2h-1.1v0.9c0,1.3-0.7,2.2-1.9,2.2c-1,0-1.6-0.6-1.6-1.7v-2.8
	H97.3z M102.5,323.9c-1.1,0-2,0.4-2.4,1.4v-1.3h-1.1v8.9h1.1v-5.9c0.1-1.1,0.8-1.9,2-1.9c1.1,0,1.7,0.6,1.7,1.7v3.6h1.1v-3.9
	C104.9,324.8,104,323.9,102.5,323.9z M108.1,332v-8h-1.1v8.9h2.9V332H108.1z M114.1,323.9c-1.1,0-2,0.4-2.4,1.4v-1.3h-1.1v6.4h1.1
	v-3.4c0.1-1.1,0.8-1.9,2-1.9c1.1,0,1.7,0.6,1.7,1.7v3.6h1.1v-3.9C116.5,324.8,115.6,323.9,114.1,323.9z M118.9,329.4v-5.5h-1.1v6.4
	h2.9v-0.9H118.9z M128.9,323.9h-2.5c-0.8-0.6-1.5-1.2-1.7-2c-0.1-0.5,0.3-0.9,0.3-0.9h-1.1c0,0-0.4,0.4-0.3,1.1
	c0.1,0.8,0.6,1.3,1.3,1.9c-1.7,0.2-2.9,1.6-2.9,3.2c0,2,1.4,3.2,3.3,3.2c2.1,0,3.3-1.3,3.3-2.9c0-1.1-0.5-1.9-1.2-2.6h1.5V323.9z
	 M127.5,327.3c0,0.8-0.6,2-2.2,2c-1.4,0-2.2-1.1-2.2-2.2c0-1.1,0.9-2.3,2.2-2.3h0.6C126.8,325.5,127.5,326.2,127.5,327.3z
	 M133.7,323.9c-1.1,0-2,0.4-2.4,1.4v-1.3h-1.1v6.4h1.1v-3.4c0.1-1.1,0.8-1.9,2-1.9c1.1,0,1.7,0.6,1.7,1.7v3.6h1.1v-3.9
	C136.1,324.8,135.2,323.9,133.7,323.9z M138.5,329.4v-5.5h-1.1v6.4h2.9v-0.9H138.5z M150.4,326.3h-1.2c0-1.6-1.4-2.4-3.1-2.4
	c-1.2,0-2.4,0.5-3,1.4v-1.3H142v8.9h1.1v-5.7c0-1.1,1.3-2.2,2.7-2.2c1.1,0,2,0.4,2.2,1.4h-1.1c-1.4,0-2.3,0.7-2.3,2
	c0,1.3,0.9,2.1,2.4,2.1c1.2,0,2.2-0.7,2.2-2.1v-1.1h1.2V326.3z M148,328.3c0,0.7-0.3,1.2-1.2,1.2c-0.7,0-1.3-0.4-1.3-1.2
	c0-0.8,0.7-1.1,1.2-1.1h1.3V328.3z M150.9,332.1c1.9-0.8,0.3-2.7,0.3-4.8v-3.4h1.1v3.5c0,1.9,2.1,4.9-1.4,5.5V332.1z M158.3,323.9
	c-1.1,0-2,0.4-2.4,1.4v-1.3h-1.1v6.4h1.1v-3.4c0.1-1.1,0.8-1.9,2-1.9c1.1,0,1.7,0.6,1.7,1.7v3.6h1.1v-3.9
	C160.7,324.8,159.8,323.9,158.3,323.9z M163.1,329.4v-5.5H162v6.4h2.9v-0.9H163.1z M171.2,323.9v3.1c0,1.3-0.7,2.2-1.9,2.2
	c-1,0-1.6-0.6-1.6-1.7v-6.4h-2.9v0.9h1.8v5.8c0,1.5,0.9,2.5,2.4,2.5c1.1,0,1.9-0.4,2.3-1.4v1.3h1.1v-6.4H171.2z M179.4,323.9v3.1
	c0,1.3-0.7,2.2-1.9,2.2c-1,0-1.6-0.6-1.6-1.7v-6.4h-2.9v0.9h1.8v5.8c0,1.5,0.9,2.5,2.4,2.5c1.1,0,1.9-0.4,2.3-1.4v1.3h1.1v-6.4
	H179.4z M188.8,324.8v-0.9h-5.1v-2.8h-1.1v6.7c0,1.5,0.9,2.5,2.4,2.5c1.1,0,1.9-0.4,2.3-1.4v1.3h1.1v-4.2h-1.1v0.9
	c0,1.3-0.7,2.2-1.9,2.2c-1,0-1.6-0.6-1.6-1.7v-2.8H188.8z M194,323.9c-1.1,0-2,0.4-2.4,1.4v-1.3h-1.1v8.9h1.1v-5.9
	c0.1-1.1,0.8-1.9,2-1.9c1.1,0,1.7,0.6,1.7,1.7v3.6h1.1v-3.9C196.4,324.8,195.5,323.9,194,323.9z M202,323.9c-1.1,0-2,0.4-2.4,1.4
	v-4.1h-1.1v11.6h1.1v-5.9c0.1-1.1,0.8-1.9,2-1.9c1.1,0,1.7,0.6,1.7,1.7v3.6h1.1v-3.9C204.4,324.8,203.5,323.9,202,323.9z
	 M216.3,329.4h-5.1v-2.5c0.1-1.1,0.8-1.9,2-1.9c1.1,0,1.7,0.6,1.7,1.7v1.4h1.1v-1.7c0-1.5-0.9-2.5-2.4-2.5c-1.1,0-2,0.4-2.4,1.4
	v-1.3H210v8.9h1.1v-2.5h5.1V329.4z M226.3,323.9v3.5c-0.1,1-0.8,1.8-1.7,1.8c-0.9,0-1.4-0.6-1.4-1.7v-3.6H222v3.1
	c0,1.3-0.6,2.2-1.7,2.2c-0.9,0-1.4-0.6-1.4-1.7v-3.6h-1.1v3.9c0,1.5,0.8,2.5,2.1,2.5c1.1,0,1.9-0.5,2.2-1.6c0.2,1,0.9,1.6,2,1.6
	c1,0,1.7-0.4,2.1-1.3v1.3h1.1v-6.4H226.3z M237.1,323.9h-1.8v-2.7h-1.1v2.7h-1.9c-2.1,0-3.2,1.5-3.2,3.3c0,2.1,1.5,3.1,3.2,3.1
	c1.8,0,3-1,3-2.9v-2.5h1.8V323.9z M234.2,327.3c0,1.1-0.5,2.1-1.9,2.1c-1.5,0-2.1-1.2-2.1-2.1c0-1.3,0.7-2.3,2.2-2.3h1.7V327.3z
	 M241.4,323.9c-1.1,0-2,0.4-2.4,1.4v-4.1h-1.1v11.6h1.1v-5.9c0.1-1.1,0.8-1.9,2-1.9c1.1,0,1.7,0.6,1.7,1.7v3.6h1.1v-3.9
	C243.8,324.8,242.9,323.9,241.4,323.9z M250.7,323.9v3.1c0,1.3-0.7,2.2-1.9,2.2c-1,0-1.6-0.6-1.6-1.7v-6.4h-2.9v0.9h1.8v5.8
	c0,1.5,0.9,2.5,2.4,2.5c1.1,0,1.9-0.4,2.3-1.4v1.3h1.1v-6.4H250.7z"/>
<path class="st6" d="M15.4,317.9h37.7"/>
<path class="st6" d="M15.4,377.8h37.7"/>
<path class="st6" d="M15.4,430.8h37.7"/>
<path class="st6" d="M15.4,620.9h37.7"/>
<path class="st6" d="M15.4,567.8h37.7"/>
<path class="st6" d="M15.4,499.3h37.7"/>
<path class="st6" d="M111.5,204.2h38.6"/>
<path class="st6" d="M15.4,51.5v38.3"/>
<path class="st6" d="M15.4,140.7v38.8"/>
<path class="st6" d="M15.4,267.7l0,353.2"/>
<path class="st6" d="M15.4,229.9v37.7"/>
<path class="st6" d="M167.6,238.5v23"/>
</svg>
