<svg width="71" height="71" viewBox="0 0 71 71" fill="none" xmlns="http://www.w3.org/2000/svg">
<rect x="0.5" y="0.511719" width="70" height="70" rx="15" fill="url(#paint0_linear_1071_838)"/>
<path d="M26.9121 38.3525C26.3387 38.144 25.7392 38.0137 25.0876 38.0137H20.2919C17.3728 38.0137 15.001 40.4115 15.001 43.3046V50.029C15.001 51.2801 16.0174 52.2966 17.2685 52.2966H25.1137C25.6089 52.2966 26.078 52.2184 26.5211 52.0881V40.4376C26.495 39.6818 26.6514 38.978 26.9121 38.3525Z" stroke="white" stroke-width="3" stroke-miterlimit="10" stroke-linecap="round" stroke-linejoin="round"/>
<path d="M50.6817 38.0137H45.886C45.2344 38.0137 44.6349 38.144 44.0615 38.3525C44.3222 38.978 44.4785 39.6817 44.4785 40.4115V52.062C44.9216 52.1923 45.3908 52.2705 45.886 52.2705H53.7311C54.9822 52.2705 55.9987 51.254 55.9987 50.003V43.3046C55.9987 40.3855 53.6008 38.0137 50.6817 38.0137Z" stroke="white" stroke-width="3" stroke-miterlimit="10" stroke-linecap="round" stroke-linejoin="round"/>
<path d="M44.0614 38.3517C43.2534 36.4491 41.3768 35.0938 39.1874 35.0938H31.8114C29.6221 35.0938 27.7455 36.4491 26.9375 38.3517C26.6769 38.9772 26.5205 39.681 26.5205 40.4107V52.0612V52.2697H44.5044V52.0612V40.4107C44.4784 39.681 44.3481 38.9772 44.0614 38.3517Z" stroke="white" stroke-width="3" stroke-miterlimit="10" stroke-linecap="round" stroke-linejoin="round"/>
<path d="M22.2721 34.5208C24.604 34.5208 26.4944 32.6304 26.4944 30.2985C26.4944 27.9666 24.604 26.0762 22.2721 26.0762C19.9402 26.0762 18.0498 27.9666 18.0498 30.2985C18.0498 32.6304 19.9402 34.5208 22.2721 34.5208Z" stroke="white" stroke-width="3" stroke-miterlimit="10" stroke-linecap="round" stroke-linejoin="round"/>
<path d="M48.7267 34.5208C51.0586 34.5208 52.949 32.6304 52.949 30.2985C52.949 27.9666 51.0586 26.0762 48.7267 26.0762C46.3948 26.0762 44.5044 27.9666 44.5044 30.2985C44.5044 32.6304 46.3948 34.5208 48.7267 34.5208Z" stroke="white" stroke-width="3" stroke-miterlimit="10" stroke-linecap="round" stroke-linejoin="round"/>
<path d="M35.4869 31.2902C38.956 31.2902 41.7682 28.478 41.7682 25.0089C41.7682 21.5398 38.956 18.7275 35.4869 18.7275C32.0178 18.7275 29.2056 21.5398 29.2056 25.0089C29.2056 28.478 32.0178 31.2902 35.4869 31.2902Z" stroke="white" stroke-width="3" stroke-miterlimit="10" stroke-linecap="round" stroke-linejoin="round"/>
<defs>
<linearGradient id="paint0_linear_1071_838" x1="35.5" y1="0.511719" x2="35.5" y2="70.5117" gradientUnits="userSpaceOnUse">
<stop stop-color="#013651"/>
<stop offset="1" stop-color="#014F77"/>
</linearGradient>
</defs>
</svg>
