<svg width="25" height="25" viewBox="0 0 25 25" fill="none" xmlns="http://www.w3.org/2000/svg">
<rect x="0.761719" y="0.70874" width="24" height="24" rx="5" fill="#E5EFF4"/>
<path d="M18.4719 9.5834C19.0344 9.16152 19.5406 8.65527 19.9344 8.06465C19.4281 8.28965 18.8375 8.4584 18.2469 8.51465C18.8656 8.14902 19.3156 7.58652 19.5406 6.8834C18.9781 7.2209 18.3313 7.47402 17.6844 7.61465C17.1219 7.02402 16.3625 6.68652 15.5188 6.68652C13.8875 6.68652 12.5656 8.0084 12.5656 9.63965C12.5656 9.86465 12.5938 10.0896 12.65 10.3146C10.2031 10.174 8.00938 8.99277 6.54688 7.2209C6.29375 7.64277 6.15313 8.14902 6.15313 8.71152C6.15313 9.72402 6.65938 10.624 7.475 11.1584C6.99688 11.1303 6.51875 11.0178 6.125 10.7928V10.8209C6.125 12.2553 7.1375 13.4365 8.4875 13.7178C8.2625 13.774 7.98125 13.8303 7.72813 13.8303C7.53125 13.8303 7.3625 13.8021 7.16563 13.774C7.53125 14.9553 8.62813 15.799 9.92188 15.8271C8.90938 16.6146 7.64375 17.0928 6.26563 17.0928C6.0125 17.0928 5.7875 17.0646 5.5625 17.0365C6.85625 17.8803 8.40313 18.3584 10.0906 18.3584C15.5188 18.3584 18.4719 13.8865 18.4719 9.97715C18.4719 9.83652 18.4719 9.72402 18.4719 9.5834Z" fill="#006191"/>
</svg>
