<?xml version="1.0" encoding="utf-8"?>
<!-- Generator: Adobe Illustrator 25.2.1, SVG Export Plug-In . SVG Version: 6.00 Build 0)  -->
<svg version="1.1" id="Layer_1" xmlns="http://www.w3.org/2000/svg" xmlns:xlink="http://www.w3.org/1999/xlink" x="0px" y="0px"
	 viewBox="0 0 1299 355" style="enable-background:new 0 0 1299 355;" xml:space="preserve">
<style type="text/css">
	.st0{fill:url(#SVGID_1_1);}
	.st1{fill:#E5EFF4;}
	.st2{fill:none;stroke:#51859F;}
	.st3{fill:url(#SVGID_2_);}
	.st4{fill:url(#SVGID_3_);}
	.st5{fill:url(#SVGID_4_);}
	.st6{fill:url(#SVGID_5_);}
	.st7{fill:url(#SVGID_6_);}
	.st8{fill:url(#SVGID_7_);}
	.st9{fill:url(#SVGID_8_);}
	.st10{fill:url(#SVGID_9_);}
	.st11{fill:url(#SVGID_10_);}
	.st12{fill:url(#SVGID_11_);}
</style>
<linearGradient id="SVGID_1_1" gradientUnits="userSpaceOnUse" x1="1225.6" y1="88.836" x2="1225.6" y2="20.836" gradientTransform="matrix(1 0 0 -1 0 356)">
	<stop  offset="0" style="stop-color:#013651"/>
	<stop  offset="1" style="stop-color:#014F77"/>
</linearGradient>
<path class="st0" d="M1163.8,267.7h123.6c5.9,0,10.7,4.8,10.7,10.7v45.6c0,5.9-4.8,10.7-10.7,10.7h-123.6c-5.9,0-10.7-4.8-10.7-10.7
	v-45.6C1153.1,272.5,1157.9,267.7,1163.8,267.7z"/>
<path class="st1" d="M1181.5,285.3h-4.3v7.4c0,2-1.2,3.2-3.1,3.2c-1.9,0-3.2-1.2-3.2-3.2v-7.4h-1.5v7.4c0,2.9,1.8,4.6,4.7,4.6
	c2.9,0,4.6-1.7,4.6-4.6v-6h2.8V285.3z M1193.3,288.9v4.6c-0.2,1.4-1,2.3-2.3,2.4c-1.2,0-1.8-0.8-1.8-2.2v-4.7h-1.5v4.1
	c0,1.6-0.8,2.8-2.3,2.9c-1.2,0-1.8-0.8-1.8-2.2v-4.7h-1.5v5.1c0,2,1,3.2,2.8,3.2c1.4,0,2.4-0.7,2.9-2.1c0.3,1.3,1.2,2.1,2.6,2.1
	c1.3,0,2.2-0.5,2.8-1.7v1.7h1.5v-8.3H1193.3z M1202.3,288.8c-1.5,0-2.6,0.5-3.1,1.8v-1.7h-1.5v11.6h1.5v-7.8
	c0.1-1.5,1.1-2.5,2.6-2.5c1.4,0,2.2,0.8,2.2,2.2v4.7h1.5V292C1205.4,290,1204.2,288.8,1202.3,288.8z M1217.3,298.1h-7.4v-2.6
	c0.6,1.1,1.7,1.7,3.1,1.7c2.4,0,3.9-1.7,3.9-4.2c0-2.5-1.6-4.2-4-4.2c-1.4,0-2.5,0.6-3.1,1.7v-1.6h-1.5v9.3h-1.2v1.1h1.2v1.2h1.5
	v-1.2h7.4V298.1z M1212.7,290.1c1.6,0,2.8,1.2,2.8,2.9c0,1.7-1.2,3-2.8,3c-1.6,0-2.8-1.2-2.8-3
	C1209.9,291.3,1211.1,290.1,1212.7,290.1z M1227.4,290v-1.1h-6.7v-3.6h-1.5v8.7c0,2,1.1,3.2,3.1,3.2c1.4,0,2.5-0.6,3.1-1.8v1.8h1.5
	v-5.4h-1.5v1.2c0,1.6-1,2.9-2.5,2.9c-1.3,0-2.2-0.8-2.2-2.2V290H1227.4z M1240.5,292h-1.6c0-2.1-1.9-3.2-4-3.2
	c-1.6,0-3.1,0.6-3.9,1.9v-1.8h-1.5v11.6h1.5v-7.4c0-1.5,1.7-2.9,3.5-2.9c1.4,0,2.7,0.6,2.9,1.8h-1.5c-1.8,0-3,0.9-3,2.6
	c0,1.6,1.2,2.7,3.1,2.7c1.5,0,2.9-0.9,2.9-2.7v-1.4h1.6V292z M1237.5,294.5c0,0.9-0.4,1.5-1.5,1.5c-1,0-1.7-0.6-1.7-1.5
	c0-1.1,0.9-1.5,1.5-1.5h1.7V294.5z M1246.3,288.8c-1.5,0-2.6,0.5-3.1,1.8v-5.3h-1.5v15.2h1.5v-7.8c0.1-1.5,1.1-2.5,2.6-2.5
	c1.4,0,2.2,0.8,2.2,2.2v4.7h1.5V292C1249.4,290,1248.2,288.8,1246.3,288.8z M1258.4,288.9v4.1c0,1.6-0.9,2.9-2.5,2.9
	c-1.3,0-2.2-0.8-2.2-2.2v-8.3h-3.8v1.1h2.3v7.6c0,2,1.2,3.2,3.1,3.2c1.4,0,2.5-0.6,3.1-1.8v1.8h1.5v-8.3H1258.4z M1273,296h-2.4
	v-7.2h-1.5v1.6c-0.6-1.1-1.7-1.7-3.1-1.7c-2.3,0-4,1.7-4,4.2c0,2.5,1.6,4.3,4,4.3c1.4,0,2.5-0.6,3.1-1.7v4.9h1.5v-3.3h2.4V296z
	 M1266.3,296c-1.6,0-2.8-1.2-2.8-3c0-1.7,1.2-3,2.8-3c1.7,0,2.8,1.2,2.8,3C1269.2,294.8,1268,296,1266.3,296z M1278.8,288.8
	c-1.5,0-2.6,0.5-3.1,1.8v-5.3h-1.5v15.2h1.5v-7.8c0.1-1.5,1.1-2.5,2.6-2.5c1.4,0,2.2,0.8,2.2,2.2v4.7h1.5V292
	C1282,290,1280.8,288.8,1278.8,288.8z M1206.5,315h-6.7v-3.3c0.1-1.5,1.1-2.5,2.6-2.5c1.4,0,2.2,0.8,2.2,2.2v1.8h1.5V311
	c0-2-1.2-3.2-3.1-3.2c-1.5,0-2.6,0.5-3.1,1.8v-1.7h-1.5v11.6h1.5v-3.3h6.7V315z M1219.5,307.9v4.6c-0.2,1.4-1,2.3-2.3,2.4
	c-1.2,0-1.8-0.8-1.8-2.2v-4.7h-1.5v4.1c0,1.6-0.8,2.8-2.3,2.9c-1.2,0-1.8-0.8-1.8-2.2v-4.7h-1.5v5.1c0,2,1,3.2,2.8,3.2
	c1.4,0,2.4-0.7,2.9-2.1c0.3,1.3,1.2,2.1,2.6,2.1c1.3,0,2.2-0.5,2.8-1.7v1.7h1.5v-8.3H1219.5z M1233.7,307.9h-2.3v-3.6h-1.5v3.6h-2.5
	c-2.7,0-4.2,2-4.2,4.3c0,2.7,1.9,4.1,4.2,4.1c2.3,0,3.9-1.3,3.9-3.8v-3.3h2.3V307.9z M1229.9,312.3c0,1.5-0.6,2.7-2.4,2.7
	c-1.9,0-2.7-1.5-2.7-2.8c0-1.6,0.9-3,2.9-3h2.3V312.3z M1239.3,307.8c-1.5,0-2.6,0.5-3.1,1.8v-5.3h-1.5v15.2h1.5v-7.8
	c0.1-1.5,1.1-2.5,2.6-2.5c1.4,0,2.2,0.8,2.2,2.2v4.7h1.5V311C1242.4,309,1241.2,307.8,1239.3,307.8z M1251.4,307.9v4.1
	c0,1.6-0.9,2.9-2.5,2.9c-1.3,0-2.2-0.8-2.2-2.2v-8.3h-3.8v1.1h2.3v7.6c0,2,1.2,3.2,3.1,3.2c1.4,0,2.5-0.6,3.1-1.8v1.8h1.5v-8.3
	H1251.4z"/>
<path class="st2" d="M1163.8,267.7h123.6c5.9,0,10.7,4.8,10.7,10.7v45.6c0,5.9-4.8,10.7-10.7,10.7h-123.6c-5.9,0-10.7-4.8-10.7-10.7
	v-45.6C1153.1,272.5,1157.9,267.7,1163.8,267.7z"/>
<linearGradient id="SVGID_2_" gradientUnits="userSpaceOnUse" x1="1045.762" y1="88.836" x2="1045.762" y2="20.836" gradientTransform="matrix(1 0 0 -1 0 356)">
	<stop  offset="0" style="stop-color:#013651"/>
	<stop  offset="1" style="stop-color:#014F77"/>
</linearGradient>
<path class="st3" d="M966,267.7h159.6c5.9,0,10.7,4.8,10.7,10.7v45.6c0,5.9-4.8,10.7-10.7,10.7H966c-5.9,0-10.7-4.8-10.7-10.7v-45.6
	C955.3,272.5,960.1,267.7,966,267.7z"/>
<path class="st1" d="M976.2,287.5c-1.4,0-2.4,0.6-3.1,1.5v-3.7h-1.5v11.9h1.5v-3.2h0v-1.8c0-2,1.2-3.3,3.1-3.3c2,0,3.2,1.4,3.2,3.4
	v1.4h1.5v-1.4C980.9,289.4,979.2,287.5,976.2,287.5z M988.1,288.8c-1.5,0-2.6,0.5-3.1,1.8v-1.7h-1.5v11.6h1.5v-7.8
	c0.1-1.5,1.1-2.5,2.6-2.5c1.4,0,2.2,0.8,2.2,2.2v4.7h1.5V292C991.3,290,990.1,288.8,988.1,288.8z M1004.8,288.9v4.6
	c-0.2,1.4-1,2.3-2.3,2.4c-1.2,0-1.8-0.8-1.8-2.2v-4.7h-1.5v4.1c0,1.6-0.8,2.8-2.3,2.9c-1.2,0-1.8-0.8-1.8-2.2v-4.7h-1.5v5.1
	c0,2,1,3.2,2.8,3.2c1.4,0,2.4-0.7,2.9-2.1c0.3,1.3,1.2,2.1,2.6,2.1c1.3,0,2.2-0.5,2.8-1.7v1.7h1.5v-8.3H1004.8z M1016.6,299.3v-14.1
	h-1.5v7.7c0,1.6-0.9,2.9-2.5,2.9c-1.3,0-2.2-0.8-2.2-2.2v-4.7h-1.5v5.1c0,2,1.1,3.2,3.1,3.2c1.4,0,2.5-0.6,3.1-1.8v5.1h3.8v-1.1
	H1016.6z M1030.8,288.9v4.6c-0.2,1.4-1,2.3-2.3,2.4c-1.2,0-1.8-0.8-1.8-2.2v-4.7h-1.5v4.1c0,1.6-0.9,2.8-2.3,2.9
	c-1.2,0-1.8-0.8-1.8-2.2v-4.7h-1.5v5.1c0,2,1,3.2,2.8,3.2c1.4,0,2.4-0.7,2.9-2.1c0.3,1.3,1.2,2.1,2.6,2.1c1.3,0,2.2-0.5,2.8-1.7v1.7
	h1.5v-8.3H1030.8z M1043.3,296h-6.7v-3.3c0.1-1.5,1.1-2.5,2.6-2.5c1.4,0,2.2,0.8,2.2,2.2v1.8h1.5V292c0-2-1.2-3.2-3.1-3.2
	c-1.5,0-2.6,0.5-3.1,1.8v-1.7h-1.5v11.6h1.5v-3.3h6.7V296z M1056.4,288.9v4.6c-0.2,1.4-1,2.3-2.3,2.4c-1.2,0-1.8-0.8-1.8-2.2v-4.7
	h-1.5v4.1c0,1.6-0.8,2.8-2.3,2.9c-1.2,0-1.8-0.8-1.8-2.2v-4.7h-1.5v5.1c0,2,1,3.2,2.8,3.2c1.4,0,2.4-0.7,2.9-2.1
	c0.3,1.3,1.2,2.1,2.6,2.1c1.3,0,2.2-0.5,2.8-1.7v1.7h1.5v-8.3H1056.4z M1067,288.9v4.1c0,1.6-0.9,2.9-2.5,2.9
	c-1.3,0-2.1-0.8-2.1-2.2v-8.3h-3.8v1.1h2.3v7.6c0,2,1.2,3.2,3.1,3.2c1.4,0,2.5-0.6,3.1-1.8v1.8h1.5v-8.3H1067z M1082.2,288.9v4.6
	c-0.2,1.4-1,2.3-2.3,2.4c-1.2,0-1.8-0.8-1.8-2.2v-4.7h-1.5v4.1c0,1.6-0.8,2.8-2.3,2.9c-1.2,0-1.8-0.8-1.8-2.2v-4.7h-1.5v5.1
	c0,2,1,3.2,2.8,3.2c1.4,0,2.4-0.7,2.9-2.1c0.3,1.3,1.2,2.1,2.6,2.1c1.3,0,2.2-0.5,2.8-1.7v1.7h1.5v-8.3H1082.2z M1092.6,288.9v4.1
	c0,1.6-0.9,2.9-2.5,2.9c-1.3,0-2.2-0.8-2.2-2.2v-8.3h-1.5v8.7c0,2,1.1,3.2,3.1,3.2c1.4,0,2.5-0.6,3.1-1.8v5.1h1.5v-11.6H1092.6z
	 M1107.8,288.9v4.6c-0.2,1.4-1,2.3-2.3,2.4c-1.2,0-1.8-0.8-1.8-2.2v-4.7h-1.5v4.1c0,1.6-0.9,2.8-2.3,2.9c-1.2,0-1.8-0.8-1.8-2.2
	v-4.7h-1.5v5.1c0,2,1,3.2,2.8,3.2c1.4,0,2.4-0.7,2.9-2.1c0.3,1.3,1.2,2.1,2.6,2.1c1.3,0,2.2-0.5,2.8-1.7v1.7h1.5v-8.3H1107.8z
	 M1118.4,288.9v4.1c0,1.6-0.9,2.9-2.5,2.9c-1.3,0-2.2-0.8-2.2-2.2v-8.3h-3.8v1.1h2.4v7.6c0,2,1.2,3.2,3.1,3.2c1.4,0,2.5-0.6,3.1-1.8
	v1.8h1.5v-8.3H1118.4z M1026.6,315h-6.7v-3.3c0.1-1.5,1.1-2.5,2.6-2.5c1.4,0,2.2,0.8,2.2,2.2v1.8h1.5V311c0-2-1.2-3.2-3.1-3.2
	c-1.5,0-2.6,0.5-3.1,1.8v-1.7h-1.5v11.6h1.5v-3.3h6.7V315z M1039.7,307.9v4.6c-0.2,1.4-1,2.3-2.3,2.4c-1.2,0-1.8-0.8-1.8-2.2v-4.7
	h-1.5v4.1c0,1.6-0.8,2.8-2.3,2.9c-1.2,0-1.8-0.8-1.8-2.2v-4.7h-1.5v5.1c0,2,1,3.2,2.8,3.2c1.4,0,2.4-0.7,2.9-2.1
	c0.3,1.3,1.2,2.1,2.6,2.1c1.3,0,2.2-0.5,2.8-1.7v1.7h1.5v-8.3H1039.7z M1053.8,307.9h-2.3v-3.6h-1.5v3.6h-2.5c-2.7,0-4.2,2-4.2,4.3
	c0,2.7,1.9,4.1,4.2,4.1c2.3,0,3.9-1.3,3.9-3.8v-3.3h2.3V307.9z M1050,312.3c0,1.5-0.6,2.7-2.5,2.7c-1.9,0-2.7-1.5-2.7-2.8
	c0-1.6,0.9-3,2.9-3h2.3V312.3z M1059.4,307.8c-1.5,0-2.6,0.5-3.1,1.8v-5.3h-1.5v15.2h1.5v-7.8c0.1-1.5,1.1-2.5,2.6-2.5
	c1.4,0,2.2,0.8,2.2,2.2v4.7h1.5V311C1062.6,309,1061.4,307.8,1059.4,307.8z M1071.6,307.9v4.1c0,1.6-0.9,2.9-2.5,2.9
	c-1.3,0-2.2-0.8-2.2-2.2v-8.3h-3.8v1.1h2.3v7.6c0,2,1.2,3.2,3.1,3.2c1.4,0,2.5-0.6,3.1-1.8v1.8h1.5v-8.3H1071.6z"/>
<path class="st2" d="M966,267.7h159.6c5.9,0,10.7,4.8,10.7,10.7v45.6c0,5.9-4.8,10.7-10.7,10.7H966c-5.9,0-10.7-4.8-10.7-10.7v-45.6
	C955.3,272.5,960.1,267.7,966,267.7z"/>
<linearGradient id="SVGID_3_" gradientUnits="userSpaceOnUse" x1="803.42" y1="88.836" x2="803.42" y2="1.836" gradientTransform="matrix(1 0 0 -1 0 356)">
	<stop  offset="0" style="stop-color:#013651"/>
	<stop  offset="1" style="stop-color:#014F77"/>
</linearGradient>
<path class="st4" d="M679.1,267.7h248.6c5.9,0,10.7,4.8,10.7,10.7v64.6c0,5.9-4.8,10.7-10.7,10.7H679.1c-5.9,0-10.7-4.8-10.7-10.7
	v-64.6C668.4,272.5,673.2,267.7,679.1,267.7z"/>
<path class="st1" d="M701.7,296l-2.2-1.9c0.1-0.4,0.2-0.9,0.2-1.4v-7.4h-1.5v7.4c0,2-1.2,3.2-3.1,3.2c-1.9,0-3.2-1.2-3.2-3.2v-7.4
	h-1.5v7.4c0,2.9,1.8,4.6,4.7,4.6c1.8,0,3.1-0.7,3.9-1.9l2,1.7L701.7,296z M709.1,288.9v4.1c0,1.6-0.9,2.9-2.5,2.9
	c-1.3,0-2.2-0.8-2.2-2.2v-8.3h-1.5v8.7c0,2,1.1,3.2,3.1,3.2c1.4,0,2.5-0.6,3.1-1.8v5.1h1.5v-11.6H709.1z M722.9,288.8
	c-1.2,0-2.2,0.5-2.7,1.6v-1.5h-1.5v4.7c-0.2,1.3-1,2.2-2.2,2.2c-1.2,0-1.8-0.8-1.8-2.2v-4.7h-1.5v5.1c0,2,1,3.2,2.8,3.2
	c1.3,0,2.2-0.5,2.7-1.7v1.6h1.5v-5.1c0.3-1.1,1.1-1.9,2.2-1.9c1.2,0,1.8,0.8,1.8,2.2v4.7h1.5V292C725.7,290,724.7,288.8,722.9,288.8
	z M733,288.8c-1.5,0-2.6,0.5-3.1,1.8v-5.3h-1.5v15.2h1.5v-7.8c0.1-1.5,1.1-2.5,2.6-2.5c1.4,0,2.2,0.8,2.2,2.2v4.7h1.5V292
	C736.2,290,735,288.8,733,288.8z M746.3,299.3v-14.1h-1.5v7.7c0,1.6-0.9,2.9-2.5,2.9c-1.3,0-2.2-0.8-2.2-2.2v-4.7h-1.5v5.1
	c0,2,1.1,3.2,3.1,3.2c1.4,0,2.5-0.6,3.1-1.8v5.1h3.8v-1.1H746.3z M755.6,288.9v4.1c0,1.6-0.9,2.9-2.5,2.9c-1.3,0-2.2-0.8-2.2-2.2
	v-8.3h-3.8v1.1h2.4v7.6c0,2,1.2,3.2,3.1,3.2c1.4,0,2.5-0.6,3.1-1.8v1.8h1.5v-8.3H755.6z M768,290v-1.1h-6.7v-3.6h-1.5v8.7
	c0,2,1.1,3.2,3.1,3.2c1.4,0,2.5-0.6,3.1-1.8v1.8h1.5v-5.4H766v1.2c0,1.6-0.9,2.9-2.5,2.9c-1.3,0-2.2-0.8-2.2-2.2V290H768z
	 M774.7,288.8c-1.5,0-2.6,0.5-3.1,1.8v-1.7h-1.5v11.6h1.5v-7.8c0.1-1.5,1.1-2.5,2.6-2.5c1.4,0,2.2,0.8,2.2,2.2v4.7h1.5V292
	C777.9,290,776.7,288.8,774.7,288.8z M785.2,288.8c-1.5,0-2.6,0.5-3.1,1.8v-5.3h-1.5v15.2h1.5v-7.8c0.1-1.5,1.1-2.5,2.6-2.5
	c1.4,0,2.2,0.8,2.2,2.2v4.7h1.5V292C788.3,290,787.1,288.8,785.2,288.8z M801.7,288.9v4.1c0,1.6-0.9,2.9-2.5,2.9
	c-1.3,0-2.2-0.8-2.2-2.2v-8.3h-1.5v8.7c0,2,1.1,3.2,3.1,3.2c1.4,0,2.5-0.6,3.1-1.8v5.1h1.5v-11.6H801.7z M817,288.9v4.6
	c-0.2,1.4-1,2.3-2.3,2.4c-1.2,0-1.8-0.8-1.8-2.2v-4.7h-1.5v4.1c0,1.6-0.8,2.8-2.3,2.9c-1.2,0-1.8-0.8-1.8-2.2v-4.7h-1.5v5.1
	c0,2,1,3.2,2.8,3.2c1.4,0,2.4-0.7,2.9-2.1c0.3,1.3,1.2,2.1,2.6,2.1c1.3,0,2.2-0.5,2.8-1.7v1.7h1.5v-8.3H817z M826.9,296
	c1.1-1,2.2-2.2,2.2-4c0-2-1.2-3.2-3.1-3.2c-1.5,0-2.6,0.5-3.1,1.8v-1.7h-1.5v8.3h1.5v-4.4c0.1-1.5,1.1-2.5,2.6-2.5
	c1.4,0,2.2,0.8,2.2,2.2c0,1.7-1.1,2.5-2.2,3.6h0v1.1h3.9V296H826.9z M842.5,288.9v4.6c-0.2,1.4-1,2.3-2.3,2.4
	c-1.2,0-1.8-0.8-1.8-2.2v-4.7h-1.5v4.1c0,1.6-0.8,2.8-2.3,2.9c-1.2,0-1.8-0.8-1.8-2.2v-4.7h-1.5v5.1c0,2,1,3.2,2.8,3.2
	c1.4,0,2.4-0.7,2.9-2.1c0.3,1.3,1.2,2.1,2.6,2.1c1.3,0,2.2-0.5,2.8-1.7v1.7h1.5v-8.3H842.5z M854.3,299.3v-14.1h-1.5v7.7
	c0,1.6-0.9,2.9-2.5,2.9c-1.3,0-2.2-0.8-2.2-2.2v-4.7h-1.5v5.1c0,2,1.1,3.2,3.1,3.2c1.4,0,2.5-0.6,3.1-1.8v5.1h3.8v-1.1H854.3z
	 M868.4,288.9v4.6c-0.2,1.4-1,2.3-2.3,2.4c-1.2,0-1.8-0.8-1.8-2.2v-4.7h-1.5v4.1c0,1.6-0.8,2.8-2.3,2.9c-1.2,0-1.8-0.8-1.8-2.2v-4.7
	h-1.5v5.1c0,2,1,3.2,2.8,3.2c1.4,0,2.4-0.7,2.9-2.1c0.3,1.3,1.2,2.1,2.6,2.1c1.3,0,2.2-0.5,2.8-1.7v1.7h1.5v-8.3H868.4z
	 M877.4,288.8c-1.5,0-2.6,0.5-3.1,1.8v-1.7h-1.5v11.6h1.5v-7.8c0.1-1.5,1.1-2.5,2.6-2.5c1.4,0,2.2,0.8,2.2,2.2v4.7h1.5V292
	C880.5,290,879.4,288.8,877.4,288.8z M893,285.3h-3.8v7.7c0,1.6-0.9,2.9-2.5,2.9c-1.3,0-2.2-0.8-2.2-2.2v-4.7h-1.5v5.1
	c0,2,1.1,3.2,3.1,3.2c1.4,0,2.5-0.6,3.1-1.8v1.8h1.5v-10.8h2.4V285.3z M904.5,288.9v4.6c-0.2,1.4-1,2.3-2.3,2.4
	c-1.2,0-1.8-0.8-1.8-2.2v-4.7h-1.5v4.1c0,1.6-0.8,2.8-2.3,2.9c-1.2,0-1.8-0.8-1.8-2.2v-4.7h-1.5v5.1c0,2,1,3.2,2.8,3.2
	c1.4,0,2.4-0.7,2.9-2.1c0.3,1.3,1.2,2.1,2.6,2.1c1.3,0,2.2-0.5,2.8-1.7v1.7h1.5v-8.3H904.5z M915.1,288.9v4.1c0,1.6-0.9,2.9-2.5,2.9
	c-1.3,0-2.2-0.8-2.2-2.2v-8.3h-3.8v1.1h2.4v7.6c0,2,1.2,3.2,3.1,3.2c1.4,0,2.5-0.6,3.1-1.8v1.8h1.5v-8.3H915.1z M741.9,315v-7.2
	h-1.5v4.1c0,1.6-0.9,2.9-2.5,2.9c-1.3,0-2.2-0.8-2.2-2.2v-8.3h-1.5v8.7c0,2,1.1,3.2,3.1,3.2c1.4,0,2.5-0.6,3.1-1.8v1.8h3.8V315
	H741.9z M762,307.9v4.6c-0.2,1.4-1,2.3-2.3,2.4c-1.2,0-1.8-0.8-1.8-2.2v-4.7h-1.5v4.1c0,1.6-0.8,2.8-2.3,2.9c-1.2,0-1.8-0.8-1.8-2.2
	v-4.7H751v5.1c0,2,1,3.2,2.8,3.2c1.4,0,2.4-0.7,2.9-2.1c0.3,1.3,1.2,2.1,2.6,2.1c1.3,0,2.2-0.5,2.8-1.7v1.7h1.5v-8.3H762z
	 M771,307.8c-1.5,0-2.6,0.5-3.1,1.8v-1.7h-1.5v11.6h1.5v-7.8c0.1-1.5,1.1-2.5,2.6-2.5c1.4,0,2.2,0.8,2.2,2.2v4.7h1.5V311
	C774.1,309,772.9,307.8,771,307.8z M786.7,307.9h-2.3v-3.6h-1.5v3.6h-2.5c-2.7,0-4.1,2-4.1,4.3c0,2.7,1.9,4.1,4.2,4.1
	c2.3,0,3.9-1.3,3.9-3.8v-3.3h2.3V307.9z M782.8,312.3c0,1.5-0.6,2.7-2.4,2.7c-1.9,0-2.7-1.5-2.7-2.8c0-1.6,0.9-3,2.9-3h2.3V312.3z
	 M795.6,309v-1.1h-6.7v-3.6h-1.5v8.7c0,2,1.1,3.2,3.1,3.2c1.4,0,2.5-0.6,3.1-1.8v1.8h1.5v-5.4h-1.5v1.2c0,1.6-0.9,2.9-2.5,2.9
	c-1.3,0-2.2-0.8-2.2-2.2V309H795.6z M808.7,311h-1.6c0-2.1-1.9-3.2-4-3.2c-1.6,0-3.1,0.6-3.9,1.9v-1.8h-1.5v11.6h1.5v-7.4
	c0-1.5,1.7-2.9,3.5-2.9c1.4,0,2.7,0.6,2.9,1.8h-1.5c-1.8,0-3,0.9-3,2.6c0,1.6,1.2,2.7,3.1,2.7c1.5,0,2.9-0.9,2.9-2.7v-1.4h1.6V311z
	 M805.7,313.5c0,0.9-0.4,1.5-1.5,1.5c-1,0-1.7-0.6-1.7-1.5c0-1.1,0.9-1.5,1.5-1.5h1.7V313.5z M817.6,318.3V311c0-2-1.2-3.2-3.1-3.2
	c-1.5,0-2.6,0.5-3.1,1.8v-1.7h-1.5v8.3h1.5v-4.4c0.1-1.5,1.1-2.5,2.6-2.5c1.4,0,2.2,0.8,2.2,2.2v8.1h3.8v-1.1H817.6z M832.4,311
	h-1.6c0-2.1-1.9-3.2-4-3.2c-1.6,0-3.1,0.6-3.9,1.9v-1.8h-1.5v11.6h1.5v-7.4c0-1.5,1.7-2.9,3.5-2.9c1.4,0,2.7,0.6,2.9,1.8h-1.5
	c-1.8,0-3,0.9-3,2.6c0,1.6,1.2,2.7,3.1,2.7c1.5,0,2.9-0.9,2.9-2.7v-1.4h1.6V311z M829.3,313.5c0,0.9-0.4,1.5-1.5,1.5
	c-1,0-1.7-0.6-1.7-1.5c0-1.1,0.9-1.5,1.5-1.5h1.7V313.5z M841.5,309v-1.1h-6.7v-3.6h-1.5v8.7c0,2,1.1,3.2,3.1,3.2
	c1.4,0,2.5-0.6,3.1-1.8v1.8h1.5v-5.4h-1.5v1.2c0,1.6-0.9,2.9-2.5,2.9c-1.3,0-2.2-0.8-2.2-2.2V309H841.5z M848.3,307.8
	c-1.5,0-2.6,0.5-3.1,1.8v-1.7h-1.5v11.6h1.5v-7.8c0.1-1.5,1.1-2.5,2.6-2.5c1.4,0,2.2,0.8,2.2,2.2v4.7h1.5V311
	C851.4,309,850.2,307.8,848.3,307.8z M858.7,307.8c-1.5,0-2.6,0.5-3.1,1.8v-1.7h-1.5v8.3h1.5v-4.4c0.1-1.5,1.1-2.5,2.6-2.5
	c1.4,0,2.2,0.8,2.2,2.2v4.7h1.5V311C861.9,309,860.7,307.8,858.7,307.8z M872,318.3v-14.1h-1.5v7.7c0,1.6-0.9,2.9-2.5,2.9
	c-1.3,0-2.2-0.8-2.2-2.2v-4.7h-1.5v5.1c0,2,1.1,3.2,3.1,3.2c1.4,0,2.5-0.6,3.1-1.8v5.1h3.8v-1.1H872z M695,334h-2.4v-7.2h-1.5v1.6
	c-0.6-1.1-1.7-1.7-3.1-1.7c-2.3,0-4,1.7-4,4.2c0,2.5,1.6,4.3,4,4.3c1.4,0,2.5-0.6,3.1-1.7v4.9h1.5v-3.3h2.4V334z M688.3,334
	c-1.6,0-2.8-1.2-2.8-3c0-1.7,1.2-3,2.8-3c1.6,0,2.8,1.2,2.8,3C691.1,332.8,690,334,688.3,334z M700.8,326.8c-1.5,0-2.6,0.5-3.1,1.8
	v-1.7h-1.5v8.3h1.5v-4.4c0.1-1.5,1.1-2.5,2.6-2.5c1.4,0,2.2,0.8,2.2,2.2v4.7h1.5V330C704,328,702.8,326.8,700.8,326.8z M711.3,326.8
	c-1.5,0-2.6,0.5-3.1,1.8v-1.7h-1.5v11.6h1.5v-7.8c0.1-1.5,1.1-2.5,2.6-2.5c1.4,0,2.2,0.8,2.2,2.2v4.7h1.5V330
	C714.4,328,713.2,326.8,711.3,326.8z M725.6,326.9h-3.3c-1-0.8-2-1.6-2.2-2.6c-0.2-0.7,0.4-1.2,0.4-1.2H719c0,0-0.6,0.5-0.4,1.4
	c0.2,1,0.8,1.8,1.7,2.4c-2.3,0.2-3.8,2.1-3.8,4.2c0,2.6,1.9,4.2,4.3,4.2c2.7,0,4.4-1.6,4.4-3.8c0-1.5-0.7-2.5-1.6-3.4h2V326.9z
	 M723.7,331.3c0,1.1-0.8,2.7-2.8,2.7c-1.9,0-2.9-1.4-2.9-2.9c0-1.4,1.1-3,2.8-3h0.8C722.8,328.9,723.7,329.8,723.7,331.3z
	 M738.1,326.9v4.6c-0.2,1.4-1,2.3-2.3,2.4c-1.2,0-1.8-0.8-1.8-2.2v-4.7h-1.5v4.1c0,1.6-0.8,2.8-2.3,2.9c-1.2,0-1.8-0.8-1.8-2.2v-4.7
	H727v5.1c0,2,1,3.2,2.8,3.2c1.4,0,2.4-0.7,2.9-2.1c0.3,1.3,1.2,2.1,2.6,2.1c1.3,0,2.2-0.5,2.8-1.7v1.7h1.5v-8.3H738.1z M748,334
	c1.1-1,2.2-2.2,2.2-4c0-2-1.2-3.2-3.1-3.2c-1.5,0-2.6,0.5-3.1,1.8v-1.7h-1.5v8.3h1.5v-4.4c0.1-1.5,1.1-2.5,2.6-2.5
	c1.4,0,2.2,0.8,2.2,2.2c0,1.7-1.1,2.5-2.2,3.6h0v1.1h3.9V334H748z M758.7,326.9v4.1c0,1.6-0.9,2.9-2.5,2.9c-1.3,0-2.2-0.8-2.2-2.2
	v-8.3h-3.8v1.1h2.4v7.6c0,2,1.2,3.2,3.1,3.2c1.4,0,2.5-0.6,3.1-1.8v1.8h1.5v-8.3H758.7z M767.7,326.8c-1.5,0-2.6,0.5-3.1,1.8v-1.7
	h-1.5v8.3h1.5v-4.4c0.1-1.5,1.1-2.5,2.6-2.5c1.4,0,2.2,0.8,2.2,2.2v4.7h1.5V330C770.9,328,769.7,326.8,767.7,326.8z M774,334v-7.2
	h-1.5v8.3h3.8V334H774z M789.6,330H788c0-2.1-1.9-3.2-4-3.2c-1.6,0-3.1,0.6-3.9,1.9v-1.8h-1.5v11.6h1.5v-7.4c0-1.5,1.7-2.9,3.5-2.9
	c1.4,0,2.7,0.6,2.9,1.8H785c-1.8,0-3,0.9-3,2.6c0,1.6,1.2,2.7,3.1,2.7c1.5,0,2.9-0.9,2.9-2.7v-1.4h1.6V330z M786.5,332.5
	c0,0.9-0.4,1.5-1.5,1.5c-1,0-1.7-0.6-1.7-1.5c0-1.1,0.9-1.5,1.5-1.5h1.7V332.5z M790.2,337.5c2.5-1,0.4-3.6,0.4-6.3v-4.4h1.5v4.6
	c0.1,2.5,2.7,6.3-1.9,7.2V337.5z M799.9,326.8c-1.5,0-2.6,0.5-3.1,1.8v-1.7h-1.5v8.3h1.5v-4.4c0.1-1.5,1.1-2.5,2.6-2.5
	c1.4,0,2.2,0.8,2.2,2.2v4.7h1.5V330C803.1,328,801.9,326.8,799.9,326.8z M806.2,334v-7.2h-1.5v8.3h3.8V334H806.2z M816.8,326.9v4.1
	c0,1.6-0.9,2.9-2.5,2.9c-1.3,0-2.2-0.8-2.2-2.2v-8.3h-3.8v1.1h2.4v7.6c0,2,1.2,3.2,3.1,3.2c1.4,0,2.5-0.6,3.1-1.8v1.8h1.5v-8.3
	H816.8z M827.4,326.9v4.1c0,1.6-0.9,2.9-2.5,2.9c-1.3,0-2.2-0.8-2.2-2.2v-8.3h-3.8v1.1h2.4v7.6c0,2,1.2,3.2,3.1,3.2
	c1.4,0,2.5-0.6,3.1-1.8v1.8h1.5v-8.3H827.4z M839.8,328v-1.1h-6.7v-3.6h-1.5v8.7c0,2,1.1,3.2,3.1,3.2c1.4,0,2.5-0.6,3.1-1.8v1.8h1.5
	v-5.4h-1.5v1.2c0,1.6-0.9,2.9-2.5,2.9c-1.3,0-2.2-0.8-2.2-2.2V328H839.8z M846.5,326.8c-1.5,0-2.6,0.5-3.1,1.8v-1.7h-1.5v11.6h1.5
	v-7.8c0.1-1.5,1.1-2.5,2.6-2.5c1.4,0,2.2,0.8,2.2,2.2v4.7h1.5V330C849.7,328,848.5,326.8,846.5,326.8z M857,326.8
	c-1.5,0-2.6,0.5-3.1,1.8v-5.3h-1.5v15.2h1.5v-7.8c0.1-1.5,1.1-2.5,2.6-2.5c1.4,0,2.2,0.8,2.2,2.2v4.7h1.5V330
	C860.1,328,859,326.8,857,326.8z M875.7,334H869v-3.3c0.1-1.5,1.1-2.5,2.6-2.5c1.4,0,2.2,0.8,2.2,2.2v1.8h1.5V330
	c0-2-1.2-3.2-3.1-3.2c-1.5,0-2.6,0.5-3.1,1.8v-1.7h-1.5v11.6h1.5v-3.3h6.7V334z M888.7,326.9v4.6c-0.2,1.4-1,2.3-2.3,2.4
	c-1.2,0-1.8-0.8-1.8-2.2v-4.7h-1.5v4.1c0,1.6-0.8,2.8-2.3,2.9c-1.2,0-1.8-0.8-1.8-2.2v-4.7h-1.5v5.1c0,2,1,3.2,2.8,3.2
	c1.4,0,2.4-0.7,2.9-2.1c0.3,1.3,1.2,2.1,2.6,2.1c1.3,0,2.2-0.5,2.8-1.7v1.7h1.5v-8.3H888.7z M902.9,326.9h-2.3v-3.6h-1.5v3.6h-2.5
	c-2.7,0-4.1,2-4.1,4.3c0,2.7,1.9,4.1,4.2,4.1c2.3,0,3.9-1.3,3.9-3.8v-3.3h2.3V326.9z M899.1,331.3c0,1.5-0.6,2.7-2.4,2.7
	c-1.9,0-2.7-1.5-2.7-2.8c0-1.6,0.9-3,2.9-3h2.3V331.3z M908.5,326.8c-1.5,0-2.6,0.5-3.1,1.8v-5.3h-1.5v15.2h1.5v-7.8
	c0.1-1.5,1.1-2.5,2.6-2.5c1.4,0,2.2,0.8,2.2,2.2v4.7h1.5V330C911.7,328,910.5,326.8,908.5,326.8z M920.6,326.9v4.1
	c0,1.6-0.9,2.9-2.5,2.9c-1.3,0-2.2-0.8-2.2-2.2v-8.3h-3.8v1.1h2.4v7.6c0,2,1.2,3.2,3.1,3.2c1.4,0,2.5-0.6,3.1-1.8v1.8h1.5v-8.3
	H920.6z"/>
<path class="st2" d="M679.1,267.7h248.6c5.9,0,10.7,4.8,10.7,10.7v64.6c0,5.9-4.8,10.7-10.7,10.7H679.1c-5.9,0-10.7-4.8-10.7-10.7
	v-64.6C668.4,272.5,673.2,267.7,679.1,267.7z"/>
<linearGradient id="SVGID_4_" gradientUnits="userSpaceOnUse" x1="558.079" y1="88.836" x2="558.079" y2="20.836" gradientTransform="matrix(1 0 0 -1 0 356)">
	<stop  offset="0" style="stop-color:#013651"/>
	<stop  offset="1" style="stop-color:#014F77"/>
</linearGradient>
<path class="st5" d="M475.3,267.7h165.6c5.9,0,10.7,4.8,10.7,10.7v45.6c0,5.9-4.8,10.7-10.7,10.7H475.3c-5.9,0-10.7-4.8-10.7-10.7
	v-45.6C464.6,272.5,469.4,267.7,475.3,267.7z"/>
<path class="st1" d="M493,292.3h-2.8v-2.5c0-2.9-1.7-4.6-4.6-4.6c-2.9,0-4.7,1.7-4.7,4.6v7.4h1.5v-7.4c0-2,1.2-3.2,3.2-3.2
	c1.9,0,3.1,1.2,3.1,3.2v7.4h1.5v-3.5h2.8V292.3z M502.2,290v-1.1h-6.7v-3.6h-1.5v8.7c0,2,1.1,3.2,3.1,3.2c1.4,0,2.5-0.6,3.1-1.8v1.8
	h1.5v-5.4h-1.5v1.2c0,1.6-0.9,2.9-2.5,2.9c-1.3,0-2.2-0.8-2.2-2.2V290H502.2z M512.3,290v-1.1h-6.7v-3.6h-1.5v8.7
	c0,2,1.1,3.2,3.1,3.2c1.4,0,2.5-0.6,3.1-1.8v1.8h1.5v-5.4h-1.5v1.2c0,1.6-0.9,2.9-2.5,2.9c-1.3,0-2.2-0.8-2.2-2.2V290H512.3z
	 M520.5,288.9v4.1c0,1.6-0.9,2.9-2.5,2.9c-1.3,0-2.2-0.8-2.2-2.2v-4.7h-1.5v5.1c0,2,1.1,3.2,3.1,3.2c1.4,0,2.5-0.6,3.1-1.8v1.8h1.5
	v-8.3H520.5z M534.3,288.8c-1.2,0-2.2,0.5-2.7,1.6v-1.5h-1.5v4.7c-0.2,1.3-1,2.2-2.2,2.2c-1.2,0-1.8-0.8-1.8-2.2v-4.7h-1.5v5.1
	c0,2,1,3.2,2.8,3.2c1.3,0,2.2-0.5,2.7-1.7v1.6h1.5v-5.1c0.3-1.1,1.1-1.9,2.2-1.9c1.2,0,1.8,0.8,1.8,2.2v4.7h1.5V292
	C537.1,290,536,288.8,534.3,288.8z M544.4,288.8c-1.5,0-2.6,0.5-3.1,1.8v-1.7h-1.5v11.6h1.5v-7.8c0.1-1.5,1.1-2.5,2.6-2.5
	c1.4,0,2.2,0.8,2.2,2.2v4.7h1.5V292C547.5,290,546.4,288.8,544.4,288.8z M561.1,288.9v4.6c-0.2,1.4-1,2.3-2.3,2.4
	c-1.2,0-1.8-0.8-1.8-2.2v-4.7h-1.5v4.1c0,1.6-0.8,2.8-2.3,2.9c-1.2,0-1.8-0.8-1.8-2.2v-4.7h-1.5v5.1c0,2,1,3.2,2.8,3.2
	c1.4,0,2.4-0.7,2.9-2.1c0.3,1.3,1.2,2.1,2.6,2.1c1.3,0,2.2-0.5,2.8-1.7v1.7h1.5v-8.3H561.1z M572.9,299.3v-14.1h-1.5v7.7
	c0,1.6-0.9,2.9-2.5,2.9c-1.3,0-2.2-0.8-2.2-2.2v-4.7h-1.5v5.1c0,2,1.1,3.2,3.1,3.2c1.4,0,2.5-0.6,3.1-1.8v5.1h3.8v-1.1H572.9z
	 M587.1,288.9v4.6c-0.2,1.4-1,2.3-2.3,2.4c-1.2,0-1.8-0.8-1.8-2.2v-4.7h-1.5v4.1c0,1.6-0.8,2.8-2.3,2.9c-1.2,0-1.8-0.8-1.8-2.2v-4.7
	H576v5.1c0,2,1,3.2,2.8,3.2c1.4,0,2.4-0.7,2.9-2.1c0.3,1.3,1.2,2.1,2.6,2.1c1.3,0,2.2-0.5,2.8-1.7v1.7h1.5v-8.3H587.1z M596.1,288.8
	c-1.5,0-2.6,0.5-3.1,1.8v-1.7h-1.5v11.6h1.5v-7.8c0.1-1.5,1.1-2.5,2.6-2.5c1.4,0,2.2,0.8,2.2,2.2v4.7h1.5V292
	C599.2,290,598,288.8,596.1,288.8z M611.7,285.3h-3.8v7.7c0,1.6-0.9,2.9-2.5,2.9c-1.3,0-2.2-0.8-2.2-2.2v-4.7h-1.5v5.1
	c0,2,1.1,3.2,3.1,3.2c1.4,0,2.5-0.6,3.1-1.8v1.8h1.5v-10.8h2.4V285.3z M623.1,288.9v4.6c-0.2,1.4-1,2.3-2.3,2.4
	c-1.2,0-1.8-0.8-1.8-2.2v-4.7h-1.5v4.1c0,1.6-0.8,2.8-2.3,2.9c-1.2,0-1.8-0.8-1.8-2.2v-4.7H612v5.1c0,2,1,3.2,2.8,3.2
	c1.4,0,2.4-0.7,2.9-2.1c0.3,1.3,1.2,2.1,2.6,2.1c1.3,0,2.2-0.5,2.8-1.7v1.7h1.5v-8.3H623.1z M633.7,288.9v4.1c0,1.6-0.9,2.9-2.5,2.9
	c-1.3,0-2.1-0.8-2.1-2.2v-8.3h-3.8v1.1h2.4v7.6c0,2,1.2,3.2,3.1,3.2c1.4,0,2.5-0.6,3.1-1.8v1.8h1.5v-8.3H633.7z M538.9,315h-6.7
	v-3.3c0.1-1.5,1.1-2.5,2.6-2.5c1.4,0,2.2,0.8,2.2,2.2v1.8h1.5V311c0-2-1.2-3.2-3.1-3.2c-1.5,0-2.6,0.5-3.1,1.8v-1.7h-1.5v11.6h1.5
	v-3.3h6.7V315z M552,307.9v4.6c-0.2,1.4-1,2.3-2.3,2.4c-1.2,0-1.8-0.8-1.8-2.2v-4.7h-1.5v4.1c0,1.6-0.8,2.8-2.3,2.9
	c-1.2,0-1.8-0.8-1.8-2.2v-4.7h-1.5v5.1c0,2,1,3.2,2.8,3.2c1.4,0,2.4-0.7,2.9-2.1c0.3,1.3,1.2,2.1,2.6,2.1c1.3,0,2.2-0.5,2.8-1.7v1.7
	h1.5v-8.3H552z M566.2,307.9h-2.3v-3.6h-1.5v3.6h-2.5c-2.7,0-4.1,2-4.1,4.3c0,2.7,1.9,4.1,4.2,4.1c2.3,0,3.9-1.3,3.9-3.8v-3.3h2.3
	V307.9z M562.4,312.3c0,1.5-0.6,2.7-2.4,2.7c-1.9,0-2.7-1.5-2.7-2.8c0-1.6,0.9-3,2.9-3h2.3V312.3z M571.8,307.8
	c-1.5,0-2.6,0.5-3.1,1.8v-5.3h-1.5v15.2h1.5v-7.8c0.1-1.5,1.1-2.5,2.6-2.5c1.4,0,2.2,0.8,2.2,2.2v4.7h1.5V311
	C574.9,309,573.7,307.8,571.8,307.8z M583.9,307.9v4.1c0,1.6-0.9,2.9-2.5,2.9c-1.3,0-2.2-0.8-2.2-2.2v-8.3h-3.8v1.1h2.4v7.6
	c0,2,1.2,3.2,3.1,3.2c1.4,0,2.5-0.6,3.1-1.8v1.8h1.5v-8.3H583.9z"/>
<path class="st2" d="M475.3,267.7h165.6c5.9,0,10.7,4.8,10.7,10.7v45.6c0,5.9-4.8,10.7-10.7,10.7H475.3c-5.9,0-10.7-4.8-10.7-10.7
	v-45.6C464.6,272.5,469.4,267.7,475.3,267.7z"/>
<linearGradient id="SVGID_5_" gradientUnits="userSpaceOnUse" x1="341.237" y1="88.836" x2="341.237" y2="20.836" gradientTransform="matrix(1 0 0 -1 0 356)">
	<stop  offset="0" style="stop-color:#013651"/>
	<stop  offset="1" style="stop-color:#014F77"/>
</linearGradient>
<path class="st6" d="M245.5,267.7H437c5.9,0,10.7,4.8,10.7,10.7v45.6c0,5.9-4.8,10.7-10.7,10.7H245.5c-5.9,0-10.7-4.8-10.7-10.7
	v-45.6C234.7,272.5,239.5,267.7,245.5,267.7z"/>
<path class="st1" d="M257.8,287.9v2.5c-0.1,1.9-1.2,3-3,3c-2,0-2.9-1.4-2.9-3.4v-4.7h-1.5v4.7c0,2.9,1.4,4.8,4.4,4.8
	c1.3,0,2.3-0.6,3-1.5v3.9h1.5v-9.3H257.8z M273.1,288.9v4.6c-0.2,1.4-1,2.3-2.3,2.4c-1.2,0-1.8-0.8-1.8-2.2v-4.7h-1.5v4.1
	c0,1.6-0.8,2.8-2.3,2.9c-1.2,0-1.8-0.8-1.8-2.2v-4.7H262v5.1c0,2,1,3.2,2.8,3.2c1.4,0,2.4-0.7,2.9-2.1c0.3,1.3,1.2,2.1,2.6,2.1
	c1.3,0,2.2-0.5,2.8-1.7v1.7h1.5v-8.3H273.1z M288.3,288.9v4.6c-0.2,1.4-1,2.3-2.3,2.4c-1.2,0-1.8-0.8-1.8-2.2v-4.7h-1.5v4.1
	c0,1.6-0.8,2.8-2.3,2.9c-1.2,0-1.8-0.8-1.8-2.2v-4.7h-1.5v5.1c0,2,1,3.2,2.8,3.2c1.4,0,2.4-0.7,2.9-2.1c0.3,1.3,1.2,2.1,2.6,2.1
	c1.3,0,2.2-0.5,2.8-1.7v5h1.5v-11.6H288.3z M297.3,288.8c-1.5,0-2.6,0.5-3.1,1.8v-5.3h-1.5v15.2h1.5v-7.8c0.1-1.5,1.1-2.5,2.6-2.5
	c1.4,0,2.2,0.8,2.2,2.2v4.7h1.5V292C300.4,290,299.3,288.8,297.3,288.8z M312.6,288.8c-1.2,0-2.2,0.5-2.7,1.6v-1.5h-1.5v4.7
	c-0.2,1.3-1,2.2-2.2,2.2c-1.2,0-1.8-0.8-1.8-2.2v-4.7H303v5.1c0,2,1,3.2,2.8,3.2c1.3,0,2.2-0.5,2.7-1.7v1.6h1.5v-5.1
	c0.3-1.1,1.1-1.9,2.2-1.9c1.2,0,1.8,0.8,1.8,2.2v4.7h1.5V292C315.4,290,314.3,288.8,312.6,288.8z M329,288.9v4.6
	c-0.2,1.4-1,2.3-2.3,2.4c-1.2,0-1.8-0.8-1.8-2.2v-4.7h-1.5v4.1c0,1.6-0.8,2.8-2.3,2.9c-1.2,0-1.8-0.8-1.8-2.2v-4.7h-1.5v5.1
	c0,2,1,3.2,2.8,3.2c1.4,0,2.4-0.7,2.9-2.1c0.3,1.3,1.2,2.1,2.6,2.1c1.3,0,2.2-0.5,2.8-1.7v1.7h1.5v-8.3H329z M334.8,299.3v-10.5
	h-1.5v11.6h3.8v-1.1H334.8z M349.5,299.3v1.1h-4.3c-1.6,0-3-0.5-3-2.5c0-1.9,2.1-2.6,3.7-3.4c0.9-0.4,2.2-0.9,2.2-2.4
	c0-1.2-0.7-2-2.2-2.1c-1.4,0-2.1,0.8-2.2,1.9h-1.5c0.1-1.8,1.3-3.1,3.6-3.1c2.3,0,3.6,1.5,3.7,3.3c0,2.5-2.1,3.3-2.9,3.7
	c-1.5,0.7-3,1.3-3,2.3c0,0.6,0.4,1.2,1.6,1.2H349.5z M356.3,288.8c-1.5,0-2.6,0.5-3.1,1.8v-1.7h-1.5v8.3h1.5v-4.4
	c0.1-1.5,1.1-2.5,2.6-2.5c1.4,0,2.2,0.8,2.2,2.2v4.7h1.5V292C359.5,290,358.3,288.8,356.3,288.8z M362.6,296v-7.2h-1.5v8.3h3.8V296
	H362.6z M373.4,288.9v4.1c0,1.6-0.9,2.9-2.5,2.9c-1.3,0-2.2-0.8-2.2-2.2v-8.3h-1.5v8.7c0,2,1.1,3.2,3.1,3.2c1.4,0,2.5-0.6,3.1-1.8
	v5.1h1.5v-11.6H373.4z M388.7,288.9v4.6c-0.2,1.4-1,2.3-2.3,2.4c-1.2,0-1.8-0.8-1.8-2.2v-4.7h-1.5v4.1c0,1.6-0.8,2.8-2.3,2.9
	c-1.2,0-1.8-0.8-1.8-2.2v-4.7h-1.5v5.1c0,2,1,3.2,2.8,3.2c1.4,0,2.4-0.7,2.9-2.1c0.3,1.3,1.2,2.1,2.6,2.1c1.3,0,2.2-0.5,2.8-1.7v1.7
	h1.5v-8.3H388.7z M399.3,288.9v4.1c0,1.6-0.9,2.9-2.5,2.9c-1.3,0-2.2-0.8-2.2-2.2v-8.3h-3.8v1.1h2.4v7.6c0,2,1.2,3.2,3.1,3.2
	c1.4,0,2.5-0.6,3.1-1.8v1.8h1.5v-8.3H399.3z M411.6,290v-1.1h-6.7v-3.6h-1.5v8.7c0,2,1.1,3.2,3.1,3.2c1.4,0,2.5-0.6,3.1-1.8v1.8h1.5
	v-5.4h-1.5v1.2c0,1.6-0.9,2.9-2.5,2.9c-1.3,0-2.2-0.8-2.2-2.2V290H411.6z M418.4,288.8c-1.5,0-2.6,0.5-3.1,1.8v-1.7h-1.5v11.6h1.5
	v-7.8c0.1-1.5,1.1-2.5,2.6-2.5c1.4,0,2.2,0.8,2.2,2.2v4.7h1.5V292C421.5,290,420.3,288.8,418.4,288.8z M428.8,288.8
	c-1.5,0-2.6,0.5-3.1,1.8v-5.3h-1.5v15.2h1.5v-7.8c0.1-1.5,1.1-2.5,2.6-2.5c1.4,0,2.2,0.8,2.2,2.2v4.7h1.5V292
	C432,290,430.8,288.8,428.8,288.8z M322.1,315h-6.7v-3.3c0.1-1.5,1.1-2.5,2.6-2.5c1.4,0,2.2,0.8,2.2,2.2v1.8h1.5V311
	c0-2-1.2-3.2-3.1-3.2c-1.5,0-2.6,0.5-3.1,1.8v-1.7H314v11.6h1.5v-3.3h6.7V315z M335.2,307.9v4.6c-0.2,1.4-1,2.3-2.3,2.4
	c-1.2,0-1.8-0.8-1.8-2.2v-4.7h-1.5v4.1c0,1.6-0.8,2.8-2.3,2.9c-1.2,0-1.8-0.8-1.8-2.2v-4.7h-1.5v5.1c0,2,1,3.2,2.8,3.2
	c1.4,0,2.4-0.7,2.9-2.1c0.3,1.3,1.2,2.1,2.6,2.1c1.3,0,2.2-0.5,2.8-1.7v1.7h1.5v-8.3H335.2z M349.3,307.9H347v-3.6h-1.5v3.6H343
	c-2.7,0-4.1,2-4.1,4.3c0,2.7,1.9,4.1,4.2,4.1c2.3,0,3.9-1.3,3.9-3.8v-3.3h2.3V307.9z M345.5,312.3c0,1.5-0.6,2.7-2.4,2.7
	c-1.9,0-2.7-1.5-2.7-2.8c0-1.6,0.9-3,2.9-3h2.3V312.3z M354.9,307.8c-1.5,0-2.6,0.5-3.1,1.8v-5.3h-1.5v15.2h1.5v-7.8
	c0.1-1.5,1.1-2.5,2.6-2.5c1.4,0,2.2,0.8,2.2,2.2v4.7h1.5V311C358.1,309,356.9,307.8,354.9,307.8z M367,307.9v4.1
	c0,1.6-0.9,2.9-2.5,2.9c-1.3,0-2.2-0.8-2.2-2.2v-8.3h-3.8v1.1h2.4v7.6c0,2,1.2,3.2,3.1,3.2c1.4,0,2.5-0.6,3.1-1.8v1.8h1.5v-8.3H367z
	"/>
<path class="st2" d="M245.5,267.7H437c5.9,0,10.7,4.8,10.7,10.7v45.6c0,5.9-4.8,10.7-10.7,10.7H245.5c-5.9,0-10.7-4.8-10.7-10.7
	v-45.6C234.7,272.5,239.5,267.7,245.5,267.7z"/>
<linearGradient id="SVGID_6_" gradientUnits="userSpaceOnUse" x1="109.3955" y1="88.836" x2="109.3955" y2="1.836" gradientTransform="matrix(1 0 0 -1 0 356)">
	<stop  offset="0" style="stop-color:#013651"/>
	<stop  offset="1" style="stop-color:#014F77"/>
</linearGradient>
<path class="st7" d="M11.6,267.7h195.6c5.9,0,10.7,4.8,10.7,10.7v64.6c0,5.9-4.8,10.7-10.7,10.7H11.6c-5.9,0-10.7-4.8-10.7-10.7
	v-64.6C0.9,272.5,5.7,267.7,11.6,267.7z"/>
<path class="st1" d="M23.3,290.7c1.2-0.2,1.9-1.2,1.9-2.3c0-2-1.1-3.1-4.5-3.1h-0.1H17v1.4h3.7h0c2.1,0,3,0.7,3,1.7
	c0,1.6-1.8,1.8-3.1,1.8h-3.1v1.4h3.2c2.3,0,3.5,0.9,3.5,2.3v0v3.4h1.5v-3.2C25.7,292.8,25.3,291.3,23.3,290.7z M36,290v-1.1h-6.7
	v-3.6h-1.5v8.7c0,2,1.1,3.2,3.1,3.2c1.4,0,2.5-0.6,3.1-1.8v1.8h1.5v-5.4h-1.5v1.2c0,1.6-0.9,2.9-2.5,2.9c-1.3,0-2.2-0.8-2.2-2.2V290
	H36z M47.6,288.8c-1.2,0-2.2,0.5-2.7,1.6v-1.5h-1.5v4.7c-0.2,1.3-1,2.2-2.2,2.2c-1.2,0-1.8-0.8-1.8-2.2v-4.7h-1.5v5.1
	c0,2,1,3.2,2.8,3.2c1.3,0,2.2-0.5,2.7-1.7v1.6h1.5v-5.1c0.3-1.1,1.1-1.9,2.2-1.9c1.2,0,1.8,0.8,1.8,2.2v4.7h1.5V292
	C50.3,290,49.3,288.8,47.6,288.8z M63.9,288.9v4.6c-0.2,1.4-1,2.3-2.3,2.4c-1.2,0-1.8-0.8-1.8-2.2v-4.7h-1.5v4.1
	c0,1.6-0.8,2.8-2.3,2.9c-1.2,0-1.8-0.8-1.8-2.2v-4.7h-1.5v5.1c0,2,1,3.2,2.8,3.2c1.4,0,2.4-0.7,2.9-2.1c0.3,1.3,1.2,2.1,2.6,2.1
	c1.3,0,2.2-0.5,2.8-1.7v1.7h1.5v-8.3H63.9z M76.2,299.3v-10.5h-1.5v1.6c-0.6-1.1-1.7-1.7-3.1-1.7c-2.3,0-4,1.7-4,4.2
	c0,2.5,1.6,4.3,4,4.3c1.4,0,2.5-0.6,3.1-1.7v4.9h3.8v-1.1H76.2z M71.9,296c-1.6,0-2.8-1.2-2.8-3c0-1.7,1.2-3,2.8-3
	c1.6,0,2.8,1.2,2.8,3C74.7,294.8,73.5,296,71.9,296z M84.1,288.8c-1.5,0-2.6,0.5-3.1,1.8v-1.7h-1.5v8.3h1.5v-4.4
	c0.1-1.5,1.1-2.5,2.6-2.5c1.4,0,2.2,0.8,2.2,2.2v4.7h1.5V292C87.2,290,86,288.8,84.1,288.8z M99.4,288.8c-1.2,0-2.2,0.5-2.7,1.6
	v-1.5h-1.5v4.7c-0.2,1.3-1,2.2-2.2,2.2c-1.2,0-1.8-0.8-1.8-2.2v-4.7h-1.5v5.1c0,2,1,3.2,2.8,3.2c1.3,0,2.2-0.5,2.7-1.7v1.6h1.5v-5.1
	c0.3-1.1,1.1-1.9,2.2-1.9c1.2,0,1.8,0.8,1.8,2.2v4.7h1.5V292C102.1,290,101.1,288.8,99.4,288.8z M109.5,288.8
	c-1.5,0-2.6,0.5-3.1,1.8v-1.7h-1.5v8.3h1.5v-4.4c0.1-1.5,1.1-2.5,2.6-2.5c1.4,0,2.2,0.8,2.2,2.2v4.7h1.5V292
	C112.6,290,111.4,288.8,109.5,288.8z M115.8,296v-7.2h-1.5v8.3h3.8V296H115.8z M131.3,292h-1.6c0-2.1-1.9-3.2-4-3.2
	c-1.6,0-3.1,0.6-3.9,1.9v-1.8h-1.5v11.6h1.5v-7.4c0-1.5,1.7-2.9,3.5-2.9c1.4,0,2.7,0.6,2.9,1.8h-1.5c-1.8,0-3,0.9-3,2.6
	c0,1.6,1.2,2.7,3.1,2.7c1.5,0,2.9-0.9,2.9-2.7v-1.4h1.6V292z M128.3,294.5c0,0.9-0.4,1.5-1.5,1.5c-1,0-1.7-0.6-1.7-1.5
	c0-1.1,0.9-1.5,1.5-1.5h1.7V294.5z M131.9,299.5c2.5-1,0.4-3.6,0.4-6.3v-4.4h1.5v4.6c0.1,2.5,2.7,6.3-1.9,7.2V299.5z M141.7,288.8
	c-1.5,0-2.6,0.5-3.1,1.8v-1.7h-1.5v8.3h1.5v-4.4c0.1-1.5,1.1-2.5,2.6-2.5c1.4,0,2.2,0.8,2.2,2.2v4.7h1.5V292
	C144.8,290,143.6,288.8,141.7,288.8z M148,296v-7.2h-1.5v8.3h3.8V296H148z M158.6,288.9v4.1c0,1.6-0.9,2.9-2.5,2.9
	c-1.3,0-2.2-0.8-2.2-2.2v-8.3H150v1.1h2.4v7.6c0,2,1.2,3.2,3.1,3.2c1.4,0,2.5-0.6,3.1-1.8v1.8h1.5v-8.3H158.6z M169.2,288.9v4.1
	c0,1.6-0.9,2.9-2.5,2.9c-1.3,0-2.2-0.8-2.2-2.2v-8.3h-3.8v1.1h2.4v7.6c0,2,1.2,3.2,3.1,3.2c1.4,0,2.5-0.6,3.1-1.8v1.8h1.5v-8.3
	H169.2z M181.5,290v-1.1h-6.7v-3.6h-1.5v8.7c0,2,1.1,3.2,3.1,3.2c1.4,0,2.5-0.6,3.1-1.8v1.8h1.5v-5.4h-1.5v1.2
	c0,1.6-0.9,2.9-2.5,2.9c-1.3,0-2.2-0.8-2.2-2.2V290H181.5z M188.3,288.8c-1.5,0-2.6,0.5-3.1,1.8v-1.7h-1.5v11.6h1.5v-7.8
	c0.1-1.5,1.1-2.5,2.6-2.5c1.4,0,2.2,0.8,2.2,2.2v4.7h1.5V292C191.4,290,190.3,288.8,188.3,288.8z M198.8,288.8
	c-1.5,0-2.6,0.5-3.1,1.8v-5.3h-1.5v15.2h1.5v-7.8c0.1-1.5,1.1-2.5,2.6-2.5c1.4,0,2.2,0.8,2.2,2.2v4.7h1.5V292
	C201.9,290,200.7,288.8,198.8,288.8z M29.3,315v-7.2h-1.5v4.1c0,1.6-0.9,2.9-2.5,2.9c-1.3,0-2.2-0.8-2.2-2.2v-8.3h-1.5v8.7
	c0,2,1.1,3.2,3.1,3.2c1.4,0,2.5-0.6,3.1-1.8v1.8h3.8V315H29.3z M46,318.3v-14.1h-1.5v7.7c0,1.6-0.9,2.9-2.5,2.9
	c-1.3,0-2.2-0.8-2.2-2.2v-4.7h-1.5v5.1c0,2,1.1,3.2,3.1,3.2c1.4,0,2.5-0.6,3.1-1.8v5.1h3.8v-1.1H46z M57.2,309v-1.1h-6.7v-3.6h-1.5
	v8.7c0,2,1.1,3.2,3.1,3.2c1.4,0,2.5-0.6,3.1-1.8v1.8h1.5v-5.4h-1.5v1.2c0,1.6-0.9,2.9-2.5,2.9c-1.3,0-2.2-0.8-2.2-2.2V309H57.2z
	 M64,307.8c-1.5,0-2.6,0.5-3.1,1.8v-1.7h-1.5v11.6h1.5v-7.8c0.1-1.5,1.1-2.5,2.6-2.5c1.4,0,2.2,0.8,2.2,2.2v4.7h1.5V311
	C67.1,309,65.9,307.8,64,307.8z M71.3,318.3v-10.5h-1.5v11.6h3.8v-1.1H71.3z M79.2,307.8c-1.5,0-2.6,0.5-3.1,1.8v-1.7h-1.5v8.3h1.5
	v-4.4c0.1-1.5,1.1-2.5,2.6-2.5c1.4,0,2.2,0.8,2.2,2.2v4.7h1.5V311C82.3,309,81.2,307.8,79.2,307.8z M85.5,315v-7.2H84v8.3h3.8V315
	H85.5z M98.6,307.9h-3.3c-1-0.8-2-1.6-2.2-2.6c-0.2-0.7,0.4-1.2,0.4-1.2H92c0,0-0.6,0.5-0.4,1.4c0.2,1,0.8,1.8,1.7,2.4
	c-2.3,0.2-3.8,2.1-3.8,4.2c0,2.6,1.9,4.2,4.3,4.2c2.7,0,4.4-1.6,4.4-3.8c0-1.5-0.7-2.5-1.6-3.4h2V307.9z M96.7,312.3
	c0,1.1-0.8,2.7-2.8,2.7c-1.9,0-2.9-1.4-2.9-2.9c0-1.4,1.1-3,2.8-3h0.8C95.7,309.9,96.7,310.8,96.7,312.3z M104.7,307.8
	c-1.5,0-2.6,0.5-3.1,1.8v-1.7h-1.5v8.3h1.5v-4.4c0.1-1.5,1.1-2.5,2.6-2.5c1.4,0,2.2,0.8,2.2,2.2v4.7h1.5V311
	C107.9,309,106.7,307.8,104.7,307.8z M111,315v-7.2h-1.5v8.3h3.8V315H111z M126.6,311H125c0-2.1-1.9-3.2-4-3.2
	c-1.6,0-3.1,0.6-3.9,1.9v-1.8h-1.5v11.6h1.5v-7.4c0-1.5,1.7-2.9,3.5-2.9c1.4,0,2.7,0.6,2.9,1.8H122c-1.8,0-3,0.9-3,2.6
	c0,1.6,1.2,2.7,3.1,2.7c1.5,0,2.9-0.9,2.9-2.7v-1.4h1.6V311z M123.5,313.5c0,0.9-0.4,1.5-1.5,1.5c-1,0-1.7-0.6-1.7-1.5
	c0-1.1,0.9-1.5,1.5-1.5h1.7V313.5z M127.2,318.5c2.5-1,0.4-3.6,0.4-6.3v-4.4h1.5v4.6c0.1,2.5,2.7,6.3-1.9,7.2V318.5z M136.9,307.8
	c-1.5,0-2.6,0.5-3.1,1.8v-1.7h-1.5v8.3h1.5v-4.4c0.1-1.5,1.1-2.5,2.6-2.5c1.4,0,2.2,0.8,2.2,2.2v4.7h1.5V311
	C140.1,309,138.9,307.8,136.9,307.8z M143.2,315v-7.2h-1.5v8.3h3.8V315H143.2z M153.8,307.9v4.1c0,1.6-0.9,2.9-2.5,2.9
	c-1.3,0-2.2-0.8-2.2-2.2v-8.3h-3.8v1.1h2.4v7.6c0,2,1.2,3.2,3.1,3.2c1.4,0,2.5-0.6,3.1-1.8v1.8h1.5v-8.3H153.8z M164.5,307.9v4.1
	c0,1.6-0.9,2.9-2.5,2.9c-1.3,0-2.2-0.8-2.2-2.2v-8.3H156v1.1h2.4v7.6c0,2,1.2,3.2,3.1,3.2c1.4,0,2.5-0.6,3.1-1.8v1.8h1.5v-8.3H164.5
	z M176.8,309v-1.1h-6.7v-3.6h-1.5v8.7c0,2,1.1,3.2,3.1,3.2c1.4,0,2.5-0.6,3.1-1.8v1.8h1.5v-5.4h-1.5v1.2c0,1.6-0.9,2.9-2.5,2.9
	c-1.3,0-2.2-0.8-2.2-2.2V309H176.8z M183.6,307.8c-1.5,0-2.6,0.5-3.1,1.8v-1.7H179v11.6h1.5v-7.8c0.1-1.5,1.1-2.5,2.6-2.5
	c1.4,0,2.2,0.8,2.2,2.2v4.7h1.5V311C186.7,309,185.5,307.8,183.6,307.8z M194,307.8c-1.5,0-2.6,0.5-3.1,1.8v-5.3h-1.5v15.2h1.5v-7.8
	c0.1-1.5,1.1-2.5,2.6-2.5c1.4,0,2.2,0.8,2.2,2.2v4.7h1.5V311C197.2,309,196,307.8,194,307.8z M90.3,334h-6.7v-3.3
	c0.1-1.5,1.1-2.5,2.6-2.5c1.4,0,2.2,0.8,2.2,2.2v1.8h1.5V330c0-2-1.2-3.2-3.1-3.2c-1.5,0-2.6,0.5-3.1,1.8v-1.7h-1.5v11.6h1.5v-3.3
	h6.7V334z M103.3,326.9v4.6c-0.2,1.4-1,2.3-2.3,2.4c-1.2,0-1.8-0.8-1.8-2.2v-4.7h-1.5v4.1c0,1.6-0.8,2.8-2.3,2.9
	c-1.2,0-1.8-0.8-1.8-2.2v-4.7h-1.5v5.1c0,2,1,3.2,2.8,3.2c1.4,0,2.4-0.7,2.9-2.1c0.3,1.3,1.2,2.1,2.6,2.1c1.3,0,2.2-0.5,2.8-1.7v1.7
	h1.5v-8.3H103.3z M117.5,326.9h-2.3v-3.6h-1.5v3.6h-2.5c-2.7,0-4.1,2-4.1,4.3c0,2.7,1.9,4.1,4.2,4.1c2.3,0,3.9-1.3,3.9-3.8v-3.3h2.3
	V326.9z M113.7,331.3c0,1.5-0.6,2.7-2.4,2.7c-1.9,0-2.7-1.5-2.7-2.8c0-1.6,0.9-3,2.9-3h2.3V331.3z M123.1,326.8
	c-1.5,0-2.6,0.5-3.1,1.8v-5.3h-1.5v15.2h1.5v-7.8c0.1-1.5,1.1-2.5,2.6-2.5c1.4,0,2.2,0.8,2.2,2.2v4.7h1.5V330
	C126.2,328,125,326.8,123.1,326.8z M135.2,326.9v4.1c0,1.6-0.9,2.9-2.5,2.9c-1.3,0-2.2-0.8-2.2-2.2v-8.3h-3.8v1.1h2.4v7.6
	c0,2,1.2,3.2,3.1,3.2c1.4,0,2.5-0.6,3.1-1.8v1.8h1.5v-8.3H135.2z"/>
<path class="st2" d="M11.6,267.7h195.6c5.9,0,10.7,4.8,10.7,10.7v64.6c0,5.9-4.8,10.7-10.7,10.7H11.6c-5.9,0-10.7-4.8-10.7-10.7
	v-64.6C0.9,272.5,5.7,267.7,11.6,267.7z"/>
<linearGradient id="SVGID_7_" gradientUnits="userSpaceOnUse" x1="1011.7271" y1="197.836" x2="1011.7271" y2="148.836" gradientTransform="matrix(1 0 0 -1 0 356)">
	<stop  offset="0" style="stop-color:#013651"/>
	<stop  offset="1" style="stop-color:#014F77"/>
</linearGradient>
<path class="st8" d="M883.9,158.7h255.6c5.9,0,10.7,4.8,10.7,10.7v26.6c0,5.9-4.8,10.7-10.7,10.7H883.9c-5.9,0-10.7-4.8-10.7-10.7
	v-26.6C873.2,163.5,878,158.7,883.9,158.7z"/>
<path class="st1" d="M900.2,183.7h-2.4v-3.8c0-2.3-1.8-3.8-4.6-3.8c-2.7,0-4.9,1.6-4.9,4.4c0,2.5,1.7,4.5,4.8,4.5h3.1v3.1h1.5v-3.1
	h2.4V183.7z M896.3,183.7h-3.1c-2.2,0-3.4-1.2-3.4-3.1c0-2,1.4-3.1,3.4-3.1c2.2,0,3,1.3,3,2.4V183.7z M902.9,190.3v-10.5h-1.5v11.6
	h3.8v-1.1H902.9z M917.2,179.9v4.6c-0.2,1.4-1,2.3-2.3,2.4c-1.2,0-1.8-0.8-1.8-2.2v-4.7h-4.9v-3.6h-1.5v15.2h1.5V181h3.5v4
	c0,2,1,3.2,2.8,3.2c1.3,0,2.2-0.5,2.8-1.7v1.7h1.5v-8.3H917.2z M932.4,179.9v4.6c-0.2,1.4-1,2.3-2.3,2.4c-1.2,0-1.8-0.8-1.8-2.2
	v-4.7h-1.5v4.1c0,1.6-0.8,2.8-2.3,2.9c-1.2,0-1.8-0.8-1.8-2.2v-4.7h-1.5v5.1c0,2,1,3.2,2.8,3.2c1.4,0,2.4-0.7,2.9-2.1
	c0.3,1.3,1.2,2.1,2.6,2.1c1.3,0,2.2-0.5,2.8-1.7v1.7h1.5v-8.3H932.4z M944.2,190.3v-14.1h-1.5v7.7c0,1.6-0.9,2.9-2.5,2.9
	c-1.3,0-2.2-0.8-2.2-2.2v-4.7h-1.5v5.1c0,2,1.1,3.2,3.1,3.2c1.4,0,2.5-0.6,3.1-1.8v5.1h3.8v-1.1H944.2z M952.1,179.8
	c-1.5,0-2.6,0.5-3.1,1.8v-1.7h-1.5v8.3h1.5v-4.4c0.1-1.5,1.1-2.5,2.6-2.5c1.4,0,2.2,0.8,2.2,2.2v4.7h1.5V183
	C955.3,181,954.1,179.8,952.1,179.8z M962.6,179.8c-1.5,0-2.6,0.5-3.1,1.8v-1.7H958v11.6h1.5v-7.8c0.1-1.5,1.1-2.5,2.6-2.5
	c1.4,0,2.2,0.8,2.2,2.2v4.7h1.5V183C965.7,181,964.5,179.8,962.6,179.8z M982.6,179.8c-1.2,0-2.2,0.5-2.7,1.6v-1.5h-1.5v4.7
	c-0.2,1.3-1,2.2-2.2,2.2c-1.2,0-1.8-0.8-1.8-2.2v-4.7h-1.5v5.1c0,2,1,3.2,2.8,3.2c1.3,0,2.2-0.5,2.7-1.7v1.6h1.5v-5.1
	c0.3-1.1,1.1-1.9,2.2-1.9c1.2,0,1.8,0.8,1.8,2.2v4.7h1.5V183C985.3,181,984.3,179.8,982.6,179.8z M994.1,179.9v4.1
	c0,1.6-0.9,2.9-2.5,2.9c-1.3,0-2.2-0.8-2.2-2.2v-8.3h-3.8v1.1h2.4v7.6c0,2,1.2,3.2,3.1,3.2c1.4,0,2.5-0.6,3.1-1.8v1.8h1.5v-8.3
	H994.1z M1002,179.8c-2.5,0-4.3,1.7-4.3,4.2c0,2.5,1.8,4.2,4.3,4.2c2.5,0,4.3-1.7,4.3-4.2C1006.2,181.5,1004.5,179.8,1002,179.8z
	 M1002,181.1c1.6,0,2.8,1.2,2.8,2.9c0,1.8-1.2,3-2.8,3c-1.6,0-2.8-1.2-2.8-3C999.2,182.3,1000.3,181.1,1002,181.1z M1013,179.8
	c-1.5,0-2.6,0.5-3.1,1.8v-1.7h-1.5v11.6h1.5v-7.8c0.1-1.5,1.1-2.5,2.6-2.5c1.4,0,2.2,0.8,2.2,2.2v4.7h1.5V183
	C1016.1,181,1015,179.8,1013,179.8z M1026.8,181v-1.1h-6.7v-3.6h-1.5v8.7c0,2,1.2,3.2,3.1,3.2c1.4,0,2.5-0.6,3.1-1.8v1.8h1.5v-5.4
	h-1.5v1.2c0,1.6-0.9,2.9-2.5,2.9c-1.3,0-2.2-0.8-2.2-2.2V181H1026.8z M1035,179.9v4.1c0,1.6-0.9,2.9-2.5,2.9c-1.3,0-2.1-0.8-2.1-2.2
	v-8.3h-3.8v1.1h2.3v7.6c0,2,1.2,3.2,3.1,3.2c1.4,0,2.5-0.6,3.1-1.8v1.8h1.5v-8.3H1035z M1044,179.8c-1.5,0-2.6,0.5-3.1,1.8v-5.3
	h-1.5v15.2h1.5v-7.8c0.1-1.5,1.1-2.5,2.6-2.5c1.4,0,2.2,0.8,2.2,2.2v4.7h1.5V183C1047.1,181,1045.9,179.8,1044,179.8z M1064,179.8
	c-1.2,0-2.2,0.5-2.7,1.6v-1.5h-1.5v4.7c-0.2,1.3-1,2.2-2.2,2.2c-1.2,0-1.8-0.8-1.8-2.2v-4.7h-1.5v5.1c0,2,1,3.2,2.8,3.2
	c1.2,0,2.2-0.5,2.7-1.7v1.6h1.5v-5.1c0.3-1.1,1.1-1.9,2.2-1.9c1.2,0,1.8,0.8,1.8,2.2v4.7h1.5V183
	C1066.8,181,1065.7,179.8,1064,179.8z M1077.4,181v-1.1h-6.7v-3.6h-1.5v8.7c0,2,1.1,3.2,3.1,3.2c1.4,0,2.5-0.6,3.1-1.8v1.8h1.5v-5.4
	h-1.5v1.2c0,1.6-0.9,2.9-2.5,2.9c-1.3,0-2.2-0.8-2.2-2.2V181H1077.4z M1087.3,190.3V183c0-2-1.2-3.2-3.1-3.2c-1.5,0-2.6,0.5-3.1,1.8
	v-1.7h-1.5v8.3h1.5v-4.4c0.1-1.5,1.1-2.5,2.6-2.5c1.4,0,2.2,0.8,2.2,2.2v8.1h3.8v-1.1H1087.3z M1101.5,179.9v4.6
	c-0.2,1.4-1,2.3-2.3,2.4c-1.2,0-1.8-0.8-1.8-2.2v-4.7h-1.5v4.1c0,1.6-0.8,2.8-2.3,2.9c-1.2,0-1.8-0.8-1.8-2.2v-4.7h-1.5v5.1
	c0,2,1,3.2,2.8,3.2c1.4,0,2.4-0.7,2.9-2.1c0.3,1.3,1.2,2.1,2.6,2.1c1.3,0,2.2-0.5,2.8-1.7v1.7h1.5v-8.3H1101.5z M1111.8,179.9v4.1
	c0,1.6-0.9,2.9-2.5,2.9c-1.3,0-2.1-0.8-2.1-2.2v-8.3h-1.5v8.7c0,2,1.1,3.2,3.1,3.2c1.4,0,2.5-0.6,3.1-1.8v5.1h1.5v-11.6H1111.8z
	 M1127.1,179.9v4.6c-0.2,1.4-1,2.3-2.3,2.4c-1.2,0-1.8-0.8-1.8-2.2v-4.7h-1.5v4.1c0,1.6-0.8,2.8-2.3,2.9c-1.2,0-1.8-0.8-1.8-2.2
	v-4.7h-1.5v5.1c0,2,1,3.2,2.8,3.2c1.4,0,2.4-0.7,2.9-2.1c0.3,1.3,1.2,2.1,2.6,2.1c1.3,0,2.2-0.5,2.8-1.7v1.7h1.5v-8.3H1127.1z
	 M1132.9,190.3v-10.5h-1.5v11.6h3.8v-1.1H1132.9z"/>
<path class="st2" d="M883.9,158.7h255.6c5.9,0,10.7,4.8,10.7,10.7v26.6c0,5.9-4.8,10.7-10.7,10.7H883.9c-5.9,0-10.7-4.8-10.7-10.7
	v-26.6C873.2,163.5,878,158.7,883.9,158.7z"/>
<linearGradient id="SVGID_8_" gradientUnits="userSpaceOnUse" x1="978.2271" y1="276.4922" x2="978.2271" y2="227.492" gradientTransform="matrix(1 0 0 -1 0 356)">
	<stop  offset="0" style="stop-color:#013651"/>
	<stop  offset="1" style="stop-color:#014F77"/>
</linearGradient>
<path class="st9" d="M904.9,80h146.6c5.9,0,10.7,4.8,10.7,10.7v26.6c0,5.9-4.8,10.7-10.7,10.7H904.9c-5.9,0-10.7-4.8-10.7-10.7V90.7
	C894.2,84.8,899,80,904.9,80z"/>
<path class="st1" d="M918.9,102.4v2.6c0,2-1.2,3.2-3.1,3.2c-1.9,0-3.2-1.2-3.2-3.2v-7.4h-4.3V99h2.8v6c0,2.9,1.8,4.6,4.7,4.6
	c2.9,0,4.6-1.7,4.6-4.6v-2.6H918.9z M931,102.3v-1.1h-6.7v-3.6h-1.5v8.7c0,2,1.1,3.2,3.1,3.2c1.4,0,2.5-0.6,3.1-1.8v1.8h1.5v-5.4
	H929v1.2c0,1.6-0.9,2.9-2.5,2.9c-1.3,0-2.2-0.8-2.2-2.2v-3.6H931z M937.8,101.2c-1.5,0-2.6,0.6-3.1,1.8v-1.7h-1.5v11.6h1.5v-7.8
	c0.1-1.5,1.1-2.5,2.6-2.5c1.4,0,2.2,0.8,2.2,2.2v4.7h1.5v-5.1C940.9,102.4,939.7,101.2,937.8,101.2z M952.8,110.5h-7.4v-2.6
	c0.6,1.1,1.7,1.7,3.1,1.7c2.4,0,3.9-1.7,3.9-4.2c0-2.5-1.6-4.2-4-4.2c-1.4,0-2.5,0.6-3.1,1.7v-1.6h-1.5v9.3h-1.2v1.1h1.2v1.2h1.5
	v-1.2h7.4V110.5z M948.2,102.4c1.6,0,2.8,1.2,2.8,2.9c0,1.7-1.2,3-2.8,3c-1.6,0-2.8-1.2-2.8-3C945.4,103.6,946.5,102.4,948.2,102.4z
	 M959.5,101.2c-1.5,0-2.6,0.6-3.1,1.8v-5.3h-1.5v15.2h1.5v-7.8c0.1-1.5,1.1-2.5,2.6-2.5c1.4,0,2.2,0.8,2.2,2.2v4.7h1.5v-5.1
	C962.7,102.4,961.5,101.2,959.5,101.2z M971.6,101.2v4.1c0,1.6-0.9,2.9-2.5,2.9c-1.3,0-2.2-0.8-2.2-2.2v-8.3h-3.8v1.1h2.4v7.6
	c0,2,1.2,3.2,3.1,3.2c1.4,0,2.5-0.6,3.1-1.8v1.8h1.5v-8.3H971.6z M991.6,101.2v4.6c-0.2,1.4-1,2.3-2.3,2.4c-1.2,0-1.8-0.8-1.8-2.2
	v-4.7h-1.5v4.1c0,1.6-0.8,2.8-2.3,2.9c-1.2,0-1.8-0.8-1.8-2.2v-4.7h-1.5v5.1c0,2,1,3.2,2.8,3.2c1.4,0,2.4-0.7,2.9-2.1
	c0.3,1.3,1.2,2.1,2.6,2.1c1.3,0,2.2-0.5,2.8-1.7v1.7h1.5v-8.3H991.6z M1000.6,101.2c-1.5,0-2.6,0.6-3.1,1.8v-1.7H996v8.3h1.5v-4.4
	c0.1-1.5,1.1-2.5,2.6-2.5c1.4,0,2.2,0.8,2.2,2.2v4.7h1.5v-5.1C1003.7,102.4,1002.5,101.2,1000.6,101.2z M1006.9,108.4v-7.2h-1.5v8.3
	h3.8v-1.1H1006.9z M1021.5,108.4h-2.4v-4c0-2-1.2-3.2-3.1-3.2c-1.5,0-2.6,0.6-3.1,1.8v-1.7h-1.5v8.3h1.5v-4.4
	c0.1-1.5,1.1-2.5,2.6-2.5c1.4,0,2.2,0.8,2.2,2.2v8.1h1.5v-3.3h2.4V108.4z M1027.4,101.2c-1.5,0-2.6,0.6-3.1,1.8v-5.3h-1.5v15.2h1.5
	v-7.8c0.1-1.5,1.1-2.5,2.6-2.5c1.4,0,2.2,0.8,2.2,2.2v4.7h1.5v-5.1C1030.5,102.4,1029.3,101.2,1027.4,101.2z M1042.7,101.2
	c-1.2,0-2.2,0.5-2.7,1.6v-1.5h-1.5v4.7c-0.2,1.3-1,2.2-2.2,2.2c-1.2,0-1.8-0.8-1.8-2.2v-4.7h-1.5v5.1c0,2,1,3.2,2.8,3.2
	c1.3,0,2.2-0.5,2.7-1.7v1.6h1.5v-5.1c0.3-1.1,1.1-1.9,2.2-1.9c1.2,0,1.8,0.8,1.8,2.2v4.7h1.5v-5.1
	C1045.5,102.4,1044.4,101.2,1042.7,101.2z"/>
<path class="st2" d="M904.9,80h146.6c5.9,0,10.7,4.8,10.7,10.7v26.6c0,5.9-4.8,10.7-10.7,10.7H904.9c-5.9,0-10.7-4.8-10.7-10.7V90.7
	C894.2,84.8,899,80,904.9,80z"/>
<path class="st2" d="M758,182.5h114.7"/>
<path class="st2" d="M779,104h114.7"/>
<linearGradient id="SVGID_9_" gradientUnits="userSpaceOnUse" x1="667.5" y1="197.836" x2="667.5" y2="148.836" gradientTransform="matrix(1 0 0 -1 0 356)">
	<stop  offset="0" style="stop-color:#013651"/>
	<stop  offset="1" style="stop-color:#014F77"/>
</linearGradient>
<path class="st10" d="M588.2,158.7h158.6c5.9,0,10.7,4.8,10.7,10.7v26.6c0,5.9-4.8,10.7-10.7,10.7H588.2c-5.9,0-10.7-4.8-10.7-10.7
	v-26.6C577.5,163.5,582.3,158.7,588.2,158.7z"/>
<path class="st1" d="M604.5,183.7h-2.4v-3.8c0-2.3-1.8-3.8-4.6-3.8c-2.7,0-4.9,1.6-4.9,4.4c0,2.5,1.7,4.5,4.8,4.5h3.1v3.1h1.5v-3.1
	h2.4V183.7z M600.6,183.7h-3.1c-2.2,0-3.4-1.2-3.4-3.1c0-2,1.4-3.1,3.4-3.1c2.2,0,3,1.3,3,2.4V183.7z M607.2,190.3v-10.5h-1.5v11.6
	h3.8v-1.1H607.2z M621.4,179.9v4.6c-0.2,1.4-1,2.3-2.3,2.4c-1.2,0-1.8-0.8-1.8-2.2v-4.7h-4.9v-3.6H611v15.2h1.5V181h3.5v4
	c0,2,1,3.2,2.8,3.2c1.3,0,2.2-0.5,2.8-1.7v1.7h1.5v-8.3H621.4z M636.7,179.9v4.6c-0.2,1.4-1,2.3-2.3,2.4c-1.2,0-1.8-0.8-1.8-2.2
	v-4.7h-1.5v4.1c0,1.6-0.8,2.8-2.3,2.9c-1.2,0-1.8-0.8-1.8-2.2v-4.7h-1.5v5.1c0,2,1,3.2,2.8,3.2c1.4,0,2.4-0.7,2.9-2.1
	c0.3,1.3,1.2,2.1,2.6,2.1c1.3,0,2.2-0.5,2.8-1.7v1.7h1.5v-8.3H636.7z M648.5,190.3v-14.1H647v7.7c0,1.6-0.9,2.9-2.5,2.9
	c-1.3,0-2.2-0.8-2.2-2.2v-4.7h-1.5v5.1c0,2,1.1,3.2,3.1,3.2c1.4,0,2.5-0.6,3.1-1.8v5.1h3.8v-1.1H648.5z M656.4,179.8
	c-1.5,0-2.6,0.5-3.1,1.8v-1.7h-1.5v8.3h1.5v-4.4c0.1-1.5,1.1-2.5,2.6-2.5c1.4,0,2.2,0.8,2.2,2.2v4.7h1.5V183
	C659.5,181,658.3,179.8,656.4,179.8z M666.8,179.8c-1.5,0-2.6,0.5-3.1,1.8v-1.7h-1.5v11.6h1.5v-7.8c0.1-1.5,1.1-2.5,2.6-2.5
	c1.4,0,2.2,0.8,2.2,2.2v4.7h1.5V183C670,181,668.8,179.8,666.8,179.8z M686.9,179.8c-1.2,0-2.2,0.5-2.7,1.6v-1.5h-1.5v4.7
	c-0.2,1.3-1,2.2-2.2,2.2c-1.2,0-1.8-0.8-1.8-2.2v-4.7h-1.5v5.1c0,2,1,3.2,2.8,3.2c1.3,0,2.2-0.5,2.7-1.7v1.6h1.5v-5.1
	c0.3-1.1,1.1-1.9,2.2-1.9c1.2,0,1.8,0.8,1.8,2.2v4.7h1.5V183C689.6,181,688.6,179.8,686.9,179.8z M698.4,179.9v4.1
	c0,1.6-0.9,2.9-2.5,2.9c-1.3,0-2.2-0.8-2.2-2.2v-8.3h-3.8v1.1h2.4v7.6c0,2,1.2,3.2,3.1,3.2c1.4,0,2.5-0.6,3.1-1.8v1.8h1.5v-8.3
	H698.4z M706.2,179.8c-2.5,0-4.3,1.7-4.3,4.2c0,2.5,1.8,4.2,4.3,4.2c2.5,0,4.3-1.7,4.3-4.2C710.5,181.5,708.8,179.8,706.2,179.8z
	 M706.2,181.1c1.6,0,2.8,1.2,2.8,2.9c0,1.8-1.2,3-2.8,3c-1.6,0-2.8-1.2-2.8-3C703.5,182.3,704.6,181.1,706.2,181.1z M717.3,179.8
	c-1.5,0-2.6,0.5-3.1,1.8v-1.7h-1.5v11.6h1.5v-7.8c0.1-1.5,1.1-2.5,2.6-2.5c1.4,0,2.2,0.8,2.2,2.2v4.7h1.5V183
	C720.4,181,719.2,179.8,717.3,179.8z M731.1,181v-1.1h-6.7v-3.6h-1.5v8.7c0,2,1.1,3.2,3.1,3.2c1.4,0,2.5-0.6,3.1-1.8v1.8h1.5v-5.4
	h-1.5v1.2c0,1.6-0.9,2.9-2.5,2.9c-1.3,0-2.2-0.8-2.2-2.2V181H731.1z M739.3,179.9v4.1c0,1.6-0.9,2.9-2.5,2.9c-1.3,0-2.2-0.8-2.2-2.2
	v-8.3h-3.8v1.1h2.4v7.6c0,2,1.2,3.2,3.1,3.2c1.4,0,2.5-0.6,3.1-1.8v1.8h1.5v-8.3H739.3z"/>
<path class="st2" d="M588.2,158.7h158.6c5.9,0,10.7,4.8,10.7,10.7v26.6c0,5.9-4.8,10.7-10.7,10.7H588.2c-5.9,0-10.7-4.8-10.7-10.7
	v-26.6C577.5,163.5,582.3,158.7,588.2,158.7z"/>
<linearGradient id="SVGID_10_" gradientUnits="userSpaceOnUse" x1="667.5" y1="276.6641" x2="667.5" y2="227.664" gradientTransform="matrix(1 0 0 -1 0 356)">
	<stop  offset="0" style="stop-color:#013651"/>
	<stop  offset="1" style="stop-color:#014F77"/>
</linearGradient>
<path class="st11" d="M567.2,79.8h200.6c5.9,0,10.7,4.8,10.7,10.7v26.6c0,5.9-4.8,10.7-10.7,10.7H567.2c-5.9,0-10.7-4.8-10.7-10.7
	V90.6C556.5,84.6,561.3,79.8,567.2,79.8z"/>
<path class="st1" d="M571.7,105.2h1.5c0,1.9,1.4,2.9,3.6,2.9c2.2,0,3.6-0.7,3.6-2c0-3.3-8.2-1.1-8.1-5.8c0-1.7,1.6-3,4.7-3
	c2,0,4.4,0.9,4.4,3.2h-1.5c0-0.9-1-1.8-2.9-1.8c-1.9,0-3.1,0.5-3.1,1.6c0,3.1,8.3,0.9,8.1,5.9c-0.1,2.2-2.1,3.3-5.1,3.3
	C574.3,109.5,571.7,108.4,571.7,105.2z M590.3,101v4.1c0,1.6-0.9,2.9-2.5,2.9c-1.3,0-2.2-0.8-2.2-2.2v-8.3h-3.8v1.1h2.4v7.6
	c0,2,1.2,3.2,3.1,3.2c1.4,0,2.5-0.6,3.1-1.8v1.8h1.5V101H590.3z M598.2,101c-2.5,0-4.3,1.7-4.3,4.2c0,2.5,1.8,4.2,4.3,4.2
	c2.5,0,4.3-1.7,4.3-4.2C602.5,102.7,600.7,101,598.2,101z M598.2,102.3c1.6,0,2.8,1.2,2.8,2.9c0,1.8-1.2,3-2.8,3
	c-1.6,0-2.8-1.2-2.8-3C595.4,103.5,596.6,102.3,598.2,102.3z M609.2,101c-1.5,0-2.6,0.5-3.1,1.8V101h-1.5v11.6h1.5v-7.8
	c0.1-1.5,1.1-2.5,2.6-2.5c1.4,0,2.2,0.8,2.2,2.2v4.7h1.5v-5.1C612.4,102.2,611.2,101,609.2,101z M623,102.2V101h-6.7v-3.6h-1.5v8.7
	c0,2,1.1,3.2,3.1,3.2c1.4,0,2.5-0.6,3.1-1.8v1.8h1.5v-5.4H621v1.2c0,1.6-0.9,2.9-2.5,2.9c-1.3,0-2.2-0.8-2.2-2.2v-3.6H623z
	 M631.2,101v4.1c0,1.6-0.9,2.9-2.5,2.9c-1.3,0-2.2-0.8-2.2-2.2v-8.3h-3.8v1.1h2.4v7.6c0,2,1.2,3.2,3.1,3.2c1.4,0,2.5-0.6,3.1-1.8
	v1.8h1.5V101H631.2z M641.9,101v4.1c0,1.6-0.9,2.9-2.5,2.9c-1.3,0-2.2-0.8-2.2-2.2v-8.3h-3.8v1.1h2.4v7.6c0,2,1.2,3.2,3.1,3.2
	c1.4,0,2.5-0.6,3.1-1.8v1.8h1.5V101H641.9z M654.2,102.2V101h-6.7v-3.6h-1.5v8.7c0,2,1.1,3.2,3.1,3.2c1.4,0,2.5-0.6,3.1-1.8v1.8h1.5
	v-5.4h-1.5v1.2c0,1.6-0.9,2.9-2.5,2.9c-1.3,0-2.2-0.8-2.2-2.2v-3.6H654.2z M661,101c-1.5,0-2.6,0.5-3.1,1.8V101h-1.5v11.6h1.5v-7.8
	c0.1-1.5,1.1-2.5,2.6-2.5c1.4,0,2.2,0.8,2.2,2.2v4.7h1.5v-5.1C664.1,102.2,662.9,101,661,101z M671.4,101c-1.5,0-2.6,0.5-3.1,1.8
	v-5.3h-1.5v15.2h1.5v-7.8c0.1-1.5,1.1-2.5,2.6-2.5c1.4,0,2.2,0.8,2.2,2.2v4.7h1.5v-5.1C674.6,102.2,673.4,101,671.4,101z M692.4,101
	v4.6c-0.2,1.4-1,2.3-2.3,2.4c-1.2,0-1.8-0.8-1.8-2.2V101h-4.9v-3.6H682v15.2h1.5v-10.5h3.5v4c0,2,1,3.2,2.8,3.2
	c1.3,0,2.2-0.5,2.8-1.7v1.7h1.5V101H692.4z M701.4,101c-1.5,0-2.6,0.5-3.1,1.8V101h-1.5v8.3h1.5v-4.4c0.1-1.5,1.1-2.5,2.6-2.5
	c1.4,0,2.2,0.8,2.2,2.2v4.7h1.5v-5.1C704.5,102.2,703.4,101,701.4,101z M711.8,101c-1.5,0-2.6,0.5-3.1,1.8V101h-1.5v11.6h1.5v-7.8
	c0.1-1.5,1.1-2.5,2.6-2.5c1.4,0,2.2,0.8,2.2,2.2v4.7h1.5v-5.1C715,102.2,713.8,101,711.8,101z M722.3,101c-1.5,0-2.6,0.6-3.2,1.8
	v-5.3h-1.5v11.9h1.5v-4.1c0-1.7,1-2.9,2.6-2.9c1.4,0,2.2,0.8,2.2,2.2v4.7h1.5v-5.1C725.5,102.2,724.3,101,722.3,101z M732.8,101
	c-1.5,0-2.6,0.5-3.1,1.8V101h-1.5v8.3h1.5v-4.4c0.1-1.5,1.1-2.5,2.6-2.5c1.4,0,2.2,0.8,2.2,2.2v4.7h1.5v-5.1
	C735.9,102.2,734.7,101,732.8,101z M739.1,108.2V101h-1.5v8.3h3.8v-1.1H739.1z M748.2,101c-1.5,0-2.6,0.5-3.1,1.8V101h-1.5v11.6h1.5
	v-7.8c0.1-1.5,1.1-2.5,2.6-2.5c1.4,0,2.2,0.8,2.2,2.2v4.7h1.5v-5.1C751.4,102.2,750.2,101,748.2,101z M764.2,108.2h-2.4v-4
	c0-2-1.2-3.2-3.1-3.2c-1.5,0-2.6,0.5-3.1,1.8V101h-1.5v8.3h1.5v-4.4c0.1-1.5,1.1-2.5,2.6-2.5c1.4,0,2.2,0.8,2.2,2.2v8.1h1.5v-3.3
	h2.4V108.2z"/>
<path class="st2" d="M567.2,79.8h200.6c5.9,0,10.7,4.8,10.7,10.7v26.6c0,5.9-4.8,10.7-10.7,10.7H567.2c-5.9,0-10.7-4.8-10.7-10.7
	V90.6C556.5,84.6,561.3,79.8,567.2,79.8z"/>
<linearGradient id="SVGID_11_" gradientUnits="userSpaceOnUse" x1="667.5" y1="355.4922" x2="667.5" y2="306.4922" gradientTransform="matrix(1 0 0 -1 0 356)">
	<stop  offset="0" style="stop-color:#013651"/>
	<stop  offset="1" style="stop-color:#014F77"/>
</linearGradient>
<path class="st12" d="M571.7,1h191.6c5.9,0,10.7,4.8,10.7,10.7v26.6c0,5.9-4.8,10.7-10.7,10.7H571.7c-5.9,0-10.7-4.8-10.7-10.7V11.7
	C561,5.8,565.8,1,571.7,1z"/>
<path class="st1" d="M586.7,26.4h-8.2v-3.5c0-2,1.2-3.2,3.2-3.2c1.9,0,3.1,1.2,3.1,3.2v1h1.5v-1c0-2.9-1.7-4.6-4.6-4.6
	c-2.9,0-4.7,1.7-4.7,4.6v7.6h1.5v-2.7h8.2V26.4z M600.2,22.2v4.6c-0.2,1.4-1,2.3-2.3,2.4c-1.2,0-1.8-0.8-1.8-2.2v-4.7h-1.5v4.1
	c0,1.6-0.8,2.8-2.3,2.9c-1.2,0-1.8-0.8-1.8-2.2v-4.7h-1.5v5.1c0,2,1,3.2,2.8,3.2c1.4,0,2.4-0.7,2.9-2.1c0.3,1.3,1.2,2.1,2.6,2.1
	c1.3,0,2.2-0.5,2.8-1.7v1.7h1.5v-8.3H600.2z M614.3,22.2H612v-3.6h-1.5v3.6H608c-2.7,0-4.1,2-4.1,4.3c0,2.7,1.9,4.1,4.2,4.1
	c2.3,0,3.9-1.3,3.9-3.8v-3.3h2.3V22.2z M610.5,26.6c0,1.5-0.6,2.7-2.4,2.7c-1.9,0-2.7-1.5-2.7-2.8c0-1.6,0.9-3,2.9-3h2.3V26.6z
	 M621.3,22.2v4.1c0,1.6-0.9,2.9-2.5,2.9c-1.3,0-2.2-0.8-2.2-2.2v-8.3h-3.8v1.1h2.4v7.6c0,2,1.2,3.2,3.1,3.2c1.4,0,2.5-0.6,3.1-1.8
	v1.8h1.5v-8.3H621.3z M633.7,23.3v-1.1H627v-3.6h-1.5v8.7c0,2,1.1,3.2,3.1,3.2c1.4,0,2.5-0.6,3.1-1.8v1.8h1.5v-5.4h-1.5v1.2
	c0,1.6-0.9,2.9-2.5,2.9c-1.3,0-2.2-0.8-2.2-2.2v-3.6H633.7z M645.3,22.2c-1.2,0-2.2,0.5-2.7,1.6v-1.5h-1.5v4.7
	c-0.2,1.3-1,2.2-2.2,2.2c-1.2,0-1.8-0.8-1.8-2.2v-4.7h-1.5v5.1c0,2,1,3.2,2.8,3.2c1.3,0,2.2-0.5,2.7-1.7v1.6h1.5v-5.1
	c0.3-1.1,1.1-1.9,2.2-1.9c1.2,0,1.8,0.8,1.8,2.2v4.7h1.5v-5.1C648.1,23.4,647,22.2,645.3,22.2z M658.8,23.3v-1.1h-6.7v-3.6h-1.5v8.7
	c0,2,1.1,3.2,3.1,3.2c1.4,0,2.5-0.6,3.1-1.8v1.8h1.5v-5.4h-1.5v1.2c0,1.6-0.9,2.9-2.5,2.9c-1.3,0-2.2-0.8-2.2-2.2v-3.6H658.8z
	 M665.5,22.2c-1.5,0-2.6,0.5-3.1,1.8v-1.7h-1.5v11.6h1.5v-7.8c0.1-1.5,1.1-2.5,2.6-2.5c1.4,0,2.2,0.8,2.2,2.2v4.7h1.5v-5.1
	C668.7,23.4,667.5,22.2,665.5,22.2z M679.3,23.3v-1.1h-6.7v-3.6h-1.5v8.7c0,2,1.1,3.2,3.1,3.2c1.4,0,2.5-0.6,3.1-1.8v1.8h1.5v-5.4
	h-1.5v1.2c0,1.6-0.9,2.9-2.5,2.9c-1.3,0-2.2-0.8-2.2-2.2v-3.6H679.3z M686.1,22.2c-1.5,0-2.6,0.5-3.1,1.8v-1.7h-1.5v11.6h1.5v-7.8
	c0.1-1.5,1.1-2.5,2.6-2.5c1.4,0,2.2,0.8,2.2,2.2v4.7h1.5v-5.1C689.2,23.4,688.1,22.2,686.1,22.2z M696.6,22.2
	c-1.5,0-2.6,0.5-3.1,1.8v-5.3h-1.5v15.2h1.5v-7.8c0.1-1.5,1.1-2.5,2.6-2.5c1.4,0,2.2,0.8,2.2,2.2v4.7h1.5v-5.1
	C699.7,23.4,698.5,22.2,696.6,22.2z M716.9,22.2h-2.3v-3.6h-1.5v3.6h-2.5c-2.7,0-4.1,2-4.1,4.3c0,2.7,1.9,4.1,4.2,4.1
	c2.3,0,3.9-1.3,3.9-3.8v-3.3h2.3V22.2z M713.1,26.6c0,1.5-0.6,2.7-2.4,2.7c-1.9,0-2.7-1.5-2.7-2.8c0-1.6,0.9-3,2.9-3h2.3V26.6z
	 M722.5,22.2c-1.5,0-2.6,0.5-3.1,1.8v-1.7h-1.5v8.3h1.5v-4.4c0.1-1.5,1.1-2.5,2.6-2.5c1.4,0,2.2,0.8,2.2,2.2v4.7h1.5v-5.1
	C725.7,23.4,724.5,22.2,722.5,22.2z M736.1,32.7v-7.3c0-2-1.2-3.2-3.1-3.2c-1.5,0-2.6,0.5-3.1,1.8v-1.7h-1.5v8.3h1.5v-4.4
	c0.1-1.5,1.1-2.5,2.6-2.5c1.4,0,2.2,0.8,2.2,2.2v8.1h3.8v-1.1H736.1z M744,22.2c-1.5,0-2.6,0.5-3.1,1.8v-1.7h-1.5v8.3h1.5v-4.4
	c0.1-1.5,1.1-2.5,2.6-2.5c1.4,0,2.2,0.8,2.2,2.2v4.7h1.5v-5.1C747.2,23.4,746,22.2,744,22.2z M757.3,32.7V18.6h-1.5v7.7
	c0,1.6-0.9,2.9-2.5,2.9c-1.3,0-2.2-0.8-2.2-2.2v-4.7h-1.5v5.1c0,2,1.1,3.2,3.1,3.2c1.4,0,2.5-0.6,3.1-1.8v5.1h3.8v-1.1H757.3z"/>
<path class="st2" d="M571.7,1h191.6c5.9,0,10.7,4.8,10.7,10.7v26.6c0,5.9-4.8,10.7-10.7,10.7H571.7c-5.9,0-10.7-4.8-10.7-10.7V11.7
	C561,5.8,565.8,1,571.7,1z"/>
<path class="st2" d="M667.5,207.2v30"/>
<path class="st2" d="M1011.7,207.2v30"/>
<path class="st2" d="M667.5,128.3v30"/>
<path class="st2" d="M667.5,49.5v30"/>
<path class="st2" d="M109.4,237.2h1116.2"/>
<path class="st2" d="M109.4,237.2v30"/>
<path class="st2" d="M341.2,237.2v30"/>
<path class="st2" d="M558.1,237.2v30"/>
<path class="st2" d="M803.4,237.2v30"/>
<path class="st2" d="M1045.8,237.2v30"/>
<path class="st2" d="M1225.6,237.2v30"/>
</svg>
