<svg id="Layer_1" data-name="Layer 1" xmlns="http://www.w3.org/2000/svg" xmlns:xlink="http://www.w3.org/1999/xlink" viewBox="0 0 288 1061"><defs><style>.cls-1,.cls-10,.cls-11,.cls-12,.cls-13,.cls-3,.cls-4,.cls-5,.cls-6,.cls-7,.cls-8,.cls-9{stroke:#51859f;}.cls-1,.cls-10,.cls-11,.cls-12,.cls-13,.cls-14,.cls-15,.cls-18,.cls-19,.cls-20,.cls-3,.cls-4,.cls-5,.cls-6,.cls-7,.cls-8,.cls-9{stroke-width:0.86px;}.cls-1{fill:url(#linear-gradient);}.cls-2{fill:#e5eff4;}.cls-3{fill:url(#linear-gradient-2);}.cls-4{fill:url(#linear-gradient-3);}.cls-5{fill:url(#linear-gradient-4);}.cls-6{fill:url(#linear-gradient-5);}.cls-14,.cls-7{fill:none;}.cls-8{fill:url(#linear-gradient-6);}.cls-9{fill:url(#linear-gradient-7);}.cls-10{fill:url(#linear-gradient-8);}.cls-11{fill:url(#linear-gradient-9);}.cls-12{fill:url(#linear-gradient-10);}.cls-13{fill:url(#linear-gradient-11);}.cls-14,.cls-15,.cls-18,.cls-19,.cls-20{stroke:#003c5a;}.cls-15,.cls-18,.cls-19,.cls-20{fill-opacity:0.5;}.cls-15{fill:url(#radial-gradient);}.cls-16{fill:#fff;}.cls-17{fill:#51859f;}.cls-18{fill:url(#radial-gradient-2);}.cls-19{fill:url(#radial-gradient-3);}.cls-20{fill:url(#radial-gradient-4);}</style><linearGradient id="linear-gradient" x1="206.41" y1="891.3" x2="206.41" y2="822.67" gradientTransform="matrix(1, 0, 0, -1, 0, 1062)" gradientUnits="userSpaceOnUse"><stop offset="0" stop-color="#013651"/><stop offset="1" stop-color="#014f77"/></linearGradient><linearGradient id="linear-gradient-2" x1="56.27" y1="881.72" x2="56.27" y2="830.24" xlink:href="#linear-gradient"/><linearGradient id="linear-gradient-3" x1="224.85" y1="971.95" x2="224.85" y2="920.48" xlink:href="#linear-gradient"/><linearGradient id="linear-gradient-4" x1="62.7" y1="971.45" x2="62.7" y2="919.97" xlink:href="#linear-gradient"/><linearGradient id="linear-gradient-5" x1="70.42" y1="1061.18" x2="70.42" y2="1009.7" xlink:href="#linear-gradient"/><linearGradient id="linear-gradient-6" x1="169.51" y1="459.18" x2="169.51" y2="421.43" xlink:href="#linear-gradient"/><linearGradient id="linear-gradient-7" x1="169.51" y1="512.23" x2="169.51" y2="474.48" xlink:href="#linear-gradient"/><linearGradient id="linear-gradient-8" x1="169.51" y1="596.17" x2="169.51" y2="527.53" xlink:href="#linear-gradient"/><linearGradient id="linear-gradient-9" x1="169.51" y1="649.21" x2="169.51" y2="611.46" xlink:href="#linear-gradient"/><linearGradient id="linear-gradient-10" x1="169.51" y1="702.27" x2="169.51" y2="664.52" xlink:href="#linear-gradient"/><linearGradient id="linear-gradient-11" x1="169.51" y1="769.04" x2="169.51" y2="717.57" xlink:href="#linear-gradient"/><radialGradient id="radial-gradient" cx="-535.32" cy="915.98" r="1" gradientTransform="matrix(112.19, 75.89, 241.77, -357.41, -161383.21, 368741.44)" gradientUnits="userSpaceOnUse"><stop offset="0.35" stop-color="#006191"/><stop offset="0.99" stop-color="#006192" stop-opacity="0"/></radialGradient><radialGradient id="radial-gradient-2" cx="-536.16" cy="915.6" r="1" gradientTransform="matrix(200.8, 101.46, 280.34, -554.82, -148929.79, 563373.54)" xlink:href="#radial-gradient"/><radialGradient id="radial-gradient-3" cx="-535.9" cy="915.67" r="1" gradientTransform="matrix(200.8, 75.89, 172.29, -455.85, -50064.47, 458994.3)" xlink:href="#radial-gradient"/><radialGradient id="radial-gradient-4" cx="-536.03" cy="915.64" r="1" gradientTransform="matrix(221.91, 75.89, 159.51, -466.41, -27063.72, 468564.14)" xlink:href="#radial-gradient"/></defs><rect class="cls-1" x="151.07" y="171.12" width="110.68" height="67.78" rx="8.15"/><path class="cls-2" d="M177.65,191.73h-1.81v-2.89c0-1.74-1.38-2.89-3.52-2.88s-3.74,1.21-3.72,3.39a3.35,3.35,0,0,0,3.68,3.42h2.41v2.37h1.15v-2.37h1.81Zm-3,0h-2.35a2.3,2.3,0,0,1-2.61-2.37c0-1.53,1-2.37,2.63-2.37s2.33,1,2.33,1.88Zm5.05,5.07v-8h-1.12v8.89h2.93v-.87Zm10.89-8v3.54a1.85,1.85,0,0,1-1.73,1.81c-.94,0-1.38-.64-1.38-1.72v-3.63h-3.76V186h-1.13v11.63h1.13v-8h2.64v3.06c0,1.54.79,2.46,2.11,2.46a2.14,2.14,0,0,0,2.12-1.32v1.29h1.11v-6.36Zm11.66,0v3.54a1.84,1.84,0,0,1-1.72,1.81c-.94,0-1.39-.64-1.39-1.72v-3.63h-1.11v3.14c0,1.26-.65,2.17-1.75,2.21-.92,0-1.38-.64-1.38-1.72v-3.63h-1.11v3.93c0,1.54.78,2.46,2.11,2.46a2.16,2.16,0,0,0,2.22-1.61,1.94,1.94,0,0,0,2,1.61,2.13,2.13,0,0,0,2.11-1.32v1.29h1.12v-6.36Zm9,8V186h-1.13v5.86a2,2,0,0,1-1.93,2.22,1.55,1.55,0,0,1-1.65-1.71v-3.63h-1.11v3.93a2.21,2.21,0,0,0,2.35,2.46,2.36,2.36,0,0,0,2.34-1.38v3.88h2.93v-.87Zm6.05-8.05a2.44,2.44,0,0,0-2.4,1.35v-1.32h-1.13v6.36H215v-3.4a2,2,0,0,1,2-1.94,1.56,1.56,0,0,1,1.69,1.71v3.63h1.13v-3.93A2.24,2.24,0,0,0,217.36,188.75Zm8,0a2.44,2.44,0,0,0-2.4,1.35v-1.32h-1.13v8.89H223v-5.93a2,2,0,0,1,2-1.94,1.56,1.56,0,0,1,1.69,1.71v3.63h1.13v-3.93A2.24,2.24,0,0,0,225.36,188.75Zm-48.9,15a2.15,2.15,0,0,0-2.06,1.18v-1.15h-1.12v3.63a1.8,1.8,0,0,1-1.71,1.72c-.92,0-1.38-.64-1.38-1.72v-3.63h-1.11v3.93c0,1.54.78,2.46,2.11,2.46a2.14,2.14,0,0,0,2.09-1.28v1.25h1.12v-3.87a1.76,1.76,0,0,1,1.67-1.48c.93,0,1.38.64,1.38,1.72v3.63h1.12v-3.93C178.57,204.68,177.79,203.75,176.46,203.75Zm8.8,0v3.12a2,2,0,0,1-1.94,2.22,1.54,1.54,0,0,1-1.64-1.71V201h-2.93v.87h1.8v5.8a2.22,2.22,0,0,0,2.36,2.46,2.38,2.38,0,0,0,2.35-1.38v1.35h1.13v-6.36Zm6,0a3.21,3.21,0,1,0,3.27,3.2A3.09,3.09,0,0,0,191.29,203.75Zm0,1a2.25,2.25,0,1,1-2.14,2.24A2.1,2.1,0,0,1,191.29,204.72Zm8.43-1a2.44,2.44,0,0,0-2.4,1.35v-1.32h-1.13v8.89h1.13v-5.93a2,2,0,0,1,2-1.94,1.57,1.57,0,0,1,1.69,1.71v3.63h1.13v-3.93A2.24,2.24,0,0,0,199.72,203.75Zm10.57.91v-.87h-5.12V201h-1.12v6.67a2.21,2.21,0,0,0,2.36,2.46,2.36,2.36,0,0,0,2.34-1.38v1.35h1.13V206h-1.13v.92a2,2,0,0,1-1.93,2.22,1.55,1.55,0,0,1-1.65-1.71v-2.75Zm6.25-.88v3.12a2,2,0,0,1-1.93,2.22,1.55,1.55,0,0,1-1.65-1.71V201H210v.87h1.8v5.8a2.22,2.22,0,0,0,2.37,2.46,2.36,2.36,0,0,0,2.34-1.38v1.35h1.13v-6.36Zm6.87,0a2.45,2.45,0,0,0-2.4,1.35V201h-1.13v11.63H221v-5.93a2,2,0,0,1,2-1.94,1.57,1.57,0,0,1,1.7,1.71v3.63h1.13v-3.93A2.25,2.25,0,0,0,223.41,203.75Zm-46.95,15a2.15,2.15,0,0,0-2.06,1.18v-1.15h-1.12v3.63a1.8,1.8,0,0,1-1.71,1.72c-.92,0-1.38-.64-1.38-1.72v-3.63h-1.11v3.93c0,1.54.78,2.46,2.11,2.46a2.14,2.14,0,0,0,2.09-1.28v1.25h1.12v-3.87a1.76,1.76,0,0,1,1.67-1.48c.93,0,1.38.64,1.38,1.72v3.63h1.12v-3.93C178.57,219.68,177.79,218.75,176.46,218.75Zm10.29.91v-.87h-5.12V216h-1.12v6.67a2.21,2.21,0,0,0,2.36,2.46,2.36,2.36,0,0,0,2.34-1.38v1.35h1.13V221h-1.13v.92a2,2,0,0,1-1.93,2.22,1.55,1.55,0,0,1-1.65-1.71v-2.75Zm7.57,7.14v-5.59a2.24,2.24,0,0,0-2.4-2.46,2.44,2.44,0,0,0-2.4,1.35v-1.32h-1.13v6.36h1.13v-3.4a2,2,0,0,1,2-1.94,1.57,1.57,0,0,1,1.69,1.71v6.16h2.93v-.87Zm10.86-8v3.54a1.85,1.85,0,0,1-1.73,1.81c-.94,0-1.38-.64-1.38-1.72v-3.63H201v3.14c0,1.26-.65,2.17-1.74,2.21-.92,0-1.38-.64-1.38-1.72v-3.63h-1.12v3.93c0,1.54.78,2.46,2.12,2.46a2.16,2.16,0,0,0,2.22-1.61,1.94,1.94,0,0,0,2,1.61,2.14,2.14,0,0,0,2.11-1.32v1.29h1.12v-6.36Zm7.89,0v3.12a2,2,0,0,1-1.94,2.22,1.54,1.54,0,0,1-1.64-1.71V216h-1.12v6.67a2.21,2.21,0,0,0,2.36,2.46,2.37,2.37,0,0,0,2.34-1.38v3.88h1.13v-8.89Zm11.67,0v3.54a1.84,1.84,0,0,1-1.72,1.81c-.94,0-1.39-.64-1.39-1.72v-3.63h-1.11v3.14c0,1.26-.65,2.17-1.74,2.21-.93,0-1.39-.64-1.39-1.72v-3.63h-1.11v3.93c0,1.54.78,2.46,2.11,2.46a2.16,2.16,0,0,0,2.22-1.61,1.94,1.94,0,0,0,2,1.61,2.13,2.13,0,0,0,2.11-1.32v1.29h1.12v-6.36Zm4.46,8v-8h-1.13v8.89H231v-.87Z"/><rect class="cls-3" x="0.93" y="180.71" width="110.68" height="50.62" rx="8.15"/><path class="cls-2" d="M27.76,200H25.94v-2.88c0-1.74-1.38-2.9-3.52-2.89s-3.73,1.22-3.72,3.39a3.35,3.35,0,0,0,3.69,3.42h2.4v2.37h1.15v-2.37h1.82Zm-3,0H22.45a2.31,2.31,0,0,1-2.62-2.37c0-1.52,1.05-2.36,2.63-2.36s2.33,1,2.33,1.87Zm5.06,5.08v-8H28.72V206h2.93v-.86Zm10.88-8v3.54a1.83,1.83,0,0,1-1.73,1.8c-.93,0-1.38-.63-1.38-1.72v-3.62H33.86v-2.74H32.73V206h1.13v-8H36.5V201c0,1.54.8,2.47,2.12,2.47a2.13,2.13,0,0,0,2.11-1.32v1.28h1.12v-6.35Zm11.67,0v3.54a1.84,1.84,0,0,1-1.73,1.8c-.94,0-1.38-.63-1.38-1.72v-3.62H48.17v3.13c0,1.26-.65,2.18-1.74,2.21-.92,0-1.38-.63-1.38-1.72v-3.62H43.93V201c0,1.54.78,2.47,2.12,2.47a2.18,2.18,0,0,0,2.22-1.61,1.94,1.94,0,0,0,2,1.61,2.14,2.14,0,0,0,2.11-1.32v1.28h1.12v-6.35Zm9,8V194.34H60.29v5.86a2,2,0,0,1-1.94,2.21,1.54,1.54,0,0,1-1.64-1.71v-3.62H55.59V201A2.22,2.22,0,0,0,58,203.47a2.38,2.38,0,0,0,2.34-1.38V206h2.93v-.86Zm6-8.06a2.45,2.45,0,0,0-2.41,1.36v-1.32H63.93v6.35h1.13V200a2,2,0,0,1,2-1.93,1.56,1.56,0,0,1,1.69,1.7v3.63h1.13V199.5A2.24,2.24,0,0,0,67.47,197Zm8,0a2.45,2.45,0,0,0-2.41,1.36v-1.32H71.93V206h1.13V200a2,2,0,0,1,2-1.93,1.56,1.56,0,0,1,1.7,1.7v3.63h1.13V199.5A2.24,2.24,0,0,0,75.47,197Zm-48.9,15a2.15,2.15,0,0,0-2.07,1.19v-1.15H23.39v3.62a1.8,1.8,0,0,1-1.71,1.72c-.92,0-1.38-.63-1.38-1.72v-3.62H19.18V216c0,1.54.78,2.47,2.12,2.47a2.14,2.14,0,0,0,2.09-1.29v1.25H24.5v-3.87a1.77,1.77,0,0,1,1.67-1.47c.94,0,1.38.63,1.38,1.71v3.63h1.12V214.5C28.67,213,27.89,212,26.57,212Zm8.79,0v3.12a2,2,0,0,1-1.93,2.21,1.55,1.55,0,0,1-1.65-1.71v-6.36H28.85v.86h1.8V216A2.23,2.23,0,0,0,33,218.47a2.38,2.38,0,0,0,2.34-1.38v1.34h1.13v-6.35Zm6,0a3.22,3.22,0,1,0,3.27,3.21A3.09,3.09,0,0,0,41.39,212Zm0,1a2.26,2.26,0,1,1-2.13,2.25A2.11,2.11,0,0,1,41.39,213Zm8.43-1a2.45,2.45,0,0,0-2.4,1.36v-1.32H46.29V221h1.13V215a2,2,0,0,1,2-1.93,1.56,1.56,0,0,1,1.7,1.7v3.63h1.13V214.5A2.25,2.25,0,0,0,49.82,212Zm10.57.91v-.86H55.28v-2.75H54.16V216a2.22,2.22,0,0,0,2.35,2.47,2.39,2.39,0,0,0,2.35-1.38v1.34H60v-4.16H58.86v.93a2,2,0,0,1-1.94,2.21,1.54,1.54,0,0,1-1.64-1.71V213Zm6.26-.87v3.12a2,2,0,0,1-1.94,2.21,1.54,1.54,0,0,1-1.64-1.71v-6.36H60.14v.86h1.8V216a2.23,2.23,0,0,0,2.36,2.47,2.39,2.39,0,0,0,2.35-1.38v1.34h1.13v-6.35Z"/><rect class="cls-4" x="163.08" y="90.47" width="123.54" height="50.62" rx="8.15"/><path class="cls-2" d="M185.9,107.78v2a2.4,2.4,0,1,1-4.8,0v-5.65h-3.27v1H180v4.61a3.56,3.56,0,0,0,7.11,0v-2Zm9.23-.06v-.86H190v-2.75H188.9v6.66a2.22,2.22,0,0,0,2.35,2.47,2.4,2.4,0,0,0,2.35-1.39v1.35h1.12V109H193.6V110a2,2,0,0,1-1.94,2.21,1.55,1.55,0,0,1-1.65-1.71v-2.75Zm5.17-.91a2.45,2.45,0,0,0-2.4,1.36v-1.32h-1.13v8.88h1.13V109.8a2,2,0,0,1,2-1.93,1.56,1.56,0,0,1,1.7,1.7v3.63h1.13v-3.93A2.25,2.25,0,0,0,200.3,106.81Zm11.5,7.13h-5.66v-2a2.6,2.6,0,0,0,2.38,1.29,3,3,0,0,0,3-3.2,3,3,0,0,0-3-3.23,2.57,2.57,0,0,0-2.35,1.3v-1.26H205v7.09h-.94v.86H205v.93h1.13v-.93h5.66Zm-3.53-6.18a2.25,2.25,0,1,1-2.13,2.24A2.11,2.11,0,0,1,208.27,107.76Zm8.69-1a2.43,2.43,0,0,0-2.4,1.36v-4.06h-1.13v11.62h1.13V109.8a2,2,0,0,1,2-1.93,1.55,1.55,0,0,1,1.69,1.7v3.63h1.13v-3.93A2.24,2.24,0,0,0,217,106.81Zm9.27,0V110a2,2,0,0,1-1.94,2.21,1.54,1.54,0,0,1-1.64-1.71v-6.36h-2.93V105h1.8v5.8a2.23,2.23,0,0,0,2.37,2.47,2.38,2.38,0,0,0,2.34-1.39v1.35h1.13v-6.35Zm-38.69,15v3.54a1.86,1.86,0,0,1-1.73,1.8c-.94,0-1.38-.64-1.38-1.72v-3.62h-1.12V125c0,1.26-.65,2.17-1.74,2.21-.93,0-1.38-.64-1.38-1.72v-3.62h-1.12v3.92c0,1.54.78,2.47,2.11,2.47a2.18,2.18,0,0,0,2.22-1.61,1.94,1.94,0,0,0,2,1.61,2.15,2.15,0,0,0,2.12-1.33v1.29h1.11v-6.35Zm6.85,0a2.43,2.43,0,0,0-2.4,1.36v-1.32h-1.13v6.35H192v-3.4a2,2,0,0,1,2-1.93,1.55,1.55,0,0,1,1.69,1.7v3.63h1.13v-3.93A2.24,2.24,0,0,0,194.39,121.81Zm4.82,5.52v-5.48h-1.13v6.35H201v-.87Zm11.22,0h-1.8v-3.06a2.24,2.24,0,0,0-2.4-2.46,2.45,2.45,0,0,0-2.41,1.36v-1.32H202.7v6.35h1.12v-3.4a2,2,0,0,1,2-1.93,1.56,1.56,0,0,1,1.69,1.7v6.16h1.13V128.2h1.8Zm4.48-5.52a2.43,2.43,0,0,0-2.4,1.36v-4.06h-1.13v11.62h1.13V124.8a1.94,1.94,0,0,1,2-1.93,1.56,1.56,0,0,1,1.69,1.7v3.63h1.13v-3.93A2.24,2.24,0,0,0,214.91,121.81Zm11.72,0a2.15,2.15,0,0,0-2.07,1.19v-1.15h-1.11v3.62a1.81,1.81,0,0,1-1.71,1.72c-.92,0-1.38-.64-1.38-1.72v-3.62h-1.12v3.92c0,1.54.78,2.47,2.12,2.47a2.15,2.15,0,0,0,2.09-1.29v1.25h1.11v-3.87a1.79,1.79,0,0,1,1.67-1.48c.94,0,1.39.64,1.39,1.72v3.63h1.11v-3.93C228.73,122.75,228,121.81,226.63,121.81Z"/><rect class="cls-5" x="0.93" y="90.98" width="123.54" height="50.62" rx="8.15"/><path class="cls-2" d="M16.51,110.53h1.16c0,1.48,1.1,2.23,2.79,2.25s2.73-.51,2.74-1.56c0-2.51-6.3-.83-6.22-4.42,0-1.34,1.26-2.34,3.56-2.27,1.54,0,3.38.66,3.39,2.45H22.78c0-.69-.73-1.39-2.25-1.41s-2.38.42-2.4,1.23c0,2.39,6.32.67,6.22,4.51-.05,1.67-1.6,2.52-3.91,2.51C18.48,113.81,16.45,113,16.51,110.53Zm14.22-3.18v3.12a2,2,0,0,1-1.94,2.21,1.54,1.54,0,0,1-1.64-1.7v-6.37H24.22v.86H26v5.81a2.23,2.23,0,0,0,2.37,2.46,2.36,2.36,0,0,0,2.34-1.38v1.34h1.13v-6.35Zm6,0A3.22,3.22,0,1,0,40,110.52,3.1,3.1,0,0,0,36.76,107.31Zm0,1a2.25,2.25,0,1,1-2.14,2.24A2.1,2.1,0,0,1,36.76,108.29Zm8.43-1a2.43,2.43,0,0,0-2.4,1.36v-1.32H41.66v8.89h1.13V110.3a2,2,0,0,1,2-1.93,1.56,1.56,0,0,1,1.69,1.7v3.63h1.13v-3.93A2.24,2.24,0,0,0,45.19,107.31Zm10.57.91v-.86H50.64v-2.75H49.53v6.67a2.21,2.21,0,0,0,2.35,2.46,2.36,2.36,0,0,0,2.34-1.38v1.34h1.13v-4.15H54.22v.92a2,2,0,0,1-1.93,2.21,1.55,1.55,0,0,1-1.65-1.7v-2.76Zm6.25-.87v3.12a2,2,0,0,1-1.93,2.21,1.55,1.55,0,0,1-1.65-1.7v-6.37H55.5v.86h1.8v5.81a2.23,2.23,0,0,0,2.37,2.46A2.36,2.36,0,0,0,62,112.36v1.34h1.13v-6.35Zm8.14,0v3.12a2,2,0,0,1-1.93,2.21,1.55,1.55,0,0,1-1.65-1.7v-6.37H63.64v.86h1.8v5.81a2.23,2.23,0,0,0,2.37,2.46,2.36,2.36,0,0,0,2.34-1.38v1.34h1.13v-6.35Zm9.44.87v-.86H74.48v-2.75H73.36v6.67a2.22,2.22,0,0,0,2.35,2.46,2.38,2.38,0,0,0,2.35-1.38v1.34h1.13v-4.15H78.06v.92a2,2,0,0,1-1.94,2.21,1.54,1.54,0,0,1-1.64-1.7v-2.76Zm5.18-.91a2.45,2.45,0,0,0-2.41,1.36v-1.32H81.23v8.89h1.13V110.3a2,2,0,0,1,2-1.93,1.56,1.56,0,0,1,1.69,1.7v3.63h1.13v-3.93A2.24,2.24,0,0,0,84.77,107.31Zm8,0a2.45,2.45,0,0,0-2.41,1.36v-4.06H89.23v11.63h1.13V110.3a2,2,0,0,1,2-1.93,1.57,1.57,0,0,1,1.7,1.7v3.63h1.13v-3.93A2.24,2.24,0,0,0,92.77,107.31Zm-67.72,15v3.54a1.83,1.83,0,0,1-1.73,1.8c-.94,0-1.38-.63-1.38-1.71v-3.63H18.18v-2.74H17.05v11.63h1.13v-8h2.64v3.07c0,1.53.79,2.46,2.11,2.46a2.14,2.14,0,0,0,2.12-1.32v1.28h1.12v-6.35Zm6.86,0a2.43,2.43,0,0,0-2.4,1.36v-1.32H28.38v6.35h1.13v-3.4a2,2,0,0,1,2-1.93,1.56,1.56,0,0,1,1.69,1.7v3.63h1.13v-3.93A2.24,2.24,0,0,0,31.91,122.31Zm8,0a2.43,2.43,0,0,0-2.4,1.36v-1.32H36.38v8.89h1.13V125.3a2,2,0,0,1,2-1.93,1.56,1.56,0,0,1,1.69,1.7v3.63h1.13v-3.93A2.24,2.24,0,0,0,39.91,122.31Zm8,0a2.45,2.45,0,0,0-2.41,1.38v-4.08H44.38v9.09h1.13v-3.12a2,2,0,0,1,2-2.21,1.57,1.57,0,0,1,1.7,1.7v3.63h1.12v-3.93A2.24,2.24,0,0,0,47.92,122.31Zm8,0a2.43,2.43,0,0,0-2.4,1.36v-1.32H52.39v6.35h1.13v-3.4a2,2,0,0,1,2-1.93,1.56,1.56,0,0,1,1.69,1.7v3.63h1.13v-3.93A2.24,2.24,0,0,0,55.92,122.31Zm4.82,5.53v-5.49H59.61v6.35h2.93v-.86Zm7-5.53a2.45,2.45,0,0,0-2.41,1.36v-1.32H64.23v8.89h1.12V125.3a2,2,0,0,1,2-1.93,1.56,1.56,0,0,1,1.69,1.7v3.63h1.13v-3.93A2.24,2.24,0,0,0,67.76,122.31ZM80,127.84h-1.8v-3.07a2.24,2.24,0,0,0-2.4-2.46,2.45,2.45,0,0,0-2.41,1.36v-1.32H72.23v6.35h1.12v-3.4a2,2,0,0,1,2-1.93,1.56,1.56,0,0,1,1.69,1.7v6.17h1.13V128.7H80Z"/><rect class="cls-6" x="0.93" y="1.25" width="138.99" height="50.62" rx="8.15"/><path class="cls-2" d="M24.51,20.84H18.2V18.16a2.26,2.26,0,0,1,2.42-2.48A2.25,2.25,0,0,1,23,18.16v.78h1.15v-.78a3.25,3.25,0,0,0-3.54-3.52,3.26,3.26,0,0,0-3.57,3.52V24H18.2V21.89h6.31Zm10.31-3.22v3.54A1.84,1.84,0,0,1,33.09,23c-.94,0-1.39-.63-1.39-1.71V17.62H30.59v3.13c0,1.26-.65,2.18-1.74,2.21-.93,0-1.39-.63-1.39-1.71V17.62H26.35v3.93c0,1.53.78,2.46,2.11,2.46a2.17,2.17,0,0,0,2.22-1.61,1.94,1.94,0,0,0,2,1.61,2.15,2.15,0,0,0,2.12-1.32V24h1.11V17.62Zm10.84,0H43.87V14.88H42.74v2.74h-1.9a3.06,3.06,0,0,0-3.17,3.25A3,3,0,0,0,40.89,24a2.72,2.72,0,0,0,3-2.91V18.62h1.79ZM42.74,21c0,1.13-.46,2.08-1.87,2.06a2,2,0,0,1-2.07-2.15A2.11,2.11,0,0,1,41,18.62h1.73ZM51,17.62v3.12A2,2,0,0,1,49.09,23a1.54,1.54,0,0,1-1.65-1.7V14.88H44.51v.86h1.8v5.81A2.23,2.23,0,0,0,48.68,24,2.36,2.36,0,0,0,51,22.63V24h1.13V17.62Zm9.44.88v-.87H55.35V14.88H54.23v6.67A2.22,2.22,0,0,0,56.58,24a2.38,2.38,0,0,0,2.35-1.38V24h1.12V19.82H58.93v.92A2,2,0,0,1,57,23a1.54,1.54,0,0,1-1.64-1.7V18.5Zm8.9-.92a2.15,2.15,0,0,0-2.07,1.19V17.62H66.17v3.63A1.78,1.78,0,0,1,64.47,23c-.93,0-1.38-.63-1.38-1.71V17.62H62v3.93c0,1.53.78,2.46,2.11,2.46a2.12,2.12,0,0,0,2.09-1.29V24h1.12V20.1A1.77,1.77,0,0,1,69,18.63c.94,0,1.38.63,1.38,1.72V24h1.12V20C71.46,18.52,70.68,17.58,69.36,17.58Zm10.28.92v-.87H74.52V14.88H73.41v6.67A2.21,2.21,0,0,0,75.76,24a2.36,2.36,0,0,0,2.34-1.38V24h1.13V19.82H78.1v.92A2,2,0,0,1,76.17,23a1.54,1.54,0,0,1-1.65-1.7V18.5Zm5.17-.92a2.44,2.44,0,0,0-2.4,1.36V17.62H81.28v8.89h1.13V20.57a2,2,0,0,1,2-1.93,1.57,1.57,0,0,1,1.7,1.71V24h1.12V20A2.24,2.24,0,0,0,84.81,17.58Zm10.57.92v-.87H90.27V14.88H89.15v6.67A2.22,2.22,0,0,0,91.5,24a2.38,2.38,0,0,0,2.35-1.38V24H95V19.82H93.85v.92A2,2,0,0,1,91.91,23a1.54,1.54,0,0,1-1.64-1.7V18.5Zm5.17-.92a2.45,2.45,0,0,0-2.4,1.36V17.62H97v8.89h1.13V20.57a2,2,0,0,1,2-1.93,1.57,1.57,0,0,1,1.7,1.71V24H103V20A2.25,2.25,0,0,0,100.55,17.58Zm8,0a2.45,2.45,0,0,0-2.4,1.36V14.88H105V26.51h1.13V20.57a2,2,0,0,1,2-1.93,1.57,1.57,0,0,1,1.7,1.71V24H111V20A2.25,2.25,0,0,0,108.55,17.58Zm-84,15H22.78V29.88H21.65v2.74h-1.9a3.06,3.06,0,0,0-3.17,3.25A3,3,0,0,0,19.8,39a2.72,2.72,0,0,0,3-2.91V33.62h1.79ZM21.65,36c0,1.13-.46,2.08-1.88,2.06a2,2,0,0,1-2.06-2.15,2.11,2.11,0,0,1,2.21-2.31h1.73Zm7.2-3.44a2.43,2.43,0,0,0-2.4,1.36V32.62H25.32V39h1.13v-3.4a2,2,0,0,1,2-1.93,1.56,1.56,0,0,1,1.69,1.71V39h1.13V35A2.24,2.24,0,0,0,28.85,32.58Zm10.4,8.06V35a2.24,2.24,0,0,0-2.4-2.46,2.43,2.43,0,0,0-2.4,1.36V32.62H33.32V39h1.13v-3.4a2,2,0,0,1,2-1.93,1.56,1.56,0,0,1,1.69,1.71v6.16h2.93v-.87Zm6.06-8.06a2.45,2.45,0,0,0-2.41,1.36V32.62H41.77V39H42.9v-3.4a2,2,0,0,1,2-1.93,1.57,1.57,0,0,1,1.69,1.71V39h1.13V35A2.24,2.24,0,0,0,45.31,32.58Zm10.16,8.06V29.88H54.34v5.86A2,2,0,0,1,52.41,38a1.54,1.54,0,0,1-1.65-1.7V32.62H49.64v3.93A2.22,2.22,0,0,0,52,39a2.36,2.36,0,0,0,2.34-1.38v3.88h2.93v-.87Z"/><path class="cls-7" d="M15.94,262.36H168.1"/><path class="cls-7" d="M124.9,115.79h37.75"/><rect class="cls-8" x="54.12" y="603.25" width="230.79" height="36.89" rx="8.15"/><path class="cls-2" d="M79.94,617.31H76.68V623a2.41,2.41,0,1,1-4.81,0v-5.66H70.72V623a3.56,3.56,0,0,0,7.11,0v-4.61h2.11ZM89,620.05v3.54a1.85,1.85,0,0,1-1.73,1.81c-.93,0-1.38-.64-1.38-1.72v-3.63H84.78v3.14c0,1.26-.65,2.17-1.75,2.21-.92,0-1.38-.64-1.38-1.72v-3.63H80.54V624c0,1.54.78,2.46,2.11,2.46a2.16,2.16,0,0,0,2.22-1.61,1.94,1.94,0,0,0,2,1.61A2.13,2.13,0,0,0,89,625.12v1.29h1.12v-6.36Zm6.86,0a2.44,2.44,0,0,0-2.4,1.35v-1.32H92.33v8.89h1.13V623a2,2,0,0,1,2-1.94,1.57,1.57,0,0,1,1.69,1.71v3.63h1.13v-3.93A2.24,2.24,0,0,0,95.86,620Zm11.49,7.13H101.7v-2a2.59,2.59,0,0,0,2.37,1.28,3,3,0,0,0,3-3.19,3,3,0,0,0-3-3.23,2.55,2.55,0,0,0-2.35,1.29v-1.26h-1.13v7.1h-.94V628h.94v.94h1.13V628h5.65ZM103.82,621a2.26,2.26,0,1,1-2.12,2.25A2.12,2.12,0,0,1,103.82,621Zm11.26,0v-.87H110v-2.75h-1.12V624a2.21,2.21,0,0,0,2.36,2.46,2.37,2.37,0,0,0,2.34-1.38v1.35h1.13v-4.16h-1.13v.92a2,2,0,0,1-1.94,2.21,1.54,1.54,0,0,1-1.64-1.7v-2.75Zm10,1.49h-1.21c0-1.62-1.43-2.44-3-2.44a3.6,3.6,0,0,0-3,1.42v-1.35h-1.13v8.89h1.13v-5.66a2.62,2.62,0,0,1,2.69-2.22c1.11,0,2,.43,2.21,1.36h-1.11c-1.41,0-2.32.72-2.32,2a2.31,2.31,0,0,0,4.6,0v-1.08h1.21Zm-2.34,2a1.06,1.06,0,0,1-1.18,1.17,1.18,1.18,0,0,1-1.31-1.15,1.11,1.11,0,0,1,1.18-1.12h1.31Zm6.74-4.36a2.45,2.45,0,0,0-2.4,1.35v-4.06H126v11.63h1.13V623a2,2,0,0,1,2-1.94,1.57,1.57,0,0,1,1.7,1.71v3.63h1.13v-3.93A2.24,2.24,0,0,0,129.53,620Zm9.27,0v3.12a2,2,0,0,1-1.93,2.21,1.54,1.54,0,0,1-1.65-1.7v-6.37h-2.93v.87h1.8V624a2.22,2.22,0,0,0,2.37,2.46,2.36,2.36,0,0,0,2.34-1.38v1.35h1.13v-6.36ZM150,625.54h-1.8v-5.49H147v1.25a2.58,2.58,0,0,0-2.39-1.3,3,3,0,0,0-3,3.21,3,3,0,0,0,3.07,3.26,2.56,2.56,0,0,0,2.36-1.3v3.77h1.13v-2.53H150Zm-5.08,0a2.26,2.26,0,1,1,2.15-2.25A2.12,2.12,0,0,1,144.88,625.5Zm9.57-5.48a2.44,2.44,0,0,0-2.4,1.35v-4.06h-1.13v11.63h1.13V623a2,2,0,0,1,2-1.94,1.56,1.56,0,0,1,1.69,1.71v3.63h1.13v-3.93A2.24,2.24,0,0,0,154.45,620Zm14.3,5.52h-5.1V623a2,2,0,0,1,2-1.94,1.56,1.56,0,0,1,1.69,1.71v1.38h1.13v-1.68a2.24,2.24,0,0,0-2.4-2.46,2.44,2.44,0,0,0-2.4,1.35v-1.32h-1.13v8.89h1.13v-2.53h5.1Zm10-5.49v3.54A1.86,1.86,0,0,1,177,625.4c-.94,0-1.39-.64-1.39-1.72v-3.63h-1.11v3.14c0,1.26-.65,2.17-1.74,2.21-.93,0-1.39-.64-1.39-1.72v-3.63h-1.11V624c0,1.54.78,2.46,2.11,2.46a2.16,2.16,0,0,0,2.22-1.61,1.94,1.94,0,0,0,2,1.61,2.14,2.14,0,0,0,2.12-1.32v1.29h1.11v-6.36Zm10.84,0h-1.79v-2.74h-1.13v2.74h-1.9a3.07,3.07,0,0,0-3.17,3.26,3,3,0,0,0,3.22,3.14,2.72,2.72,0,0,0,3-2.9v-2.5h1.79Zm-2.92,3.4c0,1.13-.46,2.08-1.87,2.07a2,2,0,0,1-2.07-2.15,2.12,2.12,0,0,1,2.21-2.32h1.73Zm7.2-3.43a2.44,2.44,0,0,0-2.4,1.35v-4.06h-1.13v11.63h1.13V623a2,2,0,0,1,2-1.94,1.56,1.56,0,0,1,1.69,1.71v3.63h1.13v-3.93A2.24,2.24,0,0,0,193.86,620Zm9.27,0v3.12a2,2,0,0,1-1.93,2.21,1.54,1.54,0,0,1-1.65-1.7v-6.37h-2.93v.87h1.8V624a2.22,2.22,0,0,0,2.37,2.46,2.36,2.36,0,0,0,2.34-1.38v1.35h1.13v-6.36Z"/><rect class="cls-9" x="54.12" y="550.2" width="230.79" height="36.89" rx="8.15"/><path class="cls-2" d="M74.26,565.93a2.94,2.94,0,0,0-2.4,1.17v-2.84H70.72v9.09h1.14v-2.48h0v-1.39A2.27,2.27,0,0,1,74.26,567a2.33,2.33,0,0,1,2.42,2.61v1.07h1.15v-1.07A3.33,3.33,0,0,0,74.26,565.93Zm9.09,1a2.45,2.45,0,0,0-2.4,1.35V567H79.82v8.89H81V570a2,2,0,0,1,2-1.94,1.57,1.57,0,0,1,1.7,1.71v3.62h1.13v-3.92A2.24,2.24,0,0,0,83.35,567Zm12.81,0v3.54a1.85,1.85,0,0,1-1.73,1.81c-.94,0-1.38-.64-1.38-1.72V567H91.93v3.14c0,1.26-.65,2.17-1.74,2.21-.93,0-1.38-.64-1.38-1.72V567H87.69v3.93c0,1.54.78,2.46,2.11,2.46A2.17,2.17,0,0,0,92,571.78a1.93,1.93,0,0,0,2,1.61,2.14,2.14,0,0,0,2.12-1.32v1.28h1.12V567Zm9,8V564.26h-1.13v5.86a2,2,0,0,1-1.94,2.22,1.54,1.54,0,0,1-1.64-1.71V567H99.35v3.93a2.21,2.21,0,0,0,2.35,2.46,2.38,2.38,0,0,0,2.35-1.38v3.88H107V575ZM116,567v3.54a1.85,1.85,0,0,1-1.73,1.81c-.94,0-1.38-.64-1.38-1.72V567H111.8v3.14c0,1.26-.65,2.17-1.74,2.21-.93,0-1.38-.64-1.38-1.72V567h-1.12v3.93c0,1.54.78,2.46,2.12,2.46a2.17,2.17,0,0,0,2.22-1.61,1.94,1.94,0,0,0,2,1.61,2.14,2.14,0,0,0,2.11-1.32v1.28h1.12V567Zm9.56,5.49h-5.11V570a2,2,0,0,1,2-1.94,1.57,1.57,0,0,1,1.7,1.71v1.38h1.13v-1.68a2.24,2.24,0,0,0-2.41-2.46,2.45,2.45,0,0,0-2.4,1.35V567h-1.13v8.89h1.13v-2.54h5.11Zm10-5.49v3.54a1.85,1.85,0,0,1-1.73,1.81c-.94,0-1.38-.64-1.38-1.72V567h-1.12v3.14c0,1.26-.65,2.17-1.74,2.21-.92,0-1.38-.64-1.38-1.72V567H127.1v3.93c0,1.54.78,2.46,2.12,2.46a2.16,2.16,0,0,0,2.22-1.61,1.94,1.94,0,0,0,2,1.61,2.14,2.14,0,0,0,2.11-1.32v1.28h1.12V567Zm8.12,0v3.12a2,2,0,0,1-1.93,2.22,1.54,1.54,0,0,1-1.64-1.71v-6.37h-2.94v.87H139v5.8a2.21,2.21,0,0,0,2.36,2.46,2.35,2.35,0,0,0,2.34-1.38v1.34h1.13V567Zm11.68,0v3.54a1.85,1.85,0,0,1-1.73,1.81c-.94,0-1.38-.64-1.38-1.72V567h-1.12v3.14c0,1.26-.65,2.17-1.74,2.21-.92,0-1.38-.64-1.38-1.72V567H146.9v3.93c0,1.54.78,2.46,2.12,2.46a2.16,2.16,0,0,0,2.22-1.61,1.94,1.94,0,0,0,2,1.61,2.14,2.14,0,0,0,2.11-1.32v1.28h1.12V567Zm7.89,0v3.12a2,2,0,0,1-1.94,2.22,1.54,1.54,0,0,1-1.64-1.71v-6.37h-1.12v6.67a2.21,2.21,0,0,0,2.36,2.46,2.36,2.36,0,0,0,2.34-1.38v3.88h1.13V567Zm11.68,0v3.54a1.86,1.86,0,0,1-1.73,1.81c-.94,0-1.39-.64-1.39-1.72V567h-1.11v3.14c0,1.26-.65,2.17-1.74,2.21-.93,0-1.38-.64-1.38-1.72V567h-1.12v3.93c0,1.54.78,2.46,2.11,2.46a2.16,2.16,0,0,0,2.22-1.61,1.94,1.94,0,0,0,2,1.61,2.15,2.15,0,0,0,2.12-1.32v1.28h1.11V567Zm8.12,0v3.12a2,2,0,0,1-1.93,2.22,1.55,1.55,0,0,1-1.65-1.71v-6.37h-2.93v.87h1.8v5.8a2.22,2.22,0,0,0,2.37,2.46,2.36,2.36,0,0,0,2.34-1.38v1.34h1.13V567Zm13.18,5.49h-5.11V570a2,2,0,0,1,2-1.94,1.56,1.56,0,0,1,1.69,1.71v1.38h1.13v-1.68a2.24,2.24,0,0,0-2.4-2.46,2.44,2.44,0,0,0-2.4,1.35V567H190v8.89h1.13v-2.54h5.11Zm10-5.49v3.54a1.85,1.85,0,0,1-1.73,1.81c-.94,0-1.38-.64-1.38-1.72V567H202v3.14c0,1.26-.65,2.17-1.74,2.21-.93,0-1.38-.64-1.38-1.72V567h-1.12v3.93c0,1.54.78,2.46,2.12,2.46a2.17,2.17,0,0,0,2.22-1.61,1.93,1.93,0,0,0,2,1.61,2.14,2.14,0,0,0,2.12-1.32v1.28h1.12V567Zm10.84,0h-1.79v-2.74h-1.13V567h-1.9a3.07,3.07,0,0,0-3.17,3.26,3,3,0,0,0,3.22,3.14,2.71,2.71,0,0,0,3-2.9V568h1.79Zm-2.92,3.4c0,1.13-.45,2.08-1.87,2.07a2,2,0,0,1-2.07-2.15,2.12,2.12,0,0,1,2.21-2.32h1.73Zm7.2-3.43a2.45,2.45,0,0,0-2.4,1.35v-4.06h-1.13v11.63h1.13V570a2,2,0,0,1,2-1.94,1.57,1.57,0,0,1,1.7,1.71v3.62h1.13v-3.92A2.24,2.24,0,0,0,221.34,567Zm9.27,0v3.12a2,2,0,0,1-1.93,2.22,1.55,1.55,0,0,1-1.65-1.71v-6.37H224.1v.87h1.8v5.8a2.22,2.22,0,0,0,2.37,2.46,2.36,2.36,0,0,0,2.34-1.38v1.34h1.13V567Z"/><rect class="cls-10" x="54.12" y="466.26" width="230.79" height="67.78" rx="8.15"/><path class="cls-2" d="M79.42,489.4,77.7,488a4.83,4.83,0,0,0,.13-1.11v-5.66H76.68v5.66a2.41,2.41,0,1,1-4.81,0v-5.66H70.72v5.66a3.27,3.27,0,0,0,3.57,3.52,3.34,3.34,0,0,0,3-1.42l1.5,1.28Zm5.68-5.48v3.13a2,2,0,0,1-1.93,2.21,1.55,1.55,0,0,1-1.65-1.71v-6.37H80.41v6.67a2.21,2.21,0,0,0,2.35,2.46,2.36,2.36,0,0,0,2.34-1.38v3.88h1.13v-8.89Zm10.6,0a2.15,2.15,0,0,0-2.07,1.19v-1.16H92.52v3.63a1.81,1.81,0,0,1-1.71,1.72c-.92,0-1.38-.64-1.38-1.72v-3.63H88.31v3.93c0,1.54.78,2.46,2.12,2.46A2.14,2.14,0,0,0,92.52,489v1.25h1.11v-3.87a1.77,1.77,0,0,1,1.67-1.48c.94,0,1.38.64,1.38,1.72v3.63H97.8v-3.93C97.8,484.82,97,483.89,95.7,483.89Zm7.71,0a2.44,2.44,0,0,0-2.4,1.35v-4.06H99.88v11.63H101v-5.93a2,2,0,0,1,2-1.94,1.56,1.56,0,0,1,1.69,1.71v3.63h1.13v-3.93A2.24,2.24,0,0,0,103.41,483.89ZM113.57,492V481.18h-1.13v5.87a2,2,0,0,1-1.93,2.21,1.55,1.55,0,0,1-1.65-1.71v-3.63h-1.11v3.93a2.21,2.21,0,0,0,2.35,2.46,2.35,2.35,0,0,0,2.34-1.38v3.88h2.94V492Zm7.13-8v3.13a2,2,0,0,1-1.93,2.21,1.55,1.55,0,0,1-1.65-1.71v-6.37h-2.93v.87H116v5.8a2.21,2.21,0,0,0,2.36,2.46,2.36,2.36,0,0,0,2.34-1.38v1.35h1.13v-6.36Zm9.45.88v-.87H125v-2.75h-1.12v6.67a2.21,2.21,0,0,0,2.36,2.46,2.36,2.36,0,0,0,2.34-1.38v1.35h1.13v-4.16h-1.13v.93a2,2,0,0,1-1.93,2.21,1.55,1.55,0,0,1-1.65-1.71V484.8Zm5.17-.91a2.46,2.46,0,0,0-2.41,1.35v-1.32h-1.12v8.89h1.12v-5.93a2,2,0,0,1,2-1.94,1.57,1.57,0,0,1,1.69,1.71v3.63h1.13v-3.93A2.24,2.24,0,0,0,135.32,483.89Zm8,0a2.46,2.46,0,0,0-2.41,1.35v-4.06h-1.12v11.63h1.12v-5.93a2,2,0,0,1,2-1.94,1.57,1.57,0,0,1,1.69,1.71v3.63h1.13v-3.93A2.24,2.24,0,0,0,143.32,483.89Zm12.63,0v3.13a2,2,0,0,1-1.93,2.21,1.55,1.55,0,0,1-1.65-1.71v-6.37h-1.12v6.67a2.21,2.21,0,0,0,2.36,2.46,2.36,2.36,0,0,0,2.34-1.38v3.88h1.13v-8.89Zm11.68,0v3.55a1.85,1.85,0,0,1-1.73,1.8c-.94,0-1.38-.64-1.38-1.72v-3.63H163.4v3.14c0,1.26-.65,2.17-1.74,2.21-.93,0-1.38-.64-1.38-1.72v-3.63h-1.12v3.93c0,1.54.78,2.46,2.11,2.46a2.17,2.17,0,0,0,2.23-1.61,1.93,1.93,0,0,0,2,1.61,2.14,2.14,0,0,0,2.12-1.32v1.29h1.11v-6.36Zm7.59,5.49a4,4,0,0,0,1.66-3.06,2.24,2.24,0,0,0-2.4-2.46,2.45,2.45,0,0,0-2.4,1.35v-1.32H171v6.36h1.13v-3.4a2,2,0,0,1,2-1.94,1.57,1.57,0,0,1,1.7,1.71c0,1.28-.86,1.9-1.66,2.76h0v.87h3v-.87Zm11.93-5.49v3.55a1.86,1.86,0,0,1-1.73,1.8c-.94,0-1.38-.64-1.38-1.72v-3.63h-1.12v3.14c0,1.26-.65,2.17-1.74,2.21-.93,0-1.38-.64-1.38-1.72v-3.63h-1.12v3.93c0,1.54.78,2.46,2.11,2.46A2.16,2.16,0,0,0,183,488.7a1.94,1.94,0,0,0,2,1.61,2.14,2.14,0,0,0,2.12-1.32v1.29h1.11v-6.36Zm9,8V481.18H195v5.87a2,2,0,0,1-1.93,2.21,1.54,1.54,0,0,1-1.64-1.71v-3.63h-1.12v3.93a2.21,2.21,0,0,0,2.35,2.46,2.35,2.35,0,0,0,2.34-1.38v3.88H198V492Zm10.86-8v3.55a1.86,1.86,0,0,1-1.73,1.8c-.94,0-1.38-.64-1.38-1.72v-3.63h-1.12v3.14c0,1.26-.65,2.17-1.74,2.21-.93,0-1.38-.64-1.38-1.72v-3.63h-1.12v3.93c0,1.54.78,2.46,2.11,2.46a2.16,2.16,0,0,0,2.22-1.61,1.94,1.94,0,0,0,2,1.61A2.14,2.14,0,0,0,207,489v1.29h1.11v-6.36Zm6.85,0a2.45,2.45,0,0,0-2.4,1.35v-1.32h-1.13v8.89h1.13v-5.93a2,2,0,0,1,2-1.94,1.57,1.57,0,0,1,1.7,1.71v3.63h1.12v-3.93A2.24,2.24,0,0,0,213.87,483.89Zm12-2.71H222.9v5.87a2,2,0,0,1-1.93,2.21,1.54,1.54,0,0,1-1.65-1.71v-3.63h-1.11v3.93a2.21,2.21,0,0,0,2.35,2.46,2.35,2.35,0,0,0,2.34-1.38v1.35H224v-8.23h1.82Zm8.73,2.74v3.55a1.85,1.85,0,0,1-1.73,1.8c-.94,0-1.38-.64-1.38-1.72v-3.63h-1.12v3.14c0,1.26-.65,2.17-1.74,2.21-.92,0-1.38-.64-1.38-1.72v-3.63H226.1v3.93c0,1.54.78,2.46,2.12,2.46a2.16,2.16,0,0,0,2.22-1.61,1.94,1.94,0,0,0,2,1.61,2.14,2.14,0,0,0,2.11-1.32v1.29h1.12v-6.36Zm8.12,0v3.13a2,2,0,0,1-1.93,2.21,1.55,1.55,0,0,1-1.65-1.71v-6.37h-2.93v.87H238v5.8a2.21,2.21,0,0,0,2.36,2.46,2.35,2.35,0,0,0,2.34-1.38v1.35h1.13v-6.36ZM76.41,504.41v-5.48H75.28v3.12a2,2,0,0,1-1.93,2.21,1.54,1.54,0,0,1-1.64-1.71v-6.37H70.59v6.67a2.21,2.21,0,0,0,2.35,2.46,2.35,2.35,0,0,0,2.34-1.38v1.35h2.94v-.87Zm15.42-5.49v3.55a1.85,1.85,0,0,1-1.73,1.8c-.94,0-1.38-.64-1.38-1.72v-3.63H87.6v3.14c0,1.26-.65,2.17-1.74,2.21-.92,0-1.38-.64-1.38-1.72v-3.63H83.36v3.93c0,1.54.78,2.46,2.12,2.46a2.17,2.17,0,0,0,2.22-1.61,1.94,1.94,0,0,0,2,1.61A2.14,2.14,0,0,0,91.83,504v1.29H93v-6.36Zm6.85,0a2.45,2.45,0,0,0-2.4,1.35v-1.32H95.15v8.89h1.13v-5.93a2,2,0,0,1,2-1.94,1.57,1.57,0,0,1,1.7,1.71v3.63h1.13v-3.93A2.24,2.24,0,0,0,98.68,498.89Zm12,0h-1.79v-2.74h-1.13v2.74h-1.89a3.07,3.07,0,0,0-3.18,3.26,3,3,0,0,0,3.22,3.14,2.71,2.71,0,0,0,3-2.9v-2.5h1.79Zm-2.92,3.4c0,1.13-.45,2.08-1.87,2.07a2,2,0,0,1-2.07-2.15,2.13,2.13,0,0,1,2.21-2.32h1.73Zm9.78-2.52v-.87h-5.12v-2.75h-1.12v6.67a2.21,2.21,0,0,0,2.35,2.46,2.37,2.37,0,0,0,2.35-1.38v1.35h1.13v-4.16H116v.93a2,2,0,0,1-1.94,2.21,1.54,1.54,0,0,1-1.64-1.71V499.8Zm10,1.49h-1.21c0-1.62-1.43-2.44-3-2.44a3.6,3.6,0,0,0-3,1.42v-1.35h-1.13v8.89h1.13v-5.66a2.62,2.62,0,0,1,2.69-2.22c1.11,0,2,.43,2.21,1.36h-1.11c-1.41,0-2.32.72-2.32,2a2.31,2.31,0,0,0,4.6,0v-1.08h1.21Zm-2.34,2a1.06,1.06,0,0,1-1.18,1.17,1.18,1.18,0,0,1-1.31-1.15,1.11,1.11,0,0,1,1.18-1.12h1.31Zm9.15,3.7v-5.6a2.24,2.24,0,0,0-2.41-2.46,2.45,2.45,0,0,0-2.4,1.35v-1.32h-1.13v6.36h1.13v-3.4a2,2,0,0,1,2-1.94,1.57,1.57,0,0,1,1.7,1.71v6.16h2.93V507Zm11.29-5.66h-1.21c0-1.62-1.43-2.44-3.05-2.44a3.6,3.6,0,0,0-3,1.42v-1.35h-1.13v8.89h1.13v-5.66a2.62,2.62,0,0,1,2.69-2.22c1.11,0,2,.43,2.21,1.36h-1.11c-1.41,0-2.32.72-2.32,2a2.31,2.31,0,0,0,4.6,0v-1.08h1.21Zm-2.34,2a1.06,1.06,0,0,1-1.18,1.17,1.18,1.18,0,0,1-1.31-1.15,1.11,1.11,0,0,1,1.18-1.12h1.31Zm9.31-3.45v-.87h-5.11v-2.75h-1.12v6.67a2.21,2.21,0,0,0,2.35,2.46,2.38,2.38,0,0,0,2.35-1.38v1.35h1.13v-4.16h-1.13v.93a2,2,0,0,1-1.94,2.21,1.54,1.54,0,0,1-1.64-1.71V499.8Zm5.18-.91a2.46,2.46,0,0,0-2.41,1.35v-1.32h-1.13v8.89h1.13v-5.93a2,2,0,0,1,2-1.94,1.57,1.57,0,0,1,1.69,1.71v3.63h1.13v-3.93A2.24,2.24,0,0,0,157.82,498.89Zm8,0a2.46,2.46,0,0,0-2.41,1.35v-1.32h-1.13v6.36h1.13v-3.4a2,2,0,0,1,2-1.94,1.57,1.57,0,0,1,1.7,1.71v3.63h1.13v-3.93A2.24,2.24,0,0,0,165.82,498.89ZM176,507V496.18h-1.13v5.87a2,2,0,0,1-1.94,2.21,1.54,1.54,0,0,1-1.64-1.71v-3.63h-1.12v3.93a2.21,2.21,0,0,0,2.36,2.46,2.37,2.37,0,0,0,2.34-1.38v3.88h2.93V507ZM78.54,519.41h-1.8v-5.49H75.61v1.25a2.6,2.6,0,0,0-2.39-1.3,3.24,3.24,0,0,0,0,6.47,2.57,2.57,0,0,0,2.37-1.3v3.77h1.13v-2.53h1.8Zm-5.08,0a2.27,2.27,0,1,1,2.15-2.26A2.13,2.13,0,0,1,73.46,519.38ZM83,513.89a2.46,2.46,0,0,0-2.41,1.35v-1.32H79.49v6.36h1.13v-3.4a2,2,0,0,1,2-1.94,1.57,1.57,0,0,1,1.69,1.71v3.63h1.13v-3.93A2.24,2.24,0,0,0,83,513.89Zm8,0a2.46,2.46,0,0,0-2.41,1.35v-1.32H87.49v8.89h1.13v-5.93a2,2,0,0,1,2-1.94,1.57,1.57,0,0,1,1.7,1.71v3.63h1.13v-3.93A2.24,2.24,0,0,0,91,513.89Zm11,0H99.46a4.1,4.1,0,0,1-1.7-2,1,1,0,0,1,.32-.91H97a1.17,1.17,0,0,0-.3,1.07,3.22,3.22,0,0,0,1.27,1.87,3.16,3.16,0,0,0-2.88,3.19,3.1,3.1,0,0,0,3.29,3.19,3,3,0,0,0,3.34-2.94,3.43,3.43,0,0,0-1.21-2.58H102Zm-1.45,3.41a2,2,0,0,1-2.17,2,2.15,2.15,0,0,1-2.2-2.24,2.32,2.32,0,0,1,2.15-2.33H99A3.29,3.29,0,0,1,100.55,517.33Zm11-3.41v3.55a1.86,1.86,0,0,1-1.73,1.8c-.94,0-1.38-.64-1.38-1.72v-3.63h-1.12v3.14c0,1.26-.65,2.17-1.74,2.21-.93,0-1.39-.64-1.39-1.72v-3.63h-1.11v3.93c0,1.54.78,2.46,2.11,2.46a2.16,2.16,0,0,0,2.22-1.61,1.94,1.94,0,0,0,2,1.61,2.15,2.15,0,0,0,2.12-1.32v1.29h1.11v-6.36Zm7.58,5.49a4,4,0,0,0,1.67-3.06,2.24,2.24,0,0,0-2.4-2.46,2.44,2.44,0,0,0-2.4,1.35v-1.32h-1.13v6.36H116v-3.4a2,2,0,0,1,2-1.94,1.56,1.56,0,0,1,1.69,1.71c0,1.28-.85,1.9-1.65,2.76h0v.87h3v-.87Zm8.21-5.49V517a2,2,0,0,1-1.93,2.22,1.55,1.55,0,0,1-1.65-1.71v-6.37h-2.93v.87h1.8v5.8a2.22,2.22,0,0,0,2.37,2.46,2.36,2.36,0,0,0,2.34-1.38v1.35h1.13v-6.36Zm6.87,0a2.45,2.45,0,0,0-2.4,1.35v-1.32h-1.13v6.36h1.13v-3.4a2,2,0,0,1,2-1.94,1.57,1.57,0,0,1,1.7,1.71v3.63h1.12v-3.93A2.24,2.24,0,0,0,134.2,513.89Zm4.82,5.52v-5.49h-1.13v6.36h2.93v-.87Zm11.89-3.12H149.7c0-1.62-1.43-2.44-3-2.44a3.58,3.58,0,0,0-3,1.42v-1.35h-1.13v8.89h1.13v-5.66a2.61,2.61,0,0,1,2.69-2.22c1.1,0,2,.43,2.21,1.36h-1.12c-1.41,0-2.32.72-2.32,2a2.31,2.31,0,0,0,4.6,0v-1.08h1.21Zm-2.34,2a1.05,1.05,0,0,1-1.17,1.17,1.17,1.17,0,0,1-1.31-1.15,1.1,1.1,0,0,1,1.17-1.12h1.31Zm2.82,3.83c1.91-.77.31-2.74.31-4.81v-3.35h1.13v3.49c0,1.92,2.08,4.85-1.44,5.49Zm7.45-8.19a2.46,2.46,0,0,0-2.41,1.35v-1.32H155.3v6.36h1.13v-3.4a2,2,0,0,1,2-1.94,1.57,1.57,0,0,1,1.7,1.71v3.63h1.13v-3.93A2.24,2.24,0,0,0,158.84,513.89Zm4.81,5.52v-5.49h-1.13v6.36h2.93v-.87Zm8.1-5.49V517a2,2,0,0,1-1.93,2.22,1.55,1.55,0,0,1-1.65-1.71v-6.37h-2.93v.87H167v5.8a2.22,2.22,0,0,0,2.37,2.46,2.36,2.36,0,0,0,2.34-1.38v1.35h1.13v-6.36Zm8.14,0V517a2,2,0,0,1-1.93,2.22,1.55,1.55,0,0,1-1.65-1.71v-6.37h-2.93v.87h1.8v5.8a2.22,2.22,0,0,0,2.37,2.46,2.36,2.36,0,0,0,2.34-1.38v1.35H181v-6.36Zm9.45.88v-.87h-5.12v-2.75H183.1v6.67a2.21,2.21,0,0,0,2.36,2.46,2.36,2.36,0,0,0,2.34-1.38v1.35h1.13v-4.16H187.8V517a2,2,0,0,1-1.94,2.22,1.54,1.54,0,0,1-1.64-1.71V514.8Zm5.17-.91a2.46,2.46,0,0,0-2.41,1.35v-1.32H191v8.89h1.13v-5.93a2,2,0,0,1,2-1.94,1.57,1.57,0,0,1,1.69,1.71v3.63h1.13v-3.93A2.24,2.24,0,0,0,194.51,513.89Zm8,0a2.46,2.46,0,0,0-2.41,1.35v-4.06H199v11.63h1.13v-5.93a2,2,0,0,1,2-1.94,1.57,1.57,0,0,1,1.69,1.71v3.63h1.13v-3.93A2.24,2.24,0,0,0,202.51,513.89Zm14.3,5.52H211.7v-2.53a2,2,0,0,1,2-1.94,1.57,1.57,0,0,1,1.69,1.71V518h1.13v-1.68a2.24,2.24,0,0,0-2.4-2.46,2.46,2.46,0,0,0-2.41,1.35v-1.32h-1.13v8.89h1.13v-2.53h5.11Zm10-5.49v3.55a1.85,1.85,0,0,1-1.73,1.8c-.93,0-1.38-.64-1.38-1.72v-3.63h-1.11v3.14c0,1.26-.65,2.17-1.75,2.21-.92,0-1.38-.64-1.38-1.72v-3.63h-1.12v3.93c0,1.54.79,2.46,2.12,2.46a2.16,2.16,0,0,0,2.22-1.61,1.94,1.94,0,0,0,2,1.61,2.13,2.13,0,0,0,2.11-1.32v1.29h1.12v-6.36Zm10.85,0h-1.79v-2.74h-1.13v2.74h-1.9a3.06,3.06,0,0,0-3.17,3.26,3,3,0,0,0,3.22,3.14,2.72,2.72,0,0,0,3-2.9v-2.5h1.79Zm-2.92,3.4c0,1.13-.46,2.08-1.88,2.07a2,2,0,0,1-2.06-2.15,2.12,2.12,0,0,1,2.21-2.32h1.73Zm7.2-3.43a2.46,2.46,0,0,0-2.41,1.35v-4.06h-1.12v11.63h1.12v-5.93a2,2,0,0,1,2-1.94,1.57,1.57,0,0,1,1.69,1.71v3.63h1.13v-3.93A2.24,2.24,0,0,0,241.92,513.89Zm9.27,0V517a2,2,0,0,1-1.94,2.22,1.54,1.54,0,0,1-1.64-1.71v-6.37h-2.93v.87h1.8v5.8a2.22,2.22,0,0,0,2.36,2.46,2.38,2.38,0,0,0,2.35-1.38v1.35h1.13v-6.36Z"/><rect class="cls-11" x="54.12" y="413.21" width="230.79" height="36.89" rx="8.15"/><path class="cls-2" d="M79.94,432.64H77.83v-1.93a3.56,3.56,0,0,0-7.11,0v5.66h1.15v-5.66a2.41,2.41,0,1,1,4.81,0v5.66h1.15v-2.68h2.11ZM87,430.89V430H81.89v-2.75H80.77v6.67a2.21,2.21,0,0,0,2.35,2.46A2.38,2.38,0,0,0,85.47,435v1.35H86.6v-4.16H85.47v.93a2,2,0,0,1-1.94,2.21,1.54,1.54,0,0,1-1.64-1.71v-2.75Zm7.75,0V430H89.63v-2.75H88.51v6.67a2.21,2.21,0,0,0,2.36,2.46A2.36,2.36,0,0,0,93.21,435v1.35h1.13v-4.16H93.21v.93a2,2,0,0,1-1.94,2.21,1.54,1.54,0,0,1-1.64-1.71v-2.75ZM101,430v3.13A2,2,0,0,1,99,435.35a1.55,1.55,0,0,1-1.65-1.71V430H96.25v3.93a2.21,2.21,0,0,0,2.36,2.46A2.36,2.36,0,0,0,101,435v1.35h1.13V430Zm10.6,0a2.15,2.15,0,0,0-2.07,1.19V430h-1.12v3.63a1.79,1.79,0,0,1-1.7,1.72c-.93,0-1.38-.64-1.38-1.72V430h-1.12v3.93c0,1.54.78,2.46,2.11,2.46a2.13,2.13,0,0,0,2.09-1.28v1.25h1.12V432.5a1.79,1.79,0,0,1,1.67-1.48c.94,0,1.38.64,1.38,1.72v3.63h1.12v-3.93C113.65,430.91,112.87,430,111.55,430Zm7.71,0a2.44,2.44,0,0,0-2.4,1.35V430h-1.13v8.89h1.13V433a2,2,0,0,1,2-1.94,1.56,1.56,0,0,1,1.69,1.71v3.63h1.13v-3.93A2.24,2.24,0,0,0,119.26,430Zm12.8,0v3.55a1.85,1.85,0,0,1-1.73,1.8c-.93,0-1.38-.64-1.38-1.72V430h-1.12v3.14c0,1.26-.64,2.17-1.74,2.21-.92,0-1.38-.64-1.38-1.72V430H123.6v3.93c0,1.54.78,2.46,2.11,2.46a2.16,2.16,0,0,0,2.22-1.61,1.93,1.93,0,0,0,2,1.61,2.13,2.13,0,0,0,2.11-1.32v1.29h1.12V430Zm9,8V427.27H140v5.87a2,2,0,0,1-1.93,2.21,1.55,1.55,0,0,1-1.65-1.71V430h-1.11v3.93a2.21,2.21,0,0,0,2.35,2.46A2.36,2.36,0,0,0,140,435v3.88h2.93V438Zm10.85-8v3.55a1.85,1.85,0,0,1-1.73,1.8c-.93,0-1.38-.64-1.38-1.72V430h-1.11v3.14c0,1.26-.65,2.17-1.75,2.21-.92,0-1.38-.64-1.38-1.72V430h-1.11v3.93c0,1.54.78,2.46,2.11,2.46a2.16,2.16,0,0,0,2.22-1.61,1.93,1.93,0,0,0,2,1.61,2.13,2.13,0,0,0,2.11-1.32v1.29h1.12V430Zm6.86,0a2.44,2.44,0,0,0-2.4,1.35V430h-1.13v8.89h1.13V433a2,2,0,0,1,2-1.94,1.56,1.56,0,0,1,1.69,1.71v3.63h1.13v-3.93A2.24,2.24,0,0,0,158.79,430Zm12-2.71h-2.93v5.87a2,2,0,0,1-1.93,2.21,1.54,1.54,0,0,1-1.65-1.71V430h-1.12v3.93a2.21,2.21,0,0,0,2.36,2.46,2.35,2.35,0,0,0,2.34-1.38v1.35h1.12v-8.23h1.81Zm8.74,2.74v3.55a1.86,1.86,0,0,1-1.73,1.8c-.94,0-1.38-.64-1.38-1.72V430h-1.12v3.14c0,1.26-.65,2.17-1.74,2.21-.93,0-1.38-.64-1.38-1.72V430H171v3.93c0,1.54.78,2.46,2.11,2.46a2.16,2.16,0,0,0,2.22-1.61,1.94,1.94,0,0,0,2,1.61,2.14,2.14,0,0,0,2.12-1.32v1.29h1.11V430Zm8.12,0v3.13a2,2,0,0,1-1.93,2.21,1.55,1.55,0,0,1-1.65-1.71v-6.37H181.1v.87h1.8v5.8a2.22,2.22,0,0,0,2.37,2.46,2.36,2.36,0,0,0,2.34-1.38v1.35h1.13V430Zm13.18,5.49h-5.11V433a2,2,0,0,1,2-1.94,1.57,1.57,0,0,1,1.7,1.71v1.38h1.13v-1.68a2.24,2.24,0,0,0-2.41-2.46,2.45,2.45,0,0,0-2.4,1.35V430h-1.13v8.89h1.13v-2.53h5.11Zm10-5.49v3.55a1.85,1.85,0,0,1-1.73,1.8c-.94,0-1.38-.64-1.38-1.72V430h-1.12v3.14c0,1.26-.65,2.17-1.74,2.21-.92,0-1.38-.64-1.38-1.72V430H202.3v3.93c0,1.54.78,2.46,2.12,2.46a2.16,2.16,0,0,0,2.22-1.61,1.93,1.93,0,0,0,2,1.61,2.14,2.14,0,0,0,2.11-1.32v1.29h1.12V430Zm10.84,0h-1.79v-2.74h-1.13V430H216.8a3.06,3.06,0,0,0-3.17,3.26,3,3,0,0,0,3.22,3.15,2.72,2.72,0,0,0,3-2.91V431h1.79Zm-2.92,3.4c0,1.13-.45,2.08-1.87,2.07a2,2,0,0,1-2.06-2.15A2.12,2.12,0,0,1,217,431h1.73ZM225.9,430a2.46,2.46,0,0,0-2.41,1.35v-4.06h-1.13V438.9h1.13V433a2,2,0,0,1,2-1.94,1.57,1.57,0,0,1,1.7,1.71v3.63h1.13v-3.93A2.24,2.24,0,0,0,225.9,430Zm9.26,0v3.13a2,2,0,0,1-1.93,2.21,1.55,1.55,0,0,1-1.65-1.71v-6.37h-2.93v.87h1.81v5.8a2.21,2.21,0,0,0,2.36,2.46,2.36,2.36,0,0,0,2.34-1.38v1.35h1.13V430Z"/><rect class="cls-12" x="54.12" y="360.16" width="230.79" height="36.89" rx="8.15"/><path class="cls-2" d="M76.17,376.22v1.93a2.16,2.16,0,0,1-2.3,2.27c-1.55,0-2.24-1-2.24-2.6v-3.6H70.48v3.6c0,2.18,1.09,3.65,3.39,3.65a2.79,2.79,0,0,0,2.3-1.14v3h1.16v-7.11Zm11.7.74v3.55a1.86,1.86,0,0,1-1.73,1.8c-.94,0-1.39-.64-1.39-1.72V377H83.64v3.14c0,1.26-.65,2.17-1.74,2.21-.93,0-1.39-.64-1.39-1.72V377H79.4v3.93c0,1.54.78,2.46,2.11,2.46a2.16,2.16,0,0,0,2.22-1.61,1.94,1.94,0,0,0,2,1.61A2.15,2.15,0,0,0,87.87,382v1.29H89V377Zm11.65,0v3.55a1.84,1.84,0,0,1-1.72,1.8c-.94,0-1.39-.64-1.39-1.72V377H95.3v3.14c0,1.26-.65,2.17-1.74,2.21-.93,0-1.39-.64-1.39-1.72V377H91.06v3.93c0,1.54.78,2.46,2.11,2.46a2.16,2.16,0,0,0,2.22-1.61,1.94,1.94,0,0,0,2,1.61A2.13,2.13,0,0,0,99.52,382v3.82h1.12V377Zm6.86,0a2.44,2.44,0,0,0-2.4,1.35v-4.06h-1.13v11.63H104v-5.93a2,2,0,0,1,2-1.94,1.56,1.56,0,0,1,1.69,1.71v3.63h1.13v-3.93A2.24,2.24,0,0,0,106.38,376.93Zm11.72,0a2.14,2.14,0,0,0-2.06,1.18V377h-1.12v3.63a1.8,1.8,0,0,1-1.71,1.72c-.92,0-1.38-.64-1.38-1.72V377h-1.11v3.93c0,1.54.78,2.46,2.11,2.46a2.14,2.14,0,0,0,2.09-1.28v1.25H116v-3.87a1.75,1.75,0,0,1,1.67-1.48c.93,0,1.38.64,1.38,1.72v3.63h1.12v-3.93C120.21,377.86,119.42,376.93,118.1,376.93Zm12.52,0v3.55a1.85,1.85,0,0,1-1.73,1.8c-.94,0-1.38-.64-1.38-1.72V377h-1.12v3.14c0,1.26-.65,2.17-1.74,2.21-.92,0-1.38-.64-1.38-1.72V377h-1.12v3.93c0,1.54.78,2.46,2.12,2.46a2.17,2.17,0,0,0,2.22-1.61,1.94,1.94,0,0,0,2,1.61,2.14,2.14,0,0,0,2.11-1.32v1.29h1.12V377Zm4.45,8v-8h-1.13v8.89h2.94V385Zm11.25,0v.87h-3.27c-1.26,0-2.3-.41-2.29-1.89s1.57-2,2.82-2.59c.71-.34,1.67-.71,1.66-1.86a1.52,1.52,0,0,0-1.67-1.59,1.47,1.47,0,0,0-1.66,1.42h-1.12a2.46,2.46,0,0,1,2.78-2.39,2.57,2.57,0,0,1,2.8,2.52,3,3,0,0,1-2.2,2.84c-1.14.56-2.28,1-2.29,1.75,0,.49.33.92,1.2.92Zm5.22-8a2.44,2.44,0,0,0-2.4,1.35V377H148v6.36h1.13v-3.4a2,2,0,0,1,2-1.94,1.56,1.56,0,0,1,1.69,1.71v3.63h1.13v-3.93A2.24,2.24,0,0,0,151.54,376.93Zm4.82,5.52V377h-1.13v6.36h2.93v-.87ZM164.6,377v3.12a2,2,0,0,1-1.94,2.22,1.54,1.54,0,0,1-1.64-1.71v-6.37H159.9v6.67a2.21,2.21,0,0,0,2.35,2.46A2.38,2.38,0,0,0,164.6,382v3.88h1.13V377Zm11.67,0v3.55a1.85,1.85,0,0,1-1.73,1.8c-.93,0-1.38-.64-1.38-1.72V377H172v3.14c0,1.26-.64,2.17-1.74,2.21-.92,0-1.38-.64-1.38-1.72V377H167.8v3.93c0,1.54.79,2.46,2.12,2.46a2.16,2.16,0,0,0,2.22-1.61,1.94,1.94,0,0,0,2,1.61,2.13,2.13,0,0,0,2.11-1.32v1.29h1.12V377Zm8.13,0v3.12a2,2,0,0,1-1.94,2.22,1.54,1.54,0,0,1-1.64-1.71v-6.37h-2.93v.87h1.8v5.8a2.22,2.22,0,0,0,2.36,2.46A2.38,2.38,0,0,0,184.4,382v1.35h1.13V377Zm9.44.88V377h-5.12v-2.75H187.6v6.67a2.21,2.21,0,0,0,2.36,2.46A2.36,2.36,0,0,0,192.3,382v1.35h1.13v-4.16H192.3v.92a2,2,0,0,1-1.93,2.22,1.55,1.55,0,0,1-1.65-1.71v-2.75Zm5.17-.91a2.44,2.44,0,0,0-2.4,1.35V377h-1.13v8.89h1.13v-5.93a2,2,0,0,1,2-1.94,1.56,1.56,0,0,1,1.69,1.71v3.63h1.13v-3.93A2.24,2.24,0,0,0,199,376.93Zm8,0a2.44,2.44,0,0,0-2.4,1.35v-4.06h-1.13v11.63h1.13v-5.93a2,2,0,0,1,2-1.94,1.56,1.56,0,0,1,1.69,1.71v3.63h1.13v-3.93A2.24,2.24,0,0,0,207,376.93Zm14.3,5.52h-5.1v-2.53a2,2,0,0,1,2-1.94,1.56,1.56,0,0,1,1.69,1.71v1.38H221v-1.68a2.24,2.24,0,0,0-2.4-2.46,2.44,2.44,0,0,0-2.4,1.35V377h-1.13v8.89h1.13v-2.53h5.1Zm10-5.49v3.55a1.86,1.86,0,0,1-1.73,1.8c-.94,0-1.38-.64-1.38-1.72V377h-1.12v3.14c0,1.26-.65,2.17-1.74,2.21-.93,0-1.38-.64-1.38-1.72V377h-1.12v3.93c0,1.54.78,2.46,2.11,2.46a2.18,2.18,0,0,0,2.23-1.61,1.93,1.93,0,0,0,2,1.61A2.14,2.14,0,0,0,231.3,382v1.29h1.11V377Zm10.84,0h-1.79v-2.74h-1.13V377h-1.9a3.07,3.07,0,0,0-3.17,3.26,3,3,0,0,0,3.22,3.14,2.72,2.72,0,0,0,3-2.9V378h1.79Zm-2.92,3.4c0,1.13-.46,2.08-1.87,2.07a2,2,0,0,1-2.07-2.15,2.12,2.12,0,0,1,2.21-2.32h1.73Zm7.2-3.43a2.44,2.44,0,0,0-2.4,1.35v-4.06h-1.13v11.63H244v-5.93a2,2,0,0,1,2-1.94,1.57,1.57,0,0,1,1.7,1.71v3.63h1.12v-3.93A2.24,2.24,0,0,0,246.42,376.93Zm9.27,0v3.12a2,2,0,0,1-1.93,2.22,1.55,1.55,0,0,1-1.65-1.71v-6.37h-2.93v.87H251v5.8a2.22,2.22,0,0,0,2.37,2.46,2.36,2.36,0,0,0,2.34-1.38v1.35h1.13V377Z"/><rect class="cls-13" x="54.12" y="293.39" width="230.79" height="50.62" rx="8.15"/><path class="cls-2" d="M75.48,311.17A1.82,1.82,0,0,0,77,309.42c0-1.53-.87-2.38-3.45-2.4H70.68v1h2.86c1.58,0,2.27.53,2.27,1.29,0,1.2-1.39,1.37-2.4,1.37H71v1h2.43c1.76,0,2.64.66,2.64,1.76h0v2.57h1.15v-2.47A2.29,2.29,0,0,0,75.48,311.17Zm9.68-.54v-.86H80.05V307H78.93v6.66a2.22,2.22,0,0,0,2.35,2.47,2.38,2.38,0,0,0,2.34-1.38v1.34h1.13V312H83.62v.93a2,2,0,0,1-1.93,2.21,1.54,1.54,0,0,1-1.64-1.71v-2.75Zm8.9-.91A2.15,2.15,0,0,0,92,310.91v-1.15H90.87v3.62a1.78,1.78,0,0,1-1.7,1.72c-.93,0-1.38-.64-1.38-1.72v-3.62H86.67v3.92c0,1.54.78,2.47,2.11,2.47a2.14,2.14,0,0,0,2.09-1.29v1.25H92v-3.87a1.77,1.77,0,0,1,1.67-1.47c.94,0,1.38.63,1.38,1.71v3.63h1.12v-3.93C96.16,310.66,95.38,309.72,94.06,309.72Zm12.51,0v3.54a1.83,1.83,0,0,1-1.72,1.8c-.94,0-1.39-.64-1.39-1.72v-3.62h-1.11v3.13c0,1.26-.65,2.18-1.74,2.21-.93,0-1.39-.64-1.39-1.72v-3.62H98.11v3.92c0,1.54.78,2.47,2.11,2.47a2.18,2.18,0,0,0,2.22-1.61,1.94,1.94,0,0,0,2,1.61,2.14,2.14,0,0,0,2.11-1.32v1.28h1.12v-6.35Zm9.35,8v-8h-1.13V311a2.6,2.6,0,0,0-2.39-1.3,3.24,3.24,0,0,0,0,6.46,2.57,2.57,0,0,0,2.37-1.3v3.77h2.93v-.86Zm-3.28-2.57a2.27,2.27,0,1,1,2.15-2.26A2.13,2.13,0,0,1,112.64,315.21Zm9.33-5.49a2.43,2.43,0,0,0-2.4,1.36v-1.32h-1.13v6.35h1.13v-3.4a1.94,1.94,0,0,1,2-1.93,1.55,1.55,0,0,1,1.69,1.7v3.63h1.13v-3.93A2.24,2.24,0,0,0,122,309.72Zm11.72,0a2.13,2.13,0,0,0-2.06,1.19v-1.15h-1.12v3.62a1.79,1.79,0,0,1-1.71,1.72c-.92,0-1.38-.64-1.38-1.72v-3.62h-1.11v3.92c0,1.54.78,2.47,2.11,2.47a2.15,2.15,0,0,0,2.09-1.29v1.25h1.12v-3.87a1.75,1.75,0,0,1,1.66-1.47c.94,0,1.39.63,1.39,1.71v3.63h1.11v-3.93C135.79,310.66,135,309.72,133.69,309.72Zm7.71,0a2.45,2.45,0,0,0-2.4,1.36v-1.32h-1.13v6.35H139v-3.4a2,2,0,0,1,2-1.93,1.56,1.56,0,0,1,1.7,1.7v3.63h1.13v-3.93A2.25,2.25,0,0,0,141.4,309.72Zm4.82,5.53v-5.49h-1.13v6.35H148v-.86Zm11.9-3.13H156.9c0-1.62-1.43-2.44-3.05-2.44a3.58,3.58,0,0,0-3,1.42v-1.34h-1.13v8.88h1.13V313a2.61,2.61,0,0,1,2.69-2.22c1.1,0,2,.43,2.21,1.35h-1.12c-1.4,0-2.32.72-2.32,2a2.1,2.1,0,0,0,2.36,2.07,2.07,2.07,0,0,0,2.24-2.08V313h1.22Zm-2.35,2a1.06,1.06,0,0,1-1.17,1.18,1.17,1.17,0,0,1-1.31-1.16,1.1,1.1,0,0,1,1.17-1.11h1.31Zm2.82,3.83c1.91-.77.31-2.74.31-4.8v-3.35H160v3.48c.05,1.92,2.08,4.85-1.44,5.49Zm7.45-8.19a2.45,2.45,0,0,0-2.41,1.36v-1.32h-1.12v6.35h1.12v-3.4a2,2,0,0,1,2-1.93,1.56,1.56,0,0,1,1.69,1.7v3.63h1.13v-3.93A2.24,2.24,0,0,0,166,309.72Zm4.81,5.53v-5.49h-1.12v6.35h2.93v-.86Zm8.1-5.49v3.12a2,2,0,0,1-1.93,2.21,1.54,1.54,0,0,1-1.64-1.71V307h-2.94v.86h1.8v5.8a2.23,2.23,0,0,0,2.37,2.47,2.38,2.38,0,0,0,2.34-1.38v1.34h1.13v-6.35Zm8.14,0v3.12a2,2,0,0,1-1.93,2.21,1.55,1.55,0,0,1-1.65-1.71V307h-2.93v.86h1.81v5.8a2.22,2.22,0,0,0,2.36,2.47,2.38,2.38,0,0,0,2.34-1.38v1.34h1.13v-6.35Zm9.45.87v-.86h-5.12V307H190.3v6.66a2.22,2.22,0,0,0,2.36,2.47,2.39,2.39,0,0,0,2.34-1.38v1.34h1.13V312H195v.93a2,2,0,0,1-1.93,2.21,1.55,1.55,0,0,1-1.65-1.71v-2.75Zm5.17-.91a2.43,2.43,0,0,0-2.4,1.36v-1.32h-1.13v8.88h1.13v-5.93a1.94,1.94,0,0,1,2-1.93,1.55,1.55,0,0,1,1.69,1.7v3.63h1.13v-3.93A2.24,2.24,0,0,0,201.71,309.72Zm8,0a2.45,2.45,0,0,0-2.41,1.36V307h-1.12v11.62h1.12v-5.93a2,2,0,0,1,2-1.93,1.56,1.56,0,0,1,1.69,1.7v3.63h1.13v-3.93A2.24,2.24,0,0,0,209.71,309.72ZM76.41,330.25v-5.48H75.28v3.11a2,2,0,0,1-1.93,2.21,1.54,1.54,0,0,1-1.64-1.71V322H70.59v6.66a2.22,2.22,0,0,0,2.35,2.47,2.38,2.38,0,0,0,2.34-1.38v1.34h2.94v-.86Zm12.78,2.53V322H88.06v5.86a2,2,0,0,1-1.94,2.21,1.54,1.54,0,0,1-1.64-1.71v-3.62H83.36v3.92a2.22,2.22,0,0,0,2.36,2.47,2.39,2.39,0,0,0,2.34-1.38v3.87H91v-.86Zm8.62-7.15v-.86H92.69V322H91.57v6.66a2.22,2.22,0,0,0,2.36,2.47,2.39,2.39,0,0,0,2.34-1.38v1.34H97.4V327H96.27v.93a2,2,0,0,1-1.93,2.21,1.55,1.55,0,0,1-1.65-1.71v-2.75Zm5.17-.91a2.43,2.43,0,0,0-2.4,1.36v-1.32H99.45v8.88h1.13v-5.93a1.94,1.94,0,0,1,2-1.93,1.56,1.56,0,0,1,1.69,1.7v3.63h1.13v-3.93A2.24,2.24,0,0,0,103,324.72Zm5.59,8.06v-8h-1.12v8.88h2.93v-.86Zm6.06-8.06a2.45,2.45,0,0,0-2.41,1.36v-1.32h-1.13v6.35h1.13v-3.4a2,2,0,0,1,2-1.93,1.56,1.56,0,0,1,1.69,1.7v3.63H117v-3.93A2.24,2.24,0,0,0,114.63,324.72Zm4.81,5.53v-5.49h-1.13v6.35h2.93v-.86Zm10-5.49h-2.55a4.17,4.17,0,0,1-1.69-2,1,1,0,0,1,.31-.91h-1.12a1.16,1.16,0,0,0-.29,1.06,3.23,3.23,0,0,0,1.27,1.88,3.15,3.15,0,0,0-2.88,3.18,3.11,3.11,0,0,0,3.29,3.2,3,3,0,0,0,3.34-2.95,3.42,3.42,0,0,0-1.22-2.58h1.54ZM128,328.17a2.06,2.06,0,0,1-2.18,2,2.16,2.16,0,0,1-2.2-2.25,2.33,2.33,0,0,1,2.15-2.33h.65A3.32,3.32,0,0,1,128,328.17Zm6.18-3.45a2.45,2.45,0,0,0-2.41,1.36v-1.32h-1.12v6.35h1.12v-3.4a2,2,0,0,1,2-1.93,1.56,1.56,0,0,1,1.69,1.7v3.63h1.13v-3.93A2.24,2.24,0,0,0,134.17,324.72Zm4.81,5.53v-5.49h-1.13v6.35h2.94v-.86Zm11.9-3.13h-1.21c0-1.62-1.43-2.44-3-2.44a3.59,3.59,0,0,0-3,1.42v-1.34h-1.13v8.88h1.13V328a2.62,2.62,0,0,1,2.69-2.22c1.11,0,2,.43,2.21,1.35h-1.12c-1.4,0-2.31.72-2.31,2a2.31,2.31,0,0,0,4.6,0V328h1.21Zm-2.34,2a1.07,1.07,0,0,1-1.18,1.18,1.18,1.18,0,0,1-1.31-1.16,1.1,1.1,0,0,1,1.18-1.11h1.31Zm2.81,3.83c1.91-.77.32-2.74.32-4.8v-3.35h1.12v3.48c.05,1.92,2.08,4.85-1.44,5.49Zm7.45-8.19a2.43,2.43,0,0,0-2.4,1.36v-1.32h-1.13v6.35h1.13v-3.4a2,2,0,0,1,2-1.93,1.55,1.55,0,0,1,1.69,1.7v3.63h1.13v-3.93A2.24,2.24,0,0,0,158.8,324.72Zm4.82,5.53v-5.49h-1.13v6.35h2.93v-.86Zm8.1-5.49v3.12a2,2,0,0,1-1.94,2.21,1.54,1.54,0,0,1-1.64-1.71V322h-2.93v.86H167v5.8a2.23,2.23,0,0,0,2.36,2.47,2.41,2.41,0,0,0,2.35-1.38v1.34h1.13v-6.35Zm8.14,0v3.12a2,2,0,0,1-1.94,2.21,1.54,1.54,0,0,1-1.64-1.71V322h-2.93v.86h1.8v5.8a2.23,2.23,0,0,0,2.36,2.47,2.4,2.4,0,0,0,2.35-1.38v1.34H181v-6.35Zm9.44.87v-.86h-5.12V322h-1.11v6.66a2.22,2.22,0,0,0,2.35,2.47,2.39,2.39,0,0,0,2.34-1.38v1.34h1.13V327h-1.13v.93a2,2,0,0,1-1.93,2.21,1.55,1.55,0,0,1-1.65-1.71v-2.75Zm5.17-.91a2.43,2.43,0,0,0-2.4,1.36v-1.32h-1.13v8.88h1.13v-5.93a2,2,0,0,1,2-1.93,1.55,1.55,0,0,1,1.69,1.7v3.63h1.13v-3.93A2.24,2.24,0,0,0,194.47,324.72Zm8,0a2.43,2.43,0,0,0-2.4,1.36V322h-1.13v11.62h1.13v-5.93a2,2,0,0,1,2-1.93,1.55,1.55,0,0,1,1.69,1.7v3.63h1.13v-3.93A2.24,2.24,0,0,0,202.47,324.72Zm14.3,5.53h-5.1v-2.54a2,2,0,0,1,2-1.93,1.55,1.55,0,0,1,1.69,1.7v1.38h1.13v-1.68a2.24,2.24,0,0,0-2.4-2.46,2.43,2.43,0,0,0-2.4,1.36v-1.32h-1.13v8.88h1.13v-2.53h5.1Zm10-5.49v3.54a1.83,1.83,0,0,1-1.73,1.8c-.94,0-1.38-.64-1.38-1.72v-3.62h-1.12v3.13c0,1.26-.65,2.18-1.74,2.21-.93,0-1.38-.64-1.38-1.72v-3.62h-1.12v3.92c0,1.54.78,2.47,2.11,2.47a2.19,2.19,0,0,0,2.23-1.61,1.93,1.93,0,0,0,2,1.61,2.16,2.16,0,0,0,2.12-1.32v1.28h1.12v-6.35Zm10.84,0h-1.79V322h-1.13v2.74h-1.9a3.06,3.06,0,0,0-3.17,3.25,3,3,0,0,0,3.22,3.15,2.72,2.72,0,0,0,3-2.91v-2.5h1.79Zm-2.92,3.4c0,1.13-.45,2.07-1.87,2.06a2,2,0,0,1-2.07-2.15,2.12,2.12,0,0,1,2.21-2.32h1.73Zm7.2-3.44a2.45,2.45,0,0,0-2.4,1.36V322h-1.13v11.62h1.13v-5.93a2,2,0,0,1,2-1.93,1.56,1.56,0,0,1,1.7,1.7v3.63h1.13v-3.93A2.25,2.25,0,0,0,241.88,324.72Zm9.27,0v3.12a2,2,0,0,1-1.93,2.21,1.55,1.55,0,0,1-1.65-1.71V322h-2.93v.86h1.8v5.8a2.23,2.23,0,0,0,2.37,2.47,2.39,2.39,0,0,0,2.34-1.38v1.34h1.13v-6.35Z"/><path class="cls-7" d="M15.94,318.7H53.69"/><path class="cls-7" d="M15.94,378.61H53.69"/><path class="cls-7" d="M15.94,431.66H53.69"/><path class="cls-7" d="M15.94,621.7H53.69"/><path class="cls-7" d="M15.94,568.65H53.69"/><path class="cls-7" d="M15.94,500.15H53.69"/><path class="cls-7" d="M112,205h38.61"/><path class="cls-7" d="M15.94,52.3V90.55"/><path class="cls-7" d="M15.94,141.52v38.76"/><path class="cls-7" d="M15.94,268.5V621.7"/><path class="cls-7" d="M15.94,230.75V268.5"/><path class="cls-7" d="M168.1,239.33v23"/><path class="cls-14" d="M15.94,950.64H53.69"/><path class="cls-14" d="M15.94,1026.08H53.69"/><path class="cls-14" d="M15.94,790.12v37.75"/><path class="cls-14" d="M15.94,880.21v145.87"/><rect class="cls-15" x="0.93" y="738.22" width="129.71" height="50.62" rx="8.15"/><path class="cls-16" d="M20.84,752.25H17.42v8.4h3.39a4.2,4.2,0,1,0,0-8.4Zm0,7.36h-2.3v-6.32h2.25A3.11,3.11,0,0,1,24,756.46,3.07,3.07,0,0,1,20.87,759.61Zm6.4-7.84a.72.72,0,0,0,0,1.44.72.72,0,0,0,0-1.44Zm-.55,2.53v6.35h1.12V754.3Zm11.5,0a2.4,2.4,0,0,0-2.47,1.6,2.14,2.14,0,0,0-2.25-1.6,2.43,2.43,0,0,0-2.37,1.37V754.3H30v6.35h1.11v-3.13a2,2,0,0,1,1.95-2.21A1.54,1.54,0,0,1,34.72,757v3.62h1.13v-3.13a2,2,0,0,1,1.94-2.21A1.55,1.55,0,0,1,39.43,757v3.62h1.13v-3.92A2.22,2.22,0,0,0,38.22,754.26Zm6.88,0a3.22,3.22,0,0,0,0,6.43,3.38,3.38,0,0,0,2.59-1.06l-.61-.63a2.61,2.61,0,0,1-1.9.78,2.09,2.09,0,0,1-2.15-1.86h5C48.2,755.69,47.24,754.26,45.1,754.26Zm-2.05,2.79a2,2,0,0,1,2.06-1.86,1.84,1.84,0,0,1,2,1.86Zm10.1-2.79a2.48,2.48,0,0,0-2.42,1.39V754.3H49.62v6.35h1.11v-3.39a2,2,0,0,1,2-1.94A1.57,1.57,0,0,1,54.42,757v3.62h1.12v-3.92A2.24,2.24,0,0,0,53.15,754.26ZM61,755.71l.4-.86a3.87,3.87,0,0,0-2.1-.6c-1.19,0-2.27.52-2.27,1.77,0,2.27,3.46,1.5,3.44,3,0,.58-.54.82-1.23.82a3.34,3.34,0,0,1-2.11-.79l-.42.81a3.75,3.75,0,0,0,2.5.88c1.23,0,2.36-.56,2.36-1.83,0-2.3-3.47-1.6-3.47-2.93,0-.54.48-.75,1.12-.75A3.57,3.57,0,0,1,61,755.71Zm2.6-3.94a.72.72,0,1,0,.7.72A.69.69,0,0,0,63.61,751.77Zm-.55,2.53v6.35h1.12V754.3Zm5.94,0a3.22,3.22,0,1,0,3.25,3.21A3.09,3.09,0,0,0,69,754.26Zm0,1a2.25,2.25,0,1,1-2.14,2.24A2.1,2.1,0,0,1,69,755.24Zm8.35-1a2.48,2.48,0,0,0-2.42,1.39V754.3H73.82v6.35h1.11v-3.39a2,2,0,0,1,2-1.94A1.57,1.57,0,0,1,78.62,757v3.62h1.12v-3.92A2.24,2.24,0,0,0,77.35,754.26Zm14.18,0,.69-.83a4.54,4.54,0,0,0-3.13-1.26,4.29,4.29,0,1,0,0,8.57,4.69,4.69,0,0,0,3.18-1.33l-.7-.76a3.59,3.59,0,0,1-2.42,1,3.23,3.23,0,1,1,0-6.46A3.4,3.4,0,0,1,91.53,754.26Zm6,3.85v-5.86H93.38v1h3v4.77c0,1-.49,1.5-1.34,1.5a2.47,2.47,0,0,1-1.82-1l-.56.89A3,3,0,0,0,95,760.7,2.32,2.32,0,0,0,97.52,758.11Zm7.12-4.11.48-1a5.05,5.05,0,0,0-2.77-.82c-1.79,0-3,.89-3,2.26,0,3,4.65,1.88,4.65,4,0,.75-.69,1.22-1.82,1.22a4.22,4.22,0,0,1-2.81-1.22l-.51,1a4.93,4.93,0,0,0,3.31,1.32c1.83,0,3.1-.93,3.1-2.38,0-3.05-4.64-2-4.64-4,0-.66.64-1,1.61-1A4.59,4.59,0,0,1,104.64,754Zm8.58.26.68-.83a4.5,4.5,0,0,0-3.12-1.26,4.29,4.29,0,1,0,0,8.57,4.7,4.7,0,0,0,3.19-1.33l-.7-.76a3.6,3.6,0,0,1-2.43,1,3.23,3.23,0,1,1,0-6.46A3.44,3.44,0,0,1,113.22,754.26Z"/><path class="cls-17" d="M18,775.77l2.53-2.6a4.54,4.54,0,0,0,1.56-2.74c0-1.27-1.08-2.07-2.7-2.07a4.89,4.89,0,0,0-3,1.16l.5.88a3.67,3.67,0,0,1,2.38-1c1,0,1.64.46,1.64,1.21a3.42,3.42,0,0,1-1.15,2l-3.26,3.37v.89h6.08v-1Zm8.8-7.41c-1.67,0-2.72.79-2.72,2.1a2,2,0,0,0,1.35,1.86,2.25,2.25,0,0,0-1.76,2.16c0,1.48,1.21,2.39,3.14,2.39S30,776,30,774.46a2.21,2.21,0,0,0-1.72-2.14,1.93,1.93,0,0,0,1.3-1.82C29.57,769.16,28.53,768.36,26.83,768.36Zm0,.84c1.11,0,1.75.5,1.75,1.36s-.64,1.36-1.75,1.36-1.75-.5-1.75-1.36S25.74,769.2,26.84,769.2Zm0,3.64c1.3,0,2.07.57,2.07,1.52S28.13,776,26.84,776s-2.05-.59-2.05-1.6S25.55,772.84,26.83,772.84Zm5.06,2.7a.66.66,0,0,0-.67.68.67.67,0,0,0,.67.7.65.65,0,0,0,.64-.7A.64.64,0,0,0,31.89,775.54Zm5.58-7.18c-2.27,0-3.52,1.51-3.52,4.25s1.25,4.26,3.52,4.26S41,775.35,41,772.61,39.73,768.36,37.47,768.36Zm0,.91c1.54,0,2.33,1.11,2.33,3.34S39,776,37.47,776s-2.33-1.12-2.33-3.34S35.93,769.27,37.47,769.27Zm5.62,6.1-.45.88a5.47,5.47,0,0,0,2.42.62c2.18,0,3.54-1.76,3.54-4.45s-1.27-4.06-3.35-4.06a2.66,2.66,0,0,0-2.89,2.78,2.48,2.48,0,0,0,2.69,2.67,2.41,2.41,0,0,0,2.41-1.42c.11,2.12-.74,3.51-2.47,3.51A3.7,3.7,0,0,1,43.09,775.37Zm2.24-6a1.78,1.78,0,0,1,1.92,1.73,1.85,1.85,0,0,1-2,1.81,1.66,1.66,0,0,1-1.81-1.73A1.73,1.73,0,0,1,45.33,769.35Zm5.19,6.19a.66.66,0,0,0-.66.68.67.67,0,0,0,.66.7.66.66,0,0,0,.65-.7A.64.64,0,0,0,50.52,775.54Zm3.21.23,2.54-2.6a4.59,4.59,0,0,0,1.56-2.74c0-1.27-1.08-2.07-2.71-2.07a4.89,4.89,0,0,0-3,1.16l.49.88a3.71,3.71,0,0,1,2.38-1c1,0,1.65.46,1.65,1.21a3.39,3.39,0,0,1-1.16,2l-3.25,3.37v.89H58.3v-1Zm9.32-7.41c-2.27,0-3.52,1.51-3.52,4.25s1.25,4.26,3.52,4.26,3.52-1.52,3.52-4.26S65.31,768.36,63.05,768.36Zm0,.91c1.54,0,2.33,1.11,2.33,3.34S64.59,776,63.05,776s-2.33-1.12-2.33-3.34S61.52,769.27,63.05,769.27Zm4.27-.86v1h1.91v7.36h1.15v-8.4Zm8.19,0c-1.67,0-2.73.79-2.73,2.1a2,2,0,0,0,1.36,1.86,2.25,2.25,0,0,0-1.76,2.16c0,1.48,1.21,2.39,3.14,2.39s3.15-.92,3.15-2.41A2.21,2.21,0,0,0,77,772.32a1.93,1.93,0,0,0,1.3-1.82C78.25,769.16,77.2,768.36,75.51,768.36Zm0,.84c1.11,0,1.74.5,1.74,1.36s-.63,1.36-1.74,1.36-1.75-.5-1.75-1.36S74.42,769.2,75.52,769.2Zm0,3.64c1.3,0,2.07.57,2.07,1.52S76.81,776,75.52,776s-2-.59-2-1.6S74.23,772.84,75.51,772.84Z"/><rect class="cls-18" x="54.12" y="992.1" width="232.84" height="67.96" rx="8.15"/><path class="cls-16" d="M79.47,1010.82H77.35v-1.94a3.56,3.56,0,0,0-7.11,0v1.53h1.15v-1.53a2.41,2.41,0,1,1,4.81,0v5.66h1.15v-2.68h2.12Zm9.29-2.63v3.54a1.84,1.84,0,0,1-1.73,1.8c-.94,0-1.38-.64-1.38-1.72v-3.62H84.53v3.13c0,1.26-.65,2.18-1.74,2.21-.93,0-1.38-.64-1.38-1.72v-3.62H80.29v3.92c0,1.54.78,2.47,2.12,2.47a2.19,2.19,0,0,0,2.22-1.61,1.94,1.94,0,0,0,2,1.61,2.15,2.15,0,0,0,2.11-1.33v1.29h1.12v-6.35Zm2.93,8.15c1.91-.77.31-2.74.31-4.8v-3.35h1.13v3.48c.05,1.92,2.08,4.85-1.44,5.49Zm17.91-7.28v-.86h-5.11v-2.75h0a7,7,0,0,1-3.14.08c-2.47-.88-3.92.81-2.8,2.1.95.94,1.63,1.63,1.63,2.9v.74a2,2,0,0,1-1.94,2.21,1.51,1.51,0,0,1-1.64-1.69v-3.63H95.47v3.93a2.22,2.22,0,0,0,2.35,2.46,2.36,2.36,0,0,0,2.35-1.38v1.33h1.12v-4a3,3,0,0,0-1.23-2.77c-1.34-1.09-.81-2,1.1-1.37a4.7,4.7,0,0,0,2.2.09v5.62a2.22,2.22,0,0,0,2.35,2.47,2.4,2.4,0,0,0,2.35-1.39v1.35h1.13v-4.16h-1.13v.93a2,2,0,0,1-1.94,2.21,1.54,1.54,0,0,1-1.63-1.71v-2.75Zm6.25-.87v3.12a2,2,0,0,1-1.93,2.21,1.55,1.55,0,0,1-1.65-1.71v-6.36h-2.93v.86h1.8v5.8a2.23,2.23,0,0,0,2.37,2.47,2.38,2.38,0,0,0,2.34-1.39v1.35H117v-6.35Zm8.47,8v.86h-3.27c-1.26,0-2.3-.41-2.29-1.88s1.57-2,2.82-2.6c.71-.33,1.67-.71,1.66-1.86a1.53,1.53,0,0,0-1.67-1.59,1.48,1.48,0,0,0-1.66,1.42h-1.13a2.47,2.47,0,0,1,2.79-2.39,2.58,2.58,0,0,1,2.8,2.52,3,3,0,0,1-2.2,2.84c-1.14.56-2.28,1-2.29,1.75,0,.5.33.93,1.2.93Zm6.3-8v3.12a2,2,0,0,1-1.94,2.21,1.54,1.54,0,0,1-1.64-1.71v-6.36h-2.93v.86h1.8v5.8a2.23,2.23,0,0,0,2.37,2.47,2.39,2.39,0,0,0,2.34-1.39v1.35h1.13v-6.35Zm15.18,3.55c0-1.4-.82-2.8-3.86-3v-3.31H140.8c-1.54,0-2.9.59-2.9,2.17,0,1.43,1.26,2,2.9,2.12v3.82c-1.71-.14-2.92-.88-2.87-2.06h-1.15c-.06,2,2.12,3.09,4.49,3.12S145.81,1013.76,145.8,1011.74Zm-6.76-4.18c0-.61.5-1.06,1.76-1.07v2.22C139.54,1008.64,139,1008.34,139,1007.56Zm5.61,4.18c0,1.24-1.16,1.74-2.71,1.83v-3.79C143.77,1009.9,144.66,1010.49,144.65,1011.74Zm6.11-3.59a2.45,2.45,0,0,0-2.41,1.36v-4.06h-1.12v11.62h1.12v-5.93a2,2,0,0,1,2-1.93,1.56,1.56,0,0,1,1.69,1.7v3.63h1.13v-3.93A2.24,2.24,0,0,0,150.76,1008.15Zm11.49,7.13h-5.66v-2a2.6,2.6,0,0,0,2.38,1.29,3.22,3.22,0,0,0,0-6.43,2.58,2.58,0,0,0-2.36,1.3v-1.26h-1.13v7.09h-.93v.86h.93v.93h1.13v-.93h5.66Zm-3.53-6.18a2.25,2.25,0,1,1-2.13,2.25A2.12,2.12,0,0,1,158.72,1009.1Zm9.73-.91v3.12a2,2,0,0,1-1.94,2.21,1.54,1.54,0,0,1-1.64-1.71v-3.62h-1.12v3.92a2.22,2.22,0,0,0,2.35,2.47,2.4,2.4,0,0,0,2.35-1.39v1.35h1.12v-6.35Zm11.07,5.49h-1.8v-3.07a2.24,2.24,0,0,0-2.4-2.46,2.43,2.43,0,0,0-2.4,1.36v-1.32h-1.13v6.35h1.13v-3.4a1.94,1.94,0,0,1,2-1.93,1.55,1.55,0,0,1,1.69,1.7v6.16h1.13v-2.53h1.8Zm9.16-5.49v3.12a2,2,0,0,1-1.93,2.21,1.55,1.55,0,0,1-1.65-1.71v-6.36h-2.93v.86H184v5.8a2.23,2.23,0,0,0,2.37,2.47,2.38,2.38,0,0,0,2.34-1.39v1.35h1.13v-6.35Zm10.37,7.09h-5.66v-2a2.6,2.6,0,0,0,2.38,1.29,3,3,0,0,0,3-3.2,3,3,0,0,0-3-3.23,2.57,2.57,0,0,0-2.35,1.3v-1.26h-1.13v7.09h-.94v.86h.94v.93h1.13v-.93h5.66Zm-3.53-6.18a2.25,2.25,0,1,1-2.13,2.25A2.12,2.12,0,0,1,195.52,1009.1Zm13.49-.91v3.54a1.84,1.84,0,0,1-1.73,1.8c-.93,0-1.38-.64-1.38-1.72v-3.62h-1.11v3.13c0,1.26-.65,2.18-1.75,2.21-.92,0-1.38-.64-1.38-1.72v-3.62h-1.12v3.92c0,1.54.79,2.47,2.12,2.47a2.18,2.18,0,0,0,2.22-1.61,1.94,1.94,0,0,0,2,1.61,2.14,2.14,0,0,0,2.11-1.33v1.29h1.12v-6.35Zm10.82-2.74H216.9v5.86a2,2,0,0,1-1.93,2.21,1.54,1.54,0,0,1-1.65-1.71v-3.62h-1.11v3.92a2.22,2.22,0,0,0,2.35,2.47,2.36,2.36,0,0,0,2.34-1.39v1.35H218v-8.23h1.81ZM70.11,1027.2v-1h4.28c1,0,2.17-.24,2.17-1.31,0-.81-.89-1.43-2.38-1.43s-2.05.53-2.16,1.31H70.88c.08-1.65,1.6-2.37,3.28-2.36s3.55.87,3.55,2.6a1.68,1.68,0,0,1-1.33,1.67c1.37.48,1.89,1.28,1.86,2.27,0,1.82-1.68,2.71-3.88,2.72s-4.18-1-4.12-3h1.14c0,1.33,1.41,2,3,2,1.42,0,2.72-.47,2.72-1.78,0-1-1-1.6-2.67-1.6Zm11.21-1.32a2.4,2.4,0,1,1,4.8,0v5.66h1.16v-5.66a3.56,3.56,0,0,0-7.11,0v5.66h1.15Zm10.93-.68H90v-2.75H88.84v9.09H90v-5.28h2.25Zm7.66.53v-1.06H94.35v-2.22H93.21v9.09h4.21a.6.6,0,0,1,.68.61v.29h1.15V1032c0-1-.5-1.5-1.56-1.5H94.35v-4.75Zm2.51,2.37v-5.65h-1.15v5.65a3.56,3.56,0,0,0,7.11,0v-5.65h-1.16v5.65a2.4,2.4,0,1,1-4.8,0Zm17.39-.28h-2.12v-1.94a3.56,3.56,0,0,0-7.11,0v1.53h1.15v-1.53a2.41,2.41,0,1,1,4.81,0v5.66h1.15v-2.68h2.12Zm4.5-3.7a3,3,0,0,0-2.41,1.16v-2.83h-1.14v9.09h1.14v-2.49h0v-1.39a2.27,2.27,0,0,1,2.39-2.51,2.33,2.33,0,0,1,2.41,2.62v1.07h1.15v-1.07A3.32,3.32,0,0,0,124.31,1024.12Zm17.4,4.62c0-1.4-.82-2.8-3.86-3v-3.31h-1.14c-1.54,0-2.91.59-2.91,2.17s1.26,2,2.91,2.12v3.82c-1.72-.14-2.92-.88-2.87-2.06h-1.16c-.06,2,2.13,3.09,4.5,3.12S141.72,1030.76,141.71,1028.74Zm-6.77-4.18c0-.61.51-1.06,1.77-1.07v2.22C135.45,1025.64,134.94,1025.34,134.94,1024.56Zm5.61,4.18c0,1.24-1.15,1.74-2.7,1.83v-3.79C139.68,1026.9,140.56,1027.49,140.55,1028.74Zm6.11-3.59a2.43,2.43,0,0,0-2.4,1.36v-1.32h-1.13v6.35h1.13v-3.4a2,2,0,0,1,2-1.93,1.55,1.55,0,0,1,1.69,1.7v3.63h1.14v-3.93A2.25,2.25,0,0,0,146.66,1025.15Zm9.27,0v3.12a2,2,0,0,1-1.93,2.21,1.55,1.55,0,0,1-1.65-1.71v-6.36h-2.93v.86h1.8v5.8a2.23,2.23,0,0,0,2.37,2.47,2.38,2.38,0,0,0,2.34-1.39v1.35h1.13v-6.35Zm11.08,5.49h-1.8v-3.07a2.25,2.25,0,0,0-2.41-2.46,2.44,2.44,0,0,0-2.4,1.36v-1.32h-1.13v6.35h1.13v-3.4a2,2,0,0,1,2-1.93,1.56,1.56,0,0,1,1.7,1.7v6.16h1.13v-2.53H167Z"/><path class="cls-17" d="M69.52,1039.56v1h1.91V1048h1.16v-8.41Zm4.44,0v1h1.91V1048H77v-8.41Zm5.61,7.13a.69.69,0,1,0,.65.69A.65.65,0,0,0,79.57,1046.69Zm5.58-7.18c-2.27,0-3.52,1.51-3.52,4.25s1.25,4.27,3.52,4.27,3.52-1.53,3.52-4.27S87.41,1039.51,85.15,1039.51Zm0,.91c1.54,0,2.33,1.11,2.33,3.34s-.79,3.34-2.33,3.34-2.33-1.12-2.33-3.34S83.62,1040.42,85.15,1040.42Zm5.62,6.11-.45.87a5.48,5.48,0,0,0,2.42.63c2.18,0,3.55-1.77,3.55-4.46s-1.28-4.06-3.35-4.06a2.66,2.66,0,0,0-2.9,2.79,2.48,2.48,0,0,0,2.69,2.66,2.43,2.43,0,0,0,2.42-1.41c.1,2.11-.75,3.5-2.48,3.5A3.79,3.79,0,0,1,90.77,1046.53Zm2.24-6a1.77,1.77,0,0,1,1.92,1.73,1.83,1.83,0,0,1-2,1.8,1.66,1.66,0,0,1-1.82-1.73A1.73,1.73,0,0,1,93,1040.51Zm5.2,6.18a.69.69,0,1,0,.65.69A.65.65,0,0,0,98.21,1046.69Zm3.2.23,2.54-2.59a4.59,4.59,0,0,0,1.56-2.74c0-1.27-1.08-2.08-2.7-2.08a4.91,4.91,0,0,0-3,1.17l.5.87a3.72,3.72,0,0,1,2.37-1c1,0,1.65.46,1.65,1.21a3.39,3.39,0,0,1-1.15,2l-3.26,3.38v.89H106v-1Zm9.33-7.41c-2.27,0-3.52,1.51-3.52,4.25s1.25,4.27,3.52,4.27,3.52-1.53,3.52-4.27S113,1039.51,110.74,1039.51Zm0,.91c1.53,0,2.33,1.11,2.33,3.34s-.8,3.34-2.33,3.34-2.33-1.12-2.33-3.34S109.2,1040.42,110.74,1040.42Zm6.16,6.5,2.53-2.59a4.54,4.54,0,0,0,1.56-2.74c0-1.27-1.08-2.08-2.7-2.08a4.88,4.88,0,0,0-3,1.17l.49.87a3.74,3.74,0,0,1,2.38-1c1,0,1.64.46,1.64,1.21a3.34,3.34,0,0,1-1.15,2l-3.26,3.38v.89h6.08v-1Zm5-7.36v1h1.91V1048H125v-8.41Z"/><rect class="cls-19" x="54.12" y="925.32" width="232.84" height="50.62" rx="8.15"/><path class="cls-16" d="M79.88,944H77.76V942.1a3.56,3.56,0,0,0-7.11,0v1.53h1.16V942.1a2.4,2.4,0,1,1,4.8,0v5.66h1.15v-2.68h2.12Zm9.29-2.63V945a1.83,1.83,0,0,1-1.73,1.8c-.94,0-1.38-.63-1.38-1.72v-3.62H84.94v3.13c0,1.26-.65,2.18-1.74,2.21-.92,0-1.38-.63-1.38-1.72v-3.62H80.7v3.93c0,1.53.78,2.46,2.12,2.46A2.18,2.18,0,0,0,85,946.19a1.94,1.94,0,0,0,2,1.61,2.14,2.14,0,0,0,2.11-1.32v1.28h1.12v-6.35Zm2.93,8.15c1.91-.77.31-2.73.31-4.8v-3.35h1.13v3.48c0,1.92,2.08,4.85-1.44,5.49ZM110,942.28v-.86H104.9v-2.75h0a7,7,0,0,1-3.14.08c-2.47-.87-3.92.81-2.79,2.1.94.94,1.62,1.63,1.62,2.9v.74a2,2,0,0,1-1.94,2.22A1.53,1.53,0,0,1,97,945v-3.63H95.88v3.93a2.22,2.22,0,0,0,2.35,2.46,2.36,2.36,0,0,0,2.35-1.38v1.34h1.13v-4a3,3,0,0,0-1.24-2.77c-1.33-1.08-.81-2,1.1-1.37a4.7,4.7,0,0,0,2.2.09v5.63a2.22,2.22,0,0,0,2.36,2.46,2.38,2.38,0,0,0,2.34-1.38v1.34h1.13v-4.15h-1.13v.92a2,2,0,0,1-1.94,2.21A1.54,1.54,0,0,1,104.9,945v-2.75Zm6.25-.87v3.12a2,2,0,0,1-1.93,2.21,1.55,1.55,0,0,1-1.65-1.71v-6.36h-2.93v.86h1.8v5.81a2.23,2.23,0,0,0,2.37,2.46,2.38,2.38,0,0,0,2.34-1.38v1.34h1.13v-6.35Zm8.47,8v.86h-3.27c-1.26,0-2.3-.4-2.29-1.88s1.57-2,2.82-2.6c.71-.33,1.67-.71,1.66-1.86a1.52,1.52,0,0,0-1.67-1.58,1.47,1.47,0,0,0-1.66,1.41h-1.13a2.47,2.47,0,0,1,2.79-2.39,2.58,2.58,0,0,1,2.8,2.53,3,3,0,0,1-2.2,2.83c-1.14.56-2.28,1-2.29,1.75,0,.5.33.93,1.2.93Zm6.3-8v3.12a2,2,0,0,1-1.93,2.21,1.55,1.55,0,0,1-1.65-1.71v-6.36h-2.93v.86h1.8v5.81a2.23,2.23,0,0,0,2.37,2.46,2.38,2.38,0,0,0,2.34-1.38v1.34h1.13v-6.35ZM146.21,945c0-1.4-.82-2.8-3.86-3v-3.31h-1.14c-1.53,0-2.9.59-2.9,2.17,0,1.43,1.26,2,2.9,2.12v3.82c-1.72-.13-2.92-.88-2.87-2.06h-1.15c-.06,2,2.13,3.09,4.49,3.13S146.22,947,146.21,945Zm-6.76-4.18c0-.61.5-1,1.76-1.07v2.23C140,941.86,139.45,941.56,139.45,940.78Zm5.61,4.18c0,1.24-1.16,1.75-2.71,1.83V943C144.18,943.12,145.07,943.71,145.06,945Zm6.11-3.59a2.45,2.45,0,0,0-2.41,1.36v-4.06h-1.13V950.3h1.13v-5.94a2,2,0,0,1,2-1.93,1.56,1.56,0,0,1,1.69,1.7v3.63h1.13v-3.93A2.24,2.24,0,0,0,151.17,941.37Zm11.49,7.14H157v-2a2.6,2.6,0,0,0,2.38,1.29,3.22,3.22,0,0,0,0-6.43,2.58,2.58,0,0,0-2.36,1.3v-1.26h-1.12v7.1h-.94v.85h.94v.94H157v-.94h5.66Zm-3.53-6.19a2.26,2.26,0,1,1-2.13,2.25A2.12,2.12,0,0,1,159.13,942.32Zm9.73-.91v3.12a2,2,0,0,1-1.94,2.21,1.54,1.54,0,0,1-1.64-1.71v-3.62h-1.12v3.93a2.22,2.22,0,0,0,2.35,2.46,2.39,2.39,0,0,0,2.35-1.38v1.34H170v-6.35Zm11.07,5.49h-1.8v-3.07a2.24,2.24,0,0,0-2.4-2.46,2.43,2.43,0,0,0-2.4,1.36v-1.32H172.2v6.35h1.13v-3.4a2,2,0,0,1,2-1.93,1.56,1.56,0,0,1,1.69,1.7v6.17h1.13v-2.54h1.8Zm8.09-6.56a2.93,2.93,0,0,0-2.4,1.16v-2.83h-1.14v9.09h1.14v-2.48h0v-1.4a2.27,2.27,0,0,1,2.39-2.51,2.34,2.34,0,0,1,2.42,2.62v1.07h1.15V944A3.33,3.33,0,0,0,188,940.34Zm10.17,1.07v3.12a2,2,0,0,1-1.93,2.21,1.55,1.55,0,0,1-1.65-1.71v-6.36h-2.93v.86h1.81v5.81a2.22,2.22,0,0,0,2.36,2.46,2.38,2.38,0,0,0,2.34-1.38v1.34h1.13v-6.35Zm10.37,7.1H202.9v-2a2.6,2.6,0,0,0,2.38,1.29,3.22,3.22,0,0,0,0-6.43,2.58,2.58,0,0,0-2.36,1.3v-1.26h-1.13v7.1h-.93v.85h.93v.94h1.13v-.94h5.66ZM205,942.32a2.26,2.26,0,1,1-2.13,2.25A2.12,2.12,0,0,1,205,942.32Zm13.5-.91V945a1.84,1.84,0,0,1-1.73,1.8c-.94,0-1.38-.63-1.38-1.72v-3.62H214.3v3.13c0,1.26-.65,2.18-1.74,2.21-.93,0-1.38-.63-1.38-1.72v-3.62h-1.12v3.93c0,1.53.78,2.46,2.11,2.46a2.19,2.19,0,0,0,2.23-1.61,1.92,1.92,0,0,0,2,1.61,2.15,2.15,0,0,0,2.12-1.32v1.28h1.11v-6.35Zm10.82-2.74h-2.94v5.86a2,2,0,0,1-1.93,2.21,1.53,1.53,0,0,1-1.64-1.71v-3.62h-1.12v3.93a2.22,2.22,0,0,0,2.35,2.46,2.36,2.36,0,0,0,2.34-1.38v1.34h1.12v-8.23h1.82ZM241.59,945c0-1.4-.82-2.8-3.86-3v-3.31h-1.14c-1.54,0-2.91.59-2.91,2.17,0,1.43,1.26,2,2.91,2.12v3.82c-1.72-.13-2.92-.88-2.87-2.06h-1.15c-.07,2,2.12,3.09,4.49,3.13S241.6,947,241.59,945Zm-6.77-4.18c0-.61.51-1,1.77-1.07v2.23C235.33,941.86,234.82,941.56,234.82,940.78Zm5.61,4.18c0,1.24-1.15,1.75-2.7,1.83V943C239.55,943.12,240.44,943.71,240.43,945Zm6.11-3.59a2.44,2.44,0,0,0-2.4,1.36v-1.32H243v6.35h1.13v-3.4a2,2,0,0,1,2-1.93,1.57,1.57,0,0,1,1.7,1.7v3.63h1.12v-3.93A2.24,2.24,0,0,0,246.54,941.37Zm9.27,0v3.12a2,2,0,0,1-1.93,2.21,1.55,1.55,0,0,1-1.65-1.71v-6.36H249.3v.86h1.8v5.81a2.23,2.23,0,0,0,2.37,2.46,2.38,2.38,0,0,0,2.34-1.38v1.34h1.13v-6.35Zm11.08,5.49h-1.81v-3.07a2.24,2.24,0,0,0-2.4-2.46,2.44,2.44,0,0,0-2.4,1.36v-1.32h-1.13v6.35h1.13v-3.4a2,2,0,0,1,2-1.93,1.56,1.56,0,0,1,1.69,1.7v6.17h1.13v-2.54h1.81Z"/><path class="cls-17" d="M71.14,962.88l2.53-2.6a4.54,4.54,0,0,0,1.56-2.74c0-1.27-1.08-2.07-2.7-2.07a4.89,4.89,0,0,0-3,1.16l.5.88a3.67,3.67,0,0,1,2.38-1c1,0,1.64.45,1.64,1.21a3.42,3.42,0,0,1-1.15,2L69.62,963v.89H75.7v-1Zm8.8-7.41c-1.67,0-2.72.79-2.72,2.1a2,2,0,0,0,1.35,1.86,2.24,2.24,0,0,0-1.76,2.16C76.81,963.07,78,964,80,964s3.15-.92,3.15-2.41a2.21,2.21,0,0,0-1.72-2.14,2,2,0,0,0,1.3-1.83C82.68,956.27,81.64,955.47,79.94,955.47Zm0,.84c1.11,0,1.75.5,1.75,1.35S81.06,959,80,959s-1.75-.5-1.75-1.37S78.85,956.31,80,956.31Zm0,3.64c1.3,0,2.07.57,2.07,1.52s-.77,1.59-2.06,1.59-2-.59-2-1.6S78.66,960,79.94,960Zm5.06,2.7a.66.66,0,0,0-.67.68.67.67,0,0,0,.67.7.65.65,0,0,0,.64-.7A.64.64,0,0,0,85,962.65Zm5.58-7.18c-2.27,0-3.52,1.51-3.52,4.25S88.31,964,90.58,964s3.52-1.52,3.52-4.26S92.84,955.47,90.58,955.47Zm0,.91c1.54,0,2.33,1.1,2.33,3.34s-.79,3.34-2.33,3.34-2.33-1.12-2.33-3.34S89,956.38,90.58,956.38Zm6.16,6.5,2.54-2.6a4.59,4.59,0,0,0,1.56-2.74c0-1.27-1.08-2.07-2.7-2.07a4.89,4.89,0,0,0-3,1.16l.49.88a3.71,3.71,0,0,1,2.38-1c1,0,1.65.45,1.65,1.21a3.39,3.39,0,0,1-1.16,2L95.23,963v.89h6.08v-1Zm6.22-.23a.65.65,0,0,0-.65.68.65.65,0,1,0,1.3,0A.64.64,0,0,0,103,962.65Zm3.21.23,2.54-2.6a4.59,4.59,0,0,0,1.56-2.74c0-1.27-1.08-2.07-2.7-2.07a4.89,4.89,0,0,0-3,1.16l.49.88a3.71,3.71,0,0,1,2.38-1c1,0,1.65.45,1.65,1.21a3.42,3.42,0,0,1-1.15,2L104.66,963v.89h6.08v-1Zm9.33-7.41c-2.28,0-3.52,1.51-3.52,4.25s1.24,4.26,3.52,4.26,3.51-1.52,3.51-4.26S117.75,955.47,115.5,955.47Zm0,.91c1.53,0,2.32,1.1,2.32,3.34s-.79,3.34-2.32,3.34-2.33-1.12-2.33-3.34S114,956.38,115.5,956.38Zm6.16,6.5,2.53-2.6a4.54,4.54,0,0,0,1.56-2.74c0-1.27-1.08-2.07-2.7-2.07a4.85,4.85,0,0,0-3,1.16l.49.88a3.67,3.67,0,0,1,2.37-1c1,0,1.65.45,1.65,1.21a3.36,3.36,0,0,1-1.15,2L120.14,963v.89h6.08v-1Zm9.32-7.41c-2.27,0-3.52,1.51-3.52,4.25S128.71,964,131,964s3.52-1.52,3.52-4.26S133.24,955.47,131,955.47Zm0,.91c1.54,0,2.33,1.1,2.33,3.34s-.79,3.34-2.33,3.34-2.33-1.12-2.33-3.34S129.44,956.38,131,956.38Z"/><rect class="cls-20" x="0.93" y="827.95" width="257.41" height="50.62" rx="8.15"/><path class="cls-16" d="M26.64,846.66H24.53v-1.93A3.27,3.27,0,0,0,21,841.21a3.26,3.26,0,0,0-3.55,3.52v1.52h1.16v-1.52A2.24,2.24,0,0,1,21,842.25a2.26,2.26,0,0,1,2.41,2.48v5.66h1.16v-2.68h2.11ZM35.93,844v3.54a1.85,1.85,0,0,1-1.73,1.81c-.93,0-1.38-.64-1.38-1.72V844H31.7v3.14c0,1.26-.64,2.17-1.74,2.21-.92,0-1.38-.64-1.38-1.72V844H27.46V848c0,1.54.78,2.46,2.12,2.46a2.16,2.16,0,0,0,2.22-1.61,1.94,1.94,0,0,0,2,1.61,2.13,2.13,0,0,0,2.11-1.32v1.29h1.12V844Zm2.93,8.16c1.91-.77.31-2.74.31-4.81V844H40.3v3.48c.05,1.93,2.08,4.86-1.44,5.49Zm17.91-7.28V844H51.66v-2.75h0a6.92,6.92,0,0,1-3.13.09c-2.48-.88-3.93.8-2.8,2.1,1,.93,1.62,1.62,1.62,2.89v.75a2,2,0,0,1-1.94,2.21,1.53,1.53,0,0,1-1.64-1.7V844H42.64v3.92A2.23,2.23,0,0,0,45,850.4,2.36,2.36,0,0,0,47.34,849v1.33h1.13v-4a3,3,0,0,0-1.24-2.78c-1.33-1.08-.8-2,1.11-1.37a4.77,4.77,0,0,0,2.19.1V848a2.21,2.21,0,0,0,2.36,2.46A2.36,2.36,0,0,0,55.23,849v1.35h1.13v-4.16H55.23v.92a2,2,0,0,1-1.93,2.21,1.54,1.54,0,0,1-1.64-1.7v-2.75ZM63,844v3.12a2,2,0,0,1-1.93,2.21,1.54,1.54,0,0,1-1.65-1.7v-6.37H56.51v.87h1.8V848a2.22,2.22,0,0,0,2.37,2.46A2.36,2.36,0,0,0,63,849v1.35h1.13V844Zm8.47,8v.87H68.22c-1.26,0-2.3-.41-2.29-1.89s1.57-2,2.82-2.59c.71-.34,1.67-.71,1.66-1.86A1.52,1.52,0,0,0,68.74,845a1.47,1.47,0,0,0-1.66,1.42H66A2.48,2.48,0,0,1,68.74,844a2.57,2.57,0,0,1,2.8,2.52,3,3,0,0,1-2.2,2.83c-1.14.57-2.28,1-2.29,1.76,0,.49.33.92,1.2.92Zm6.3-8v3.12a2,2,0,0,1-1.93,2.21,1.54,1.54,0,0,1-1.65-1.7v-6.37H71.28v.87h1.8V848a2.22,2.22,0,0,0,2.37,2.46A2.36,2.36,0,0,0,77.79,849v1.35h1.13V844ZM93,847.59c0-1.41-.82-2.8-3.85-3v-3.32H88c-1.54,0-2.91.59-2.91,2.18,0,1.43,1.26,2,2.91,2.11v3.82c-1.72-.13-2.92-.88-2.88-2H84c-.06,2,2.13,3.08,4.49,3.12S93,849.6,93,847.59Zm-6.76-4.18c0-.62.5-1.06,1.77-1.07v2.22C86.71,844.49,86.21,844.19,86.21,843.41Zm5.61,4.18c0,1.23-1.15,1.74-2.7,1.82v-3.78C90.94,845.75,91.83,846.34,91.82,847.59ZM102.73,844v3.54a1.85,1.85,0,0,1-1.73,1.81c-.93,0-1.38-.64-1.38-1.72V844H98.51v3.14c0,1.26-.65,2.17-1.75,2.21-.92,0-1.38-.64-1.38-1.72V844H94.27V848c0,1.54.78,2.46,2.11,2.46a2.16,2.16,0,0,0,2.22-1.61,1.94,1.94,0,0,0,2,1.61,2.13,2.13,0,0,0,2.11-1.32v1.29h1.12V844Zm8.13,0v3.12a2,2,0,0,1-1.94,2.21,1.54,1.54,0,0,1-1.64-1.7v-6.37h-2.93v.87h1.8V848a2.22,2.22,0,0,0,2.36,2.46,2.38,2.38,0,0,0,2.35-1.38v1.35H112V844Zm11.07,5.49h-1.8v-3.06a2.25,2.25,0,0,0-2.4-2.47,2.44,2.44,0,0,0-2.4,1.36V844H114.2v6.36h1.13V847a2,2,0,0,1,2-1.94,1.57,1.57,0,0,1,1.69,1.71v6.16h1.13v-2.53h1.8Zm7,2.53v-8h-1.13v1.25a2.6,2.6,0,0,0-2.39-1.3,3.24,3.24,0,0,0,0,6.47,2.57,2.57,0,0,0,2.37-1.3v3.77h2.93v-.87Zm-3.28-2.57a2.12,2.12,0,0,1-2.15-2.25,2.14,2.14,0,0,1,2.15-2.27,2.26,2.26,0,0,1,0,4.52Zm18.62-8.19H141V847a2.41,2.41,0,1,1-4.81,0v-5.66H135V847a3.56,3.56,0,0,0,7.11,0v-4.61h2.11Zm6.83,3.62V844H146v-2.75h-1.12V848a2.21,2.21,0,0,0,2.36,2.46,2.36,2.36,0,0,0,2.34-1.38v1.35h1.13v-4.16h-1.13v.92a2,2,0,0,1-1.93,2.21,1.54,1.54,0,0,1-1.65-1.7v-2.75Zm6.25-.88v3.12a2,2,0,0,1-1.94,2.21,1.54,1.54,0,0,1-1.64-1.7v-6.37h-2.93v.87h1.8V848a2.22,2.22,0,0,0,2.37,2.46,2.36,2.36,0,0,0,2.34-1.38v1.35h1.13V844Zm9.44.88V844h-5.12v-2.75h-1.11V848a2.21,2.21,0,0,0,2.35,2.46,2.36,2.36,0,0,0,2.34-1.38v1.35h1.13v-4.16h-1.13v.92a2,2,0,0,1-1.93,2.21,1.54,1.54,0,0,1-1.65-1.7v-2.75Zm2.45,6.47c0-.61.94-.91,2.3-1.52,1.51-.71,2.42-1.51,2.39-3.27A2.68,2.68,0,0,0,171,844a2.54,2.54,0,0,0-2.82,2.58c0,1.5,1.09,1.68,1.48,2.09.22.25.18.61-.39,1.16-.68.4-1.16.86-1.16,1.57,0,1.31.85,1.53,2.18,1.53h3.58v-.87h-3.49C169.72,852.08,169.21,851.9,169.21,851.38Zm1.52-3.11c-.26-.62-1.45-.42-1.45-1.74A1.61,1.61,0,0,1,171,845a1.67,1.67,0,0,1,1.78,1.67c0,1.41-.85,2-1.85,2.39l-.33.14A1,1,0,0,0,170.73,848.27Zm18.85-3.36V844h-5.1v-2.75h0a7,7,0,0,1-3.14.09c-2.47-.88-3.93.8-2.8,2.1.95.93,1.63,1.62,1.63,2.89v.75a2,2,0,0,1-1.94,2.21,1.53,1.53,0,0,1-1.64-1.7V844h-1.12v3.92a2.22,2.22,0,0,0,2.35,2.47,2.38,2.38,0,0,0,2.35-1.38v1.33h1.13v-4a3,3,0,0,0-1.24-2.78c-1.34-1.08-.81-2,1.1-1.37a4.83,4.83,0,0,0,2.2.1V848a2.21,2.21,0,0,0,2.36,2.46,2.36,2.36,0,0,0,2.34-1.38v1.35h1.13v-4.16h-1.13v.92a2,2,0,0,1-1.94,2.21,1.53,1.53,0,0,1-1.63-1.7v-2.75Zm6.26-.88v3.12a2,2,0,0,1-1.93,2.21,1.54,1.54,0,0,1-1.65-1.7v-6.37h-2.93v.87h1.8V848a2.22,2.22,0,0,0,2.37,2.46,2.36,2.36,0,0,0,2.34-1.38v1.35H197V844Zm11.75,2.37h-1.21c0-1.62-1.43-2.44-3.06-2.44a3.58,3.58,0,0,0-3,1.42V844h-1.13v8.89h1.13v-5.66A2.62,2.62,0,0,1,203,845c1.1,0,2,.43,2.21,1.36h-1.12c-1.4,0-2.32.72-2.32,2a2.32,2.32,0,0,0,4.61,0v-1.08h1.21Zm-2.34,2a1.06,1.06,0,0,1-1.18,1.18,1.17,1.17,0,0,1-1.31-1.15,1.11,1.11,0,0,1,1.18-1.12h1.31Zm8-1.4v-5.66h-1.15V847a3.56,3.56,0,0,0,7.11,0v-5.66H218V847a2.41,2.41,0,1,1-4.81,0Zm12.32-5.74c-2.67,0-4.28,1.33-4.28,3.52v1.52h1.16v-1.52c0-1.48,1.05-2.28,2.55-2.45v5.22h1.16v-5.21a2.57,2.57,0,0,1,2.57,2.44v5.66h1.16v-5.66C229.85,842.54,228.22,841.21,225.53,841.21Zm7.67,8.12v-4.6a2.41,2.41,0,1,1,4.81,0v1.6h1.15v-1.6a3.56,3.56,0,0,0-7.11,0v5.66h7.44v-1.06Z"/><path class="cls-17" d="M19.79,861.7l-.5,0,2.82-2.8v-.73h-5.4v1H20.6L18,861.73v.73h1.15c1.4,0,2.24.52,2.24,1.53s-.81,1.63-2.21,1.63a4,4,0,0,1-2.4-.83l-.49.94a5.61,5.61,0,0,0,3,.87c2,0,3.26-1.09,3.26-2.65C22.54,862.6,21.44,861.8,19.79,861.7Zm3.44-3.56v1h1.91v7.36h1.15v-8.4Zm5.61,7.13a.69.69,0,1,0,.65.69A.65.65,0,0,0,28.84,865.27Zm5.58-7.18c-2.27,0-3.52,1.51-3.52,4.25s1.25,4.26,3.52,4.26,3.52-1.52,3.52-4.26S36.68,858.09,34.42,858.09Zm0,.91c1.54,0,2.33,1.11,2.33,3.34s-.79,3.34-2.33,3.34-2.33-1.12-2.33-3.34S32.89,859,34.42,859Zm4.27-.86v1H40.6v7.36h1.15v-8.4Zm5.61,7.13A.69.69,0,1,0,45,866,.65.65,0,0,0,44.3,865.27Zm3.21.23L50,862.91a4.6,4.6,0,0,0,1.56-2.74c0-1.28-1.08-2.08-2.7-2.08a4.89,4.89,0,0,0-3,1.16l.5.88a3.67,3.67,0,0,1,2.38-1c1,0,1.64.46,1.64,1.21a3.42,3.42,0,0,1-1.15,2L46,865.66v.88h6.08v-1Zm9.32-7.41c-2.27,0-3.52,1.51-3.52,4.25s1.25,4.26,3.52,4.26,3.52-1.52,3.52-4.26S59.09,858.09,56.83,858.09Zm0,.91c1.54,0,2.33,1.11,2.33,3.34s-.79,3.34-2.33,3.34-2.33-1.12-2.33-3.34S55.29,859,56.83,859ZM63,865.5l2.53-2.59a4.62,4.62,0,0,0,1.57-2.74c0-1.28-1.09-2.08-2.71-2.08a4.89,4.89,0,0,0-3,1.16l.49.88a3.71,3.71,0,0,1,2.38-1c1,0,1.64.46,1.64,1.21a3.36,3.36,0,0,1-1.15,2l-3.25,3.38v.88h6.07v-1Zm9.32-7.41c-2.27,0-3.52,1.51-3.52,4.25s1.25,4.26,3.52,4.26,3.52-1.52,3.52-4.26S74.57,858.09,72.31,858.09Zm0,.91c1.54,0,2.33,1.11,2.33,3.34s-.79,3.34-2.33,3.34S70,864.56,70,862.34,70.77,859,72.31,859Z"/></svg>