<svg width="289" height="307" viewBox="0 0 289 307" fill="none" xmlns="http://www.w3.org/2000/svg">
<path d="M140.5 165.494L140.5 195.494" stroke="#003C5A"/>
<path d="M64 195.494L64 225.494" stroke="#003C5A"/>
<path d="M217 195.494L217 225.494" stroke="#003C5A"/>
<path d="M140.5 71.4941L140.5 101.494" stroke="#003C5A"/>
<path d="M217 195.494L63.9999 195.494" stroke="#003C5A" stroke-width="1.12146"/>
<rect x="61.5166" y="0.5" width="157.967" height="70.4939" rx="10.7146" fill="url(#paint0_radial_1203_322)" fill-opacity="0.5"/>
<path d="M88.7145 19.2H84.7245V29H88.6725C91.5845 29 93.7685 26.9 93.7685 24.1C93.7685 21.286 91.5985 19.2 88.7145 19.2ZM88.7425 27.782H86.0685V20.418H88.6865C90.7725 20.418 92.3965 21.986 92.3965 24.114C92.3965 26.228 90.8005 27.782 88.7425 27.782ZM96.2074 18.64C95.7454 18.64 95.3954 18.99 95.3954 19.48C95.3954 19.956 95.7454 20.32 96.2074 20.32C96.6694 20.32 97.0194 19.956 97.0194 19.48C97.0194 18.99 96.6694 18.64 96.2074 18.64ZM95.5634 21.594V29H96.8654V21.594H95.5634ZM108.967 21.552C107.567 21.566 106.559 22.126 106.083 23.414C105.761 22.238 104.837 21.552 103.465 21.552C102.177 21.566 101.211 22.056 100.707 23.148V21.594H99.4052V29H100.707V25.346C100.707 23.876 101.561 22.812 102.975 22.77C104.179 22.77 104.893 23.512 104.893 24.772V29H106.209V25.346C106.209 23.876 107.049 22.812 108.463 22.77C109.653 22.77 110.381 23.512 110.381 24.772V29H111.697V24.422C111.697 22.644 110.675 21.552 108.967 21.552ZM116.988 21.552C114.818 21.566 113.292 23.092 113.292 25.304C113.292 27.516 114.804 29.042 117.016 29.042C118.276 29.042 119.326 28.594 120.04 27.81L119.326 27.068C118.766 27.656 117.982 27.978 117.114 27.978C115.798 27.978 114.818 27.138 114.608 25.808H120.46C120.6 23.218 119.48 21.552 116.988 21.552ZM114.594 24.8C114.762 23.484 115.686 22.63 117.002 22.63C118.346 22.63 119.228 23.456 119.298 24.8H114.594ZM126.367 21.552C125.051 21.566 124.071 22.056 123.553 23.162V21.594H122.251V29H123.553V25.038C123.665 23.722 124.533 22.812 125.877 22.784C127.109 22.784 127.851 23.526 127.851 24.772V29H129.153V24.422C129.153 22.644 128.117 21.552 126.367 21.552ZM135.525 23.232L136.001 22.238C135.371 21.804 134.447 21.538 133.551 21.538C132.165 21.538 130.905 22.14 130.905 23.596C130.891 26.242 134.937 25.346 134.909 27.04C134.909 27.712 134.279 27.992 133.481 27.992C132.641 27.992 131.647 27.642 131.017 27.068L130.527 28.02C131.241 28.678 132.361 29.042 133.439 29.042C134.881 29.042 136.197 28.384 136.197 26.914C136.211 24.226 132.151 25.038 132.151 23.498C132.151 22.868 132.711 22.616 133.453 22.616C134.125 22.616 134.909 22.854 135.525 23.232ZM138.563 18.64C138.101 18.64 137.751 18.99 137.751 19.48C137.751 19.956 138.101 20.32 138.563 20.32C139.025 20.32 139.375 19.956 139.375 19.48C139.375 18.99 139.025 18.64 138.563 18.64ZM137.919 21.594V29H139.221V21.594H137.919ZM144.841 21.552C142.587 21.552 141.033 23.078 141.033 25.29C141.033 27.516 142.587 29.042 144.841 29.042C147.067 29.042 148.635 27.516 148.635 25.29C148.635 23.078 147.067 21.552 144.841 21.552ZM144.841 22.686C146.283 22.686 147.319 23.764 147.319 25.304C147.319 26.872 146.283 27.936 144.841 27.936C143.371 27.936 142.349 26.872 142.349 25.304C142.349 23.764 143.371 22.686 144.841 22.686ZM154.572 21.552C153.256 21.566 152.276 22.056 151.758 23.162V21.594H150.456V29H151.758V25.038C151.87 23.722 152.738 22.812 154.082 22.784C155.314 22.784 156.056 23.526 156.056 24.772V29H157.358V24.422C157.358 22.644 156.322 21.552 154.572 21.552ZM171.106 21.552L171.904 20.586C170.966 19.662 169.622 19.116 168.264 19.116C165.394 19.116 163.14 21.3 163.14 24.086C163.14 26.886 165.366 29.098 168.208 29.098C169.58 29.098 170.938 28.496 171.918 27.544L171.106 26.662C170.35 27.39 169.314 27.838 168.278 27.838C166.178 27.838 164.498 26.158 164.498 24.072C164.498 21.972 166.178 20.306 168.278 20.306C169.328 20.306 170.364 20.782 171.106 21.552ZM178.081 26.032V19.2H173.265V20.432H176.723V25.99C176.723 27.124 176.149 27.74 175.155 27.74C174.441 27.74 173.671 27.348 173.041 26.62L172.383 27.656C173.083 28.538 174.049 29.056 175.169 29.056C176.989 29.056 178.081 27.964 178.081 26.032ZM186.386 21.244L186.946 20.04C186.092 19.466 184.902 19.088 183.712 19.088C181.626 19.088 180.24 20.124 180.24 21.72C180.24 25.248 185.658 23.918 185.658 26.382C185.658 27.264 184.86 27.81 183.544 27.81C182.466 27.81 181.22 27.306 180.268 26.382L179.666 27.544C180.632 28.454 182.06 29.084 183.53 29.084C185.658 29.084 187.142 28.006 187.142 26.312C187.156 22.756 181.738 24.016 181.738 21.608C181.738 20.838 182.48 20.376 183.614 20.376C184.384 20.376 185.42 20.628 186.386 21.244ZM196.385 21.552L197.183 20.586C196.245 19.662 194.901 19.116 193.543 19.116C190.673 19.116 188.419 21.3 188.419 24.086C188.419 26.886 190.645 29.098 193.487 29.098C194.859 29.098 196.217 28.496 197.197 27.544L196.385 26.662C195.629 27.39 194.593 27.838 193.557 27.838C191.457 27.838 189.777 26.158 189.777 24.072C189.777 21.972 191.457 20.306 193.557 20.306C194.607 20.306 195.643 20.782 196.385 21.552Z" fill="white"/>
<path d="M105.93 50.2117L108.884 47.1877C109.962 46.0677 110.704 44.9477 110.704 43.9957C110.704 42.5117 109.444 41.5737 107.554 41.5737C106.322 41.5737 105.076 42.0917 104.04 42.9317L104.614 43.9537C105.426 43.2117 106.476 42.7637 107.386 42.7637C108.59 42.7637 109.304 43.2957 109.304 44.1777C109.304 44.7797 108.772 45.6477 107.96 46.4597L104.166 50.3937V51.4297H111.25V50.2117H105.93ZM116.194 41.5737C114.248 41.5737 113.016 42.4977 113.016 44.0237C113.016 45.0177 113.604 45.7737 114.598 46.1937C113.338 46.5857 112.54 47.4817 112.54 48.7137C112.54 50.4357 113.954 51.4997 116.208 51.4997C118.462 51.4997 119.876 50.4217 119.876 48.6857C119.876 47.4677 119.106 46.5857 117.874 46.1937C118.812 45.8017 119.386 45.0457 119.386 44.0657C119.386 42.5117 118.168 41.5737 116.194 41.5737ZM116.208 42.5537C117.496 42.5537 118.238 43.1417 118.238 44.1357C118.238 45.1437 117.496 45.7317 116.208 45.7317C114.92 45.7317 114.164 45.1437 114.164 44.1357C114.164 43.1417 114.92 42.5537 116.208 42.5537ZM116.194 46.7957C117.706 46.7957 118.602 47.4677 118.602 48.5737C118.602 49.7357 117.706 50.4217 116.208 50.4217C114.696 50.4217 113.814 49.7357 113.814 48.5597C113.814 47.4537 114.696 46.7957 116.194 46.7957ZM122.084 49.9457C121.65 49.9457 121.314 50.2817 121.314 50.7437C121.314 51.2057 121.65 51.5557 122.084 51.5557C122.518 51.5557 122.84 51.2057 122.84 50.7437C122.84 50.2817 122.518 49.9457 122.084 49.9457ZM128.595 41.5737C125.949 41.5737 124.493 43.3377 124.493 46.5297C124.493 49.7217 125.949 51.4997 128.595 51.4997C131.227 51.4997 132.697 49.7217 132.697 46.5297C132.697 43.3377 131.227 41.5737 128.595 41.5737ZM128.595 42.6377C130.387 42.6377 131.311 43.9257 131.311 46.5297C131.311 49.1197 130.387 50.4217 128.595 50.4217C126.803 50.4217 125.879 49.1197 125.879 46.5297C125.879 43.9257 126.803 42.6377 128.595 42.6377ZM135.146 49.7497L134.614 50.7717C135.412 51.2057 136.518 51.4997 137.442 51.4997C139.976 51.4997 141.572 49.4417 141.572 46.3057C141.572 43.3097 140.088 41.5737 137.666 41.5737C135.636 41.5737 134.292 42.8197 134.292 44.8217C134.292 46.7257 135.482 47.9297 137.428 47.9297C138.786 47.9297 139.78 47.3557 140.242 46.2777C140.368 48.7417 139.374 50.3657 137.358 50.3657C136.602 50.3657 135.776 50.1417 135.146 49.7497ZM137.75 42.7357C139.318 42.7357 139.99 43.8557 139.99 44.7517C139.99 45.8577 139.136 46.8517 137.666 46.8517C136.378 46.8517 135.552 46.0677 135.552 44.8357C135.552 43.5197 136.448 42.7357 137.75 42.7357ZM143.809 49.9457C143.375 49.9457 143.039 50.2817 143.039 50.7437C143.039 51.2057 143.375 51.5557 143.809 51.5557C144.243 51.5557 144.565 51.2057 144.565 50.7437C144.565 50.2817 144.243 49.9457 143.809 49.9457ZM147.547 50.2117L150.501 47.1877C151.579 46.0677 152.321 44.9477 152.321 43.9957C152.321 42.5117 151.061 41.5737 149.171 41.5737C147.939 41.5737 146.693 42.0917 145.657 42.9317L146.231 43.9537C147.043 43.2117 148.093 42.7637 149.003 42.7637C150.207 42.7637 150.921 43.2957 150.921 44.1777C150.921 44.7797 150.389 45.6477 149.577 46.4597L145.783 50.3937V51.4297H152.867V50.2117H147.547ZM158.413 41.5737C155.767 41.5737 154.311 43.3377 154.311 46.5297C154.311 49.7217 155.767 51.4997 158.413 51.4997C161.045 51.4997 162.515 49.7217 162.515 46.5297C162.515 43.3377 161.045 41.5737 158.413 41.5737ZM158.413 42.6377C160.205 42.6377 161.129 43.9257 161.129 46.5297C161.129 49.1197 160.205 50.4217 158.413 50.4217C156.621 50.4217 155.697 49.1197 155.697 46.5297C155.697 43.9257 156.621 42.6377 158.413 42.6377ZM163.382 41.6297V42.8477H165.608V51.4297H166.952V41.6297H163.382ZM172.932 41.5737C170.986 41.5737 169.754 42.4977 169.754 44.0237C169.754 45.0177 170.342 45.7737 171.336 46.1937C170.076 46.5857 169.278 47.4817 169.278 48.7137C169.278 50.4357 170.692 51.4997 172.946 51.4997C175.2 51.4997 176.614 50.4217 176.614 48.6857C176.614 47.4677 175.844 46.5857 174.612 46.1937C175.55 45.8017 176.124 45.0457 176.124 44.0657C176.124 42.5117 174.906 41.5737 172.932 41.5737ZM172.946 42.5537C174.234 42.5537 174.976 43.1417 174.976 44.1357C174.976 45.1437 174.234 45.7317 172.946 45.7317C171.658 45.7317 170.902 45.1437 170.902 44.1357C170.902 43.1417 171.658 42.5537 172.946 42.5537ZM172.932 46.7957C174.444 46.7957 175.34 47.4677 175.34 48.5737C175.34 49.7357 174.444 50.4217 172.946 50.4217C171.434 50.4217 170.552 49.7357 170.552 48.5597C170.552 47.4537 171.434 46.7957 172.932 46.7957Z" fill="#51859F"/>
<rect x="61.5166" y="0.5" width="157.967" height="70.4939" rx="10.7146" stroke="#003C5A"/>
<rect x="145.5" y="225.994" width="143" height="80" rx="10.7146" fill="url(#paint1_radial_1203_322)" fill-opacity="0.5"/>
<path d="M191.907 250.154H189.443V247.9C189.443 245.352 187.875 243.798 185.285 243.798C182.709 243.798 181.155 245.352 181.155 247.9V249.678H182.499V247.9C182.499 246.08 183.549 245.016 185.285 245.016C187.021 245.016 188.099 246.094 188.099 247.9V254.494H189.443V251.372H191.907V250.154ZM202.738 247.088V251.218C202.584 252.436 201.842 253.276 200.722 253.318C199.63 253.318 199.112 252.576 199.112 251.316V247.088H197.81V250.742C197.81 252.212 197.054 253.276 195.78 253.318C194.702 253.318 194.17 252.576 194.17 251.316V247.088H192.868V251.666C192.868 253.458 193.778 254.536 195.332 254.536C196.578 254.522 197.502 253.948 197.922 252.66C198.202 253.85 199.028 254.536 200.274 254.536C201.408 254.522 202.276 254.06 202.738 252.996V254.494H204.04V247.088H202.738ZM206.15 256.594C208.376 255.698 206.514 253.402 206.514 250.994V247.088H207.83V251.148C207.886 253.388 210.252 256.804 206.15 257.546V256.594ZM227.024 248.11V247.102H221.074V243.896H221.06C219.982 244.106 218.428 244.344 217.406 243.994C214.522 242.972 212.828 244.932 214.144 246.444C215.25 247.536 216.034 248.334 216.034 249.818V250.686C216.034 252.156 215.194 253.234 213.78 253.262C212.59 253.304 211.862 252.52 211.862 251.288V247.06H210.56V251.638C210.56 253.416 211.582 254.508 213.304 254.508C214.578 254.508 215.53 254.004 216.034 252.898V254.452H217.35V249.832C217.35 248.362 217.056 247.466 215.908 246.598C214.354 245.338 214.97 244.26 217.196 245.002C217.868 245.226 218.862 245.282 219.758 245.114V251.666C219.758 253.458 220.78 254.536 222.502 254.536C223.776 254.522 224.728 254.032 225.232 252.926V254.494H226.548V249.65H225.232V250.728C225.232 252.198 224.406 253.276 222.978 253.304C221.788 253.304 221.074 252.562 221.074 251.316V248.11H227.024ZM234.314 247.088V250.728C234.314 252.198 233.474 253.276 232.06 253.304C230.87 253.304 230.142 252.562 230.142 251.316V243.896H226.726V244.904H228.826V251.666C228.826 253.458 229.862 254.536 231.584 254.536C232.858 254.522 233.81 254.032 234.314 252.926V254.494H235.63V247.088H234.314ZM244.186 256.426V257.434H240.378C238.908 257.434 237.69 256.958 237.704 255.236C237.718 253.542 239.538 252.926 240.994 252.212C241.82 251.82 242.94 251.386 242.926 250.042C242.912 248.992 242.282 248.222 240.98 248.194C239.748 248.166 239.104 248.908 239.048 249.846H237.732C237.816 248.208 238.922 247.06 240.98 247.06C243.038 247.06 244.228 248.432 244.242 250C244.256 252.268 242.408 252.968 241.68 253.304C240.35 253.962 239.02 254.424 239.006 255.348C238.992 255.922 239.398 256.426 240.406 256.426H244.186ZM251.527 247.088V250.728C251.527 252.198 250.687 253.276 249.273 253.304C248.083 253.304 247.355 252.562 247.355 251.316V243.896H243.939V244.904H246.039V251.666C246.039 253.458 247.075 254.536 248.797 254.536C250.071 254.522 251.023 254.032 251.527 252.926V254.494H252.843V247.088H251.527ZM174.408 268.232C174.394 266.594 173.456 264.97 169.914 264.76V260.896H168.584C166.792 260.91 165.196 261.582 165.196 263.43C165.196 265.096 166.666 265.754 168.584 265.894V270.346C166.582 270.192 165.182 269.324 165.238 267.952H163.894C163.824 270.332 166.372 271.55 169.13 271.592C171.916 271.634 174.422 270.584 174.408 268.232ZM166.526 263.36C166.526 262.646 167.114 262.128 168.584 262.114V264.704C167.114 264.62 166.526 264.27 166.526 263.36ZM173.064 268.232C173.064 269.674 171.72 270.262 169.914 270.36V265.95C172.042 266.09 173.078 266.776 173.064 268.232ZM180.185 264.046C178.883 264.06 177.903 264.536 177.385 265.628V260.896H176.069V274.448H177.385V267.532C177.497 266.216 178.351 265.306 179.695 265.278C180.927 265.278 181.669 266.02 181.669 267.266V271.494H182.985V266.916C182.985 265.138 181.935 264.046 180.185 264.046ZM193.583 272.362H186.989V270.038C187.535 270.99 188.501 271.536 189.761 271.536C191.861 271.536 193.275 270.01 193.275 267.812C193.275 265.586 191.833 264.046 189.733 264.046C188.501 264.046 187.535 264.592 186.989 265.558V264.088H185.673V272.362H184.581V273.356H185.673V274.448H186.989V273.356H193.583V272.362ZM189.467 265.152C190.923 265.152 191.959 266.258 191.959 267.77C191.959 269.31 190.923 270.402 189.467 270.402C188.025 270.402 186.989 269.324 186.989 267.77C186.989 266.258 188.025 265.152 189.467 265.152ZM200.803 264.088V267.728C200.803 269.198 199.963 270.276 198.549 270.304C197.359 270.304 196.631 269.562 196.631 268.316V264.088H195.329V268.666C195.329 270.458 196.351 271.536 198.073 271.536C199.347 271.522 200.299 271.032 200.803 269.926V271.494H202.119V264.088H200.803ZM213.714 270.486H211.614V266.916C211.614 265.138 210.564 264.046 208.814 264.046C207.512 264.06 206.532 264.536 206.014 265.628V264.088H204.698V271.494H206.014V267.532C206.126 266.216 206.98 265.306 208.324 265.278C209.556 265.278 210.298 266.02 210.298 267.266V274.448H211.614V271.494H213.714V270.486ZM223.143 262.842C221.925 262.842 220.987 263.374 220.343 264.2V260.896H219.013V271.494H220.343V268.596H220.357V266.972C220.357 265.166 221.407 264.046 223.143 264.046C224.949 264.046 225.957 265.278 225.957 267.098V268.344H227.301V267.098C227.301 264.55 225.831 262.842 223.143 262.842ZM234.998 264.088V267.728C234.998 269.198 234.158 270.276 232.744 270.304C231.554 270.304 230.826 269.562 230.826 268.316V260.896H227.41V261.904H229.51V268.666C229.51 270.458 230.546 271.536 232.268 271.536C233.542 271.522 234.494 271.032 234.998 269.926V271.494H236.314V264.088H234.998ZM247.082 272.362H240.488V270.038C241.034 270.99 242 271.536 243.26 271.536C245.36 271.536 246.774 270.01 246.774 267.812C246.774 265.586 245.332 264.046 243.232 264.046C242 264.046 241.034 264.592 240.488 265.558V264.088H239.172V272.362H238.08V273.356H239.172V274.448H240.488V273.356H247.082V272.362ZM242.966 265.152C244.422 265.152 245.458 266.258 245.458 267.77C245.458 269.31 244.422 270.402 242.966 270.402C241.524 270.402 240.488 269.324 240.488 267.77C240.488 266.258 241.524 265.152 242.966 265.152ZM258.697 264.088V268.218C258.543 269.436 257.801 270.276 256.681 270.318C255.589 270.318 255.071 269.576 255.071 268.316V264.088H253.769V267.742C253.769 269.212 253.013 270.276 251.739 270.318C250.661 270.318 250.129 269.576 250.129 268.316V264.088H248.827V268.666C248.827 270.458 249.737 271.536 251.291 271.536C252.537 271.522 253.461 270.948 253.881 269.66C254.161 270.85 254.987 271.536 256.233 271.536C257.367 271.522 258.235 271.06 258.697 269.996V271.494H259.999V264.088H258.697ZM271.307 260.896H267.891V267.728C267.891 269.198 267.051 270.276 265.637 270.304C264.447 270.332 263.719 269.562 263.719 268.316V264.088H262.417V268.666C262.417 270.458 263.439 271.536 265.161 271.536C266.435 271.536 267.387 271.032 267.891 269.926V271.494H269.193V261.904H271.307V260.896ZM161.191 283.44V282.208H166.175C167.379 282.208 168.709 281.928 168.709 280.682C168.709 279.744 167.673 279.016 165.937 279.016C164.243 279.016 163.543 279.632 163.417 280.542H162.087C162.185 278.624 163.949 277.784 165.909 277.798C168.023 277.812 170.053 278.806 170.053 280.822C170.053 281.592 169.619 282.488 168.499 282.768C170.095 283.328 170.697 284.266 170.669 285.414C170.627 287.542 168.709 288.578 166.147 288.592C163.725 288.606 161.275 287.43 161.345 285.05H162.675C162.703 286.604 164.313 287.388 166.161 287.374C167.813 287.36 169.325 286.828 169.325 285.302C169.325 284.126 168.135 283.44 166.217 283.44H161.191ZM174.255 281.9C174.255 280.094 175.333 279.016 177.069 279.016C178.791 279.016 179.855 280.08 179.855 281.9V288.494H181.199V281.9C181.199 279.352 179.645 277.798 177.069 277.798C174.479 277.798 172.911 279.352 172.911 281.9V288.494H174.255V281.9ZM187.001 281.102H184.369V277.896H183.025V288.494H184.369V282.334H187.001V281.102ZM195.926 281.718V280.486H189.444V277.896H188.114V288.494H193.028C193.518 288.494 193.812 288.774 193.812 289.208V289.544H195.156V289.012C195.156 287.808 194.568 287.262 193.336 287.262H189.444V281.718H195.926ZM198.851 284.49V277.896H197.507V284.49C197.507 287.052 199.075 288.592 201.665 288.592C204.241 288.592 205.795 287.052 205.795 284.49V277.896H204.451V284.49C204.451 286.31 203.387 287.374 201.665 287.374C199.929 287.374 198.851 286.31 198.851 284.49ZM219.114 284.154H216.65V281.9C216.65 279.352 215.082 277.798 212.492 277.798C209.916 277.798 208.362 279.352 208.362 281.9V283.678H209.706V281.9C209.706 280.08 210.756 279.016 212.492 279.016C214.228 279.016 215.306 280.094 215.306 281.9V288.494H216.65V285.372H219.114V284.154ZM224.359 279.842C223.141 279.842 222.203 280.374 221.559 281.2V277.896H220.229V288.494H221.559V285.596H221.573V283.972C221.573 282.166 222.623 281.046 224.359 281.046C226.165 281.046 227.173 282.278 227.173 284.098V285.344H228.517V284.098C228.517 281.55 227.047 279.842 224.359 279.842ZM244.64 285.232C244.626 283.594 243.688 281.97 240.146 281.76V277.896H238.816C237.024 277.91 235.428 278.582 235.428 280.43C235.428 282.096 236.898 282.754 238.816 282.894V287.346C236.814 287.192 235.414 286.324 235.47 284.952H234.126C234.056 287.332 236.604 288.55 239.362 288.592C242.148 288.634 244.654 287.584 244.64 285.232ZM236.758 280.36C236.758 279.646 237.346 279.128 238.816 279.114V281.704C237.346 281.62 236.758 281.27 236.758 280.36ZM243.296 285.232C243.296 286.674 241.952 287.262 240.146 287.36V282.95C242.274 283.09 243.31 283.776 243.296 285.232ZM250.418 281.046C249.116 281.06 248.136 281.536 247.618 282.628V281.088H246.302V288.494H247.618V284.532C247.73 283.216 248.584 282.306 249.928 282.278C251.16 282.278 251.902 283.02 251.902 284.266V288.494H253.218V283.916C253.218 282.138 252.168 281.046 250.418 281.046ZM261.221 281.088V284.728C261.221 286.198 260.381 287.276 258.967 287.304C257.777 287.304 257.049 286.562 257.049 285.316V277.896H253.633V278.904H255.733V285.666C255.733 287.458 256.769 288.536 258.491 288.536C259.765 288.522 260.717 288.032 261.221 286.926V288.494H262.537V281.088H261.221ZM274.13 287.486H272.03V283.916C272.03 282.138 270.98 281.046 269.23 281.046C267.928 281.06 266.948 281.536 266.43 282.628V281.088H265.114V288.494H266.43V284.532C266.542 283.216 267.396 282.306 268.74 282.278C269.972 282.278 270.714 283.02 270.714 284.266V291.448H272.03V288.494H274.13V287.486Z" fill="white"/>
<rect x="145.5" y="225.994" width="143" height="80" rx="10.7146" stroke="#003C5A"/>
<rect x="0.5" y="225.994" width="127" height="80" rx="10.7146" fill="url(#paint2_radial_1203_322)" fill-opacity="0.5"/>
<path d="M38.9072 250.154H36.4432V247.9C36.4432 245.352 34.8752 243.798 32.2852 243.798C29.7092 243.798 28.1552 245.352 28.1552 247.9V249.678H29.4992V247.9C29.4992 246.08 30.5492 245.016 32.2852 245.016C34.0212 245.016 35.0992 246.094 35.0992 247.9V254.494H36.4432V251.372H38.9072V250.154ZM49.7384 247.088V251.218C49.5844 252.436 48.8424 253.276 47.7224 253.318C46.6304 253.318 46.1124 252.576 46.1124 251.316V247.088H44.8104V250.742C44.8104 252.212 44.0544 253.276 42.7804 253.318C41.7024 253.318 41.1704 252.576 41.1704 251.316V247.088H39.8684V251.666C39.8684 253.458 40.7784 254.536 42.3324 254.536C43.5784 254.522 44.5024 253.948 44.9224 252.66C45.2024 253.85 46.0284 254.536 47.2744 254.536C48.4084 254.522 49.2764 254.06 49.7384 252.996V254.494H51.0404V247.088H49.7384ZM53.1502 256.594C55.3762 255.698 53.5142 253.402 53.5142 250.994V247.088H54.8302V251.148C54.8862 253.388 57.2522 256.804 53.1502 257.546V256.594ZM74.0238 248.11V247.102H68.0738V243.896H68.0598C66.9818 244.106 65.4278 244.344 64.4058 243.994C61.5218 242.972 59.8278 244.932 61.1438 246.444C62.2498 247.536 63.0338 248.334 63.0338 249.818V250.686C63.0338 252.156 62.1938 253.234 60.7798 253.262C59.5898 253.304 58.8618 252.52 58.8618 251.288V247.06H57.5598V251.638C57.5598 253.416 58.5818 254.508 60.3038 254.508C61.5778 254.508 62.5298 254.004 63.0338 252.898V254.452H64.3498V249.832C64.3498 248.362 64.0558 247.466 62.9078 246.598C61.3538 245.338 61.9698 244.26 64.1958 245.002C64.8678 245.226 65.8618 245.282 66.7578 245.114V251.666C66.7578 253.458 67.7798 254.536 69.5018 254.536C70.7758 254.522 71.7278 254.032 72.2318 252.926V254.494H73.5478V249.65H72.2318V250.728C72.2318 252.198 71.4058 253.276 69.9778 253.304C68.7878 253.304 68.0738 252.562 68.0738 251.316V248.11H74.0238ZM81.3144 247.088V250.728C81.3144 252.198 80.4744 253.276 79.0604 253.304C77.8704 253.304 77.1424 252.562 77.1424 251.316V243.896H73.7264V244.904H75.8264V251.666C75.8264 253.458 76.8624 254.536 78.5844 254.536C79.8584 254.522 80.8104 254.032 81.3144 252.926V254.494H82.6304V247.088H81.3144ZM91.1859 256.426V257.434H87.3779C85.9079 257.434 84.6899 256.958 84.7039 255.236C84.7179 253.542 86.5379 252.926 87.9939 252.212C88.8199 251.82 89.9399 251.386 89.9259 250.042C89.9119 248.992 89.2819 248.222 87.9799 248.194C86.7479 248.166 86.1039 248.908 86.0479 249.846H84.7319C84.8159 248.208 85.9219 247.06 87.9799 247.06C90.0379 247.06 91.2279 248.432 91.2419 250C91.2559 252.268 89.4079 252.968 88.6799 253.304C87.3499 253.962 86.0199 254.424 86.0059 255.348C85.9919 255.922 86.3979 256.426 87.4059 256.426H91.1859ZM98.5273 247.088V250.728C98.5273 252.198 97.6873 253.276 96.2733 253.304C95.0833 253.304 94.3553 252.562 94.3553 251.316V243.896H90.9393V244.904H93.0393V251.666C93.0393 253.458 94.0753 254.536 95.7973 254.536C97.0713 254.522 98.0233 254.032 98.5273 252.926V254.494H99.8433V247.088H98.5273ZM49.8861 268.232C49.8721 266.594 48.9341 264.97 45.3921 264.76V260.896H44.0621C42.2701 260.91 40.6741 261.582 40.6741 263.43C40.6741 265.096 42.1441 265.754 44.0621 265.894V270.346C42.0601 270.192 40.6601 269.324 40.7161 267.952H39.3721C39.3021 270.332 41.8501 271.55 44.6081 271.592C47.3941 271.634 49.9001 270.584 49.8861 268.232ZM42.0041 263.36C42.0041 262.646 42.5921 262.128 44.0621 262.114V264.704C42.5921 264.62 42.0041 264.27 42.0041 263.36ZM48.5421 268.232C48.5421 269.674 47.1981 270.262 45.3921 270.36V265.95C47.5201 266.09 48.5561 266.776 48.5421 268.232ZM55.6638 264.046C54.3618 264.06 53.3818 264.536 52.8638 265.628V260.896H51.5478V274.448H52.8638V267.532C52.9758 266.216 53.8298 265.306 55.1738 265.278C56.4058 265.278 57.1478 266.02 57.1478 267.266V271.494H58.4638V266.916C58.4638 265.138 57.4138 264.046 55.6638 264.046ZM69.062 272.362H62.468V270.038C63.014 270.99 63.98 271.536 65.24 271.536C67.34 271.536 68.754 270.01 68.754 267.812C68.754 265.586 67.312 264.046 65.212 264.046C63.98 264.046 63.014 264.592 62.468 265.558V264.088H61.152V272.362H60.06V273.356H61.152V274.448H62.468V273.356H69.062V272.362ZM64.946 265.152C66.402 265.152 67.438 266.258 67.438 267.77C67.438 269.31 66.402 270.402 64.946 270.402C63.504 270.402 62.468 269.324 62.468 267.77C62.468 266.258 63.504 265.152 64.946 265.152ZM76.2818 264.088V267.728C76.2818 269.198 75.4418 270.276 74.0278 270.304C72.8378 270.304 72.1098 269.562 72.1098 268.316V264.088H70.8078V268.666C70.8078 270.458 71.8298 271.536 73.5518 271.536C74.8258 271.522 75.7778 271.032 76.2818 269.926V271.494H77.5978V264.088H76.2818ZM89.1927 270.486H87.0927V266.916C87.0927 265.138 86.0427 264.046 84.2927 264.046C82.9907 264.06 82.0107 264.536 81.4927 265.628V264.088H80.1767V271.494H81.4927V267.532C81.6047 266.216 82.4587 265.306 83.8027 265.278C85.0347 265.278 85.7767 266.02 85.7767 267.266V274.448H87.0927V271.494H89.1927V270.486ZM20.8418 279.842C19.6238 279.842 18.6858 280.374 18.0418 281.2V277.896H16.7118V288.494H18.0418V285.596H18.0558V283.972C18.0558 282.166 19.1058 281.046 20.8418 281.046C22.6478 281.046 23.6558 282.278 23.6558 284.098V285.344H24.9998V284.098C24.9998 281.55 23.5298 279.842 20.8418 279.842ZM32.6972 281.088V284.728C32.6972 286.198 31.8572 287.276 30.4432 287.304C29.2532 287.304 28.5252 286.562 28.5252 285.316V277.896H25.1092V278.904H27.2092V285.666C27.2092 287.458 28.2452 288.536 29.9672 288.536C31.2412 288.522 32.1932 288.032 32.6972 286.926V288.494H34.0132V281.088H32.6972ZM44.7807 289.362H38.1867V287.038C38.7327 287.99 39.6987 288.536 40.9587 288.536C43.0587 288.536 44.4727 287.01 44.4727 284.812C44.4727 282.586 43.0307 281.046 40.9307 281.046C39.6987 281.046 38.7327 281.592 38.1867 282.558V281.088H36.8707V289.362H35.7787V290.356H36.8707V291.448H38.1867V290.356H44.7807V289.362ZM40.6647 282.152C42.1207 282.152 43.1567 283.258 43.1567 284.77C43.1567 286.31 42.1207 287.402 40.6647 287.402C39.2227 287.402 38.1867 286.324 38.1867 284.77C38.1867 283.258 39.2227 282.152 40.6647 282.152ZM56.3966 281.088V285.218C56.2426 286.436 55.5006 287.276 54.3806 287.318C53.2886 287.318 52.7706 286.576 52.7706 285.316V281.088H51.4686V284.742C51.4686 286.212 50.7126 287.276 49.4386 287.318C48.3606 287.318 47.8286 286.576 47.8286 285.316V281.088H46.5266V285.666C46.5266 287.458 47.4366 288.536 48.9906 288.536C50.2366 288.522 51.1606 287.948 51.5806 286.66C51.8606 287.85 52.6866 288.536 53.9326 288.536C55.0666 288.522 55.9346 288.06 56.3966 286.996V288.494H57.6986V281.088H56.3966ZM69.0064 277.896H65.5904V284.728C65.5904 286.198 64.7504 287.276 63.3364 287.304C62.1464 287.332 61.4184 286.562 61.4184 285.316V281.088H60.1164V285.666C60.1164 287.458 61.1384 288.536 62.8604 288.536C64.1344 288.536 65.0864 288.032 65.5904 286.926V288.494H66.8924V278.904H69.0064V277.896ZM83.2729 285.232C83.2589 283.594 82.3209 281.97 78.7789 281.76V277.896H77.4489C75.6569 277.91 74.0609 278.582 74.0609 280.43C74.0609 282.096 75.5309 282.754 77.4489 282.894V287.346C75.4469 287.192 74.0469 286.324 74.1029 284.952H72.7589C72.6889 287.332 75.2369 288.55 77.9949 288.592C80.7809 288.634 83.2869 287.584 83.2729 285.232ZM75.3909 280.36C75.3909 279.646 75.9789 279.128 77.4489 279.114V281.704C75.9789 281.62 75.3909 281.27 75.3909 280.36ZM81.9289 285.232C81.9289 286.674 80.5849 287.262 78.7789 287.36V282.95C80.9069 283.09 81.9429 283.776 81.9289 285.232ZM89.0505 281.046C87.7485 281.06 86.7685 281.536 86.2505 282.628V281.088H84.9345V288.494H86.2505V284.532C86.3625 283.216 87.2165 282.306 88.5605 282.278C89.7925 282.278 90.5345 283.02 90.5345 284.266V288.494H91.8505V283.916C91.8505 282.138 90.8005 281.046 89.0505 281.046ZM99.8535 281.088V284.728C99.8535 286.198 99.0135 287.276 97.5995 287.304C96.4095 287.304 95.6815 286.562 95.6815 285.316V277.896H92.2655V278.904H94.3655V285.666C94.3655 287.458 95.4015 288.536 97.1235 288.536C98.3975 288.522 99.3495 288.032 99.8535 286.926V288.494H101.169V281.088H99.8535ZM112.763 287.486H110.663V283.916C110.663 282.138 109.613 281.046 107.863 281.046C106.561 281.06 105.581 281.536 105.063 282.628V281.088H103.747V288.494H105.063V284.532C105.175 283.216 106.029 282.306 107.373 282.278C108.605 282.278 109.347 283.02 109.347 284.266V291.448H110.663V288.494H112.763V287.486Z" fill="white"/>
<rect x="0.5" y="225.994" width="127" height="80" rx="10.7146" stroke="#003C5A"/>
<rect x="59.5" y="101.994" width="162" height="63" rx="10.7146" fill="url(#paint3_radial_1203_322)" fill-opacity="0.5"/>
<path d="M86.1015 126.154H83.6375V123.9C83.6375 121.352 82.0695 119.798 79.4795 119.798C76.9035 119.798 75.3495 121.352 75.3495 123.9V125.678H76.6935V123.9C76.6935 122.08 77.7435 121.016 79.4795 121.016C81.2155 121.016 82.2935 122.094 82.2935 123.9V130.494H83.6375V127.372H86.1015V126.154ZM96.9327 123.088V127.218C96.7787 128.436 96.0367 129.276 94.9167 129.318C93.8247 129.318 93.3067 128.576 93.3067 127.316V123.088H92.0047V126.742C92.0047 128.212 91.2487 129.276 89.9747 129.318C88.8967 129.318 88.3647 128.576 88.3647 127.316V123.088H87.0627V127.666C87.0627 129.458 87.9727 130.536 89.5267 130.536C90.7727 130.522 91.6967 129.948 92.1167 128.66C92.3967 129.85 93.2227 130.536 94.4687 130.536C95.6027 130.522 96.4707 130.06 96.9327 128.996V130.494H98.2347V123.088H96.9327ZM100.345 132.594C102.571 131.698 100.709 129.402 100.709 126.994V123.088H102.025V127.148C102.081 129.388 104.447 132.804 100.345 133.546V132.594ZM121.218 124.11V123.102H115.268V119.896H115.254C114.176 120.106 112.622 120.344 111.6 119.994C108.716 118.972 107.022 120.932 108.338 122.444C109.444 123.536 110.228 124.334 110.228 125.818V126.686C110.228 128.156 109.388 129.234 107.974 129.262C106.784 129.304 106.056 128.52 106.056 127.288V123.06H104.754V127.638C104.754 129.416 105.776 130.508 107.498 130.508C108.772 130.508 109.724 130.004 110.228 128.898V130.452H111.544V125.832C111.544 124.362 111.25 123.466 110.102 122.598C108.548 121.338 109.164 120.26 111.39 121.002C112.062 121.226 113.056 121.282 113.952 121.114V127.666C113.952 129.458 114.974 130.536 116.696 130.536C117.97 130.522 118.922 130.032 119.426 128.926V130.494H120.742V125.65H119.426V126.728C119.426 128.198 118.6 129.276 117.172 129.304C115.982 129.304 115.268 128.562 115.268 127.316V124.11H121.218ZM128.509 123.088V126.728C128.509 128.198 127.669 129.276 126.255 129.304C125.065 129.304 124.337 128.562 124.337 127.316V119.896H120.921V120.904H123.021V127.666C123.021 129.458 124.057 130.536 125.779 130.536C127.053 130.522 128.005 130.032 128.509 128.926V130.494H129.825V123.088H128.509ZM138.38 132.426V133.434H134.572C133.102 133.434 131.884 132.958 131.898 131.236C131.912 129.542 133.732 128.926 135.188 128.212C136.014 127.82 137.134 127.386 137.12 126.042C137.106 124.992 136.476 124.222 135.174 124.194C133.942 124.166 133.298 124.908 133.242 125.846H131.926C132.01 124.208 133.116 123.06 135.174 123.06C137.232 123.06 138.422 124.432 138.436 126C138.45 128.268 136.602 128.968 135.874 129.304C134.544 129.962 133.214 130.424 133.2 131.348C133.186 131.922 133.592 132.426 134.6 132.426H138.38ZM145.722 123.088V126.728C145.722 128.198 144.882 129.276 143.468 129.304C142.278 129.304 141.55 128.562 141.55 127.316V119.896H138.134V120.904H140.234V127.666C140.234 129.458 141.27 130.536 142.992 130.536C144.266 130.522 145.218 130.032 145.722 128.926V130.494H147.038V123.088H145.722ZM163.416 127.232C163.402 125.594 162.464 123.97 158.922 123.76V119.896H157.592C155.8 119.91 154.204 120.582 154.204 122.43C154.204 124.096 155.674 124.754 157.592 124.894V129.346C155.59 129.192 154.19 128.324 154.246 126.952H152.902C152.832 129.332 155.38 130.55 158.138 130.592C160.924 130.634 163.43 129.584 163.416 127.232ZM155.534 122.36C155.534 121.646 156.122 121.128 157.592 121.114V123.704C156.122 123.62 155.534 123.27 155.534 122.36ZM162.072 127.232C162.072 128.674 160.728 129.262 158.922 129.36V124.95C161.05 125.09 162.086 125.776 162.072 127.232ZM174.794 123.088V127.218C174.64 128.436 173.898 129.276 172.778 129.318C171.686 129.318 171.168 128.576 171.168 127.316V123.088H169.866V126.742C169.866 128.212 169.11 129.276 167.836 129.318C166.758 129.318 166.226 128.576 166.226 127.316V123.088H164.924V127.666C164.924 129.458 165.834 130.536 167.388 130.536C168.634 130.522 169.558 129.948 169.978 128.66C170.258 129.85 171.084 130.536 172.33 130.536C173.464 130.522 174.332 130.06 174.794 128.996V130.494H176.096V123.088H174.794ZM184.263 123.088V126.728C184.263 128.198 183.423 129.276 182.009 129.304C180.819 129.304 180.091 128.562 180.091 127.316V119.896H176.675V120.904H178.775V127.666C178.775 129.458 179.811 130.536 181.533 130.536C182.807 130.522 183.759 130.032 184.263 128.926V130.494H185.579V123.088H184.263ZM197.172 129.486H195.072V125.916C195.072 124.138 194.022 123.046 192.272 123.046C190.97 123.06 189.99 123.536 189.472 124.628V123.088H188.156V130.494H189.472V126.532C189.584 125.216 190.438 124.306 191.782 124.278C193.014 124.278 193.756 125.02 193.756 126.266V133.448H195.072V130.494H197.172V129.486ZM205.287 132.44V123.088H203.971V124.544C203.425 123.578 202.459 123.032 201.185 123.032C199.099 123.032 197.643 124.558 197.643 126.77C197.643 129.01 199.085 130.564 201.213 130.564C202.473 130.564 203.425 130.018 203.971 129.052V133.448H207.387V132.44H205.287ZM201.465 129.444C199.995 129.444 198.973 128.352 198.959 126.812C198.973 125.272 200.009 124.166 201.465 124.166C202.935 124.166 203.971 125.258 203.971 126.812C203.971 128.352 202.935 129.444 201.465 129.444ZM90.5039 136.896H86.6959V143.49C86.6959 145.31 85.6319 146.374 83.9099 146.374C82.1739 146.374 81.0959 145.31 81.0959 143.49V136.896H79.7519V143.49C79.7519 146.052 81.3199 147.592 83.9099 147.592C86.4859 147.592 88.0399 146.052 88.0399 143.49V138.114H90.5039V136.896ZM98.4576 141.11V140.102H92.4936V136.896H91.1916V144.666C91.1916 146.458 92.2136 147.536 93.9356 147.536C95.2096 147.522 96.1616 147.032 96.6656 145.926V147.494H97.9816V142.65H96.6656V143.728C96.6656 145.198 95.8256 146.276 94.4116 146.304C93.2216 146.304 92.4936 145.562 92.4936 144.316V141.11H98.4576ZM105.745 140.088V143.728C105.745 145.198 104.905 146.276 103.491 146.304C102.301 146.304 101.573 145.562 101.573 144.316V136.896H98.1571V137.904H100.257V144.666C100.257 146.458 101.293 147.536 103.015 147.536C104.289 147.522 105.241 147.032 105.745 145.926V147.494H107.061V140.088H105.745ZM116.751 141.11V140.102H110.787V136.896H109.485V144.666C109.485 146.458 110.507 147.536 112.229 147.536C113.503 147.522 114.455 147.032 114.959 145.926V147.494H116.275V142.65H114.959V143.728C114.959 145.198 114.119 146.276 112.705 146.304C111.515 146.304 110.787 145.562 110.787 144.316V141.11H116.751ZM119.6 148.656C119.6 147.942 120.706 147.592 122.288 146.878C124.052 146.052 125.102 145.128 125.074 143.07C125.046 141.516 123.884 140.046 121.658 140.046C119.502 140.046 118.354 141.404 118.368 143.042C118.382 144.792 119.642 145.002 120.09 145.478C120.356 145.772 120.3 146.192 119.642 146.836C118.844 147.298 118.284 147.844 118.284 148.67C118.284 150.196 119.278 150.448 120.832 150.448H125.004V149.44H120.93C120.202 149.468 119.6 149.258 119.6 148.656ZM121.378 145.03C121.07 144.302 119.684 144.54 119.684 143C119.67 142.132 120.398 141.194 121.686 141.18C123.016 141.18 123.73 142.118 123.758 143.126C123.814 144.778 122.764 145.408 121.602 145.912L121.21 146.08C121.406 145.758 121.518 145.296 121.378 145.03ZM143.353 141.11V140.102H137.403V136.896H137.389C136.311 137.106 134.757 137.344 133.735 136.994C130.851 135.972 129.157 137.932 130.473 139.444C131.579 140.536 132.363 141.334 132.363 142.818V143.686C132.363 145.156 131.523 146.234 130.109 146.262C128.919 146.304 128.191 145.52 128.191 144.288V140.06H126.889V144.638C126.889 146.416 127.911 147.508 129.633 147.508C130.907 147.508 131.859 147.004 132.363 145.898V147.452H133.679V142.832C133.679 141.362 133.385 140.466 132.237 139.598C130.683 138.338 131.299 137.26 133.525 138.002C134.197 138.226 135.191 138.282 136.087 138.114V144.666C136.087 146.458 137.109 147.536 138.831 147.536C140.105 147.522 141.057 147.032 141.561 145.926V147.494H142.877V142.65H141.561V143.728C141.561 145.198 140.735 146.276 139.307 146.304C138.117 146.304 137.403 145.562 137.403 144.316V141.11H143.353ZM150.643 140.088V143.728C150.643 145.198 149.803 146.276 148.389 146.304C147.199 146.304 146.471 145.562 146.471 144.316V136.896H143.055V137.904H145.155V144.666C145.155 146.458 146.191 147.536 147.913 147.536C149.187 147.522 150.139 147.032 150.643 145.926V147.494H151.959V140.088H150.643ZM164.337 142.846H162.923C162.881 140.956 161.257 140.004 159.367 140.004C157.967 140.004 156.609 140.55 155.853 141.656V140.088H154.537V150.448H155.853V143.854C155.853 142.524 157.365 141.264 158.989 141.264C160.277 141.264 161.355 141.768 161.565 142.846H160.263C158.625 142.846 157.561 143.686 157.561 145.128C157.561 146.598 158.667 147.536 160.305 147.536C161.663 147.536 162.923 146.71 162.923 145.114V143.854H164.337V142.846ZM161.607 145.128C161.607 145.898 161.229 146.5 160.235 146.5C159.367 146.5 158.709 145.996 158.709 145.156C158.709 144.176 159.521 143.854 160.081 143.854H161.607V145.128ZM170.893 143.49V136.896H169.549V143.49C169.549 146.052 171.117 147.592 173.707 147.592C176.283 147.592 177.837 146.052 177.837 143.49V136.896H176.493V143.49C176.493 145.31 175.429 146.374 173.707 146.374C171.971 146.374 170.893 145.31 170.893 143.49ZM185.248 136.798C182.14 136.798 180.264 138.352 180.264 140.9V142.678H181.608V140.9C181.622 139.178 182.84 138.24 184.59 138.044V144.134H185.934V138.058C187.656 138.24 188.804 139.192 188.93 140.9V147.494H190.288V140.9C190.288 138.352 188.384 136.798 185.248 136.798ZM194.19 146.262V140.9C194.19 139.094 195.268 138.016 197.004 138.016C198.726 138.016 199.79 139.08 199.79 140.9V142.762H201.134V140.9C201.134 138.352 199.58 136.798 197.004 136.798C194.414 136.798 192.846 138.352 192.846 140.9V147.494H201.526V146.262H194.19Z" fill="white"/>
<rect x="59.5" y="101.994" width="162" height="63" rx="10.7146" stroke="#003C5A"/>
<defs>
<radialGradient id="paint0_radial_1203_322" cx="0" cy="0" r="1" gradientUnits="userSpaceOnUse" gradientTransform="translate(83.3955 -9.60061) rotate(37.6566) scale(172.528 572.814)">
<stop offset="0.348958" stop-color="#006191"/>
<stop offset="0.989583" stop-color="#006192" stop-opacity="0"/>
</radialGradient>
<radialGradient id="paint1_radial_1203_322" cx="0" cy="0" r="1" gradientUnits="userSpaceOnUse" gradientTransform="translate(165.272 214.617) rotate(43.9843) scale(171.957 589.829)">
<stop offset="0.348958" stop-color="#006191"/>
<stop offset="0.989583" stop-color="#006192" stop-opacity="0"/>
</radialGradient>
<radialGradient id="paint2_radial_1203_322" cx="0" cy="0" r="1" gradientUnits="userSpaceOnUse" gradientTransform="translate(18.0194 214.617) rotate(47.3556) scale(162.346 555.33)">
<stop offset="0.348958" stop-color="#006191"/>
<stop offset="0.989583" stop-color="#006192" stop-opacity="0"/>
</radialGradient>
<radialGradient id="paint3_radial_1203_322" cx="0" cy="0" r="1" gradientUnits="userSpaceOnUse" gradientTransform="translate(81.9466 92.8999) rotate(33.9682) scale(168.872 537.166)">
<stop offset="0.348958" stop-color="#006191"/>
<stop offset="0.989583" stop-color="#006192" stop-opacity="0"/>
</radialGradient>
</defs>
</svg>
