<svg width="706" height="268" viewBox="0 0 706 268" fill="none" xmlns="http://www.w3.org/2000/svg">
<path d="M144.761 184.363L144.761 214.363" stroke="#003C5A"/>
<path d="M329.267 154.363L329.267 184.363" stroke="#003C5A"/>
<path d="M329.267 71.9336L329.267 101.934" stroke="#003C5A"/>
<path d="M513.772 184.363L513.772 214.363" stroke="#003C5A"/>
<path d="M513.772 184.363L144.762 184.363" stroke="#003C5A" stroke-width="1.12146"/>
<rect x="250.283" y="0.664062" width="157.967" height="70.4939" rx="10.7146" fill="url(#paint0_radial_1024_503)" fill-opacity="0.5"/>
<path d="M271.191 21.1738H266.717V32.1641H271.144C274.41 32.1641 276.859 29.809 276.859 26.6689C276.859 23.5131 274.426 21.1738 271.191 21.1738ZM271.223 30.7981H268.224V22.5397H271.16C273.499 22.5397 275.321 24.2982 275.321 26.6846C275.321 29.0554 273.531 30.7981 271.223 30.7981ZM279.594 20.5458C279.076 20.5458 278.684 20.9383 278.684 21.4878C278.684 22.0216 279.076 22.4298 279.594 22.4298C280.112 22.4298 280.505 22.0216 280.505 21.4878C280.505 20.9383 280.112 20.5458 279.594 20.5458ZM278.872 23.8586V32.1641H280.332V23.8586H278.872ZM293.904 23.8115C292.334 23.8272 291.203 24.4552 290.67 25.8996C290.309 24.5808 289.272 23.8115 287.734 23.8115C286.289 23.8272 285.206 24.3767 284.641 25.6013V23.8586H283.181V32.1641H284.641V28.0663C284.641 26.4177 285.598 25.2245 287.184 25.1774C288.534 25.1774 289.335 26.0095 289.335 27.4225V32.1641H290.811V28.0663C290.811 26.4177 291.753 25.2245 293.339 25.1774C294.673 25.1774 295.49 26.0095 295.49 27.4225V32.1641H296.965V27.03C296.965 25.0361 295.819 23.8115 293.904 23.8115ZM302.899 23.8115C300.466 23.8272 298.754 25.5385 298.754 28.0192C298.754 30.4998 300.45 32.2112 302.931 32.2112C304.344 32.2112 305.521 31.7088 306.322 30.8295L305.521 29.9974C304.893 30.6568 304.014 31.0179 303.041 31.0179C301.565 31.0179 300.466 30.0759 300.23 28.5844H306.793C306.95 25.6798 305.694 23.8115 302.899 23.8115ZM300.215 27.4539C300.403 25.9781 301.439 25.0204 302.915 25.0204C304.422 25.0204 305.411 25.9467 305.49 27.4539H300.215ZM313.417 23.8115C311.941 23.8272 310.842 24.3767 310.261 25.617V23.8586H308.801V32.1641H310.261V27.7209C310.387 26.245 311.36 25.2245 312.867 25.1931C314.249 25.1931 315.081 26.0252 315.081 27.4225V32.1641H316.541V27.03C316.541 25.0361 315.379 23.8115 313.417 23.8115ZM323.688 25.6955L324.222 24.5808C323.515 24.0941 322.479 23.7958 321.474 23.7958C319.92 23.7958 318.507 24.4709 318.507 26.1037C318.491 29.0711 323.028 28.0663 322.997 29.966C322.997 30.7196 322.29 31.0336 321.396 31.0336C320.453 31.0336 319.339 30.6411 318.632 29.9974L318.083 31.065C318.883 31.803 320.139 32.2112 321.348 32.2112C322.966 32.2112 324.441 31.4732 324.441 29.8247C324.457 26.8102 319.904 27.7209 319.904 25.9938C319.904 25.2873 320.532 25.0047 321.364 25.0047C322.118 25.0047 322.997 25.2716 323.688 25.6955ZM327.094 20.5458C326.576 20.5458 326.184 20.9383 326.184 21.4878C326.184 22.0216 326.576 22.4298 327.094 22.4298C327.612 22.4298 328.005 22.0216 328.005 21.4878C328.005 20.9383 327.612 20.5458 327.094 20.5458ZM326.372 23.8586V32.1641H327.832V23.8586H326.372ZM334.134 23.8115C331.607 23.8115 329.864 25.5228 329.864 28.0035C329.864 30.4998 331.607 32.2112 334.134 32.2112C336.631 32.2112 338.389 30.4998 338.389 28.0035C338.389 25.5228 336.631 23.8115 334.134 23.8115ZM334.134 25.0832C335.752 25.0832 336.913 26.2921 336.913 28.0192C336.913 29.7776 335.752 30.9708 334.134 30.9708C332.486 30.9708 331.34 29.7776 331.34 28.0192C331.34 26.2921 332.486 25.0832 334.134 25.0832ZM345.048 23.8115C343.572 23.8272 342.473 24.3767 341.892 25.617V23.8586H340.432V32.1641H341.892V27.7209C342.017 26.245 342.991 25.2245 344.498 25.1931C345.88 25.1931 346.712 26.0252 346.712 27.4225V32.1641H348.172V27.03C348.172 25.0361 347.01 23.8115 345.048 23.8115ZM363.59 23.8115L364.484 22.7281C363.433 21.6919 361.925 21.0796 360.402 21.0796C357.184 21.0796 354.656 23.5288 354.656 26.6532C354.656 29.7933 357.152 32.274 360.34 32.274C361.878 32.274 363.401 31.5988 364.5 30.5312L363.59 29.5421C362.742 30.3585 361.58 30.8609 360.418 30.8609C358.063 30.8609 356.179 28.9769 356.179 26.6375C356.179 24.2825 358.063 22.4141 360.418 22.4141C361.596 22.4141 362.757 22.9479 363.59 23.8115ZM371.412 28.8356V21.1738H366.011V22.5554H369.889V28.7885C369.889 30.0602 369.245 30.751 368.13 30.751C367.33 30.751 366.466 30.3114 365.76 29.495L365.022 30.6568C365.807 31.6459 366.89 32.2269 368.146 32.2269C370.187 32.2269 371.412 31.0022 371.412 28.8356ZM380.726 23.466L381.354 22.1158C380.396 21.4721 379.062 21.0482 377.727 21.0482C375.388 21.0482 373.833 22.21 373.833 23.9999C373.833 27.9564 379.909 26.4648 379.909 29.2281C379.909 30.2172 379.014 30.8295 377.539 30.8295C376.33 30.8295 374.932 30.2643 373.865 29.2281L373.19 30.5312C374.273 31.5517 375.874 32.2583 377.523 32.2583C379.909 32.2583 381.574 31.0493 381.574 29.1496C381.589 25.1617 375.513 26.5747 375.513 23.8743C375.513 23.0107 376.345 22.4926 377.617 22.4926C378.481 22.4926 379.642 22.7752 380.726 23.466ZM391.939 23.8115L392.834 22.7281C391.782 21.6919 390.275 21.0796 388.752 21.0796C385.533 21.0796 383.006 23.5288 383.006 26.6532C383.006 29.7933 385.502 32.274 388.689 32.274C390.228 32.274 391.751 31.5988 392.85 30.5312L391.939 29.5421C391.091 30.3585 389.93 30.8609 388.768 30.8609C386.413 30.8609 384.529 28.9769 384.529 26.6375C384.529 24.2825 386.413 22.4141 388.768 22.4141C389.945 22.4141 391.107 22.9479 391.939 23.8115Z" fill="white"/>
<path d="M290.498 51.2278L293.811 47.8365C295.02 46.5805 295.852 45.3245 295.852 44.2568C295.852 42.5926 294.439 41.5407 292.319 41.5407C290.937 41.5407 289.54 42.1216 288.378 43.0636L289.022 44.2097C289.933 43.3776 291.11 42.8752 292.131 42.8752C293.481 42.8752 294.282 43.4718 294.282 44.4609C294.282 45.1361 293.685 46.1095 292.774 47.0201L288.52 51.4319V52.5938H296.464V51.2278H290.498ZM302.008 41.5407C299.826 41.5407 298.444 42.5769 298.444 44.2882C298.444 45.403 299.104 46.2508 300.218 46.7218C298.805 47.1614 297.91 48.1662 297.91 49.5479C297.91 51.479 299.496 52.6723 302.024 52.6723C304.552 52.6723 306.137 51.4633 306.137 49.5165C306.137 48.1505 305.274 47.1614 303.892 46.7218C304.944 46.2822 305.588 45.4344 305.588 44.3353C305.588 42.5926 304.222 41.5407 302.008 41.5407ZM302.024 42.6397C303.468 42.6397 304.3 43.2991 304.3 44.4138C304.3 45.5443 303.468 46.2037 302.024 46.2037C300.579 46.2037 299.732 45.5443 299.732 44.4138C299.732 43.2991 300.579 42.6397 302.024 42.6397ZM302.008 47.3969C303.704 47.3969 304.709 48.1505 304.709 49.3909C304.709 50.694 303.704 51.4633 302.024 51.4633C300.328 51.4633 299.339 50.694 299.339 49.3752C299.339 48.1348 300.328 47.3969 302.008 47.3969ZM308.614 50.9295C308.127 50.9295 307.75 51.3063 307.75 51.8244C307.75 52.3425 308.127 52.7351 308.614 52.7351C309.101 52.7351 309.462 52.3425 309.462 51.8244C309.462 51.3063 309.101 50.9295 308.614 50.9295ZM315.915 41.5407C312.948 41.5407 311.315 43.5189 311.315 47.0986C311.315 50.6783 312.948 52.6723 315.915 52.6723C318.867 52.6723 320.515 50.6783 320.515 47.0986C320.515 43.5189 318.867 41.5407 315.915 41.5407ZM315.915 42.7339C317.925 42.7339 318.961 44.1783 318.961 47.0986C318.961 50.0032 317.925 51.4633 315.915 51.4633C313.906 51.4633 312.869 50.0032 312.869 47.0986C312.869 44.1783 313.906 42.7339 315.915 42.7339ZM323.262 50.7097L322.665 51.8558C323.56 52.3425 324.801 52.6723 325.837 52.6723C328.679 52.6723 330.468 50.3643 330.468 46.8474C330.468 43.4875 328.804 41.5407 326.088 41.5407C323.811 41.5407 322.304 42.938 322.304 45.1832C322.304 47.3184 323.639 48.6687 325.821 48.6687C327.344 48.6687 328.459 48.0249 328.977 46.816C329.118 49.5793 328.003 51.4005 325.743 51.4005C324.895 51.4005 323.968 51.1493 323.262 50.7097ZM326.182 42.8438C327.941 42.8438 328.694 44.0998 328.694 45.1047C328.694 46.345 327.737 47.4597 326.088 47.4597C324.644 47.4597 323.717 46.5805 323.717 45.1989C323.717 43.723 324.722 42.8438 326.182 42.8438ZM332.977 50.9295C332.49 50.9295 332.114 51.3063 332.114 51.8244C332.114 52.3425 332.49 52.7351 332.977 52.7351C333.464 52.7351 333.825 52.3425 333.825 51.8244C333.825 51.3063 333.464 50.9295 332.977 50.9295ZM337.17 51.2278L340.482 47.8365C341.691 46.5805 342.524 45.3245 342.524 44.2568C342.524 42.5926 341.111 41.5407 338.991 41.5407C337.609 41.5407 336.212 42.1216 335.05 43.0636L335.694 44.2097C336.604 43.3776 337.782 42.8752 338.803 42.8752C340.153 42.8752 340.953 43.4718 340.953 44.4609C340.953 45.1361 340.357 46.1095 339.446 47.0201L335.191 51.4319V52.5938H343.136V51.2278H337.17ZM349.355 41.5407C346.388 41.5407 344.755 43.5189 344.755 47.0986C344.755 50.6783 346.388 52.6723 349.355 52.6723C352.307 52.6723 353.955 50.6783 353.955 47.0986C353.955 43.5189 352.307 41.5407 349.355 41.5407ZM349.355 42.7339C351.365 42.7339 352.401 44.1783 352.401 47.0986C352.401 50.0032 351.365 51.4633 349.355 51.4633C347.346 51.4633 346.309 50.0032 346.309 47.0986C346.309 44.1783 347.346 42.7339 349.355 42.7339ZM354.928 41.6035V42.9694H357.424V52.5938H358.931V41.6035H354.928ZM365.638 41.5407C363.455 41.5407 362.074 42.5769 362.074 44.2882C362.074 45.403 362.733 46.2508 363.848 46.7218C362.435 47.1614 361.54 48.1662 361.54 49.5479C361.54 51.479 363.126 52.6723 365.653 52.6723C368.181 52.6723 369.767 51.4633 369.767 49.5165C369.767 48.1505 368.903 47.1614 367.522 46.7218C368.574 46.2822 369.217 45.4344 369.217 44.3353C369.217 42.5926 367.851 41.5407 365.638 41.5407ZM365.653 42.6397C367.098 42.6397 367.93 43.2991 367.93 44.4138C367.93 45.5443 367.098 46.2037 365.653 46.2037C364.209 46.2037 363.361 45.5443 363.361 44.4138C363.361 43.2991 364.209 42.6397 365.653 42.6397ZM365.638 47.3969C367.333 47.3969 368.338 48.1505 368.338 49.3909C368.338 50.694 367.333 51.4633 365.653 51.4633C363.958 51.4633 362.969 50.694 362.969 49.3752C362.969 48.1348 363.958 47.3969 365.638 47.3969Z" fill="#51859F"/>
<rect x="250.283" y="0.664062" width="157.967" height="70.4939" rx="10.7146" stroke="#003C5A"/>
<rect x="334.772" y="214.863" width="370" height="52" rx="10.7146" fill="url(#paint1_radial_1024_503)" fill-opacity="0.5"/>
<path d="M363.085 241.496H360.322V238.968C360.322 236.111 358.563 234.368 355.659 234.368C352.77 234.368 351.027 236.111 351.027 238.968V240.962H352.534V238.968C352.534 236.927 353.712 235.734 355.659 235.734C357.606 235.734 358.815 236.943 358.815 238.968V246.363H360.322V242.862H363.085V241.496ZM375.232 238.058V242.689C375.059 244.055 374.227 244.997 372.971 245.044C371.746 245.044 371.165 244.212 371.165 242.799V238.058H369.705V242.156C369.705 243.804 368.857 244.997 367.429 245.044C366.22 245.044 365.623 244.212 365.623 242.799V238.058H364.163V243.192C364.163 245.201 365.184 246.41 366.926 246.41C368.324 246.395 369.36 245.751 369.831 244.307C370.145 245.641 371.071 246.41 372.468 246.41C373.74 246.395 374.714 245.877 375.232 244.683V246.363H376.692V238.058H375.232ZM379.058 248.718C381.554 247.714 379.466 245.139 379.466 242.438V238.058H380.942V242.611C381.005 245.123 383.658 248.954 379.058 249.786V248.718ZM402.467 239.204V238.073H395.794V234.478H395.778C394.569 234.714 392.827 234.981 391.681 234.588C388.446 233.442 386.547 235.64 388.022 237.336C389.263 238.56 390.142 239.455 390.142 241.119V242.093C390.142 243.741 389.2 244.95 387.614 244.982C386.28 245.029 385.463 244.15 385.463 242.768V238.026H384.003V243.16C384.003 245.154 385.149 246.379 387.08 246.379C388.509 246.379 389.577 245.814 390.142 244.573V246.316H391.618V241.135C391.618 239.487 391.288 238.482 390.001 237.508C388.258 236.095 388.949 234.886 391.445 235.718C392.199 235.97 393.313 236.032 394.318 235.844V243.192C394.318 245.201 395.464 246.41 397.396 246.41C398.824 246.395 399.892 245.845 400.457 244.605V246.363H401.933V240.931H400.457V242.14C400.457 243.788 399.531 244.997 397.929 245.029C396.595 245.029 395.794 244.197 395.794 242.799V239.204H402.467ZM410.643 238.058V242.14C410.643 243.788 409.701 244.997 408.115 245.029C406.781 245.029 405.964 244.197 405.964 242.799V234.478H402.133V235.609H404.488V243.192C404.488 245.201 405.65 246.41 407.581 246.41C409.01 246.395 410.078 245.845 410.643 244.605V246.363H412.119V238.058H410.643ZM421.713 248.53V249.66H417.443C415.794 249.66 414.428 249.127 414.444 247.195C414.46 245.296 416.501 244.605 418.134 243.804C419.06 243.365 420.316 242.878 420.3 241.371C420.285 240.193 419.578 239.33 418.118 239.298C416.736 239.267 416.014 240.099 415.951 241.151H414.475C414.57 239.314 415.81 238.026 418.118 238.026C420.426 238.026 421.76 239.565 421.776 241.323C421.792 243.867 419.719 244.652 418.903 245.029C417.411 245.767 415.92 246.285 415.904 247.321C415.889 247.965 416.344 248.53 417.474 248.53H421.713ZM429.946 238.058V242.14C429.946 243.788 429.004 244.997 427.419 245.029C426.084 245.029 425.268 244.197 425.268 242.799V234.478H421.437V235.609H423.792V243.192C423.792 245.201 424.954 246.41 426.885 246.41C428.314 246.395 429.381 245.845 429.946 244.605V246.363H431.422V238.058H429.946ZM449.79 242.705C449.775 240.868 448.723 239.047 444.751 238.811V234.478H443.259C441.249 234.494 439.459 235.247 439.459 237.32C439.459 239.188 441.108 239.926 443.259 240.083V245.076C441.014 244.903 439.444 243.93 439.507 242.391H437.999C437.921 245.06 440.778 246.426 443.871 246.473C446.996 246.52 449.806 245.343 449.79 242.705ZM440.951 237.241C440.951 236.441 441.61 235.86 443.259 235.844V238.749C441.61 238.654 440.951 238.262 440.951 237.241ZM448.283 242.705C448.283 244.322 446.776 244.982 444.751 245.092V240.146C447.137 240.303 448.299 241.072 448.283 242.705ZM456.27 238.011C454.81 238.026 453.711 238.56 453.13 239.785V234.478H451.654V249.676H453.13V241.92C453.255 240.444 454.213 239.424 455.72 239.392C457.102 239.392 457.934 240.224 457.934 241.622V246.363H459.41V241.229C459.41 239.235 458.232 238.011 456.27 238.011ZM471.295 247.337H463.9V244.73C464.513 245.798 465.596 246.41 467.009 246.41C469.364 246.41 470.95 244.699 470.95 242.234C470.95 239.738 469.333 238.011 466.978 238.011C465.596 238.011 464.513 238.623 463.9 239.706V238.058H462.424V247.337H461.2V248.451H462.424V249.676H463.9V248.451H471.295V247.337ZM466.679 239.251C468.312 239.251 469.474 240.491 469.474 242.187C469.474 243.914 468.312 245.139 466.679 245.139C465.062 245.139 463.9 243.93 463.9 242.187C463.9 240.491 465.062 239.251 466.679 239.251ZM479.392 238.058V242.14C479.392 243.788 478.45 244.997 476.864 245.029C475.53 245.029 474.713 244.197 474.713 242.799V238.058H473.253V243.192C473.253 245.201 474.399 246.41 476.33 246.41C477.759 246.395 478.827 245.845 479.392 244.605V246.363H480.868V238.058H479.392ZM493.871 245.233H491.516V241.229C491.516 239.235 490.338 238.011 488.376 238.011C486.916 238.026 485.817 238.56 485.236 239.785V238.058H483.76V246.363H485.236V241.92C485.361 240.444 486.319 239.424 487.826 239.392C489.208 239.392 490.04 240.224 490.04 241.622V249.676H491.516V246.363H493.871V245.233ZM504.444 236.66C503.079 236.66 502.027 237.257 501.304 238.183V234.478H499.813V246.363H501.304V243.113H501.32V241.292C501.32 239.267 502.498 238.011 504.444 238.011C506.47 238.011 507.6 239.392 507.6 241.433V242.831H509.107V241.433C509.107 238.576 507.459 236.66 504.444 236.66ZM517.74 238.058V242.14C517.74 243.788 516.798 244.997 515.212 245.029C513.877 245.029 513.061 244.197 513.061 242.799V234.478H509.23V235.609H511.585V243.192C511.585 245.201 512.747 246.41 514.678 246.41C516.107 246.395 517.175 245.845 517.74 244.605V246.363H519.216V238.058H517.74ZM531.291 247.337H523.896V244.73C524.508 245.798 525.592 246.41 527.005 246.41C529.36 246.41 530.945 244.699 530.945 242.234C530.945 239.738 529.328 238.011 526.973 238.011C525.592 238.011 524.508 238.623 523.896 239.706V238.058H522.42V247.337H521.196V248.451H522.42V249.676H523.896V248.451H531.291V247.337ZM526.675 239.251C528.308 239.251 529.47 240.491 529.47 242.187C529.47 243.914 528.308 245.139 526.675 245.139C525.058 245.139 523.896 243.93 523.896 242.187C523.896 240.491 525.058 239.251 526.675 239.251ZM544.318 238.058V242.689C544.145 244.055 543.313 244.997 542.057 245.044C540.832 245.044 540.251 244.212 540.251 242.799V238.058H538.791V242.156C538.791 243.804 537.943 244.997 536.514 245.044C535.306 245.044 534.709 244.212 534.709 242.799V238.058H533.249V243.192C533.249 245.201 534.269 246.41 536.012 246.41C537.409 246.395 538.446 245.751 538.917 244.307C539.231 245.641 540.157 246.41 541.554 246.41C542.826 246.395 543.799 245.877 544.318 244.683V246.363H545.778V238.058H544.318ZM558.459 234.478H554.628V242.14C554.628 243.788 553.686 244.997 552.1 245.029C550.766 245.06 549.949 244.197 549.949 242.799V238.058H548.489V243.192C548.489 245.201 549.635 246.41 551.566 246.41C552.995 246.41 554.063 245.845 554.628 244.605V246.363H556.088V235.609H558.459V234.478ZM563.515 240.695V239.314H569.104C570.455 239.314 571.946 239 571.946 237.602C571.946 236.551 570.784 235.734 568.837 235.734C566.938 235.734 566.153 236.425 566.011 237.445H564.52C564.63 235.295 566.608 234.352 568.806 234.368C571.177 234.384 573.453 235.499 573.453 237.759C573.453 238.623 572.967 239.628 571.711 239.942C573.5 240.57 574.176 241.622 574.144 242.909C574.097 245.296 571.946 246.457 569.073 246.473C566.357 246.489 563.609 245.17 563.688 242.501H565.179C565.211 244.244 567.016 245.123 569.089 245.107C570.941 245.092 572.637 244.495 572.637 242.784C572.637 241.465 571.302 240.695 569.151 240.695H563.515ZM578.166 238.968C578.166 236.943 579.375 235.734 581.322 235.734C583.253 235.734 584.446 236.927 584.446 238.968V246.363H585.954V238.968C585.954 236.111 584.211 234.368 581.322 234.368C578.417 234.368 576.659 236.111 576.659 238.968V246.363H578.166V238.968ZM592.46 238.073H589.508V234.478H588.001V246.363H589.508V239.455H592.46V238.073ZM602.469 238.764V237.383H595.2V234.478H593.709V246.363H599.219C599.769 246.363 600.099 246.677 600.099 247.164V247.541H601.606V246.944C601.606 245.594 600.946 244.982 599.565 244.982H595.2V238.764H602.469ZM605.749 241.873V234.478H604.242V241.873C604.242 244.746 606 246.473 608.905 246.473C611.794 246.473 613.537 244.746 613.537 241.873V234.478H612.029V241.873C612.029 243.914 610.836 245.107 608.905 245.107C606.958 245.107 605.749 243.914 605.749 241.873ZM628.474 241.496H625.71V238.968C625.71 236.111 623.952 234.368 621.047 234.368C618.159 234.368 616.416 236.111 616.416 238.968V240.962H617.923V238.968C617.923 236.927 619.101 235.734 621.047 235.734C622.994 235.734 624.203 236.943 624.203 238.968V246.363H625.71V242.862H628.474V241.496ZM634.356 236.66C632.99 236.66 631.938 237.257 631.216 238.183V234.478H629.724V246.363H631.216V243.113H631.232V241.292C631.232 239.267 632.409 238.011 634.356 238.011C636.381 238.011 637.512 239.392 637.512 241.433V242.831H639.019V241.433C639.019 238.576 637.37 236.66 634.356 236.66ZM657.1 242.705C657.084 240.868 656.032 239.047 652.06 238.811V234.478H650.568C648.559 234.494 646.769 235.247 646.769 237.32C646.769 239.188 648.418 239.926 650.568 240.083V245.076C648.323 244.903 646.753 243.93 646.816 242.391H645.309C645.23 245.06 648.088 246.426 651.181 246.473C654.305 246.52 657.116 245.343 657.1 242.705ZM648.261 237.241C648.261 236.441 648.92 235.86 650.568 235.844V238.749C648.92 238.654 648.261 238.262 648.261 237.241ZM655.593 242.705C655.593 244.322 654.085 244.982 652.06 245.092V240.146C654.446 240.303 655.608 241.072 655.593 242.705ZM663.579 238.011C662.119 238.026 661.02 238.56 660.439 239.785V238.058H658.963V246.363H660.439V241.92C660.565 240.444 661.522 239.424 663.03 239.392C664.411 239.392 665.243 240.224 665.243 241.622V246.363H666.719V241.229C666.719 239.235 665.542 238.011 663.579 238.011ZM675.694 238.058V242.14C675.694 243.788 674.752 244.997 673.166 245.029C671.832 245.029 671.016 244.197 671.016 242.799V234.478H667.185V235.609H669.54V243.192C669.54 245.201 670.702 246.41 672.633 246.41C674.061 246.395 675.129 245.845 675.694 244.605V246.363H677.17V238.058H675.694ZM690.172 245.233H687.817V241.229C687.817 239.235 686.639 238.011 684.677 238.011C683.216 238.026 682.117 238.56 681.536 239.785V238.058H680.061V246.363H681.536V241.92C681.662 240.444 682.62 239.424 684.127 239.392C685.509 239.392 686.341 240.224 686.341 241.622V249.676H687.817V246.363H690.172V245.233Z" fill="white"/>
<rect x="334.772" y="214.863" width="370" height="52" rx="10.7146" stroke="#003C5A"/>
<rect x="1.26172" y="214.863" width="287" height="52" rx="10.7146" fill="url(#paint2_radial_1024_503)" fill-opacity="0.5"/>
<path d="M29.3952 241.496H26.6319V238.968C26.6319 236.111 24.8734 234.368 21.9689 234.368C19.08 234.368 17.3373 236.111 17.3373 238.968V240.962H18.8445V238.968C18.8445 236.927 20.022 235.734 21.9689 235.734C23.9157 235.734 25.1246 236.943 25.1246 238.968V246.363H26.6319V242.862H29.3952V241.496ZM41.5419 238.058V242.689C41.3692 244.055 40.537 244.997 39.281 245.044C38.0564 245.044 37.4755 244.212 37.4755 242.799V238.058H36.0153V242.156C36.0153 243.804 35.1675 244.997 33.7388 245.044C32.5298 245.044 31.9332 244.212 31.9332 242.799V238.058H30.4731V243.192C30.4731 245.201 31.4936 246.41 33.2364 246.41C34.6337 246.395 35.6699 245.751 36.1409 244.307C36.4549 245.641 37.3813 246.41 38.7786 246.41C40.0503 246.395 41.0237 245.877 41.5419 244.683V246.363H43.002V238.058H41.5419ZM45.3681 248.718C47.8645 247.714 45.7763 245.139 45.7763 242.438V238.058H47.2521V242.611C47.3149 245.123 49.9683 248.954 45.3681 249.786V248.718ZM68.7769 239.204V238.073H62.1042V234.478H62.0885C60.8796 234.714 59.1368 234.981 57.9907 234.588C54.7564 233.442 52.8567 235.64 54.3325 237.336C55.5728 238.56 56.4521 239.455 56.4521 241.119V242.093C56.4521 243.741 55.51 244.95 53.9243 244.982C52.5898 245.029 51.7734 244.15 51.7734 242.768V238.026H50.3132V243.16C50.3132 245.154 51.4593 246.379 53.3905 246.379C54.8192 246.379 55.8869 245.814 56.4521 244.573V246.316H57.9279V241.135C57.9279 239.487 57.5982 238.482 56.3108 237.508C54.568 236.095 55.2588 234.886 57.7552 235.718C58.5088 235.97 59.6235 236.032 60.6284 235.844V243.192C60.6284 245.201 61.7745 246.41 63.7056 246.41C65.1344 246.395 66.202 245.845 66.7672 244.605V246.363H68.2431V240.931H66.7672V242.14C66.7672 243.788 65.8409 244.997 64.2395 245.029C62.9049 245.029 62.1042 244.197 62.1042 242.799V239.204H68.7769ZM76.953 238.058V242.14C76.953 243.788 76.011 244.997 74.4252 245.029C73.0907 245.029 72.2743 244.197 72.2743 242.799V234.478H68.4434V235.609H70.7984V243.192C70.7984 245.201 71.9603 246.41 73.8914 246.41C75.3201 246.395 76.3878 245.845 76.953 244.605V246.363H78.4288V238.058H76.953ZM88.0235 248.53V249.66H83.753C82.1044 249.66 80.7385 249.127 80.7542 247.195C80.7699 245.296 82.8109 244.605 84.4438 243.804C85.3701 243.365 86.6261 242.878 86.6104 241.371C86.5947 240.193 85.8882 239.33 84.4281 239.298C83.0464 239.267 82.3242 240.099 82.2614 241.151H80.7856C80.8798 239.314 82.1201 238.026 84.4281 238.026C86.736 238.026 88.0706 239.565 88.0863 241.323C88.102 243.867 86.0295 244.652 85.2131 245.029C83.7216 245.767 82.23 246.285 82.2143 247.321C82.1986 247.965 82.6539 248.53 83.7844 248.53H88.0235ZM96.2565 238.058V242.14C96.2565 243.788 95.3144 244.997 93.7287 245.029C92.3942 245.029 91.5778 244.197 91.5778 242.799V234.478H87.7469V235.609H90.1019V243.192C90.1019 245.201 91.2637 246.41 93.1949 246.41C94.6236 246.395 95.6913 245.845 96.2565 244.605V246.363H97.7323V238.058H96.2565ZM116.1 242.705C116.085 240.868 115.033 239.047 111.061 238.811V234.478H109.569C107.559 234.494 105.77 235.247 105.77 237.32C105.77 239.188 107.418 239.926 109.569 240.083V245.076C107.324 244.903 105.754 243.93 105.817 242.391H104.309C104.231 245.06 107.088 246.426 110.181 246.473C113.306 246.52 116.116 245.343 116.1 242.705ZM107.261 237.241C107.261 236.441 107.921 235.86 109.569 235.844V238.749C107.921 238.654 107.261 238.262 107.261 237.241ZM114.593 242.705C114.593 244.322 113.086 244.982 111.061 245.092V240.146C113.447 240.303 114.609 241.072 114.593 242.705ZM122.58 238.011C121.12 238.026 120.021 238.56 119.44 239.785V234.478H117.964V249.676H119.44V241.92C119.565 240.444 120.523 239.424 122.03 239.392C123.412 239.392 124.244 240.224 124.244 241.622V246.363H125.72V241.229C125.72 239.235 124.542 238.011 122.58 238.011ZM137.605 247.337H130.21V244.73C130.823 245.798 131.906 246.41 133.319 246.41C135.674 246.41 137.26 244.699 137.26 242.234C137.26 239.738 135.643 238.011 133.288 238.011C131.906 238.011 130.823 238.623 130.21 239.706V238.058H128.735V247.337H127.51V248.451H128.735V249.676H130.21V248.451H137.605V247.337ZM132.989 239.251C134.622 239.251 135.784 240.491 135.784 242.187C135.784 243.914 134.622 245.139 132.989 245.139C131.372 245.139 130.21 243.93 130.21 242.187C130.21 240.491 131.372 239.251 132.989 239.251ZM145.702 238.058V242.14C145.702 243.788 144.76 244.997 143.174 245.029C141.84 245.029 141.023 244.197 141.023 242.799V238.058H139.563V243.192C139.563 245.201 140.709 246.41 142.64 246.41C144.069 246.395 145.137 245.845 145.702 244.605V246.363H147.178V238.058H145.702ZM160.181 245.233H157.826V241.229C157.826 239.235 156.648 238.011 154.686 238.011C153.226 238.026 152.127 238.56 151.546 239.785V238.058H150.07V246.363H151.546V241.92C151.671 240.444 152.629 239.424 154.136 239.392C155.518 239.392 156.35 240.224 156.35 241.622V249.676H157.826V246.363H160.181V245.233ZM170.755 236.66C169.389 236.66 168.337 237.257 167.614 238.183V234.478H166.123V246.363H167.614V243.113H167.63V241.292C167.63 239.267 168.808 238.011 170.755 238.011C172.78 238.011 173.91 239.392 173.91 241.433V242.831H175.418V241.433C175.418 238.576 173.769 236.66 170.755 236.66ZM184.05 238.058V242.14C184.05 243.788 183.108 244.997 181.522 245.029C180.188 245.029 179.371 244.197 179.371 242.799V234.478H175.54V235.609H177.895V243.192C177.895 245.201 179.057 246.41 180.988 246.41C182.417 246.395 183.485 245.845 184.05 244.605V246.363H185.526V238.058H184.05ZM197.601 247.337H190.206V244.73C190.818 245.798 191.902 246.41 193.315 246.41C195.67 246.41 197.256 244.699 197.256 242.234C197.256 239.738 195.638 238.011 193.283 238.011C191.902 238.011 190.818 238.623 190.206 239.706V238.058H188.73V247.337H187.506V248.451H188.73V249.676H190.206V248.451H197.601V247.337ZM192.985 239.251C194.618 239.251 195.78 240.491 195.78 242.187C195.78 243.914 194.618 245.139 192.985 245.139C191.368 245.139 190.206 243.93 190.206 242.187C190.206 240.491 191.368 239.251 192.985 239.251ZM210.628 238.058V242.689C210.455 244.055 209.623 244.997 208.367 245.044C207.142 245.044 206.561 244.212 206.561 242.799V238.058H205.101V242.156C205.101 243.804 204.253 244.997 202.825 245.044C201.616 245.044 201.019 244.212 201.019 242.799V238.058H199.559V243.192C199.559 245.201 200.579 246.41 202.322 246.41C203.719 246.395 204.756 245.751 205.227 244.307C205.541 245.641 206.467 246.41 207.864 246.41C209.136 246.395 210.11 245.877 210.628 244.683V246.363H212.088V238.058H210.628ZM224.769 234.478H220.938V242.14C220.938 243.788 219.996 244.997 218.41 245.029C217.076 245.06 216.259 244.197 216.259 242.799V238.058H214.799V243.192C214.799 245.201 215.945 246.41 217.877 246.41C219.305 246.41 220.373 245.845 220.938 244.605V246.363H222.398V235.609H224.769V234.478ZM240.768 242.705C240.753 240.868 239.701 239.047 235.728 238.811V234.478H234.237C232.227 234.494 230.437 235.247 230.437 237.32C230.437 239.188 232.086 239.926 234.237 240.083V245.076C231.992 244.903 230.422 243.93 230.484 242.391H228.977C228.899 245.06 231.756 246.426 234.849 246.473C237.974 246.52 240.784 245.343 240.768 242.705ZM231.929 237.241C231.929 236.441 232.588 235.86 234.237 235.844V238.749C232.588 238.654 231.929 238.262 231.929 237.241ZM239.261 242.705C239.261 244.322 237.754 244.982 235.728 245.092V240.146C238.115 240.303 239.277 241.072 239.261 242.705ZM247.248 238.011C245.787 238.026 244.688 238.56 244.107 239.785V238.058H242.632V246.363H244.107V241.92C244.233 240.444 245.191 239.424 246.698 239.392C248.08 239.392 248.912 240.224 248.912 241.622V246.363H250.388V241.229C250.388 239.235 249.21 238.011 247.248 238.011ZM259.363 238.058V242.14C259.363 243.788 258.421 244.997 256.835 245.029C255.5 245.029 254.684 244.197 254.684 242.799V234.478H250.853V235.609H253.208V243.192C253.208 245.201 254.37 246.41 256.301 246.41C257.73 246.395 258.797 245.845 259.363 244.605V246.363H260.838V238.058H259.363ZM273.84 245.233H271.485V241.229C271.485 239.235 270.308 238.011 268.345 238.011C266.885 238.026 265.786 238.56 265.205 239.785V238.058H263.729V246.363H265.205V241.92C265.33 240.444 266.288 239.424 267.795 239.392C269.177 239.392 270.009 240.224 270.009 241.622V249.676H271.485V246.363H273.84V245.233Z" fill="white"/>
<rect x="1.26172" y="214.863" width="287" height="52" rx="10.7146" stroke="#003C5A"/>
<rect x="167.856" y="102.434" width="322.822" height="51.4291" rx="10.7146" fill="url(#paint3_radial_1024_503)" fill-opacity="0.5"/>
<path d="M196.337 129.066H193.574V126.539C193.574 123.681 191.815 121.938 188.911 121.938C186.022 121.938 184.279 123.681 184.279 126.539V128.533H185.786V126.539C185.786 124.498 186.964 123.304 188.911 123.304C190.858 123.304 192.067 124.513 192.067 126.539V133.934H193.574V130.432H196.337V129.066ZM208.484 125.628V130.26C208.311 131.626 207.479 132.568 206.223 132.615C204.998 132.615 204.417 131.783 204.417 130.37V125.628H202.957V129.726C202.957 131.374 202.109 132.568 200.681 132.615C199.472 132.615 198.875 131.783 198.875 130.37V125.628H197.415V130.762C197.415 132.772 198.436 133.981 200.178 133.981C201.576 133.965 202.612 133.321 203.083 131.877C203.397 133.211 204.323 133.981 205.721 133.981C206.992 133.965 207.966 133.447 208.484 132.254V133.934H209.944V125.628H208.484ZM212.31 136.289C214.806 135.284 212.718 132.709 212.718 130.008V125.628H214.194V130.181C214.257 132.693 216.91 136.524 212.31 137.356V136.289ZM235.719 126.774V125.644H229.046V122.048H229.03C227.822 122.284 226.079 122.551 224.933 122.158C221.698 121.012 219.799 123.21 221.274 124.906C222.515 126.131 223.394 127.025 223.394 128.69V129.663C223.394 131.312 222.452 132.521 220.866 132.552C219.532 132.599 218.715 131.72 218.715 130.338V125.597H217.255V130.731C217.255 132.725 218.401 133.949 220.332 133.949C221.761 133.949 222.829 133.384 223.394 132.144V133.886H224.87V128.705C224.87 127.057 224.54 126.052 223.253 125.079C221.51 123.666 222.201 122.457 224.697 123.289C225.451 123.54 226.566 123.603 227.57 123.414V130.762C227.57 132.772 228.716 133.981 230.648 133.981C232.076 133.965 233.144 133.415 233.709 132.175V133.934H235.185V128.501H233.709V129.71C233.709 131.359 232.783 132.568 231.181 132.599C229.847 132.599 229.046 131.767 229.046 130.37V126.774H235.719ZM243.895 125.628V129.71C243.895 131.359 242.953 132.568 241.367 132.599C240.033 132.599 239.216 131.767 239.216 130.37V122.048H235.385V123.179H237.74V130.762C237.74 132.772 238.902 133.981 240.833 133.981C242.262 133.965 243.33 133.415 243.895 132.175V133.934H245.371V125.628H243.895ZM254.965 136.1V137.231H250.695C249.046 137.231 247.68 136.697 247.696 134.766C247.712 132.866 249.753 132.175 251.386 131.374C252.312 130.935 253.568 130.448 253.552 128.941C253.537 127.763 252.83 126.9 251.37 126.868C249.988 126.837 249.266 127.669 249.203 128.721H247.728C247.822 126.884 249.062 125.597 251.37 125.597C253.678 125.597 255.013 127.135 255.028 128.894C255.044 131.437 252.971 132.222 252.155 132.599C250.664 133.337 249.172 133.855 249.156 134.891C249.141 135.535 249.596 136.1 250.726 136.1H254.965ZM263.198 125.628V129.71C263.198 131.359 262.256 132.568 260.671 132.599C259.336 132.599 258.52 131.767 258.52 130.37V122.048H254.689V123.179H257.044V130.762C257.044 132.772 258.206 133.981 260.137 133.981C261.566 133.965 262.633 133.415 263.198 132.175V133.934H264.674V125.628H263.198ZM283.042 130.275C283.027 128.438 281.975 126.617 278.003 126.382V122.048H276.511C274.501 122.064 272.712 122.818 272.712 124.89C272.712 126.759 274.36 127.496 276.511 127.653V132.646C274.266 132.473 272.696 131.5 272.759 129.961H271.251C271.173 132.63 274.03 133.996 277.123 134.043C280.248 134.091 283.058 132.913 283.042 130.275ZM274.203 124.812C274.203 124.011 274.862 123.43 276.511 123.414V126.319C274.862 126.225 274.203 125.832 274.203 124.812ZM281.535 130.275C281.535 131.893 280.028 132.552 278.003 132.662V127.716C280.389 127.873 281.551 128.643 281.535 130.275ZM295.802 125.628V130.26C295.629 131.626 294.797 132.568 293.541 132.615C292.316 132.615 291.735 131.783 291.735 130.37V125.628H290.275V129.726C290.275 131.374 289.428 132.568 287.999 132.615C286.79 132.615 286.193 131.783 286.193 130.37V125.628H284.733V130.762C284.733 132.772 285.754 133.981 287.496 133.981C288.894 133.965 289.93 133.321 290.401 131.877C290.715 133.211 291.641 133.981 293.039 133.981C294.31 133.965 295.284 133.447 295.802 132.254V133.934H297.262V125.628H295.802ZM306.421 125.628V129.71C306.421 131.359 305.478 132.568 303.893 132.599C302.558 132.599 301.742 131.767 301.742 130.37V122.048H297.911V123.179H300.266V130.762C300.266 132.772 301.428 133.981 303.359 133.981C304.788 133.965 305.855 133.415 306.421 132.175V133.934H307.896V125.628H306.421ZM320.898 132.803H318.543V128.8C318.543 126.806 317.365 125.581 315.403 125.581C313.943 125.597 312.844 126.131 312.263 127.355V125.628H310.787V133.934H312.263V129.49C312.388 128.015 313.346 126.994 314.853 126.963C316.235 126.963 317.067 127.795 317.067 129.192V137.246H318.543V133.934H320.898V132.803ZM329.999 136.116V125.628H328.523V127.261C327.911 126.178 326.827 125.565 325.399 125.565C323.059 125.565 321.426 127.277 321.426 129.757C321.426 132.269 323.044 134.012 325.43 134.012C326.843 134.012 327.911 133.4 328.523 132.316V137.246H332.354V136.116H329.999ZM325.713 132.756C324.064 132.756 322.918 131.531 322.902 129.804C322.918 128.077 324.08 126.837 325.713 126.837C327.361 126.837 328.523 128.062 328.523 129.804C328.523 131.531 327.361 132.756 325.713 132.756ZM350.06 122.048H345.789V129.443C345.789 131.484 344.596 132.678 342.665 132.678C340.718 132.678 339.509 131.484 339.509 129.443V122.048H338.002V129.443C338.002 132.316 339.76 134.043 342.665 134.043C345.554 134.043 347.297 132.316 347.297 129.443V123.414H350.06V122.048ZM358.98 126.774V125.644H352.291V122.048H350.831V130.762C350.831 132.772 351.977 133.981 353.908 133.981C355.337 133.965 356.405 133.415 356.97 132.175V133.934H358.446V128.501H356.97V129.71C356.97 131.359 356.028 132.568 354.442 132.599C353.108 132.599 352.291 131.767 352.291 130.37V126.774H358.98ZM367.152 125.628V129.71C367.152 131.359 366.21 132.568 364.624 132.599C363.29 132.599 362.473 131.767 362.473 130.37V122.048H358.643V123.179H360.998V130.762C360.998 132.772 362.159 133.981 364.091 133.981C365.519 133.965 366.587 133.415 367.152 132.175V133.934H368.628V125.628H367.152ZM379.494 126.774V125.644H372.806V122.048H371.346V130.762C371.346 132.772 372.492 133.981 374.423 133.981C375.852 133.965 376.92 133.415 377.485 132.175V133.934H378.961V128.501H377.485V129.71C377.485 131.359 376.543 132.568 374.957 132.599C373.622 132.599 372.806 131.767 372.806 130.37V126.774H379.494ZM382.69 135.237C382.69 134.436 383.93 134.043 385.704 133.243C387.683 132.316 388.86 131.28 388.829 128.972C388.797 127.23 387.494 125.581 384.998 125.581C382.58 125.581 381.293 127.104 381.308 128.941C381.324 130.903 382.737 131.139 383.239 131.673C383.538 132.002 383.475 132.473 382.737 133.196C381.842 133.714 381.214 134.326 381.214 135.252C381.214 136.964 382.329 137.246 384.072 137.246H388.75V136.116H384.181C383.365 136.147 382.69 135.912 382.69 135.237ZM384.684 131.17C384.338 130.354 382.784 130.621 382.784 128.894C382.768 127.92 383.585 126.868 385.029 126.853C386.521 126.853 387.322 127.905 387.353 129.035C387.416 130.888 386.238 131.594 384.935 132.159L384.495 132.348C384.715 131.987 384.841 131.469 384.684 131.17ZM409.328 126.774V125.644H402.655V122.048H402.639C401.43 122.284 399.688 122.551 398.542 122.158C395.307 121.012 393.408 123.21 394.883 124.906C396.124 126.131 397.003 127.025 397.003 128.69V129.663C397.003 131.312 396.061 132.521 394.475 132.552C393.141 132.599 392.324 131.72 392.324 130.338V125.597H390.864V130.731C390.864 132.725 392.01 133.949 393.941 133.949C395.37 133.949 396.438 133.384 397.003 132.144V133.886H398.479V128.705C398.479 127.057 398.149 126.052 396.862 125.079C395.119 123.666 395.81 122.457 398.306 123.289C399.06 123.54 400.174 123.603 401.179 123.414V130.762C401.179 132.772 402.325 133.981 404.256 133.981C405.685 133.965 406.753 133.415 407.318 132.175V133.934H408.794V128.501H407.318V129.71C407.318 131.359 406.392 132.568 404.79 132.599C403.456 132.599 402.655 131.767 402.655 130.37V126.774H409.328ZM417.504 125.628V129.71C417.504 131.359 416.562 132.568 414.976 132.599C413.642 132.599 412.825 131.767 412.825 130.37V122.048H408.994V123.179H411.349V130.762C411.349 132.772 412.511 133.981 414.442 133.981C415.871 133.965 416.939 133.415 417.504 132.175V133.934H418.98V125.628H417.504ZM432.861 128.721H431.275C431.228 126.602 429.406 125.534 427.287 125.534C425.717 125.534 424.194 126.146 423.346 127.387V125.628H421.87V137.246H423.346V129.851C423.346 128.36 425.042 126.947 426.863 126.947C428.307 126.947 429.516 127.512 429.752 128.721H428.292C426.455 128.721 425.262 129.663 425.262 131.28C425.262 132.929 426.502 133.981 428.339 133.981C429.862 133.981 431.275 133.054 431.275 131.265V129.851H432.861V128.721ZM429.799 131.28C429.799 132.144 429.375 132.819 428.26 132.819C427.287 132.819 426.549 132.254 426.549 131.312C426.549 130.213 427.46 129.851 428.088 129.851H429.799V131.28ZM440.212 129.443V122.048H438.705V129.443C438.705 132.316 440.464 134.043 443.368 134.043C446.257 134.043 448 132.316 448 129.443V122.048H446.493V129.443C446.493 131.484 445.299 132.678 443.368 132.678C441.421 132.678 440.212 131.484 440.212 129.443ZM456.311 121.938C452.826 121.938 450.722 123.681 450.722 126.539V128.533H452.229V126.539C452.245 124.608 453.611 123.556 455.574 123.336V130.166H457.081V123.352C459.012 123.556 460.299 124.623 460.441 126.539V133.934H461.964V126.539C461.964 123.681 459.828 121.938 456.311 121.938ZM466.339 132.552V126.539C466.339 124.513 467.548 123.304 469.495 123.304C471.426 123.304 472.619 124.498 472.619 126.539V128.627H474.126V126.539C474.126 123.681 472.384 121.938 469.495 121.938C466.59 121.938 464.832 123.681 464.832 126.539V133.934H474.566V132.552H466.339Z" fill="white"/>
<rect x="167.856" y="102.434" width="322.822" height="51.4291" rx="10.7146" stroke="#003C5A"/>
<defs>
<radialGradient id="paint0_radial_1024_503" cx="0" cy="0" r="1" gradientUnits="userSpaceOnUse" gradientTransform="translate(272.162 -9.43655) rotate(37.6566) scale(172.528 572.814)">
<stop offset="0.348958" stop-color="#006191"/>
<stop offset="0.989583" stop-color="#006192" stop-opacity="0"/>
</radialGradient>
<radialGradient id="paint1_radial_1024_503" cx="0" cy="0" r="1" gradientUnits="userSpaceOnUse" gradientTransform="translate(386.501 207.246) rotate(13.7728) scale(328.208 520.952)">
<stop offset="0.348958" stop-color="#006191"/>
<stop offset="0.989583" stop-color="#006192" stop-opacity="0"/>
</radialGradient>
<radialGradient id="paint2_radial_1024_503" cx="0" cy="0" r="1" gradientUnits="userSpaceOnUse" gradientTransform="translate(41.3054 207.246) rotate(17.5241) scale(259.499 511.481)">
<stop offset="0.348958" stop-color="#006191"/>
<stop offset="0.989583" stop-color="#006192" stop-opacity="0"/>
</radialGradient>
<radialGradient id="paint3_radial_1024_503" cx="0" cy="0" r="1" gradientUnits="userSpaceOnUse" gradientTransform="translate(212.943 94.8931) rotate(15.5256) scale(288.772 511.235)">
<stop offset="0.348958" stop-color="#006191"/>
<stop offset="0.989583" stop-color="#006192" stop-opacity="0"/>
</radialGradient>
</defs>
</svg>
