<svg id="Layer_1" data-name="Layer 1" xmlns="http://www.w3.org/2000/svg" xmlns:xlink="http://www.w3.org/1999/xlink" viewBox="0 0 1361 528"><defs><style>.cls-1,.cls-10,.cls-11,.cls-12,.cls-13,.cls-3,.cls-4,.cls-5,.cls-6,.cls-7,.cls-8,.cls-9{stroke:#51859f;}.cls-1,.cls-10,.cls-11,.cls-12,.cls-13,.cls-14,.cls-15,.cls-18,.cls-19,.cls-20,.cls-3,.cls-4,.cls-5,.cls-6,.cls-7,.cls-8,.cls-9{stroke-width:1.12px;}.cls-1{fill:url(#linear-gradient);}.cls-2{fill:#e5eff4;}.cls-3{fill:url(#linear-gradient-2);}.cls-4{fill:url(#linear-gradient-3);}.cls-5{fill:url(#linear-gradient-4);}.cls-6{fill:url(#linear-gradient-5);}.cls-7{fill:url(#linear-gradient-6);}.cls-8{fill:url(#linear-gradient-7);}.cls-9{fill:url(#linear-gradient-8);}.cls-10{fill:url(#linear-gradient-9);}.cls-11{fill:url(#linear-gradient-10);}.cls-12{fill:url(#linear-gradient-11);}.cls-13,.cls-14{fill:none;}.cls-14,.cls-15,.cls-18,.cls-19,.cls-20{stroke:#003c5a;}.cls-15,.cls-18,.cls-19,.cls-20{fill-opacity:0.5;}.cls-15{fill:url(#radial-gradient);}.cls-16{fill:#fff;}.cls-17{fill:#51859f;}.cls-18{fill:url(#radial-gradient-2);}.cls-19{fill:url(#radial-gradient-3);}.cls-20{fill:url(#radial-gradient-4);}</style><linearGradient id="linear-gradient" x1="1179.11" y1="82.31" x2="1179.11" y2="32.96" gradientTransform="matrix(1, 0, 0, -1, 0, 530)" gradientUnits="userSpaceOnUse"><stop offset="0" stop-color="#013651"/><stop offset="1" stop-color="#014f77"/></linearGradient><linearGradient id="linear-gradient-2" x1="1179.11" y1="154.08" x2="1179.11" y2="104.74" xlink:href="#linear-gradient"/><linearGradient id="linear-gradient-3" x1="1179.11" y1="266.23" x2="1179.11" y2="176.51" xlink:href="#linear-gradient"/><linearGradient id="linear-gradient-4" x1="1179.11" y1="338" x2="1179.11" y2="288.66" xlink:href="#linear-gradient"/><linearGradient id="linear-gradient-5" x1="1179.11" y1="409.78" x2="1179.11" y2="360.43" xlink:href="#linear-gradient"/><linearGradient id="linear-gradient-6" x1="1179.11" y1="499.49" x2="1179.11" y2="432.2" xlink:href="#linear-gradient"/><linearGradient id="linear-gradient-7" x1="725.36" y1="382.86" x2="725.36" y2="293.14" xlink:href="#linear-gradient"/><linearGradient id="linear-gradient-8" x1="725.36" y1="499.49" x2="725.36" y2="432.2" xlink:href="#linear-gradient"/><linearGradient id="linear-gradient-9" x1="432.88" y1="382.86" x2="432.88" y2="315.57" xlink:href="#linear-gradient"/><linearGradient id="linear-gradient-10" x1="432.88" y1="499.49" x2="432.88" y2="432.2" xlink:href="#linear-gradient"/><linearGradient id="linear-gradient-11" x1="121.9" y1="499.49" x2="121.9" y2="432.2" xlink:href="#linear-gradient"/><radialGradient id="radial-gradient" cx="-1.61" cy="648.83" r="1" gradientTransform="matrix(146.65, 99.2, 316.03, -467.19, -204757.35, 303465.16)" gradientUnits="userSpaceOnUse"><stop offset="0.35" stop-color="#006191"/><stop offset="0.99" stop-color="#006192" stop-opacity="0"/></radialGradient><radialGradient id="radial-gradient-2" cx="-1.89" cy="648.83" r="1" gradientTransform="matrix(322.62, 99.2, 191.3, -622.14, -123094.98, 404270.61)" xlink:href="#radial-gradient"/><radialGradient id="radial-gradient-3" cx="-1.84" cy="648.83" r="1" gradientTransform="matrix(262.47, 99.2, 225.2, -595.85, -145559.56, 387207.06)" xlink:href="#radial-gradient"/><radialGradient id="radial-gradient-4" cx="-1.87" cy="648.83" r="1" gradientTransform="matrix(290.07, 99.2, 208.5, -609.66, -134659.99, 396050.11)" xlink:href="#radial-gradient"/></defs><rect class="cls-1" x="1028.27" y="448.25" width="301.67" height="48.22" rx="10.65"/><path class="cls-2" d="M1062,466h-4.27v7.39a3.14,3.14,0,1,1-6.28,0V466H1050v7.39c0,2.87,1.75,4.6,4.66,4.6a4.25,4.25,0,0,0,4.63-4.6v-6H1062Zm11.84,3.57v4.64a2.41,2.41,0,0,1-2.26,2.35c-1.22,0-1.8-.83-1.8-2.24v-4.75h-1.46v4.1c0,1.65-.85,2.84-2.28,2.89-1.21,0-1.8-.83-1.8-2.24v-4.75h-1.46v5.14c0,2,1,3.22,2.76,3.22a2.84,2.84,0,0,0,2.9-2.11,2.53,2.53,0,0,0,2.64,2.11,2.8,2.8,0,0,0,2.76-1.73v1.68h1.46v-8.31Zm9,0a3.19,3.19,0,0,0-3.14,1.77v-1.73h-1.47v11.62h1.47v-7.75a2.56,2.56,0,0,1,2.59-2.53,2,2,0,0,1,2.22,2.23v4.74H1086V472.7A2.93,2.93,0,0,0,1082.82,469.48Zm15,9.32h-7.4v-2.6a3.41,3.41,0,0,0,3.11,1.68,3.86,3.86,0,0,0,3.94-4.18,3.9,3.9,0,0,0-4-4.22,3.38,3.38,0,0,0-3.08,1.69v-1.65H1089v9.28h-1.23v1.12H1089v1.22h1.47v-1.22h7.4Zm-4.62-8.08a2.95,2.95,0,1,1-2.78,2.93A2.77,2.77,0,0,1,1093.23,470.72Zm14.73-.05v-1.13h-6.69V466h-1.46v8.71a2.89,2.89,0,0,0,3.07,3.22,3.12,3.12,0,0,0,3.07-1.81v1.76h1.47V472.4H1106v1.21a2.61,2.61,0,0,1-2.53,2.89,2,2,0,0,1-2.15-2.23v-3.6Zm13.13,1.95h-1.59c0-2.12-1.86-3.19-4-3.19a4.67,4.67,0,0,0-3.94,1.85v-1.76h-1.48v11.62h1.48v-7.39c0-1.49,1.69-2.91,3.51-2.91,1.45,0,2.66.57,2.89,1.78h-1.46c-1.84,0-3,.94-3,2.56s1.24,2.7,3.08,2.7a2.71,2.71,0,0,0,2.93-2.72v-1.41h1.59Zm-3.06,2.56a1.39,1.39,0,0,1-1.54,1.53,1.53,1.53,0,0,1-1.71-1.5,1.44,1.44,0,0,1,1.54-1.46H1118Zm8.81-5.7a3.19,3.19,0,0,0-3.14,1.77V466h-1.47v15.19h1.47v-7.75a2.56,2.56,0,0,1,2.59-2.53,2,2,0,0,1,2.22,2.23v4.74H1130V472.7A2.93,2.93,0,0,0,1126.84,469.48Zm12.12,0v4.09a2.6,2.6,0,0,1-2.53,2.89,2,2,0,0,1-2.15-2.23V466h-3.83v1.13h2.35v7.58a2.91,2.91,0,0,0,3.1,3.22,3.11,3.11,0,0,0,3.06-1.81v1.76h1.47v-8.31Zm14.59,7.18h-2.36v-7.18h-1.47v1.64a3.39,3.39,0,0,0-3.13-1.7,4.23,4.23,0,0,0,0,8.45,3.36,3.36,0,0,0,3.1-1.7v4.93h1.47v-3.31h2.36Zm-6.65-.05a3,3,0,1,1,2.82-2.95A2.78,2.78,0,0,1,1146.9,476.65Zm12.51-7.17a3.19,3.19,0,0,0-3.14,1.77V466h-1.48v15.19h1.48v-7.75a2.56,2.56,0,0,1,2.59-2.53,2,2,0,0,1,2.21,2.23v4.74h1.48V472.7A2.93,2.93,0,0,0,1159.41,469.48Zm18.7,7.22h-6.68v-3.31a2.56,2.56,0,0,1,2.59-2.53,2,2,0,0,1,2.22,2.23v1.8h1.47V472.7a2.93,2.93,0,0,0-3.14-3.22,3.19,3.19,0,0,0-3.14,1.77v-1.73H1170v11.62h1.47v-3.31h6.68Zm13.05-7.18v4.64a2.42,2.42,0,0,1-2.26,2.35c-1.23,0-1.81-.83-1.81-2.24v-4.75h-1.46v4.1c0,1.65-.85,2.84-2.28,2.89-1.21,0-1.8-.83-1.8-2.24v-4.75h-1.46v5.14c0,2,1,3.22,2.76,3.22a2.85,2.85,0,0,0,2.91-2.11,2.52,2.52,0,0,0,2.63,2.11,2.81,2.81,0,0,0,2.77-1.73v1.68h1.46v-8.31Zm14.17,0H1203V466h-1.48v3.57H1199a4,4,0,0,0-4.14,4.26,4,4,0,0,0,4.21,4.11,3.55,3.55,0,0,0,3.89-3.8v-3.26h2.34Zm-3.82,4.45c0,1.47-.59,2.71-2.44,2.7a2.64,2.64,0,0,1-2.71-2.81,2.77,2.77,0,0,1,2.89-3h2.26Zm9.42-4.49a3.19,3.19,0,0,0-3.14,1.77V466h-1.48v15.19h1.48v-7.75a2.55,2.55,0,0,1,2.59-2.53,2,2,0,0,1,2.21,2.23v4.74h1.48V472.7A2.93,2.93,0,0,0,1210.93,469.48Zm12.11,0v4.09a2.6,2.6,0,0,1-2.53,2.89,2,2,0,0,1-2.15-2.23V466h-3.83v1.13h2.36v7.58a2.91,2.91,0,0,0,3.09,3.22,3.1,3.1,0,0,0,3.06-1.81v1.76h1.48v-8.31Z"/><rect class="cls-3" x="1028.27" y="376.48" width="301.67" height="48.22" rx="10.65"/><path class="cls-2" d="M1054.6,396.35a3.83,3.83,0,0,0-3.14,1.53v-3.71H1050v11.89h1.49v-3.25h0V401a3,3,0,0,1,3.13-3.29c2,0,3.15,1.39,3.15,3.43v1.39h1.51v-1.39C1059.26,398.27,1057.61,396.35,1054.6,396.35Zm11.88,1.35a3.2,3.2,0,0,0-3.14,1.78v-1.73h-1.48v11.62h1.48v-7.76a2.56,2.56,0,0,1,2.59-2.52,2,2,0,0,1,2.21,2.23v4.74h1.48v-5.14A2.94,2.94,0,0,0,1066.48,397.7Zm16.74.05v4.63a2.42,2.42,0,0,1-2.26,2.36c-1.23,0-1.81-.83-1.81-2.25v-4.74h-1.46v4.1c0,1.65-.85,2.84-2.28,2.89-1.21,0-1.8-.83-1.8-2.25v-4.74h-1.46v5.14c0,2,1,3.21,2.76,3.21a2.84,2.84,0,0,0,2.91-2.1,2.53,2.53,0,0,0,2.63,2.1,2.79,2.79,0,0,0,2.77-1.72v1.68h1.46v-8.31ZM1095,408.24V394.17h-1.47v7.66a2.6,2.6,0,0,1-2.53,2.89,2,2,0,0,1-2.15-2.23v-4.74h-1.46v5.14a2.89,2.89,0,0,0,3.08,3.21,3.1,3.1,0,0,0,3.06-1.8v5.07h3.83v-1.13Zm14.19-10.49v4.63a2.42,2.42,0,0,1-2.26,2.36c-1.23,0-1.81-.83-1.81-2.25v-4.74h-1.46v4.1c0,1.65-.84,2.84-2.27,2.89-1.21,0-1.81-.83-1.81-2.25v-4.74h-1.46v5.14c0,2,1,3.21,2.76,3.21a2.83,2.83,0,0,0,2.91-2.1,2.53,2.53,0,0,0,2.64,2.1,2.78,2.78,0,0,0,2.76-1.72v1.68h1.46v-8.31Zm12.49,7.18H1115v-3.32a2.56,2.56,0,0,1,2.59-2.52,2,2,0,0,1,2.21,2.23v1.8h1.48v-2.2a2.94,2.94,0,0,0-3.14-3.22,3.2,3.2,0,0,0-3.14,1.78v-1.73h-1.48v11.62H1115v-3.31h6.67Zm13-7.18v4.63a2.41,2.41,0,0,1-2.26,2.36c-1.22,0-1.8-.83-1.8-2.25v-4.74h-1.46v4.1c0,1.65-.85,2.84-2.28,2.89-1.21,0-1.81-.83-1.81-2.25v-4.74h-1.46v5.14c0,2,1,3.21,2.77,3.21a2.82,2.82,0,0,0,2.9-2.1,2.54,2.54,0,0,0,2.64,2.1,2.78,2.78,0,0,0,2.76-1.72v1.68h1.46v-8.31Zm10.62,0v4.08a2.6,2.6,0,0,1-2.53,2.89,2,2,0,0,1-2.15-2.23v-8.32h-3.83v1.13h2.36v7.59a2.9,2.9,0,0,0,3.09,3.21,3.08,3.08,0,0,0,3.06-1.8v1.76h1.48v-8.31Zm15.26,0v4.63a2.41,2.41,0,0,1-2.26,2.36c-1.22,0-1.8-.83-1.8-2.25v-4.74h-1.46v4.1c0,1.65-.85,2.84-2.28,2.89-1.21,0-1.8-.83-1.8-2.25v-4.74h-1.46v5.14c0,2,1,3.21,2.76,3.21a2.82,2.82,0,0,0,2.9-2.1,2.54,2.54,0,0,0,2.64,2.1,2.78,2.78,0,0,0,2.76-1.72v1.68h1.46v-8.31Zm10.32,0v4.08a2.6,2.6,0,0,1-2.53,2.89,2,2,0,0,1-2.15-2.23v-8.32h-1.46v8.72a2.89,2.89,0,0,0,3.07,3.21,3.1,3.1,0,0,0,3.07-1.8v5.07h1.47V397.75Zm15.26,0v4.63a2.42,2.42,0,0,1-2.26,2.36c-1.23,0-1.81-.83-1.81-2.25v-4.74h-1.46v4.1c0,1.65-.85,2.84-2.27,2.89-1.21,0-1.81-.83-1.81-2.25v-4.74h-1.46v5.14c0,2,1,3.21,2.76,3.21a2.83,2.83,0,0,0,2.91-2.1,2.53,2.53,0,0,0,2.64,2.1,2.78,2.78,0,0,0,2.76-1.72v1.68h1.46v-8.31Zm10.62,0v4.08a2.6,2.6,0,0,1-2.53,2.89,2,2,0,0,1-2.15-2.23v-8.32h-3.83v1.13h2.35v7.59a2.91,2.91,0,0,0,3.1,3.21,3.1,3.1,0,0,0,3.06-1.8v1.76h1.47v-8.31Zm17.22,7.18h-6.67v-3.32a2.55,2.55,0,0,1,2.59-2.52,2,2,0,0,1,2.21,2.23v1.8h1.48v-2.2a2.94,2.94,0,0,0-3.14-3.22,3.2,3.2,0,0,0-3.14,1.78v-1.73h-1.48v11.62h1.48v-3.31H1214Zm13-7.18v4.63a2.41,2.41,0,0,1-2.26,2.36c-1.22,0-1.81-.83-1.81-2.25v-4.74h-1.46v4.1c0,1.65-.84,2.84-2.27,2.89-1.21,0-1.81-.83-1.81-2.25v-4.74H1216v5.14c0,2,1,3.21,2.77,3.21a2.82,2.82,0,0,0,2.9-2.1,2.53,2.53,0,0,0,2.64,2.1,2.78,2.78,0,0,0,2.76-1.72v1.68h1.46v-8.31Zm14.17,0h-2.34v-3.58h-1.47v3.58H1235a4,4,0,0,0-4.15,4.26,4,4,0,0,0,4.21,4.11,3.55,3.55,0,0,0,3.89-3.8v-3.27h2.34Zm-3.81,4.45c0,1.47-.6,2.71-2.45,2.69a2.63,2.63,0,0,1-2.7-2.81,2.77,2.77,0,0,1,2.89-3h2.26Zm9.41-4.5a3.2,3.2,0,0,0-3.14,1.78v-5.31h-1.48v15.2h1.48v-7.76a2.56,2.56,0,0,1,2.59-2.52,2,2,0,0,1,2.21,2.23v4.74H1250v-5.14A2.94,2.94,0,0,0,1246.85,397.7Zm12.12.05v4.08a2.6,2.6,0,0,1-2.53,2.89,2,2,0,0,1-2.15-2.23v-8.32h-3.83v1.13h2.35v7.59a2.9,2.9,0,0,0,3.09,3.21,3.1,3.1,0,0,0,3.07-1.8v1.76h1.47v-8.31Z"/><rect class="cls-4" x="1028.27" y="264.33" width="301.67" height="88.6" rx="10.65"/><path class="cls-2" d="M1061.33,293.89l-2.24-1.9a6,6,0,0,0,.17-1.45v-7.39h-1.51v7.39a3.14,3.14,0,1,1-6.28,0v-7.39H1050v7.39c0,2.88,1.75,4.6,4.66,4.6a4.39,4.39,0,0,0,3.91-1.85l2,1.66Zm7.44-7.16v4.08a2.6,2.6,0,0,1-2.53,2.89,2,2,0,0,1-2.15-2.23v-8.32h-1.46v8.71a2.89,2.89,0,0,0,3.07,3.22,3.11,3.11,0,0,0,3.07-1.81v5.08h1.47V286.73Zm13.85-.05a2.82,2.82,0,0,0-2.7,1.55v-1.5h-1.46v4.74a2.34,2.34,0,0,1-2.23,2.24c-1.21,0-1.81-.83-1.81-2.24v-4.74H1073v5.13c0,2,1,3.22,2.76,3.22a2.8,2.8,0,0,0,2.74-1.68V295h1.46v-5a2.3,2.3,0,0,1,2.18-1.93c1.22,0,1.8.83,1.8,2.24V295h1.46V289.9C1085.36,287.9,1084.34,286.68,1082.62,286.68Zm10.08,0a3.2,3.2,0,0,0-3.14,1.77v-5.3h-1.48v15.2h1.48v-7.76a2.55,2.55,0,0,1,2.59-2.53,2,2,0,0,1,2.21,2.23V295h1.48V289.9A2.93,2.93,0,0,0,1092.7,286.68ZM1106,297.21V283.15h-1.47v7.66a2.6,2.6,0,0,1-2.53,2.89,2,2,0,0,1-2.15-2.23v-4.74h-1.46v5.13a2.89,2.89,0,0,0,3.07,3.22,3.11,3.11,0,0,0,3.07-1.81v5.08h3.83v-1.14Zm9.32-10.48v4.08a2.6,2.6,0,0,1-2.53,2.89,2,2,0,0,1-2.15-2.23v-8.32h-3.83v1.13h2.36v7.58a2.91,2.91,0,0,0,3.09,3.22,3.09,3.09,0,0,0,3.06-1.81V295h1.48v-8.3Zm12.34,1.14v-1.13H1121v-3.59h-1.46v8.71a2.9,2.9,0,0,0,3.08,3.22,3.09,3.09,0,0,0,3.06-1.81V295h1.48V289.6h-1.48v1.21a2.59,2.59,0,0,1-2.52,2.89,2,2,0,0,1-2.16-2.23v-3.6Zm6.76-1.19a3.2,3.2,0,0,0-3.14,1.77v-1.72h-1.47v11.62h1.47v-7.76a2.56,2.56,0,0,1,2.59-2.53,2,2,0,0,1,2.22,2.23V295h1.47V289.9A2.93,2.93,0,0,0,1134.4,286.68Zm10.46,0a3.2,3.2,0,0,0-3.14,1.77v-5.3h-1.48v15.2h1.48v-7.76a2.55,2.55,0,0,1,2.59-2.53,2,2,0,0,1,2.21,2.23V295H1148V289.9A2.93,2.93,0,0,0,1144.86,286.68Zm16.51.05v4.08a2.59,2.59,0,0,1-2.52,2.89,2,2,0,0,1-2.16-2.23v-8.32h-1.46v8.71a2.9,2.9,0,0,0,3.08,3.22,3.09,3.09,0,0,0,3.06-1.81v5.08h1.48V286.73Zm15.27,0v4.63a2.41,2.41,0,0,1-2.26,2.35c-1.23,0-1.81-.83-1.81-2.24v-4.74h-1.46v4.1c0,1.64-.85,2.84-2.28,2.88-1.21,0-1.8-.83-1.8-2.24v-4.74h-1.46v5.13c0,2,1,3.22,2.76,3.22a2.85,2.85,0,0,0,2.91-2.1,2.53,2.53,0,0,0,2.63,2.1,2.8,2.8,0,0,0,2.77-1.73V295h1.46v-8.3Zm9.91,7.17a5.22,5.22,0,0,0,2.19-4,2.93,2.93,0,0,0-3.14-3.22,3.2,3.2,0,0,0-3.14,1.77v-1.72H1181V295h1.48v-4.44a2.55,2.55,0,0,1,2.59-2.53,2,2,0,0,1,2.21,2.23c0,1.68-1.11,2.48-2.17,3.61h0V295H1189V293.9Zm15.6-7.17v4.63a2.39,2.39,0,0,1-2.26,2.35c-1.23,0-1.81-.83-1.81-2.24v-4.74h-1.46v4.1c0,1.64-.84,2.84-2.27,2.88-1.21,0-1.81-.83-1.81-2.24v-4.74h-1.46v5.13c0,2,1,3.22,2.76,3.22a2.85,2.85,0,0,0,2.91-2.1,2.53,2.53,0,0,0,2.64,2.1,2.79,2.79,0,0,0,2.76-1.73V295h1.46v-8.3Zm11.79,10.48V283.15h-1.48v7.66a2.6,2.6,0,0,1-2.53,2.89,2,2,0,0,1-2.15-2.23v-4.74h-1.46v5.13a2.9,2.9,0,0,0,3.08,3.22,3.09,3.09,0,0,0,3.06-1.81v5.08h3.83v-1.14Zm14.18-10.48v4.63a2.39,2.39,0,0,1-2.26,2.35c-1.22,0-1.8-.83-1.8-2.24v-4.74h-1.46v4.1c0,1.64-.85,2.84-2.28,2.88-1.21,0-1.81-.83-1.81-2.24v-4.74h-1.46v5.13c0,2,1,3.22,2.77,3.22a2.84,2.84,0,0,0,2.9-2.1,2.54,2.54,0,0,0,2.64,2.1,2.78,2.78,0,0,0,2.76-1.73V295h1.46v-8.3Zm9-.05a3.2,3.2,0,0,0-3.14,1.77v-1.72h-1.47v11.62h1.47v-7.76a2.56,2.56,0,0,1,2.59-2.53,2,2,0,0,1,2.22,2.23V295h1.47V289.9A2.93,2.93,0,0,0,1237.08,286.68Zm15.64-3.53h-3.83v7.66a2.6,2.6,0,0,1-2.53,2.89,2,2,0,0,1-2.15-2.23v-4.74h-1.46v5.13a2.9,2.9,0,0,0,3.08,3.22,3.06,3.06,0,0,0,3.06-1.81V295h1.46V284.28h2.37Zm11.42,3.58v4.63a2.4,2.4,0,0,1-2.26,2.35c-1.23,0-1.81-.83-1.81-2.24v-4.74h-1.46v4.1c0,1.64-.85,2.84-2.27,2.88-1.21,0-1.81-.83-1.81-2.24v-4.74h-1.46v5.13c0,2,1,3.22,2.76,3.22a2.85,2.85,0,0,0,2.91-2.1,2.53,2.53,0,0,0,2.64,2.1,2.79,2.79,0,0,0,2.76-1.73V295h1.46v-8.3Zm10.62,0v4.08a2.6,2.6,0,0,1-2.53,2.89,2,2,0,0,1-2.15-2.23v-8.32h-3.83v1.13h2.35v7.58a2.91,2.91,0,0,0,3.1,3.22,3.1,3.1,0,0,0,3.06-1.81V295h1.47v-8.3ZM1057.41,312.9v-7.16h-1.48v4.07a2.6,2.6,0,0,1-2.53,2.89,2,2,0,0,1-2.15-2.23v-8.32h-1.46v8.71a2.9,2.9,0,0,0,3.08,3.22,3.09,3.09,0,0,0,3.06-1.81V314h3.83V312.9Zm20.15-7.17v4.63a2.4,2.4,0,0,1-2.26,2.35c-1.23,0-1.81-.83-1.81-2.24v-4.74H1072v4.1c0,1.64-.85,2.84-2.27,2.88-1.21,0-1.81-.83-1.81-2.24v-4.74h-1.46v5.13c0,2,1,3.22,2.76,3.22a2.85,2.85,0,0,0,2.91-2.1,2.53,2.53,0,0,0,2.64,2.1,2.79,2.79,0,0,0,2.76-1.73V314H1079v-8.3Zm9-.05a3.2,3.2,0,0,0-3.14,1.77v-1.72h-1.48v11.62h1.48v-7.76a2.55,2.55,0,0,1,2.59-2.53,2,2,0,0,1,2.21,2.23V314h1.48V308.9A2.93,2.93,0,0,0,1086.52,305.68Zm15.67.05h-2.34v-3.58h-1.48v3.58h-2.48a4,4,0,0,0-4.14,4.25,4,4,0,0,0,4.21,4.12,3.55,3.55,0,0,0,3.89-3.8V307h2.34Zm-3.82,4.44c0,1.48-.59,2.72-2.45,2.7a2.63,2.63,0,0,1-2.7-2.81,2.77,2.77,0,0,1,2.89-3h2.26Zm12.78-3.3v-1.13h-6.69v-3.59H1103v8.71a2.89,2.89,0,0,0,3.07,3.22,3.11,3.11,0,0,0,3.07-1.81V314h1.47V308.6h-1.47v1.21a2.6,2.6,0,0,1-2.53,2.89,2,2,0,0,1-2.15-2.23v-3.6Zm13.13,1.95h-1.59c0-2.12-1.87-3.19-4-3.19a4.69,4.69,0,0,0-4,1.86v-1.76h-1.47v11.62h1.47V310c0-1.49,1.7-2.9,3.52-2.9,1.45,0,2.65.56,2.89,1.77h-1.46c-1.84,0-3,.94-3,2.56s1.24,2.7,3.08,2.7a2.71,2.71,0,0,0,2.93-2.72V310h1.59Zm-3.06,2.56a1.39,1.39,0,0,1-1.54,1.54,1.54,1.54,0,0,1-1.71-1.51,1.44,1.44,0,0,1,1.54-1.46h1.71Zm12,4.83V308.9a2.93,2.93,0,0,0-3.14-3.22,3.2,3.2,0,0,0-3.14,1.77v-1.72h-1.47V314h1.47v-4.44a2.56,2.56,0,0,1,2.59-2.53,2,2,0,0,1,2.22,2.23v8.06h3.83v-1.14Zm14.77-7.39h-1.59c0-2.12-1.87-3.19-4-3.19a4.67,4.67,0,0,0-3.94,1.86v-1.76H1137v11.62h1.47V310c0-1.49,1.7-2.9,3.52-2.9,1.44,0,2.65.56,2.89,1.77h-1.46c-1.84,0-3,.94-3,2.56s1.24,2.7,3.08,2.7a2.71,2.71,0,0,0,2.93-2.72V310h1.59Zm-3.06,2.56a1.39,1.39,0,0,1-1.54,1.54,1.53,1.53,0,0,1-1.71-1.51,1.44,1.44,0,0,1,1.53-1.46h1.72Zm12.17-4.51v-1.13h-6.69v-3.59h-1.46v8.71a2.9,2.9,0,0,0,3.08,3.22,3.09,3.09,0,0,0,3.06-1.81V314h1.48V308.6H1155v1.21a2.6,2.6,0,0,1-2.53,2.89,2,2,0,0,1-2.15-2.23v-3.6Zm6.76-1.19a3.2,3.2,0,0,0-3.14,1.77v-1.72h-1.48v11.62h1.48v-7.76a2.56,2.56,0,0,1,2.59-2.53,2,2,0,0,1,2.21,2.23V314H1167V308.9A2.93,2.93,0,0,0,1163.81,305.68Zm10.46,0a3.2,3.2,0,0,0-3.14,1.77v-1.72h-1.48V314h1.48v-4.44a2.55,2.55,0,0,1,2.59-2.53,2,2,0,0,1,2.21,2.23V314h1.48V308.9A2.93,2.93,0,0,0,1174.27,305.68Zm13.28,10.53V302.15h-1.48v7.66a2.59,2.59,0,0,1-2.52,2.89,2,2,0,0,1-2.16-2.23v-4.74h-1.46v5.13a2.9,2.9,0,0,0,3.08,3.22,3.09,3.09,0,0,0,3.06-1.81v5.08h3.83v-1.14ZM1060.19,331.9h-2.36v-7.17h-1.47v1.63a3.41,3.41,0,0,0-3.13-1.7,4.23,4.23,0,0,0,0,8.45,3.37,3.37,0,0,0,3.1-1.69v4.93h1.47V333h2.36Zm-6.64,0a3,3,0,1,1,2.81-3A2.78,2.78,0,0,1,1053.55,331.86Zm12.5-7.18a3.2,3.2,0,0,0-3.14,1.77v-1.72h-1.48V333h1.48v-4.44a2.56,2.56,0,0,1,2.59-2.53,2,2,0,0,1,2.21,2.23V333h1.48V327.9A2.93,2.93,0,0,0,1066.05,324.68Zm10.46,0a3.2,3.2,0,0,0-3.14,1.77v-1.72h-1.48v11.62h1.48v-7.76a2.55,2.55,0,0,1,2.59-2.53,2,2,0,0,1,2.21,2.23V333h1.48V327.9A2.93,2.93,0,0,0,1076.51,324.68Zm14.35.05h-3.33c-1-.84-2-1.62-2.21-2.64a1.33,1.33,0,0,1,.4-1.19h-1.46a1.54,1.54,0,0,0-.39,1.39,4.22,4.22,0,0,0,1.67,2.45,4.13,4.13,0,0,0-3.77,4.16,4.06,4.06,0,0,0,4.3,4.18c2.7,0,4.36-1.65,4.36-3.85a4.44,4.44,0,0,0-1.58-3.37h2Zm-1.9,4.46a2.68,2.68,0,0,1-2.84,2.65,2.82,2.82,0,0,1-2.88-2.94,3,3,0,0,1,2.81-3h.85C1088,326.75,1089,327.71,1089,329.19Zm14.36-4.46v4.63a2.41,2.41,0,0,1-2.26,2.35c-1.23,0-1.81-.83-1.81-2.24v-4.74h-1.46v4.1c0,1.64-.85,2.84-2.28,2.88-1.2,0-1.8-.83-1.8-2.24v-4.74h-1.46v5.13c0,2,1,3.22,2.76,3.22a2.85,2.85,0,0,0,2.91-2.1,2.53,2.53,0,0,0,2.63,2.1,2.8,2.8,0,0,0,2.77-1.73V333h1.46v-8.3Zm9.92,7.17a5.24,5.24,0,0,0,2.18-4,2.93,2.93,0,0,0-3.14-3.22,3.2,3.2,0,0,0-3.14,1.77v-1.72h-1.48V333h1.48v-4.44a2.55,2.55,0,0,1,2.59-2.53,2,2,0,0,1,2.21,2.23c0,1.68-1.11,2.48-2.16,3.61h0V333h3.94V331.9Zm10.72-7.17v4.08a2.59,2.59,0,0,1-2.52,2.89,2,2,0,0,1-2.16-2.23v-8.32h-3.83v1.13h2.36v7.58a2.91,2.91,0,0,0,3.09,3.22,3.09,3.09,0,0,0,3.06-1.81V333h1.48v-8.3Zm9-.05a3.2,3.2,0,0,0-3.14,1.77v-1.72h-1.48V333h1.48v-4.44a2.55,2.55,0,0,1,2.59-2.53,2,2,0,0,1,2.21,2.23V333h1.48V327.9A2.93,2.93,0,0,0,1133,324.68Zm6.29,7.22v-7.17h-1.47V333h3.83V331.9Zm15.55-4.08h-1.59c0-2.12-1.86-3.19-4-3.19a4.66,4.66,0,0,0-3.94,1.86v-1.76h-1.48v11.62h1.48V329c0-1.49,1.69-2.9,3.51-2.9,1.45,0,2.66.56,2.89,1.77h-1.46c-1.84,0-3,.94-3,2.56s1.24,2.7,3.08,2.7a2.71,2.71,0,0,0,2.93-2.72V329h1.59Zm-3.06,2.56a1.39,1.39,0,0,1-1.54,1.54,1.54,1.54,0,0,1-1.71-1.51A1.44,1.44,0,0,1,1150,329h1.71Zm3.68,5c2.5-1,.41-3.58.41-6.28v-4.38h1.47v4.55c.07,2.51,2.72,6.34-1.88,7.17Zm9.73-10.71a3.2,3.2,0,0,0-3.14,1.77v-1.72h-1.47V333H1162v-4.44a2.56,2.56,0,0,1,2.59-2.53,2,2,0,0,1,2.22,2.23V333h1.47V327.9A2.93,2.93,0,0,0,1165.14,324.68Zm6.3,7.22v-7.17H1170V333h3.83V331.9Zm10.59-7.17v4.08a2.6,2.6,0,0,1-2.53,2.89,2,2,0,0,1-2.15-2.23v-8.32h-3.83v1.13h2.35v7.58a2.91,2.91,0,0,0,3.1,3.22,3.1,3.1,0,0,0,3.06-1.81V333h1.47v-8.3Zm10.64,0v4.08a2.6,2.6,0,0,1-2.53,2.89,2,2,0,0,1-2.15-2.23v-8.32h-3.83v1.13h2.35v7.58a2.91,2.91,0,0,0,3.1,3.22,3.09,3.09,0,0,0,3.06-1.81V333h1.47v-8.3Zm12.34,1.14v-1.13h-6.69v-3.59h-1.46v8.71a2.9,2.9,0,0,0,3.08,3.22,3.09,3.09,0,0,0,3.06-1.81V333h1.48V327.6H1203v1.21a2.6,2.6,0,0,1-2.53,2.89,2,2,0,0,1-2.15-2.23v-3.6Zm6.76-1.19a3.2,3.2,0,0,0-3.14,1.77v-1.72h-1.48v11.62h1.48v-7.76a2.56,2.56,0,0,1,2.59-2.53,2,2,0,0,1,2.21,2.23V333h1.48V327.9A2.93,2.93,0,0,0,1211.77,324.68Zm10.46,0a3.2,3.2,0,0,0-3.14,1.77v-5.3h-1.48v15.2h1.48v-7.76a2.55,2.55,0,0,1,2.59-2.53,2,2,0,0,1,2.21,2.23V333h1.48V327.9A2.93,2.93,0,0,0,1222.23,324.68Zm18.69,7.22h-6.67v-3.31a2.56,2.56,0,0,1,2.59-2.53,2,2,0,0,1,2.21,2.23v1.81h1.48v-2.2a2.93,2.93,0,0,0-3.14-3.22,3.2,3.2,0,0,0-3.14,1.77v-1.72h-1.48v11.62h1.48V333h6.67Zm13-7.17v4.63a2.39,2.39,0,0,1-2.26,2.35c-1.22,0-1.8-.83-1.8-2.24v-4.74h-1.46v4.1c0,1.64-.85,2.84-2.28,2.88-1.21,0-1.8-.83-1.8-2.24v-4.74h-1.47v5.13c0,2,1,3.22,2.77,3.22a2.84,2.84,0,0,0,2.9-2.1,2.54,2.54,0,0,0,2.64,2.1,2.78,2.78,0,0,0,2.76-1.73V333h1.46v-8.3Zm14.18,0h-2.34v-3.58h-1.48v3.58h-2.48a4,4,0,0,0-4.14,4.25,4,4,0,0,0,4.2,4.12,3.56,3.56,0,0,0,3.9-3.8V326h2.34Zm-3.82,4.44c0,1.48-.6,2.72-2.45,2.7a2.63,2.63,0,0,1-2.7-2.81,2.77,2.77,0,0,1,2.89-3h2.26Zm9.41-4.49a3.2,3.2,0,0,0-3.14,1.77v-5.3h-1.47v15.2h1.47v-7.76a2.56,2.56,0,0,1,2.59-2.53,2,2,0,0,1,2.22,2.23V333h1.47V327.9A2.93,2.93,0,0,0,1273.74,324.68Zm12.12.05v4.08a2.6,2.6,0,0,1-2.53,2.89,2,2,0,0,1-2.15-2.23v-8.32h-3.83v1.13h2.35v7.58a2.91,2.91,0,0,0,3.1,3.22,3.09,3.09,0,0,0,3.06-1.81V333h1.47v-8.3Z"/><rect class="cls-5" x="1028.27" y="192.56" width="301.67" height="48.22" rx="10.65"/><path class="cls-2" d="M1062,217.27h-2.76v-2.53a4.65,4.65,0,0,0-9.29,0v7.4h1.5v-7.4a3,3,0,0,1,3.16-3.23,2.92,2.92,0,0,1,3.12,3.23v7.4h1.51v-3.5H1062Zm9.23-2.29v-1.13h-6.69v-3.6h-1.46V219a2.89,2.89,0,0,0,3.08,3.21,3.08,3.08,0,0,0,3.06-1.8v1.76h1.48v-5.43h-1.48v1.2a2.6,2.6,0,0,1-2.53,2.89,2,2,0,0,1-2.15-2.23V215Zm10.12,0v-1.13h-6.69v-3.6h-1.46V219a2.89,2.89,0,0,0,3.08,3.21,3.09,3.09,0,0,0,3.06-1.8v1.76h1.48v-5.43h-1.48v1.2a2.6,2.6,0,0,1-2.53,2.89,2,2,0,0,1-2.15-2.23V215Zm8.11-1.15v4.08a2.6,2.6,0,0,1-2.53,2.89,2,2,0,0,1-2.15-2.23v-4.74h-1.46V219a2.89,2.89,0,0,0,3.08,3.21,3.09,3.09,0,0,0,3.06-1.8v1.76H1091v-8.31Zm13.85,0a2.79,2.79,0,0,0-2.7,1.55v-1.51h-1.46v4.74a2.35,2.35,0,0,1-2.23,2.25c-1.21,0-1.81-.83-1.81-2.25v-4.74h-1.46V219c0,2,1,3.21,2.77,3.21a2.79,2.79,0,0,0,2.73-1.67v1.63h1.46v-5.06a2.31,2.31,0,0,1,2.18-1.93c1.23,0,1.81.83,1.81,2.25v4.74h1.46V217C1106.08,215,1105.06,213.79,1103.33,213.79Zm10.08,0a3.19,3.19,0,0,0-3.14,1.77v-1.73h-1.47v11.62h1.47V217.7a2.56,2.56,0,0,1,2.59-2.53,2,2,0,0,1,2.22,2.23v4.74h1.47V217A2.93,2.93,0,0,0,1113.41,213.79Zm16.74,0v4.63a2.42,2.42,0,0,1-2.26,2.36c-1.23,0-1.81-.83-1.81-2.25v-4.74h-1.46v4.1c0,1.65-.85,2.84-2.27,2.89-1.21,0-1.81-.83-1.81-2.25v-4.74h-1.46V219c0,2,1,3.21,2.76,3.21a2.83,2.83,0,0,0,2.91-2.1,2.52,2.52,0,0,0,2.64,2.1,2.78,2.78,0,0,0,2.76-1.72v1.68h1.46v-8.31Zm11.79,10.49V210.25h-1.48v7.66a2.6,2.6,0,0,1-2.53,2.89,2,2,0,0,1-2.15-2.23v-4.74h-1.46V219a2.89,2.89,0,0,0,3.08,3.21,3.09,3.09,0,0,0,3.06-1.8v5.07h3.83v-1.13Zm14.18-10.49v4.63a2.41,2.41,0,0,1-2.26,2.36c-1.22,0-1.8-.83-1.8-2.25v-4.74h-1.46v4.1c0,1.65-.85,2.84-2.28,2.89-1.21,0-1.81-.83-1.81-2.25v-4.74h-1.46V219c0,2,1,3.21,2.77,3.21a2.82,2.82,0,0,0,2.9-2.1,2.53,2.53,0,0,0,2.64,2.1,2.78,2.78,0,0,0,2.76-1.72v1.68h1.46v-8.31Zm9,0a3.19,3.19,0,0,0-3.14,1.77v-1.73h-1.47v11.62h1.47V217.7a2.56,2.56,0,0,1,2.59-2.53,2,2,0,0,1,2.22,2.23v4.74h1.47V217A2.93,2.93,0,0,0,1165.08,213.79Zm15.64-3.54h-3.83v7.66a2.6,2.6,0,0,1-2.53,2.89,2,2,0,0,1-2.15-2.23v-4.74h-1.46V219a2.89,2.89,0,0,0,3.08,3.21,3.07,3.07,0,0,0,3.06-1.8v1.76h1.46V211.38h2.37Zm11.42,3.58v4.63a2.42,2.42,0,0,1-2.26,2.36c-1.23,0-1.81-.83-1.81-2.25v-4.74h-1.46v4.1c0,1.65-.85,2.84-2.28,2.89-1.2,0-1.8-.83-1.8-2.25v-4.74h-1.46V219c0,2,1,3.21,2.76,3.21a2.83,2.83,0,0,0,2.91-2.1,2.52,2.52,0,0,0,2.63,2.1,2.79,2.79,0,0,0,2.77-1.72v1.68h1.46v-8.31Zm10.62,0v4.08a2.6,2.6,0,0,1-2.53,2.89,2,2,0,0,1-2.15-2.23v-8.32h-3.83v1.13h2.35V219a2.9,2.9,0,0,0,3.1,3.21,3.1,3.1,0,0,0,3.06-1.8v1.76h1.47v-8.31ZM1220,221h-6.67V217.7a2.55,2.55,0,0,1,2.59-2.53,2,2,0,0,1,2.21,2.23v1.8h1.48V217a2.93,2.93,0,0,0-3.14-3.21,3.19,3.19,0,0,0-3.14,1.77v-1.73h-1.48v11.62h1.48v-3.31H1220Zm13-7.18v4.63a2.42,2.42,0,0,1-2.26,2.36c-1.23,0-1.81-.83-1.81-2.25v-4.74h-1.46v4.1c0,1.65-.84,2.84-2.27,2.89-1.21,0-1.81-.83-1.81-2.25v-4.74H1222V219c0,2,1,3.21,2.76,3.21a2.83,2.83,0,0,0,2.91-2.1,2.52,2.52,0,0,0,2.64,2.1,2.78,2.78,0,0,0,2.76-1.72v1.68h1.46v-8.31Zm14.17,0h-2.34v-3.58h-1.47v3.58h-2.48a4,4,0,0,0-4.15,4.26,4,4,0,0,0,4.21,4.11,3.55,3.55,0,0,0,3.89-3.8v-3.26h2.34Zm-3.81,4.45c0,1.47-.6,2.71-2.45,2.7a2.64,2.64,0,0,1-2.7-2.81,2.77,2.77,0,0,1,2.89-3h2.26Zm9.41-4.49a3.19,3.19,0,0,0-3.14,1.77v-5.31h-1.48v15.2h1.48V217.7a2.55,2.55,0,0,1,2.59-2.53,2,2,0,0,1,2.21,2.23v4.74h1.48V217A2.93,2.93,0,0,0,1252.8,213.79Zm12.11,0v4.08a2.59,2.59,0,0,1-2.52,2.89,2,2,0,0,1-2.15-2.23v-8.32h-3.84v1.13h2.36V219a2.9,2.9,0,0,0,3.09,3.21,3.08,3.08,0,0,0,3.06-1.8v1.76h1.48v-8.31Z"/><rect class="cls-6" x="1028.27" y="120.79" width="301.67" height="48.22" rx="10.65"/><path class="cls-2" d="M1057.09,141.09v2.52a2.84,2.84,0,0,1-3,3c-2,0-2.92-1.37-2.92-3.41v-4.69h-1.51v4.69c0,2.86,1.43,4.78,4.43,4.78a3.64,3.64,0,0,0,3-1.49v3.92h1.51v-9.29Zm15.29,1v4.63a2.42,2.42,0,0,1-2.26,2.36c-1.23,0-1.81-.84-1.81-2.25v-4.74h-1.46v4.1c0,1.65-.85,2.84-2.28,2.89-1.21,0-1.8-.84-1.8-2.25v-4.74h-1.46v5.13c0,2,1,3.22,2.76,3.22a2.85,2.85,0,0,0,2.91-2.1,2.53,2.53,0,0,0,2.63,2.1,2.78,2.78,0,0,0,2.77-1.73v1.69h1.46v-8.31Zm15.24,0v4.63a2.42,2.42,0,0,1-2.26,2.36c-1.23,0-1.81-.84-1.81-2.25v-4.74h-1.46v4.1c0,1.65-.85,2.84-2.28,2.89-1.2,0-1.8-.84-1.8-2.25v-4.74h-1.46v5.13c0,2,1,3.22,2.76,3.22a2.84,2.84,0,0,0,2.91-2.1,2.53,2.53,0,0,0,2.63,2.1,2.78,2.78,0,0,0,2.77-1.73v5h1.46V142.06Zm9-.05a3.2,3.2,0,0,0-3.14,1.78v-5.31H1092v15.2h1.48v-7.76a2.57,2.57,0,0,1,2.59-2.53,2,2,0,0,1,2.21,2.23v4.75h1.48v-5.14A2.94,2.94,0,0,0,1096.58,142Zm15.32,0a2.82,2.82,0,0,0-2.7,1.56v-1.51h-1.46v4.74a2.36,2.36,0,0,1-2.23,2.25c-1.21,0-1.8-.84-1.8-2.25v-4.74h-1.46v5.13c0,2,1,3.22,2.76,3.22a2.78,2.78,0,0,0,2.73-1.68v1.64h1.46v-5.06a2.31,2.31,0,0,1,2.18-1.93c1.23,0,1.81.83,1.81,2.24v4.75h1.46v-5.14C1114.65,143.24,1113.63,142,1111.9,142Zm16.36.05v4.63a2.41,2.41,0,0,1-2.26,2.36c-1.22,0-1.8-.84-1.8-2.25v-4.74h-1.46v4.1c0,1.65-.85,2.84-2.28,2.89-1.21,0-1.81-.84-1.81-2.25v-4.74h-1.46v5.13c0,2,1,3.22,2.77,3.22a2.83,2.83,0,0,0,2.9-2.1,2.54,2.54,0,0,0,2.64,2.1,2.77,2.77,0,0,0,2.76-1.73v1.69h1.46v-8.31Zm5.82,10.49V142.06h-1.47v11.62h3.83v-1.13Zm14.71,0v1.13h-4.27c-1.65,0-3-.53-3-2.46s2-2.59,3.69-3.39c.92-.44,2.18-.93,2.16-2.44a2,2,0,0,0-2.18-2.07,1.91,1.91,0,0,0-2.16,1.85h-1.48c.09-1.83,1.33-3.12,3.64-3.12a3.37,3.37,0,0,1,3.66,3.29c0,2.55-2.06,3.33-2.87,3.71-1.49.74-3,1.26-3,2.29,0,.65.44,1.21,1.57,1.21Zm6.82-10.52a3.2,3.2,0,0,0-3.14,1.78v-1.73H1151v8.31h1.48v-4.45a2.57,2.57,0,0,1,2.59-2.53,2,2,0,0,1,2.21,2.23v4.75h1.48v-5.14A2.94,2.94,0,0,0,1155.61,142Zm6.29,7.22v-7.17h-1.47v8.31h3.83v-1.14Zm10.77-7.17v4.08a2.59,2.59,0,0,1-2.52,2.89,2,2,0,0,1-2.16-2.23v-8.32h-1.46v8.71a2.9,2.9,0,0,0,3.08,3.22,3.08,3.08,0,0,0,3.06-1.8v5.07h1.48V142.06Zm15.27,0v4.63a2.42,2.42,0,0,1-2.26,2.36c-1.23,0-1.81-.84-1.81-2.25v-4.74h-1.46v4.1c0,1.65-.85,2.84-2.28,2.89-1.21,0-1.8-.84-1.8-2.25v-4.74h-1.46v5.13c0,2,1,3.22,2.76,3.22a2.84,2.84,0,0,0,2.91-2.1,2.53,2.53,0,0,0,2.63,2.1,2.78,2.78,0,0,0,2.77-1.73v1.69h1.46v-8.31Zm10.62,0v4.08A2.6,2.6,0,0,1,1196,149a2,2,0,0,1-2.15-2.23v-8.32h-3.83v1.13h2.35v7.58a2.91,2.91,0,0,0,3.09,3.22,3.1,3.1,0,0,0,3.07-1.8v1.76H1200v-8.31Zm12.34,1.15v-1.14h-6.69v-3.59h-1.46v8.71a2.9,2.9,0,0,0,3.08,3.22,3.09,3.09,0,0,0,3.06-1.8v1.76h1.47v-5.44h-1.47v1.21a2.6,2.6,0,0,1-2.53,2.89,2,2,0,0,1-2.15-2.23v-3.59Zm6.76-1.2a3.2,3.2,0,0,0-3.14,1.78v-1.73H1213v11.62h1.48v-7.76a2.57,2.57,0,0,1,2.59-2.53,2,2,0,0,1,2.21,2.23v4.75h1.48v-5.14A2.94,2.94,0,0,0,1217.66,142Zm10.45,0a3.2,3.2,0,0,0-3.14,1.78v-5.31h-1.47v15.2H1225v-7.76a2.58,2.58,0,0,1,2.59-2.53,2,2,0,0,1,2.22,2.23v4.75h1.47v-5.14A2.93,2.93,0,0,0,1228.11,142Zm18.7,7.22h-6.67v-3.31a2.57,2.57,0,0,1,2.59-2.53,2,2,0,0,1,2.21,2.23v1.81h1.48v-2.2a2.94,2.94,0,0,0-3.14-3.22,3.2,3.2,0,0,0-3.14,1.78v-1.73h-1.48v11.62h1.48v-3.31h6.67Zm13-7.17v4.63a2.41,2.41,0,0,1-2.26,2.36c-1.22,0-1.81-.84-1.81-2.25v-4.74h-1.46v4.1c0,1.65-.84,2.84-2.27,2.89-1.21,0-1.81-.84-1.81-2.25v-4.74h-1.46v5.13c0,2,1,3.22,2.77,3.22a2.83,2.83,0,0,0,2.9-2.1,2.53,2.53,0,0,0,2.64,2.1,2.78,2.78,0,0,0,2.76-1.73v1.69h1.46v-8.31Zm14.17,0h-2.34v-3.58h-1.47v3.58h-2.48a4,4,0,0,0-4.15,4.25,4,4,0,0,0,4.21,4.12,3.55,3.55,0,0,0,3.89-3.8v-3.27H1274Zm-3.81,4.44c0,1.48-.6,2.72-2.45,2.7a2.63,2.63,0,0,1-2.7-2.81,2.77,2.77,0,0,1,2.89-3h2.26Zm9.41-4.49a3.2,3.2,0,0,0-3.14,1.78v-5.31H1275v15.2h1.47v-7.76a2.57,2.57,0,0,1,2.59-2.53,2.05,2.05,0,0,1,2.22,2.23v4.75h1.47v-5.14A2.94,2.94,0,0,0,1279.63,142Zm12.12.05v4.08a2.6,2.6,0,0,1-2.53,2.89,2,2,0,0,1-2.15-2.23v-8.32h-3.83v1.13h2.35v7.58a2.91,2.91,0,0,0,3.09,3.22,3.1,3.1,0,0,0,3.07-1.8v1.76h1.47v-8.31Z"/><rect class="cls-7" x="1028.27" y="31.07" width="301.67" height="66.17" rx="10.65"/><path class="cls-2" d="M1056.18,53.63a2.38,2.38,0,0,0,2-2.29c0-2-1.13-3.11-4.51-3.14h-3.7v1.37h3.74c2,0,3,.69,3,1.68,0,1.57-1.82,1.79-3.14,1.79h-3.12v1.38h3.17c2.31,0,3.45.86,3.45,2.29v3.38h1.51V56.85A3,3,0,0,0,1056.18,53.63Zm12.66-.7V51.8h-6.69V48.2h-1.46v8.72a2.89,2.89,0,0,0,3.08,3.21,3.08,3.08,0,0,0,3.06-1.8v1.76h1.48V54.66h-1.48v1.2a2.59,2.59,0,0,1-2.52,2.89,2,2,0,0,1-2.16-2.23V52.93Zm11.63-1.19a2.79,2.79,0,0,0-2.7,1.55V51.78h-1.46v4.74a2.35,2.35,0,0,1-2.23,2.25c-1.21,0-1.81-.83-1.81-2.25V51.78h-1.46v5.14c0,2,1,3.21,2.77,3.21a2.79,2.79,0,0,0,2.73-1.67v1.63h1.46V55A2.31,2.31,0,0,1,1080,53.1c1.23,0,1.81.83,1.81,2.25v4.74h1.46V55C1083.22,53,1082.2,51.74,1080.47,51.74Zm16.36,0v4.63a2.41,2.41,0,0,1-2.26,2.36c-1.22,0-1.8-.83-1.8-2.25V51.78h-1.46v4.1c0,1.65-.85,2.84-2.28,2.89-1.21,0-1.81-.83-1.81-2.25V51.78h-1.46v5.14c0,2,1,3.21,2.77,3.21a2.82,2.82,0,0,0,2.9-2.1,2.52,2.52,0,0,0,2.64,2.1,2.78,2.78,0,0,0,2.76-1.72v1.68h1.46V51.78ZM1109,62.27V51.78h-1.47v1.64a3.39,3.39,0,0,0-3.13-1.7,3.9,3.9,0,0,0-4,4.19,3.94,3.94,0,0,0,4,4.26,3.37,3.37,0,0,0,3.1-1.7V63.4h3.83V62.27Zm-4.28-3.36a3,3,0,1,1,2.81-2.95A2.77,2.77,0,0,1,1104.76,58.91ZM1117,51.74a3.17,3.17,0,0,0-3.14,1.77V51.78h-1.47v8.31h1.47V55.64a2.56,2.56,0,0,1,2.59-2.52,2,2,0,0,1,2.22,2.23v4.74h1.47V55A2.93,2.93,0,0,0,1117,51.74Zm15.33,0a2.79,2.79,0,0,0-2.7,1.55V51.78h-1.46v4.74a2.35,2.35,0,0,1-2.23,2.25c-1.21,0-1.81-.83-1.81-2.25V51.78h-1.46v5.14c0,2,1,3.21,2.77,3.21a2.79,2.79,0,0,0,2.73-1.67v1.63h1.46V55a2.31,2.31,0,0,1,2.18-1.93c1.22,0,1.81.83,1.81,2.25v4.74H1135V55C1135,53,1134,51.74,1132.28,51.74Zm10.08,0a3.17,3.17,0,0,0-3.14,1.77V51.78h-1.48v8.31h1.48V55.64a2.56,2.56,0,0,1,2.59-2.52,2,2,0,0,1,2.21,2.23v4.74h1.48V55A2.93,2.93,0,0,0,1142.36,51.74Zm6.3,7.22V51.78h-1.48v8.31H1151V59Zm15.54-4.08h-1.58c0-2.12-1.87-3.19-4-3.19a4.69,4.69,0,0,0-3.94,1.85V51.78h-1.48V63.4h1.48V56c0-1.5,1.7-2.91,3.52-2.91,1.44,0,2.65.57,2.89,1.78h-1.46c-1.84,0-3,.94-3,2.55s1.24,2.7,3.07,2.7a2.71,2.71,0,0,0,2.94-2.71V56h1.58Zm-3.06,2.55A1.38,1.38,0,0,1,1159.6,59a1.53,1.53,0,0,1-1.71-1.5,1.44,1.44,0,0,1,1.54-1.46h1.71Zm3.68,5c2.5-1,.41-3.58.41-6.28V51.78h1.48v4.56c.06,2.51,2.71,6.34-1.89,7.17Zm9.74-10.7a3.17,3.17,0,0,0-3.14,1.77V51.78h-1.48v8.31h1.48V55.64a2.55,2.55,0,0,1,2.59-2.52,2,2,0,0,1,2.21,2.23v4.74h1.48V55A2.93,2.93,0,0,0,1174.56,51.74Zm6.29,7.22V51.78h-1.47v8.31h3.83V59Zm10.59-7.18v4.08a2.6,2.6,0,0,1-2.53,2.89,2,2,0,0,1-2.15-2.23V48.2h-3.83v1.13h2.36v7.59a2.9,2.9,0,0,0,3.09,3.21,3.08,3.08,0,0,0,3.06-1.8v1.76h1.48V51.78Zm10.64,0v4.08a2.6,2.6,0,0,1-2.53,2.89,2,2,0,0,1-2.15-2.23V48.2h-3.83v1.13h2.36v7.59a2.9,2.9,0,0,0,3.09,3.21,3.08,3.08,0,0,0,3.06-1.8v1.76h1.48V51.78Zm12.34,1.15V51.8h-6.68V48.2h-1.46v8.72a2.88,2.88,0,0,0,3.07,3.21,3.08,3.08,0,0,0,3.06-1.8v1.76h1.48V54.66h-1.48v1.2a2.59,2.59,0,0,1-2.52,2.89,2,2,0,0,1-2.15-2.23V52.93Zm6.76-1.19a3.17,3.17,0,0,0-3.14,1.77V51.78h-1.47V63.4H1218V55.64a2.56,2.56,0,0,1,2.59-2.52,2,2,0,0,1,2.22,2.23v4.74h1.47V55A2.93,2.93,0,0,0,1221.18,51.74Zm10.46,0a3.17,3.17,0,0,0-3.14,1.77V48.2H1227V63.4h1.48V55.64a2.56,2.56,0,0,1,2.59-2.52,2,2,0,0,1,2.21,2.23v4.74h1.48V55A2.93,2.93,0,0,0,1231.64,51.74ZM1057.41,78V70.8h-1.48v4.06a2.6,2.6,0,0,1-2.53,2.89,2,2,0,0,1-2.15-2.23V67.2h-1.46v8.72a2.9,2.9,0,0,0,3.08,3.22,3.1,3.1,0,0,0,3.06-1.81v1.76h3.83V78Zm16.69,3.31V67.2h-1.47v7.66a2.6,2.6,0,0,1-2.53,2.89,2,2,0,0,1-2.15-2.23V70.78h-1.46v5.14a2.9,2.9,0,0,0,3.08,3.22,3.11,3.11,0,0,0,3.06-1.81V82.4h3.83V81.27Zm11.27-9.34V70.8h-6.69V67.2h-1.46v8.72a2.9,2.9,0,0,0,3.08,3.22,3.1,3.1,0,0,0,3.06-1.81v1.76h1.48V73.66h-1.48v1.2a2.6,2.6,0,0,1-2.53,2.89,2,2,0,0,1-2.15-2.23V71.93Zm6.76-1.19a3.17,3.17,0,0,0-3.14,1.77V70.78h-1.48V82.4H1089V74.64a2.56,2.56,0,0,1,2.59-2.52,2,2,0,0,1,2.22,2.23v4.74h1.47V74A2.93,2.93,0,0,0,1092.13,70.74Zm7.32,10.53V70.78H1098V82.4h3.83V81.27Zm7.91-10.53a3.17,3.17,0,0,0-3.14,1.77V70.78h-1.48v8.31h1.48V74.64a2.55,2.55,0,0,1,2.59-2.52,2,2,0,0,1,2.21,2.23v4.74h1.48V74A2.93,2.93,0,0,0,1107.36,70.74Zm6.29,7.22V70.78h-1.47v8.31H1116V78Zm13.07-7.18h-3.33c-1-.83-2-1.61-2.21-2.64a1.34,1.34,0,0,1,.41-1.19h-1.46a1.57,1.57,0,0,0-.4,1.4,4.3,4.3,0,0,0,1.67,2.45,4.12,4.12,0,0,0-3.77,4.16,4.06,4.06,0,0,0,4.3,4.18c2.7,0,4.37-1.65,4.37-3.85a4.47,4.47,0,0,0-1.59-3.38h2Zm-1.9,4.46a2.68,2.68,0,0,1-2.84,2.65,2.81,2.81,0,0,1-2.87-2.93,3,3,0,0,1,2.81-3h.84C1123.86,72.81,1124.84,73.77,1124.82,75.24Zm8.08-4.5a3.17,3.17,0,0,0-3.14,1.77V70.78h-1.48v8.31h1.48V74.64a2.56,2.56,0,0,1,2.59-2.52,2,2,0,0,1,2.21,2.23v4.74H1136V74A2.93,2.93,0,0,0,1132.9,70.74Zm6.3,7.22V70.78h-1.48v8.31h3.83V78Zm15.54-4.08h-1.58c-.05-2.12-1.87-3.19-4-3.19a4.69,4.69,0,0,0-3.94,1.85V70.78h-1.48V82.4h1.48V75c0-1.5,1.7-2.91,3.52-2.91,1.44,0,2.65.57,2.89,1.78h-1.46c-1.84,0-3,.94-3,2.55s1.24,2.71,3.07,2.71a2.71,2.71,0,0,0,2.94-2.72V75h1.58Zm-3.06,2.55a1.38,1.38,0,0,1-1.54,1.54,1.53,1.53,0,0,1-1.71-1.5A1.44,1.44,0,0,1,1150,75h1.71Zm3.68,5c2.5-1,.41-3.58.41-6.28V70.78h1.48v4.56c.06,2.51,2.71,6.34-1.89,7.17Zm9.74-10.7a3.17,3.17,0,0,0-3.14,1.77V70.78h-1.48v8.31H1162V74.64a2.55,2.55,0,0,1,2.59-2.52,2,2,0,0,1,2.21,2.23v4.74h1.48V74A2.93,2.93,0,0,0,1165.1,70.74Zm6.29,7.22V70.78h-1.47v8.31h3.83V78ZM1182,70.78v4.08a2.6,2.6,0,0,1-2.53,2.89,2,2,0,0,1-2.15-2.23V67.2h-3.83v1.13h2.36v7.59a2.91,2.91,0,0,0,3.09,3.22,3.1,3.1,0,0,0,3.06-1.81v1.76h1.48V70.78Zm10.64,0v4.08a2.6,2.6,0,0,1-2.53,2.89,2,2,0,0,1-2.15-2.23V67.2h-3.83v1.13h2.36v7.59a2.91,2.91,0,0,0,3.09,3.22,3.1,3.1,0,0,0,3.06-1.81v1.76h1.48V70.78ZM1205,71.93V70.8h-6.68V67.2h-1.46v8.72a2.89,2.89,0,0,0,3.07,3.22,3.1,3.1,0,0,0,3.06-1.81v1.76h1.48V73.66H1203v1.2a2.59,2.59,0,0,1-2.52,2.89,2,2,0,0,1-2.15-2.23V71.93Zm6.76-1.19a3.17,3.17,0,0,0-3.14,1.77V70.78h-1.47V82.4h1.47V74.64a2.56,2.56,0,0,1,2.59-2.52,2,2,0,0,1,2.22,2.23v4.74h1.47V74A2.93,2.93,0,0,0,1211.72,70.74Zm10.46,0a3.17,3.17,0,0,0-3.14,1.77V67.2h-1.48V82.4H1219V74.64a2.56,2.56,0,0,1,2.59-2.52,2,2,0,0,1,2.21,2.23v4.74h1.48V74A2.93,2.93,0,0,0,1222.18,70.74Zm18.7,7.22h-6.68V74.64a2.56,2.56,0,0,1,2.59-2.52,2,2,0,0,1,2.22,2.23v1.8h1.47V74a2.93,2.93,0,0,0-3.14-3.21,3.17,3.17,0,0,0-3.14,1.77V70.78h-1.47V82.4h1.47V79.09h6.68Zm13-7.18v4.63a2.42,2.42,0,0,1-2.26,2.36c-1.23,0-1.81-.83-1.81-2.25V70.78h-1.46v4.1c0,1.65-.85,2.84-2.28,2.89-1.2,0-1.8-.83-1.8-2.25V70.78h-1.46v5.14c0,2,1,3.22,2.76,3.22a2.85,2.85,0,0,0,2.91-2.11,2.52,2.52,0,0,0,2.63,2.11,2.81,2.81,0,0,0,2.77-1.73v1.68h1.46V70.78Zm14.17,0h-2.34V67.2h-1.47v3.58h-2.49a4,4,0,0,0-4.14,4.26,4,4,0,0,0,4.21,4.11,3.55,3.55,0,0,0,3.89-3.8V72.09h2.34Zm-3.81,4.45c0,1.47-.6,2.71-2.45,2.7a2.63,2.63,0,0,1-2.7-2.81,2.77,2.77,0,0,1,2.88-3h2.27Zm9.41-4.49a3.17,3.17,0,0,0-3.14,1.77V67.2h-1.48V82.4h1.48V74.64a2.55,2.55,0,0,1,2.59-2.52,2,2,0,0,1,2.21,2.23v4.74h1.48V74A2.93,2.93,0,0,0,1273.7,70.74Zm12.11,0v4.08a2.6,2.6,0,0,1-2.53,2.89,2,2,0,0,1-2.15-2.23V67.2h-3.83v1.13h2.36v7.59a2.91,2.91,0,0,0,3.09,3.22,3.1,3.1,0,0,0,3.06-1.81v1.76h1.48V70.78Z"/><rect class="cls-8" x="653.03" y="147.7" width="144.67" height="88.6" rx="10.65"/><path class="cls-2" d="M687.77,173.94H685.4v-3.77c0-2.27-1.81-3.78-4.6-3.76s-4.88,1.58-4.87,4.42c0,2.47,1.67,4.48,4.82,4.48h3.14v3.09h1.51v-3.09h2.37Zm-3.88,0h-3.06c-2.18,0-3.37-1.18-3.42-3.09s1.37-3.09,3.44-3.09,3,1.27,3,2.45Zm6.62,6.64V170.1H689v11.61h3.83v-1.13Zm14.22-10.48v4.63a2.39,2.39,0,0,1-2.26,2.35c-1.23,0-1.81-.83-1.81-2.24V170.1h-4.91v-3.58h-1.48v15.19h1.48V171.23h3.45v4c0,2,1,3.22,2.77,3.22a2.81,2.81,0,0,0,2.76-1.73v1.68h1.46v-8.3Zm15.25,0v4.63a2.4,2.4,0,0,1-2.26,2.35c-1.23,0-1.81-.83-1.81-2.24V170.1h-1.46v4.09c0,1.65-.84,2.85-2.27,2.89-1.21,0-1.81-.83-1.81-2.24V170.1h-1.46v5.13c0,2,1,3.22,2.76,3.22a2.85,2.85,0,0,0,2.91-2.1,2.53,2.53,0,0,0,2.64,2.1,2.81,2.81,0,0,0,2.76-1.73v1.68h1.46v-8.3Zm11.79,10.48V166.52h-1.48v7.66a2.6,2.6,0,0,1-2.53,2.89,2,2,0,0,1-2.15-2.23V170.1h-1.46v5.13a2.9,2.9,0,0,0,3.08,3.22,3.1,3.1,0,0,0,3.06-1.81v5.07h3.83v-1.13Zm7.9-10.53a3.19,3.19,0,0,0-3.14,1.77V170.1h-1.47v8.3h1.47V174a2.56,2.56,0,0,1,2.59-2.53,2,2,0,0,1,2.22,2.23v4.74h1.47v-5.13A2.93,2.93,0,0,0,739.67,170.05Zm10.46,0a3.19,3.19,0,0,0-3.14,1.77V170.1h-1.47v11.61H747V174a2.56,2.56,0,0,1,2.59-2.53,2,2,0,0,1,2.21,2.23v4.74h1.48v-5.13A2.93,2.93,0,0,0,750.13,170.05Zm-63.91,19a2.8,2.8,0,0,0-2.7,1.55v-1.5h-1.46v4.74a2.34,2.34,0,0,1-2.23,2.24c-1.21,0-1.81-.83-1.81-2.24V189.1h-1.46v5.13c0,2,1,3.22,2.76,3.22a2.82,2.82,0,0,0,2.74-1.68v1.63h1.46v-5.05a2.31,2.31,0,0,1,2.18-1.94c1.22,0,1.8.84,1.8,2.25v4.74H689v-5.13C689,190.27,687.94,189.05,686.22,189.05Zm11.49,0v4.08a2.6,2.6,0,0,1-2.53,2.89,2,2,0,0,1-2.15-2.23v-8.32H689.2v1.13h2.36v7.58a2.91,2.91,0,0,0,3.09,3.22,3.1,3.1,0,0,0,3.06-1.81v1.76h1.48v-8.3Zm7.88,0a4.2,4.2,0,1,0,4.27,4.19A4,4,0,0,0,705.59,189.05Zm0,1.27a2.95,2.95,0,1,1-2.79,2.94A2.75,2.75,0,0,1,705.59,190.32Zm11-1.27a3.19,3.19,0,0,0-3.14,1.77V189.1H712v11.61h1.47V193a2.56,2.56,0,0,1,2.59-2.53,2,2,0,0,1,2.22,2.23v4.74h1.47v-5.13A2.93,2.93,0,0,0,716.61,189.05Zm13.82,1.19v-1.13h-6.69v-3.59h-1.46v8.71a2.9,2.9,0,0,0,3.08,3.22,3.1,3.1,0,0,0,3.06-1.81v1.76h1.48V192h-1.48v1.21a2.6,2.6,0,0,1-2.53,2.89,2,2,0,0,1-2.15-2.23v-3.6Zm8.17-1.14v4.08a2.59,2.59,0,0,1-2.52,2.89,2,2,0,0,1-2.16-2.23v-8.32h-3.83v1.13h2.36v7.58a2.91,2.91,0,0,0,3.09,3.22,3.1,3.1,0,0,0,3.06-1.81v1.76h1.48v-8.3Zm9,0a3.18,3.18,0,0,0-3.14,1.77v-5.3H743v15.19h1.48V193a2.55,2.55,0,0,1,2.59-2.53,2,2,0,0,1,2.21,2.23v4.74h1.47v-5.13A2.93,2.93,0,0,0,747.59,189.05Zm-61.37,19a2.8,2.8,0,0,0-2.7,1.55v-1.5h-1.46v4.74a2.34,2.34,0,0,1-2.23,2.24c-1.21,0-1.81-.83-1.81-2.24V208.1h-1.46v5.13c0,2,1,3.22,2.76,3.22a2.82,2.82,0,0,0,2.74-1.68v1.63h1.46v-5.05a2.31,2.31,0,0,1,2.18-1.94c1.22,0,1.8.84,1.8,2.25v4.74H689v-5.13C689,209.27,687.94,208.05,686.22,208.05Zm13.44,1.19v-1.13H693v-3.59h-1.46v8.71a2.9,2.9,0,0,0,3.08,3.22,3.11,3.11,0,0,0,3.06-1.81v1.76h1.47V211h-1.47v1.21a2.6,2.6,0,0,1-2.53,2.89,2,2,0,0,1-2.15-2.23v-3.6Zm9.9,9.34v-7.31a2.93,2.93,0,0,0-3.14-3.22,3.19,3.19,0,0,0-3.14,1.77V208.1H701.8v8.3h1.48V212a2.55,2.55,0,0,1,2.59-2.53,2,2,0,0,1,2.21,2.23v8.05h3.83v-1.13Zm14.19-10.48v4.63a2.4,2.4,0,0,1-2.26,2.35c-1.22,0-1.8-.83-1.8-2.24V208.1h-1.46v4.09c0,1.65-.85,2.85-2.28,2.89-1.21,0-1.81-.83-1.81-2.24V208.1h-1.46v5.13c0,2,1,3.22,2.77,3.22a2.85,2.85,0,0,0,2.9-2.1,2.54,2.54,0,0,0,2.64,2.1,2.81,2.81,0,0,0,2.76-1.73v1.68h1.46v-8.3Zm10.31,0v4.08a2.6,2.6,0,0,1-2.53,2.89,2,2,0,0,1-2.15-2.23v-8.32h-1.46v8.71a2.9,2.9,0,0,0,3.08,3.22,3.1,3.1,0,0,0,3.06-1.81v5.07h1.48V208.1Zm15.27,0v4.63a2.41,2.41,0,0,1-2.26,2.35c-1.23,0-1.81-.83-1.81-2.24V208.1H743.8v4.09c0,1.65-.85,2.85-2.28,2.89-1.2,0-1.8-.83-1.8-2.24V208.1h-1.46v5.13c0,2,1,3.22,2.76,3.22a2.85,2.85,0,0,0,2.91-2.1,2.53,2.53,0,0,0,2.63,2.1,2.81,2.81,0,0,0,2.77-1.73v1.68h1.46v-8.3Zm5.82,10.48V208.1h-1.48v11.61h3.83v-1.13Z"/><rect class="cls-9" x="653.03" y="31.07" width="144.67" height="66.17" rx="10.65"/><path class="cls-2" d="M688.09,55.63h-2.37V51.86c0-2.28-1.8-3.78-4.6-3.77s-4.88,1.59-4.86,4.43c0,2.47,1.66,4.47,4.82,4.47h3.14v3.1h1.5V57h2.37Zm-3.87,0h-3.06c-2.19,0-3.38-1.18-3.43-3.09s1.37-3.1,3.44-3.1,3.05,1.27,3.05,2.45Zm6.61,6.64V51.78h-1.48V63.4h3.83V62.27Zm14.22-10.49v4.63a2.39,2.39,0,0,1-2.26,2.36c-1.22,0-1.8-.83-1.8-2.25V51.78h-4.92V48.2H694.6V63.4h1.47V52.91h3.46v4c0,2,1,3.21,2.76,3.21a2.78,2.78,0,0,0,2.76-1.72v1.68h1.47V51.78Zm15.25,0v4.63A2.41,2.41,0,0,1,718,58.77c-1.22,0-1.8-.83-1.8-2.25V51.78h-1.46v4.1c0,1.65-.85,2.84-2.28,2.89-1.21,0-1.8-.83-1.8-2.25V51.78h-1.46v5.14c0,2,1,3.21,2.76,3.21a2.82,2.82,0,0,0,2.9-2.1,2.53,2.53,0,0,0,2.64,2.1,2.78,2.78,0,0,0,2.76-1.72v1.68h1.47V51.78Zm11.79,10.49V48.2h-1.47v7.66a2.6,2.6,0,0,1-2.53,2.89,2,2,0,0,1-2.15-2.23V51.78h-1.46v5.14a2.88,2.88,0,0,0,3.07,3.21,3.1,3.1,0,0,0,3.07-1.8V63.4h3.83V62.27ZM740,51.74a3.17,3.17,0,0,0-3.14,1.77V51.78h-1.48v8.31h1.48V55.64a2.55,2.55,0,0,1,2.59-2.52,2,2,0,0,1,2.21,2.23v4.74h1.48V55A2.93,2.93,0,0,0,740,51.74Zm10.46,0a3.17,3.17,0,0,0-3.14,1.77V51.78h-1.48V63.4h1.48V55.64a2.55,2.55,0,0,1,2.59-2.52,2,2,0,0,1,2.21,2.23v4.74h1.47V55A2.92,2.92,0,0,0,750.46,51.74Zm-63.92,19a2.79,2.79,0,0,0-2.7,1.55V70.78h-1.46v4.74a2.35,2.35,0,0,1-2.23,2.25c-1.21,0-1.81-.83-1.81-2.25V70.78h-1.45v5.14c0,2,1,3.22,2.76,3.22a2.81,2.81,0,0,0,2.73-1.68v1.63h1.46V74A2.31,2.31,0,0,1,686,72.1c1.23,0,1.81.83,1.81,2.25v4.74h1.46V74C689.29,72,688.27,70.74,686.54,70.74Zm11.5,0v4.08a2.6,2.6,0,0,1-2.53,2.89,2,2,0,0,1-2.15-2.23V67.2h-3.83v1.13h2.35v7.59A2.91,2.91,0,0,0,695,79.14,3.12,3.12,0,0,0,698,77.33v1.76h1.47V70.78Zm7.88,0a4.2,4.2,0,1,0,4.27,4.19A4,4,0,0,0,705.92,70.74Zm0,1.27a2.94,2.94,0,1,1-2.8,2.93A2.75,2.75,0,0,1,705.92,72Zm11-1.27a3.17,3.17,0,0,0-3.14,1.77V70.78h-1.48V82.4h1.48V74.64a2.55,2.55,0,0,1,2.59-2.52,2,2,0,0,1,2.21,2.23v4.74h1.48V74A2.93,2.93,0,0,0,716.94,70.74Zm13.82,1.19V70.8h-6.69V67.2h-1.46v8.72a2.89,2.89,0,0,0,3.07,3.22,3.1,3.1,0,0,0,3.06-1.81v1.76h1.48V73.66h-1.48v1.2a2.59,2.59,0,0,1-2.52,2.89,2,2,0,0,1-2.15-2.23V71.93Zm8.17-1.15v4.08a2.6,2.6,0,0,1-2.53,2.89,2,2,0,0,1-2.15-2.23V67.2h-3.83v1.13h2.35v7.59a2.91,2.91,0,0,0,3.1,3.22,3.12,3.12,0,0,0,3.06-1.81v1.76h1.47V70.78Z"/><rect class="cls-10" x="352.14" y="147.7" width="161.49" height="66.17" rx="10.65"/><path class="cls-2" d="M382,169.64v2.59a2.91,2.91,0,0,1-3.12,3.23,2.94,2.94,0,0,1-3.16-3.23v-7.4h-4.27v1.37h2.77v6c0,2.87,1.76,4.6,4.66,4.6a4.25,4.25,0,0,0,4.63-4.6v-2.59Zm12.07-.08v-1.13h-6.69v-3.6h-1.46v8.72a2.9,2.9,0,0,0,3.08,3.22A3.11,3.11,0,0,0,392,175v1.76h1.47v-5.43H392v1.21a2.59,2.59,0,0,1-2.53,2.88,2,2,0,0,1-2.15-2.23v-3.59Zm6.76-1.19a3.19,3.19,0,0,0-3.14,1.77v-1.73h-1.48V180h1.48v-7.75a2.55,2.55,0,0,1,2.59-2.53,2,2,0,0,1,2.21,2.23v4.74h1.48v-5.13A2.93,2.93,0,0,0,400.79,168.37Zm15,9.32h-7.39v-2.6a3.4,3.4,0,0,0,3.11,1.68,4.21,4.21,0,0,0,0-8.4,3.36,3.36,0,0,0-3.08,1.69v-1.65h-1.48v9.28h-1.22v1.12h1.22V180h1.48v-1.22h7.39Zm-4.61-8.08a2.94,2.94,0,1,1-2.78,2.93A2.77,2.77,0,0,1,411.2,169.61Zm11.36-1.24a3.19,3.19,0,0,0-3.14,1.77v-5.31h-1.48V180h1.48v-7.75a2.56,2.56,0,0,1,2.59-2.53,2,2,0,0,1,2.21,2.23v4.74h1.48v-5.13A2.93,2.93,0,0,0,422.56,168.37Zm12.11,0v4.09a2.59,2.59,0,0,1-2.52,2.88,2,2,0,0,1-2.15-2.23v-8.32h-3.83V166h2.35v7.59a2.91,2.91,0,0,0,3.09,3.22,3.1,3.1,0,0,0,3.06-1.81v1.76h1.48v-8.31Zm-50.57,19V192a2.41,2.41,0,0,1-2.26,2.36c-1.23,0-1.81-.83-1.81-2.25v-4.74h-1.46v4.1c0,1.65-.84,2.84-2.27,2.89-1.21,0-1.81-.83-1.81-2.25v-4.74H373v5.14c0,2,1,3.22,2.77,3.22a2.84,2.84,0,0,0,2.9-2.11,2.53,2.53,0,0,0,2.64,2.11A2.81,2.81,0,0,0,384.1,194v1.68h1.46v-8.31Zm9,0a3.19,3.19,0,0,0-3.14,1.77v-1.73h-1.47v8.31h1.47v-4.44a2.56,2.56,0,0,1,2.59-2.53,2,2,0,0,1,2.22,2.23v4.74h1.47v-5.13A2.93,2.93,0,0,0,393.06,187.37Zm6.3,7.22v-7.18h-1.48v8.31h3.83v-1.13Zm14.67,0h-2.36v-4a2.93,2.93,0,0,0-3.14-3.22,3.19,3.19,0,0,0-3.14,1.77v-1.73h-1.47v8.31h1.47v-4.44a2.56,2.56,0,0,1,2.59-2.53A2,2,0,0,1,410.2,191V199h1.47v-3.31H414Zm5.85-7.22a3.19,3.19,0,0,0-3.14,1.77v-5.31h-1.48V199h1.48v-7.75a2.55,2.55,0,0,1,2.59-2.53,2,2,0,0,1,2.21,2.23v4.74H423v-5.13A2.93,2.93,0,0,0,419.88,187.37Zm15.32,0a2.79,2.79,0,0,0-2.7,1.55v-1.51H431v4.74a2.35,2.35,0,0,1-2.23,2.25c-1.21,0-1.8-.83-1.8-2.25v-4.74h-1.46v5.14c0,2,1,3.22,2.76,3.22a2.81,2.81,0,0,0,2.73-1.68v1.63h1.46v-5.06a2.31,2.31,0,0,1,2.18-1.93c1.23,0,1.81.84,1.81,2.25v4.74H438v-5.13C438,188.59,436.93,187.37,435.2,187.37Z"/><rect class="cls-11" x="352.14" y="31.07" width="161.49" height="66.17" rx="10.65"/><path class="cls-2" d="M372.5,55.94H374c0,1.93,1.43,2.92,3.64,2.94s3.57-.66,3.58-2c0-3.28-8.22-1.09-8.13-5.78.05-1.74,1.65-3.05,4.66-3,2,0,4.41.87,4.43,3.21h-1.51c0-.9-.95-1.81-2.93-1.84s-3.11.55-3.14,1.6c0,3.12,8.26.88,8.13,5.9-.06,2.19-2.09,3.3-5.12,3.28C375.07,60.23,372.42,59.13,372.5,55.94Zm18.58-4.16v4.08a2.59,2.59,0,0,1-2.52,2.89,2,2,0,0,1-2.15-2.23V48.2h-3.83v1.13h2.35v7.59A2.9,2.9,0,0,0,388,60.13a3.08,3.08,0,0,0,3.06-1.8v1.76h1.48V51.78Zm7.89,0a4.2,4.2,0,1,0,4.27,4.19A4,4,0,0,0,399,51.74ZM399,53a2.94,2.94,0,1,1-2.8,2.93A2.75,2.75,0,0,1,399,53Zm11-1.27a3.17,3.17,0,0,0-3.14,1.77V51.78h-1.48V63.4h1.48V55.64a2.55,2.55,0,0,1,2.59-2.52,2,2,0,0,1,2.21,2.23v4.74h1.48V55A2.93,2.93,0,0,0,410,51.74Zm13.81,1.19V51.8h-6.68V48.2h-1.46v8.72a2.88,2.88,0,0,0,3.07,3.21,3.08,3.08,0,0,0,3.06-1.8v1.76h1.48V54.66h-1.48v1.2a2.59,2.59,0,0,1-2.52,2.89,2,2,0,0,1-2.15-2.23V52.93ZM432,51.78v4.08a2.6,2.6,0,0,1-2.53,2.89,2,2,0,0,1-2.15-2.23V48.2h-3.83v1.13h2.35v7.59a2.9,2.9,0,0,0,3.1,3.21,3.1,3.1,0,0,0,3.06-1.8v1.76h1.47V51.78Zm10.64,0v4.08a2.6,2.6,0,0,1-2.53,2.89,2,2,0,0,1-2.15-2.23V48.2h-3.83v1.13h2.35v7.59a2.9,2.9,0,0,0,3.1,3.21,3.1,3.1,0,0,0,3.06-1.8v1.76h1.47V51.78ZM455,52.93V51.8h-6.69V48.2h-1.46v8.72a2.89,2.89,0,0,0,3.08,3.21,3.08,3.08,0,0,0,3.06-1.8v1.76h1.48V54.66H453v1.2a2.6,2.6,0,0,1-2.53,2.89,2,2,0,0,1-2.15-2.23V52.93Zm6.76-1.19a3.17,3.17,0,0,0-3.14,1.77V51.78H457.1V63.4h1.48V55.64a2.55,2.55,0,0,1,2.59-2.52,2,2,0,0,1,2.21,2.23v4.74h1.48V55A2.93,2.93,0,0,0,461.72,51.74Zm10.46,0A3.17,3.17,0,0,0,469,53.51V48.2h-1.48V63.4H469V55.64a2.55,2.55,0,0,1,2.59-2.52,2,2,0,0,1,2.21,2.23v4.74h1.48V55A2.93,2.93,0,0,0,472.18,51.74Zm-88.52,19v4.63a2.4,2.4,0,0,1-2.26,2.36c-1.23,0-1.81-.83-1.81-2.25V70.78h-4.91V67.2H373.2V82.4h1.48V71.91h3.45v4c0,2,1,3.22,2.77,3.22a2.81,2.81,0,0,0,2.76-1.73v1.68h1.46V70.78Zm9,0a3.17,3.17,0,0,0-3.14,1.77V70.78H388v8.31h1.47V74.64a2.56,2.56,0,0,1,2.59-2.52,2,2,0,0,1,2.22,2.23v4.74h1.47V74A2.93,2.93,0,0,0,392.63,70.74Zm10.46,0A3.17,3.17,0,0,0,400,72.51V70.78h-1.48V82.4H400V74.64a2.55,2.55,0,0,1,2.59-2.52,2,2,0,0,1,2.21,2.23v4.74h1.48V74A2.93,2.93,0,0,0,403.09,70.74Zm10.47,0a3.19,3.19,0,0,0-3.16,1.8V67.2h-1.47V79.09h1.47V75A2.62,2.62,0,0,1,413,72.12a2,2,0,0,1,2.22,2.23v4.74h1.47V74A2.93,2.93,0,0,0,413.56,70.74Zm10.46,0a3.17,3.17,0,0,0-3.14,1.77V70.78H419.4v8.31h1.48V74.64a2.55,2.55,0,0,1,2.59-2.52,2,2,0,0,1,2.21,2.23v4.74h1.48V74A2.93,2.93,0,0,0,424,70.74ZM430.31,78V70.78h-1.47v8.31h3.83V78Zm9.18-7.22a3.17,3.17,0,0,0-3.14,1.77V70.78h-1.48V82.4h1.48V74.64a2.55,2.55,0,0,1,2.59-2.52,2,2,0,0,1,2.21,2.23v4.74h1.48V74A2.93,2.93,0,0,0,439.49,70.74ZM455.44,78h-2.36V74a2.93,2.93,0,0,0-3.14-3.21,3.18,3.18,0,0,0-3.14,1.77V70.78h-1.47v8.31h1.47V74.64a2.56,2.56,0,0,1,2.59-2.52,2,2,0,0,1,2.22,2.23V82.4h1.47V79.09h2.36Z"/><rect class="cls-12" x="31.06" y="31.07" width="181.68" height="66.17" rx="10.65"/><path class="cls-2" d="M61.88,56H53.64v-3.5a3.14,3.14,0,1,1,6.28,0v1h1.5v-1a4.25,4.25,0,0,0-4.63-4.6c-2.9,0-4.66,1.73-4.66,4.6v7.6h1.51V57.37h8.24Zm13.47-4.21v4.63a2.41,2.41,0,0,1-2.26,2.36c-1.22,0-1.8-.83-1.8-2.25V51.78H69.83v4.1c0,1.65-.85,2.84-2.28,2.89-1.21,0-1.81-.83-1.81-2.25V51.78H64.28v5.14c0,2,1,3.21,2.77,3.21A2.82,2.82,0,0,0,70,58a2.53,2.53,0,0,0,2.64,2.1,2.78,2.78,0,0,0,2.76-1.72v1.68h1.46V51.78Zm14.18,0H87.19V48.2H85.71v3.58H83.23A4,4,0,0,0,79.09,56a4,4,0,0,0,4.2,4.11,3.56,3.56,0,0,0,3.9-3.8V53.09h2.34Zm-3.82,4.45c0,1.47-.6,2.71-2.45,2.7a2.64,2.64,0,0,1-2.7-2.81,2.77,2.77,0,0,1,2.89-3h2.26Zm10.83-4.45v4.08A2.6,2.6,0,0,1,94,58.75a2,2,0,0,1-2.15-2.23V48.2H88v1.13h2.35v7.59a2.9,2.9,0,0,0,3.09,3.21,3.1,3.1,0,0,0,3.07-1.8v1.76H98V51.78Zm12.34,1.15V51.8h-6.69V48.2h-1.46v8.72a2.89,2.89,0,0,0,3.08,3.21,3.09,3.09,0,0,0,3.06-1.8v1.76h1.47V54.66h-1.47v1.2a2.6,2.6,0,0,1-2.53,2.89,2,2,0,0,1-2.15-2.23V52.93Zm11.62-1.19a2.8,2.8,0,0,0-2.7,1.55V51.78h-1.46v4.74a2.34,2.34,0,0,1-2.23,2.25c-1.2,0-1.8-.83-1.8-2.25V51.78h-1.46v5.14c0,2,1,3.21,2.76,3.21a2.77,2.77,0,0,0,2.73-1.67v1.63h1.46V55A2.32,2.32,0,0,1,120,53.1c1.22,0,1.8.83,1.8,2.25v4.74h1.46V55C123.25,53,122.23,51.74,120.5,51.74ZM134,52.93V51.8h-6.69V48.2H125.8v8.72a2.89,2.89,0,0,0,3.08,3.21,3.1,3.1,0,0,0,3.06-1.8v1.76h1.47V54.66h-1.47v1.2a2.6,2.6,0,0,1-2.53,2.89,2,2,0,0,1-2.15-2.23V52.93Zm6.76-1.19a3.17,3.17,0,0,0-3.14,1.77V51.78h-1.48V63.4h1.48V55.64a2.55,2.55,0,0,1,2.59-2.52,2,2,0,0,1,2.21,2.23v4.74h1.48V55A2.93,2.93,0,0,0,140.71,51.74Zm13.81,1.19V51.8h-6.69V48.2h-1.46v8.72a2.89,2.89,0,0,0,3.08,3.21,3.08,3.08,0,0,0,3.06-1.8v1.76H154V54.66h-1.48v1.2A2.59,2.59,0,0,1,150,58.75a2,2,0,0,1-2.16-2.23V52.93Zm6.76-1.19a3.17,3.17,0,0,0-3.14,1.77V51.78h-1.47V63.4h1.47V55.64a2.56,2.56,0,0,1,2.59-2.52A2,2,0,0,1,163,55.35v4.74h1.47V55A2.93,2.93,0,0,0,161.28,51.74Zm10.46,0a3.17,3.17,0,0,0-3.14,1.77V48.2h-1.48V63.4h1.48V55.64a2.55,2.55,0,0,1,2.59-2.52,2,2,0,0,1,2.21,2.23v4.74h1.48V55A2.93,2.93,0,0,0,171.74,51.74ZM62,70.78H59.62V67.2H58.14v3.58H55.66A4,4,0,0,0,51.52,75a4,4,0,0,0,4.21,4.11,3.55,3.55,0,0,0,3.89-3.8V72.09H62Zm-3.82,4.45c0,1.47-.59,2.71-2.45,2.7A2.64,2.64,0,0,1,53,75.12a2.77,2.77,0,0,1,2.89-3h2.26Zm9.42-4.49a3.17,3.17,0,0,0-3.14,1.77V70.78H62.94v8.31h1.48V74.64A2.55,2.55,0,0,1,67,72.12a2,2,0,0,1,2.21,2.23v4.74H70.7V74A2.93,2.93,0,0,0,67.56,70.74ZM81.15,81.27V74A2.93,2.93,0,0,0,78,70.74a3.17,3.17,0,0,0-3.14,1.77V70.78H73.4v8.31h1.47V74.64a2.56,2.56,0,0,1,2.59-2.52,2,2,0,0,1,2.22,2.23V82.4h3.83V81.27Zm7.92-10.53a3.17,3.17,0,0,0-3.14,1.77V70.78H84.45v8.31h1.48V74.64a2.55,2.55,0,0,1,2.59-2.52,2,2,0,0,1,2.21,2.23v4.74h1.48V74A2.93,2.93,0,0,0,89.07,70.74Zm13.28,10.53V67.2h-1.48v7.66a2.59,2.59,0,0,1-2.52,2.89,2,2,0,0,1-2.16-2.23V70.78H94.73v5.14a2.9,2.9,0,0,0,3.08,3.22,3.1,3.1,0,0,0,3.06-1.81V82.4h3.83V81.27Z"/><path class="cls-13" d="M213.3,64.15H351.57"/><path class="cls-13" d="M514.19,64.15H652.46"/><path class="cls-13" d="M798.25,64.15H913"/><path class="cls-13" d="M913,64.15h114.73"/><path class="cls-13" d="M913,144.9h114.73"/><path class="cls-13" d="M913,216.67h114.73"/><path class="cls-13" d="M913,308.63h114.73"/><path class="cls-13" d="M913,400.59h114.73"/><path class="cls-13" d="M913,472.36h114.73"/><path class="cls-13" d="M704.17,97.8v49.34"/><path class="cls-13" d="M432.88,97.8v49.34"/><path class="cls-13" d="M913,64.15V472.36"/><path class="cls-14" d="M115.84,259.29v49.34"/><path class="cls-14" d="M550.6,404H199.29"/><path class="cls-14" d="M199.3,377v26.35"/><path class="cls-14" d="M199.3,403.39v26.36"/><path class="cls-14" d="M550.6,404v25.8"/><rect class="cls-15" x="31.06" y="191.44" width="169.55" height="66.17" rx="10.65"/><path class="cls-16" d="M57.09,209.78H52.62v11h4.43a5.5,5.5,0,1,0,0-11Zm0,9.63h-3v-8.26h2.93a4.07,4.07,0,0,1,4.16,4.14A4,4,0,0,1,57.13,219.41Zm8.37-10.25a.9.9,0,0,0-.91.94.91.91,0,1,0,.91-.94Zm-.73,3.31v8.3h1.46v-8.3Zm15-.05a3.16,3.16,0,0,0-3.24,2.09,2.79,2.79,0,0,0-2.93-2.09,3.16,3.16,0,0,0-3.1,1.79v-1.74H69.08v8.3h1.46v-4.09a2.62,2.62,0,0,1,2.55-2.89A2,2,0,0,1,75.24,216v4.74h1.47v-4.09a2.61,2.61,0,0,1,2.53-2.89A2,2,0,0,1,81.39,216v4.74h1.48v-5.13A2.9,2.9,0,0,0,79.81,212.42Zm9,0a4.2,4.2,0,0,0,0,8.4,4.44,4.44,0,0,0,3.39-1.38l-.8-.83a3.35,3.35,0,0,1-2.48,1,2.74,2.74,0,0,1-2.81-2.44H92.7C92.85,214.29,91.6,212.42,88.8,212.42Zm-2.68,3.64a2.62,2.62,0,0,1,2.7-2.43,2.41,2.41,0,0,1,2.57,2.43Zm13.2-3.64a3.21,3.21,0,0,0-3.16,1.81v-1.76H94.7v8.3h1.46v-4.44a2.58,2.58,0,0,1,2.61-2.53A2,2,0,0,1,101,216v4.74h1.46v-5.13A2.92,2.92,0,0,0,99.32,212.42Zm10.27,1.88.53-1.11a5,5,0,0,0-2.74-.78c-1.56,0-3,.67-3,2.3,0,3,4.52,2,4.49,3.87,0,.75-.71,1.06-1.6,1.06a4.36,4.36,0,0,1-2.76-1l-.55,1.07a5,5,0,0,0,3.26,1.14c1.62,0,3.09-.74,3.09-2.39,0-3-4.53-2.1-4.53-3.83,0-.7.62-1,1.46-1A4.72,4.72,0,0,1,109.59,214.3Zm3.41-5.14a.9.9,0,0,0-.91.94.91.91,0,1,0,.91-.94Zm-.73,3.31v8.3h1.46v-8.3Zm7.77-.05a4.2,4.2,0,1,0,4.25,4.19A4,4,0,0,0,120,212.42Zm0,1.27a2.95,2.95,0,1,1-2.8,2.94A2.75,2.75,0,0,1,120,213.69ZM131,212.42a3.22,3.22,0,0,0-3.16,1.81v-1.76h-1.46v8.3h1.46v-4.44a2.58,2.58,0,0,1,2.61-2.53,2,2,0,0,1,2.21,2.23v4.74h1.46v-5.13A2.92,2.92,0,0,0,131,212.42Zm18.54,0,.9-1.08a5.88,5.88,0,0,0-4.09-1.65,5.6,5.6,0,1,0-.06,11.19,6.08,6.08,0,0,0,4.16-1.74l-.91-1a4.65,4.65,0,0,1-3.17,1.32,4.23,4.23,0,1,1,0-8.45A4.49,4.49,0,0,1,149.49,212.42Zm7.82,5v-7.67h-5.4v1.38h3.88v6.24c0,1.27-.64,2-1.76,2a3.26,3.26,0,0,1-2.37-1.26l-.74,1.17a3.94,3.94,0,0,0,3.13,1.57A3,3,0,0,0,157.31,217.45Zm9.32-5.37.63-1.35a6.69,6.69,0,0,0-3.63-1.07c-2.34,0-3.89,1.16-3.89,3,0,4,6.07,2.46,6.07,5.23,0,1-.89,1.6-2.37,1.6a5.52,5.52,0,0,1-3.67-1.6l-.68,1.3a6.51,6.51,0,0,0,4.34,1.73c2.38,0,4-1.21,4-3.11,0-4-6.06-2.58-6.06-5.28,0-.86.83-1.38,2.1-1.38A6,6,0,0,1,166.63,212.08Zm11.21.34.9-1.08a5.9,5.9,0,0,0-4.09-1.65,5.6,5.6,0,1,0-.06,11.19,6.08,6.08,0,0,0,4.16-1.74l-.91-1a4.65,4.65,0,0,1-3.17,1.32,4.23,4.23,0,1,1,0-8.45A4.49,4.49,0,0,1,177.84,212.42Z"/><path class="cls-17" d="M53.41,239.84l3.31-3.39c1.21-1.26,2-2.52,2-3.58,0-1.67-1.41-2.72-3.53-2.72a6.39,6.39,0,0,0-3.94,1.52l.64,1.15A4.89,4.89,0,0,1,55,231.49c1.35,0,2.15.59,2.15,1.58a4.43,4.43,0,0,1-1.5,2.56L51.43,240v1.16h8v-1.36Zm11.51-9.69c-2.18,0-3.56,1-3.56,2.75a2.6,2.6,0,0,0,1.77,2.43,3,3,0,0,0-2.31,2.83c0,1.93,1.59,3.12,4.12,3.12s4.11-1.21,4.11-3.15a2.89,2.89,0,0,0-2.25-2.8A2.53,2.53,0,0,0,68.5,233C68.5,231.2,67.13,230.15,64.92,230.15Zm0,1.1c1.44,0,2.27.66,2.27,1.77s-.83,1.79-2.27,1.79-2.3-.66-2.3-1.79S63.49,231.25,64.94,231.25Zm0,4.76c1.7,0,2.7.75,2.7,2s-1,2.07-2.68,2.07-2.69-.77-2.69-2.08S63.24,236,64.92,236Zm6.61,3.53a.86.86,0,0,0-.87.89.87.87,0,0,0,.87.91.86.86,0,0,0,.84-.91A.84.84,0,0,0,71.53,239.54Zm7.3-9.39c-3,0-4.6,2-4.6,5.56s1.63,5.57,4.6,5.57,4.6-2,4.6-5.57S81.78,230.15,78.83,230.15Zm0,1.19c2,0,3,1.45,3,4.37s-1,4.36-3,4.36-3-1.46-3-4.36S76.82,231.34,78.83,231.34Zm7.34,8-.59,1.14a7.08,7.08,0,0,0,3.17.82c2.84,0,4.63-2.31,4.63-5.82s-1.66-5.31-4.38-5.31a3.47,3.47,0,0,0-3.78,3.64,3.25,3.25,0,0,0,3.51,3.49,3.17,3.17,0,0,0,3.16-1.85c.14,2.76-1,4.58-3.23,4.58A4.91,4.91,0,0,1,86.17,239.32Zm2.92-7.87a2.32,2.32,0,0,1,2.52,2.26A2.41,2.41,0,0,1,89,236.07a2.17,2.17,0,0,1-2.37-2.26A2.25,2.25,0,0,1,89.09,231.45Zm6.8,8.09a.85.85,0,0,0-.86.89.86.86,0,1,0,1.71,0A.85.85,0,0,0,95.89,239.54Zm4.19.3,3.31-3.39c1.21-1.26,2-2.52,2-3.58,0-1.67-1.42-2.72-3.54-2.72A6.39,6.39,0,0,0,98,231.67l.65,1.15a4.85,4.85,0,0,1,3.1-1.33c1.36,0,2.16.59,2.16,1.58a4.45,4.45,0,0,1-1.51,2.56L98.1,240v1.16h8v-1.36Zm12.19-9.69c-3,0-4.6,2-4.6,5.56s1.63,5.57,4.6,5.57,4.6-2,4.6-5.57S115.22,230.15,112.27,230.15Zm0,1.19c2,0,3,1.45,3,4.37s-1,4.36-3,4.36-3-1.46-3-4.36S110.26,231.34,112.27,231.34Zm5.57-1.13v1.37h2.5v9.62h1.5v-11Zm10.71-.06c-2.18,0-3.56,1-3.56,2.75a2.6,2.6,0,0,0,1.77,2.43,3,3,0,0,0-2.31,2.83c0,1.93,1.59,3.12,4.12,3.12s4.11-1.21,4.11-3.15a2.89,2.89,0,0,0-2.25-2.8,2.53,2.53,0,0,0,1.7-2.38C132.13,231.2,130.76,230.15,128.55,230.15Zm0,1.1c1.44,0,2.27.66,2.27,1.77s-.83,1.79-2.27,1.79-2.3-.66-2.3-1.79S127.12,231.25,128.57,231.25Zm0,4.76c1.7,0,2.7.75,2.7,2s-1,2.07-2.68,2.07-2.69-.77-2.69-2.08S126.87,236,128.55,236Z"/><rect class="cls-18" x="364.57" y="430.31" width="374.35" height="66.17" rx="10.65"/><path class="cls-16" d="M398,454.78H395.2v-2.53c0-2.86-1.76-4.6-4.67-4.6a4.25,4.25,0,0,0-4.63,4.6v2h1.51v-2a2.92,2.92,0,0,1,3.12-3.24,3,3,0,0,1,3.16,3.24v7.39h1.51v-3.5H398Zm12.15-3.44V456a2.42,2.42,0,0,1-2.26,2.36c-1.23,0-1.81-.84-1.81-2.25v-4.74h-1.46v4.1c0,1.64-.85,2.84-2.28,2.89-1.21,0-1.8-.84-1.8-2.25v-4.74H399v5.13c0,2,1,3.22,2.76,3.22a2.84,2.84,0,0,0,2.9-2.1,2.54,2.54,0,0,0,2.64,2.1,2.81,2.81,0,0,0,2.77-1.73v1.68h1.46v-8.3ZM413.93,462c2.5-1,.41-3.58.41-6.28v-4.38h1.48v4.55c.06,2.51,2.71,6.34-1.89,7.18Zm23.41-9.52v-1.13h-6.67v-3.59h0a9.19,9.19,0,0,1-4.1.11c-3.23-1.15-5.13,1.05-3.65,2.75,1.24,1.22,2.12,2.11,2.12,3.78v1a2.6,2.6,0,0,1-2.53,2.89,2,2,0,0,1-2.15-2.21v-4.74h-1.46v5.13a2.9,2.9,0,0,0,3.07,3.22,3.09,3.09,0,0,0,3.07-1.81v1.75h1.47v-5.18a3.89,3.89,0,0,0-1.62-3.63c-1.74-1.41-1.05-2.62,1.45-1.79a6.17,6.17,0,0,0,2.87.12v7.35a2.9,2.9,0,0,0,3.08,3.22,3.11,3.11,0,0,0,3.06-1.8v1.75h1.48v-5.43h-1.48v1.21a2.59,2.59,0,0,1-2.53,2.89,2,2,0,0,1-2.13-2.23v-3.6Zm8.18-1.14v4.08a2.6,2.6,0,0,1-2.53,2.89,2,2,0,0,1-2.15-2.23v-8.32H437v1.13h2.35v7.58a2.91,2.91,0,0,0,3.09,3.22,3.13,3.13,0,0,0,3.07-1.8v1.75H447v-8.3Zm11.07,10.47v1.13h-4.27c-1.65,0-3-.53-3-2.46s2.06-2.59,3.69-3.4c.92-.44,2.18-.92,2.16-2.43a2,2,0,0,0-2.18-2.07,1.91,1.91,0,0,0-2.16,1.85h-1.48c.09-1.84,1.33-3.12,3.64-3.12a3.37,3.37,0,0,1,3.66,3.29c0,2.55-2.06,3.33-2.87,3.71-1.49.74-3,1.26-3,2.29,0,.64.44,1.21,1.57,1.21Zm8.23-10.47v4.08a2.6,2.6,0,0,1-2.53,2.89,2,2,0,0,1-2.15-2.23v-8.32h-3.83v1.13h2.36v7.58a2.91,2.91,0,0,0,3.09,3.22,3.11,3.11,0,0,0,3.06-1.8v1.75h1.48v-8.3ZM484.66,456c0-1.83-1.06-3.65-5-3.89v-4.33h-1.49c-2,0-3.8.77-3.8,2.84,0,1.87,1.65,2.61,3.8,2.76v5c-2.24-.18-3.81-1.15-3.75-2.69h-1.51c-.07,2.67,2.78,4,5.87,4.08S484.68,458.62,484.66,456Zm-8.83-5.46c0-.8.65-1.38,2.3-1.4V452C476.48,451.93,475.83,451.54,475.83,450.52Zm7.33,5.46c0,1.62-1.51,2.28-3.54,2.39v-4.94C482,453.58,483.17,454.35,483.16,456Zm8-4.69a3.2,3.2,0,0,0-3.14,1.78v-5.31h-1.47V463H488V455.2a2.57,2.57,0,0,1,2.59-2.53,2,2,0,0,1,2.22,2.23v4.74h1.47v-5.13A2.93,2.93,0,0,0,491.14,451.29Zm15,9.33h-7.4V458a3.41,3.41,0,0,0,3.11,1.68,3.86,3.86,0,0,0,3.94-4.18,3.91,3.91,0,0,0-4-4.22,3.37,3.37,0,0,0-3.08,1.7v-1.65H497.3v9.28h-1.23v1.11h1.23V463h1.47v-1.23h7.4Zm-4.62-8.09a2.95,2.95,0,1,1-2.78,2.94A2.77,2.77,0,0,1,501.55,452.53Zm12.72-1.19v4.08a2.6,2.6,0,0,1-2.53,2.89,2,2,0,0,1-2.15-2.23v-4.74h-1.46v5.13a2.89,2.89,0,0,0,3.07,3.22,3.13,3.13,0,0,0,3.07-1.8v1.75h1.47v-8.3Zm14.47,7.17h-2.35v-4a2.94,2.94,0,0,0-3.14-3.22,3.2,3.2,0,0,0-3.14,1.78v-1.73h-1.48v8.3h1.48V455.2a2.56,2.56,0,0,1,2.59-2.53,2,2,0,0,1,2.21,2.23V463h1.48v-3.32h2.35Zm12-7.17v4.08a2.6,2.6,0,0,1-2.53,2.89,2,2,0,0,1-2.15-2.23v-8.32h-3.83v1.13h2.35v7.58a2.91,2.91,0,0,0,3.09,3.22,3.13,3.13,0,0,0,3.07-1.8v1.75h1.47v-8.3Zm13.55,9.28h-7.4V458a3.39,3.39,0,0,0,3.11,1.68,3.86,3.86,0,0,0,3.94-4.18,3.91,3.91,0,0,0-4-4.22,3.36,3.36,0,0,0-3.08,1.7v-1.65H545.4v9.28h-1.23v1.11h1.23V463h1.47v-1.23h7.4Zm-4.62-8.09a2.95,2.95,0,1,1-2.78,2.94A2.78,2.78,0,0,1,549.65,452.53Zm17.64-1.19V456a2.41,2.41,0,0,1-2.26,2.36c-1.22,0-1.8-.84-1.8-2.25v-4.74h-1.46v4.1c0,1.64-.85,2.84-2.28,2.89-1.21,0-1.81-.84-1.81-2.25v-4.74h-1.46v5.13c0,2,1,3.22,2.77,3.22a2.84,2.84,0,0,0,2.9-2.1,2.54,2.54,0,0,0,2.64,2.1,2.78,2.78,0,0,0,2.76-1.73v1.68h1.46v-8.3Zm14.14-3.58H577.6v7.66a2.59,2.59,0,0,1-2.52,2.89,2,2,0,0,1-2.16-2.23v-4.74h-1.45v5.13a2.89,2.89,0,0,0,3.07,3.22,3.08,3.08,0,0,0,3.06-1.8v1.75h1.46V448.89h2.37Zm5.06,6.22v-1.39h5.59c1.35,0,2.84-.31,2.84-1.71,0-1.05-1.16-1.87-3.11-1.87s-2.68.69-2.82,1.72H587.5c.11-2.15,2.08-3.1,4.28-3.08,2.37,0,4.65,1.13,4.65,3.39a2.2,2.2,0,0,1-1.74,2.18c1.79.63,2.46,1.68,2.43,3,0,2.39-2.2,3.55-5.07,3.56-2.72,0-5.46-1.3-5.39-4h1.5c0,1.74,1.83,2.62,3.9,2.61,1.86,0,3.55-.62,3.55-2.33,0-1.32-1.33-2.08-3.48-2.08Zm14.65-1.73a3.14,3.14,0,1,1,6.28,0v7.39h1.51v-7.39a4.25,4.25,0,0,0-4.63-4.6c-2.91,0-4.66,1.74-4.66,4.6v7.39h1.5Zm14.29-.9h-2.95v-3.59H611v11.88h1.5v-6.91h2.95Zm10,.7v-1.39h-7.27v-2.9h-1.5v11.88h5.52a.78.78,0,0,1,.87.8v.38h1.51v-.6c0-1.35-.66-2-2-2h-4.36v-6.21Zm3.27,3.1v-7.39h-1.5v7.39c0,2.88,1.76,4.6,4.66,4.6a4.25,4.25,0,0,0,4.63-4.6v-7.39H635v7.39a3.15,3.15,0,1,1-6.29,0Zm22.73-.37h-2.76v-2.53c0-2.86-1.76-4.6-4.67-4.6a4.25,4.25,0,0,0-4.63,4.6v2h1.51v-2A2.92,2.92,0,0,1,644,449a3,3,0,0,1,3.16,3.24v7.39h1.51v-3.5h2.76Zm5.88-4.84a3.87,3.87,0,0,0-3.14,1.52v-3.7H652.7v11.88h1.49v-3.25h0v-1.82a3,3,0,0,1,3.12-3.28c2,0,3.16,1.38,3.16,3.42v1.4H662v-1.4C662,451.86,660.35,449.94,657.33,449.94Zm22.75,6c0-1.83-1.07-3.65-5-3.89v-4.33h-1.5c-2,0-3.8.77-3.8,2.84,0,1.87,1.65,2.61,3.8,2.76v5c-2.24-.18-3.81-1.15-3.75-2.69h-1.51c-.07,2.67,2.78,4,5.88,4.08S680.09,458.62,680.08,456Zm-8.84-5.46c0-.8.66-1.38,2.3-1.4V452C671.9,451.93,671.24,451.54,671.24,450.52Zm7.33,5.46c0,1.62-1.51,2.28-3.53,2.39v-4.94C677.42,453.58,678.58,454.35,678.57,456Zm8-4.69a3.21,3.21,0,0,0-3.14,1.78v-1.73h-1.47v8.3h1.47V455.2a2.57,2.57,0,0,1,2.6-2.53,2,2,0,0,1,2.21,2.23v4.74h1.48v-5.13A2.94,2.94,0,0,0,686.55,451.29Zm12.12,0v4.08a2.6,2.6,0,0,1-2.53,2.89,2,2,0,0,1-2.15-2.23v-8.32h-3.83v1.13h2.36v7.58a2.91,2.91,0,0,0,3.09,3.22,3.12,3.12,0,0,0,3.06-1.8v1.75h1.48v-8.3Zm14.48,7.17h-2.36v-4a2.94,2.94,0,0,0-3.14-3.22,3.2,3.2,0,0,0-3.14,1.78v-1.73H703v8.3h1.47V455.2a2.57,2.57,0,0,1,2.59-2.53,2.05,2.05,0,0,1,2.22,2.23V463h1.47v-3.32h2.36Z"/><path class="cls-17" d="M384.7,469.08v1.37h2.5v9.62h1.51v-11Zm5.8,0v1.37H393v9.62h1.51v-11Zm7.33,9.33a.86.86,0,0,0-.86.89.87.87,0,0,0,.86.91.86.86,0,0,0,.85-.91A.85.85,0,0,0,397.83,478.41Zm7.3-9.39c-3,0-4.6,2-4.6,5.56s1.64,5.57,4.6,5.57,4.6-2,4.6-5.57S408.08,469,405.13,469Zm0,1.19c2,0,3.05,1.45,3.05,4.37s-1,4.36-3.05,4.36-3-1.46-3-4.36S403.12,470.21,405.13,470.21Zm7.35,8-.6,1.14a7.14,7.14,0,0,0,3.17.82c2.85,0,4.64-2.31,4.64-5.82,0-3.36-1.67-5.31-4.38-5.31a3.48,3.48,0,0,0-3.79,3.64,3.25,3.25,0,0,0,3.52,3.49,3.18,3.18,0,0,0,3.16-1.85c.14,2.76-1,4.58-3.24,4.58A4.87,4.87,0,0,1,412.48,478.19Zm2.92-7.87a2.31,2.31,0,0,1,2.51,2.26,2.4,2.4,0,0,1-2.6,2.36,2.17,2.17,0,0,1-2.38-2.26A2.26,2.26,0,0,1,415.4,470.32Zm6.8,8.09a.86.86,0,0,0-.87.89.87.87,0,0,0,.87.91.86.86,0,0,0,.84-.91A.84.84,0,0,0,422.2,478.41Zm4.19.3,3.31-3.39c1.21-1.26,2-2.52,2-3.58,0-1.67-1.41-2.72-3.53-2.72a6.39,6.39,0,0,0-3.94,1.52l.64,1.15a4.88,4.88,0,0,1,3.11-1.34c1.35,0,2.15.6,2.15,1.59a4.4,4.4,0,0,1-1.51,2.56l-4.25,4.41v1.16h7.94v-1.36ZM438.57,469c-3,0-4.6,2-4.6,5.56s1.64,5.57,4.6,5.57,4.6-2,4.6-5.57S441.52,469,438.57,469Zm0,1.19c2,0,3.05,1.45,3.05,4.37s-1,4.36-3.05,4.36-3-1.46-3-4.36S436.56,470.21,438.57,470.21Zm8.06,8.5,3.31-3.39c1.21-1.26,2-2.52,2-3.58,0-1.67-1.41-2.72-3.53-2.72a6.39,6.39,0,0,0-3.94,1.52l.64,1.15a4.88,4.88,0,0,1,3.11-1.34c1.35,0,2.15.6,2.15,1.59a4.45,4.45,0,0,1-1.51,2.56l-4.25,4.41v1.16h7.94v-1.36Zm6.59-9.63v1.37h2.5v9.62h1.51v-11Z"/><rect class="cls-19" x="31.06" y="430.31" width="304.35" height="66.17" rx="10.65"/><path class="cls-16" d="M64.32,454.78H61.56v-2.53c0-2.86-1.76-4.6-4.67-4.6a4.25,4.25,0,0,0-4.63,4.6v2h1.51v-2A2.92,2.92,0,0,1,56.89,449a3,3,0,0,1,3.16,3.24v7.39h1.51v-3.5h2.76Zm12.15-3.44V456a2.42,2.42,0,0,1-2.27,2.36c-1.22,0-1.8-.84-1.8-2.25v-4.74H70.94v4.1c0,1.64-.85,2.84-2.28,2.89-1.21,0-1.8-.84-1.8-2.25v-4.74H65.4v5.13c0,2,1,3.22,2.76,3.22a2.84,2.84,0,0,0,2.9-2.1,2.54,2.54,0,0,0,2.64,2.1A2.81,2.81,0,0,0,76.47,458v1.68h1.46v-8.3ZM80.29,462c2.5-1,.41-3.58.41-6.28v-4.38h1.48v4.55c.06,2.51,2.71,6.34-1.89,7.18Zm23.41-9.52v-1.13H97v-3.59h0a9.19,9.19,0,0,1-4.1.11c-3.23-1.15-5.13,1.05-3.65,2.75,1.24,1.22,2.12,2.11,2.12,3.78v1a2.6,2.6,0,0,1-2.53,2.89,2,2,0,0,1-2.15-2.21v-4.74H85.24v5.13a2.9,2.9,0,0,0,3.07,3.22,3.09,3.09,0,0,0,3.07-1.81v1.75h1.47v-5.18a3.89,3.89,0,0,0-1.62-3.63c-1.74-1.41-1-2.62,1.45-1.79a6.17,6.17,0,0,0,2.87.12v7.35a2.9,2.9,0,0,0,3.08,3.22,3.11,3.11,0,0,0,3.06-1.8v1.75h1.48v-5.43h-1.48v1.21a2.59,2.59,0,0,1-2.53,2.89A2,2,0,0,1,97,456.08v-3.6Zm8.18-1.14v4.08a2.6,2.6,0,0,1-2.53,2.89,2,2,0,0,1-2.15-2.23v-8.32h-3.83v1.13h2.35v7.58a2.91,2.91,0,0,0,3.1,3.22,3.13,3.13,0,0,0,3.06-1.8v1.75h1.47v-8.3ZM123,461.81v1.13h-4.27c-1.65,0-3-.53-3-2.46s2.06-2.59,3.69-3.4c.92-.44,2.18-.92,2.16-2.43a2,2,0,0,0-2.18-2.07,1.93,1.93,0,0,0-2.17,1.85h-1.47c.09-1.84,1.33-3.12,3.64-3.12A3.37,3.37,0,0,1,123,454.6c0,2.55-2.06,3.33-2.87,3.71-1.5.74-3,1.26-3,2.29,0,.64.44,1.21,1.57,1.21Zm8.23-10.47v4.08a2.6,2.6,0,0,1-2.53,2.89,2,2,0,0,1-2.15-2.23v-8.32h-3.83v1.13H125v7.58a2.91,2.91,0,0,0,3.09,3.22,3.11,3.11,0,0,0,3.06-1.8v1.75h1.48v-8.3ZM151,456c0-1.83-1.06-3.65-5-3.89v-4.33h-1.49c-2,0-3.8.77-3.8,2.84,0,1.87,1.65,2.61,3.8,2.76v5c-2.24-.18-3.81-1.15-3.75-2.69h-1.51c-.08,2.67,2.78,4,5.87,4.08S151,458.62,151,456Zm-8.84-5.46c0-.8.66-1.38,2.31-1.4V452C142.84,451.93,142.18,451.54,142.18,450.52Zm7.34,5.46c0,1.62-1.51,2.28-3.54,2.39v-4.94C148.37,453.58,149.53,454.35,149.52,456Zm8-4.69a3.2,3.2,0,0,0-3.14,1.78v-5.31h-1.47V463h1.47V455.2a2.57,2.57,0,0,1,2.59-2.53,2,2,0,0,1,2.22,2.23v4.74h1.47v-5.13A2.93,2.93,0,0,0,157.5,451.29Zm15,9.33h-7.4V458a3.41,3.41,0,0,0,3.11,1.68,3.86,3.86,0,0,0,3.94-4.18,3.91,3.91,0,0,0-4-4.22,3.37,3.37,0,0,0-3.08,1.7v-1.65h-1.47v9.28h-1.23v1.11h1.23V463h1.47v-1.23h7.4Zm-4.62-8.09a2.95,2.95,0,1,1-2.78,2.94A2.77,2.77,0,0,1,167.91,452.53Zm12.72-1.19v4.08a2.6,2.6,0,0,1-2.53,2.89,2,2,0,0,1-2.15-2.23v-4.74h-1.46v5.13a2.89,2.89,0,0,0,3.07,3.22,3.13,3.13,0,0,0,3.07-1.8v1.75h1.47v-8.3Zm14.47,7.17h-2.35v-4a2.94,2.94,0,0,0-3.14-3.22,3.2,3.2,0,0,0-3.14,1.78v-1.73H185v8.3h1.48V455.2a2.56,2.56,0,0,1,2.59-2.53,2,2,0,0,1,2.21,2.23V463h1.48v-3.32h2.35Zm10.58-8.57a3.85,3.85,0,0,0-3.14,1.52v-3.7h-1.49v11.88h1.49v-3.25h0v-1.82a3,3,0,0,1,3.13-3.28c2,0,3.15,1.38,3.15,3.42v1.4h1.51v-1.4C210.34,451.86,208.69,449.94,205.68,449.94Zm13.29,1.4v4.08a2.59,2.59,0,0,1-2.52,2.89,2,2,0,0,1-2.16-2.23v-8.32h-3.83v1.13h2.36v7.58a2.91,2.91,0,0,0,3.09,3.22,3.11,3.11,0,0,0,3.06-1.8v1.75h1.48v-8.3Zm13.55,9.28h-7.39V458a3.39,3.39,0,0,0,3.11,1.68,3.87,3.87,0,0,0,3.94-4.18,3.91,3.91,0,0,0-4-4.22,3.36,3.36,0,0,0-3.08,1.7v-1.65h-1.48v9.28h-1.22v1.11h1.22V463h1.48v-1.23h7.39Zm-4.61-8.09a2.95,2.95,0,1,1-2.78,2.94A2.77,2.77,0,0,1,227.91,452.53Zm17.64-1.19V456a2.41,2.41,0,0,1-2.26,2.36c-1.22,0-1.8-.84-1.8-2.25v-4.74H240v4.1c0,1.64-.84,2.84-2.27,2.89-1.21,0-1.81-.84-1.81-2.25v-4.74h-1.46v5.13c0,2,1,3.22,2.77,3.22a2.85,2.85,0,0,0,2.9-2.1,2.53,2.53,0,0,0,2.64,2.1,2.79,2.79,0,0,0,2.76-1.73v1.68H247v-8.3Zm14.14-3.58h-3.83v7.66a2.6,2.6,0,0,1-2.53,2.89,2,2,0,0,1-2.15-2.23v-4.74h-1.46v5.13a2.9,2.9,0,0,0,3.08,3.22,3.08,3.08,0,0,0,3.06-1.8v1.75h1.46V448.89h2.37Zm16,8.22c0-1.83-1.07-3.65-5-3.89v-4.33h-1.49c-2,0-3.8.77-3.8,2.84,0,1.87,1.65,2.61,3.8,2.76v5c-2.24-.18-3.81-1.15-3.75-2.69H263.9c-.08,2.67,2.78,4,5.87,4.08S275.71,458.62,275.69,456Zm-8.84-5.46c0-.8.66-1.38,2.31-1.4V452C267.51,451.93,266.85,451.54,266.85,450.52Zm7.33,5.46c0,1.62-1.5,2.28-3.53,2.39v-4.94C273,453.58,274.2,454.35,274.18,456Zm8-4.69a3.2,3.2,0,0,0-3.14,1.78v-1.73h-1.48v8.3H279V455.2a2.56,2.56,0,0,1,2.59-2.53,2.05,2.05,0,0,1,2.22,2.23v4.74h1.47v-5.13A2.94,2.94,0,0,0,282.17,451.29Zm12.12,0v4.08a2.6,2.6,0,0,1-2.53,2.89,2,2,0,0,1-2.15-2.23v-8.32h-3.83v1.13h2.35v7.58a2.91,2.91,0,0,0,3.1,3.22,3.13,3.13,0,0,0,3.06-1.8v1.75h1.47v-8.3Zm14.47,7.17h-2.35v-4a2.94,2.94,0,0,0-3.14-3.22,3.2,3.2,0,0,0-3.14,1.78v-1.73h-1.48v8.3h1.48V455.2a2.56,2.56,0,0,1,2.59-2.53,2,2,0,0,1,2.21,2.23V463h1.48v-3.32h2.35Z"/><path class="cls-17" d="M53.3,478.71l3.31-3.39c1.21-1.26,2-2.52,2-3.58,0-1.67-1.41-2.72-3.53-2.72a6.39,6.39,0,0,0-3.94,1.52l.64,1.15a4.88,4.88,0,0,1,3.11-1.34c1.35,0,2.15.6,2.15,1.59a4.43,4.43,0,0,1-1.5,2.56l-4.26,4.41v1.16h7.94v-1.36ZM64.81,469c-2.18,0-3.56,1-3.56,2.75A2.59,2.59,0,0,0,63,474.2,2.94,2.94,0,0,0,60.71,477c0,1.93,1.59,3.12,4.11,3.12s4.12-1.21,4.12-3.16a2.9,2.9,0,0,0-2.25-2.79,2.53,2.53,0,0,0,1.7-2.39C68.39,470.07,67,469,64.81,469Zm0,1.1c1.45,0,2.28.66,2.28,1.77s-.83,1.79-2.28,1.79-2.29-.66-2.29-1.79S63.38,470.12,64.82,470.12Zm0,4.76c1.69,0,2.7.75,2.7,2s-1,2.07-2.69,2.07-2.68-.77-2.68-2.09S63.13,474.88,64.81,474.88Zm6.6,3.53a.86.86,0,0,0-.86.89.87.87,0,0,0,.86.91.86.86,0,0,0,.85-.91A.85.85,0,0,0,71.41,478.41ZM78.72,469c-3,0-4.6,2-4.6,5.56s1.63,5.57,4.6,5.57,4.6-2,4.6-5.57S81.67,469,78.72,469Zm0,1.19c2,0,3,1.45,3,4.37s-1,4.36-3,4.36-3-1.46-3-4.36S76.71,470.21,78.72,470.21Zm8,8.5,3.31-3.39c1.21-1.26,2-2.52,2-3.58,0-1.67-1.41-2.72-3.53-2.72a6.39,6.39,0,0,0-3.94,1.52l.64,1.15a4.88,4.88,0,0,1,3.11-1.34c1.35,0,2.15.6,2.15,1.59a4.43,4.43,0,0,1-1.5,2.56l-4.26,4.41v1.16h7.95v-1.36Zm8.13-.3a.86.86,0,0,0-.86.89.87.87,0,0,0,.86.91.86.86,0,0,0,.85-.91A.85.85,0,0,0,94.9,478.41Zm4.2.3,3.31-3.39c1.21-1.26,2-2.52,2-3.58,0-1.67-1.41-2.72-3.53-2.72A6.39,6.39,0,0,0,97,470.54l.64,1.15a4.88,4.88,0,0,1,3.11-1.34c1.35,0,2.15.6,2.15,1.59a4.45,4.45,0,0,1-1.51,2.56l-4.25,4.41v1.16h7.94v-1.36ZM111.28,469c-3,0-4.6,2-4.6,5.56s1.64,5.57,4.6,5.57,4.6-2,4.6-5.57S114.23,469,111.28,469Zm0,1.19c2,0,3,1.45,3,4.37s-1,4.36-3,4.36-3-1.46-3-4.36S109.27,470.21,111.28,470.21Zm8,8.5,3.32-3.39c1.21-1.26,2-2.52,2-3.58,0-1.67-1.41-2.72-3.53-2.72a6.39,6.39,0,0,0-3.94,1.52l.64,1.15a4.88,4.88,0,0,1,3.11-1.34c1.35,0,2.15.6,2.15,1.59a4.45,4.45,0,0,1-1.51,2.56l-4.25,4.41v1.16h7.94v-1.36ZM131.52,469c-3,0-4.6,2-4.6,5.56s1.63,5.57,4.6,5.57,4.6-2,4.6-5.57S134.47,469,131.52,469Zm0,1.19c2,0,3,1.45,3,4.37s-1,4.36-3,4.36-3-1.46-3-4.36S129.51,470.21,131.52,470.21Z"/><rect class="cls-20" x="31.06" y="310.31" width="336.47" height="66.17" rx="10.65"/><path class="cls-16" d="M64.67,334.78H61.9v-2.53a4.28,4.28,0,0,0-4.66-4.6,4.26,4.26,0,0,0-4.63,4.6v2h1.51v-2A2.91,2.91,0,0,1,57.24,329a3,3,0,0,1,3.16,3.23v7.4h1.5v-3.5h2.77Zm12.14-3.44V336a2.41,2.41,0,0,1-2.26,2.35c-1.22,0-1.8-.83-1.8-2.25v-4.74H71.29v4.1c0,1.65-.85,2.84-2.28,2.89-1.21,0-1.81-.83-1.81-2.25v-4.74H65.74v5.14c0,2,1,3.22,2.77,3.22a2.84,2.84,0,0,0,2.9-2.11,2.53,2.53,0,0,0,2.64,2.11A2.8,2.8,0,0,0,76.81,338v1.68h1.46v-8.31ZM80.64,342c2.5-1,.41-3.58.41-6.28v-4.38h1.47v4.56c.07,2.51,2.72,6.34-1.88,7.17Zm23.41-9.51v-1.13H97.38v-3.6h0a8.9,8.9,0,0,1-4.1.11c-3.23-1.14-5.13,1.05-3.66,2.75,1.24,1.23,2.12,2.12,2.12,3.78v1a2.6,2.6,0,0,1-2.52,2.89A2,2,0,0,1,87,336.05v-4.74H85.58v5.14a2.9,2.9,0,0,0,3.08,3.21,3.06,3.06,0,0,0,3.06-1.8v1.74H93.2v-5.18a3.9,3.9,0,0,0-1.62-3.63c-1.74-1.41-1-2.62,1.45-1.79a6,6,0,0,0,2.87.13v7.35A2.9,2.9,0,0,0,99,339.7a3.11,3.11,0,0,0,3.06-1.81v1.76h1.47v-5.43H102v1.2a2.59,2.59,0,0,1-2.53,2.89,2,2,0,0,1-2.13-2.23v-3.59Zm8.17-1.15v4.08a2.59,2.59,0,0,1-2.52,2.89,2,2,0,0,1-2.15-2.23v-8.32h-3.84v1.13h2.36v7.59a2.91,2.91,0,0,0,3.09,3.22,3.1,3.1,0,0,0,3.06-1.81v1.76h1.48v-8.31Zm11.07,10.48V343H119c-1.64,0-3-.54-3-2.47s2-2.59,3.68-3.39c.93-.44,2.19-.93,2.17-2.43a2,2,0,0,0-2.18-2.08,1.93,1.93,0,0,0-2.17,1.86h-1.47c.09-1.84,1.33-3.13,3.64-3.13a3.37,3.37,0,0,1,3.66,3.3,4,4,0,0,1-2.88,3.7c-1.49.74-3,1.26-3,2.3,0,.64.44,1.21,1.57,1.21Zm8.24-10.48v4.08a2.6,2.6,0,0,1-2.53,2.89,2,2,0,0,1-2.15-2.23v-8.32H123v1.13h2.35v7.59a2.91,2.91,0,0,0,3.1,3.22,3.11,3.11,0,0,0,3.06-1.81v1.76H133v-8.31ZM151.37,336c0-1.84-1.07-3.66-5-3.89v-4.34h-1.49c-2,0-3.8.77-3.8,2.85,0,1.86,1.65,2.6,3.8,2.76v5c-2.24-.17-3.82-1.15-3.75-2.68h-1.51c-.08,2.67,2.78,4,5.87,4.08S151.39,338.63,151.37,336Zm-8.84-5.46c0-.8.66-1.39,2.31-1.4V332C143.19,331.94,142.53,331.55,142.53,330.53Zm7.33,5.46c0,1.62-1.5,2.28-3.53,2.39v-4.95C148.72,333.59,149.88,334.36,149.86,336Zm14.27-4.65V336a2.41,2.41,0,0,1-2.26,2.35c-1.22,0-1.8-.83-1.8-2.25v-4.74H158.6v4.1c0,1.65-.84,2.84-2.27,2.89-1.21,0-1.81-.83-1.81-2.25v-4.74h-1.46v5.14c0,2,1,3.22,2.77,3.22a2.84,2.84,0,0,0,2.9-2.11,2.53,2.53,0,0,0,2.64,2.11,2.81,2.81,0,0,0,2.76-1.73v1.68h1.46v-8.31Zm10.62,0v4.08a2.6,2.6,0,0,1-2.53,2.89,2,2,0,0,1-2.15-2.23v-8.32h-3.83v1.13h2.36v7.59a2.91,2.91,0,0,0,3.09,3.22,3.11,3.11,0,0,0,3.06-1.81v1.76h1.48v-8.31Zm14.48,7.18h-2.36v-4a2.93,2.93,0,0,0-3.14-3.21,3.19,3.19,0,0,0-3.14,1.77v-1.73h-1.47v8.31h1.47V335.2a2.56,2.56,0,0,1,2.59-2.52,2,2,0,0,1,2.22,2.23v8h1.47v-3.31h2.36Zm9.1,3.31V331.34h-1.48V333a3.37,3.37,0,0,0-3.12-1.7,4.23,4.23,0,0,0,0,8.45,3.36,3.36,0,0,0,3.09-1.7V343h3.83v-1.13ZM194,338.47a2.78,2.78,0,0,1-2.81-3,2.8,2.8,0,0,1,2.81-3,3,3,0,0,1,0,5.92Zm24.35-10.71h-4.27v7.4a3.14,3.14,0,1,1-6.28,0v-7.4h-1.51v7.4c0,2.87,1.76,4.6,4.66,4.6a4.26,4.26,0,0,0,4.64-4.6v-6h2.76Zm8.92,4.73v-1.13h-6.69v-3.6h-1.46v8.72a2.9,2.9,0,0,0,3.08,3.22,3.11,3.11,0,0,0,3.06-1.81v1.76h1.47v-5.43H225.3v1.2a2.6,2.6,0,0,1-2.53,2.89,2,2,0,0,1-2.15-2.23v-3.59Zm8.17-1.15v4.08a2.6,2.6,0,0,1-2.53,2.89,2,2,0,0,1-2.15-2.23v-8.32H227v1.13h2.36v7.59a2.91,2.91,0,0,0,3.09,3.22,3.1,3.1,0,0,0,3.06-1.81v1.76H237v-8.31Zm12.34,1.15v-1.13h-6.69v-3.6h-1.45v8.72a2.89,2.89,0,0,0,3.07,3.22,3.1,3.1,0,0,0,3.06-1.81v1.76h1.48v-5.43h-1.48v1.2a2.59,2.59,0,0,1-2.52,2.89,2,2,0,0,1-2.16-2.23v-3.59ZM251,341c0-.8,1.24-1.19,3-2,2-.93,3.16-2,3.13-4.27a3.5,3.5,0,0,0-3.83-3.39c-2.42,0-3.71,1.52-3.69,3.36s1.43,2.19,1.93,2.73c.3.33.23.8-.5,1.52-.9.52-1.53,1.13-1.53,2.06,0,1.71,1.12,2,2.86,2h4.68v-1.13h-4.57C251.69,341.86,251,341.63,251,341Zm2-4.06c-.34-.82-1.9-.55-1.9-2.28a2.12,2.12,0,0,1,2.25-2,2.19,2.19,0,0,1,2.32,2.18c.06,1.85-1.11,2.56-2.42,3.12l-.44.19A1.35,1.35,0,0,0,253,336.89Zm24.65-4.4v-1.13H271v-3.6h0a8.9,8.9,0,0,1-4.1.11c-3.23-1.14-5.13,1.05-3.66,2.75,1.24,1.23,2.12,2.12,2.12,3.78v1a2.6,2.6,0,0,1-2.53,2.89,2,2,0,0,1-2.15-2.22v-4.74h-1.46v5.14a2.9,2.9,0,0,0,3.08,3.21,3.06,3.06,0,0,0,3.06-1.8v1.74h1.48v-5.18a3.9,3.9,0,0,0-1.62-3.63c-1.74-1.41-1.05-2.62,1.45-1.79a6,6,0,0,0,2.87.13v7.35a2.89,2.89,0,0,0,3.08,3.22,3.11,3.11,0,0,0,3.06-1.81v1.76h1.47v-5.43h-1.47v1.2a2.59,2.59,0,0,1-2.53,2.89,2,2,0,0,1-2.14-2.23v-3.59Zm8.17-1.15v4.08a2.6,2.6,0,0,1-2.53,2.89,2,2,0,0,1-2.15-2.23v-8.32h-3.83v1.13h2.36v7.59a2.91,2.91,0,0,0,3.09,3.22,3.1,3.1,0,0,0,3.06-1.81v1.76h1.48v-8.31Zm15.36,3.1H299.6c0-2.12-1.86-3.19-4-3.19a4.71,4.71,0,0,0-3.95,1.85v-1.76H290.2V343h1.47v-7.39c0-1.49,1.7-2.91,3.52-2.91,1.45,0,2.66.57,2.89,1.78h-1.46c-1.84,0-3,.94-3,2.55s1.24,2.71,3.08,2.71A2.71,2.71,0,0,0,299.6,337v-1.41h1.59ZM298.13,337a1.39,1.39,0,0,1-1.54,1.54,1.53,1.53,0,0,1-1.71-1.5,1.44,1.44,0,0,1,1.54-1.46h1.71Zm10.41-1.83v-7.4H307v7.4c0,2.87,1.75,4.6,4.66,4.6a4.25,4.25,0,0,0,4.63-4.6v-7.4h-1.51v7.4a3.14,3.14,0,1,1-6.28,0Zm16.1-7.51c-3.49,0-5.59,1.75-5.59,4.6v2h1.51v-2c0-1.93,1.38-3,3.34-3.2v6.83h1.51v-6.81a3.35,3.35,0,0,1,3.36,3.18v7.4h1.52v-7.4C330.29,329.4,328.16,327.65,324.64,327.65Zm10,10.62v-6a3.14,3.14,0,1,1,6.28,0v2.09h1.51v-2.09a4.65,4.65,0,0,0-9.3,0v7.4h9.73v-1.38Z"/><path class="cls-17" d="M55.72,353.75l-.66-.05,3.69-3.65v-1H51.68l0,1.36h5.07l-3.38,3.33v1H54.9c1.84,0,2.94.68,2.94,2s-1.07,2.14-2.89,2.14a5.23,5.23,0,0,1-3.14-1.08L51.16,359A7.3,7.3,0,0,0,55,360.16c2.62,0,4.27-1.43,4.27-3.47C59.31,354.93,57.87,353.88,55.72,353.75Zm4.49-4.66v1.36H62.7v9.63h1.51v-11Zm7.33,9.32a.91.91,0,1,0,.85.9A.86.86,0,0,0,67.54,358.41Zm7.3-9.39c-3,0-4.6,2-4.6,5.56s1.64,5.58,4.6,5.58,4.6-2,4.6-5.58S77.79,349,74.84,349Zm0,1.2c2,0,3,1.44,3,4.36s-1,4.37-3,4.37-3-1.46-3-4.37S72.83,350.22,74.84,350.22Zm5.58-1.13v1.36h2.49v9.63h1.51v-11Zm7.33,9.32a.91.91,0,1,0,.85.9A.86.86,0,0,0,87.75,358.41Zm4.19.3,3.31-3.39c1.21-1.26,2-2.51,2-3.58,0-1.66-1.42-2.72-3.54-2.72a6.41,6.41,0,0,0-3.94,1.53l.65,1.14a4.85,4.85,0,0,1,3.1-1.33c1.36,0,2.16.6,2.16,1.59a4.43,4.43,0,0,1-1.51,2.55L90,358.92v1.16h8v-1.37ZM104.13,349c-3,0-4.6,2-4.6,5.56s1.63,5.58,4.6,5.58,4.6-2,4.6-5.58S107.08,349,104.13,349Zm0,1.2c2,0,3,1.44,3,4.36s-1,4.37-3,4.37-3-1.46-3-4.37S102.12,350.22,104.13,350.22Zm8.05,8.49,3.31-3.39c1.21-1.26,2-2.51,2-3.58,0-1.66-1.41-2.72-3.53-2.72a6.41,6.41,0,0,0-3.94,1.53l.65,1.14a4.82,4.82,0,0,1,3.1-1.33c1.35,0,2.15.6,2.15,1.59a4.41,4.41,0,0,1-1.5,2.55l-4.26,4.42v1.16h8v-1.37ZM124.37,349c-3,0-4.6,2-4.6,5.56s1.63,5.58,4.6,5.58,4.6-2,4.6-5.58S127.32,349,124.37,349Zm0,1.2c2,0,3,1.44,3,4.36s-1,4.37-3,4.37-3.05-1.46-3.05-4.37S122.36,350.22,124.37,350.22Z"/></svg>